<svg viewBox="0 0 330 200" xmlns="http://www.w3.org/2000/svg"><g><g><g><g><g><line x1="39.15625" y1="177.828125" x2="34.15625" y2="177.828125" style="visibility: inherit;" fill="rgb(0, 0, 0)" stroke="rgb(204, 204, 204)" stroke-width="1px"></line><line x1="39.15625" y1="152.42410714285714" x2="34.15625" y2="152.42410714285714" style="visibility: inherit;" fill="rgb(0, 0, 0)" stroke="rgb(204, 204, 204)" stroke-width="1px"></line><line x1="39.15625" y1="127.02008928571429" x2="34.15625" y2="127.02008928571429" style="visibility: inherit;" fill="rgb(0, 0, 0)" stroke="rgb(204, 204, 204)" stroke-width="1px"></line><line x1="39.15625" y1="101.61607142857143" x2="34.15625" y2="101.61607142857143" style="visibility: inherit;" fill="rgb(0, 0, 0)" stroke="rgb(204, 204, 204)" stroke-width="1px"></line><line x1="39.15625" y1="76.21205357142858" x2="34.15625" y2="76.21205357142858" style="visibility: inherit;" fill="rgb(0, 0, 0)" stroke="rgb(204, 204, 204)" stroke-width="1px"></line><line x1="39.15625" y1="50.80803571428571" x2="34.15625" y2="50.80803571428571" style="visibility: inherit;" fill="rgb(0, 0, 0)" stroke="rgb(204, 204, 204)" stroke-width="1px"></line><line x1="39.15625" y1="25.40401785714286" x2="34.15625" y2="25.40401785714286" style="visibility: inherit;" fill="rgb(0, 0, 0)" stroke="rgb(204, 204, 204)" stroke-width="1px"></line><line x1="39.15625" y1="0" x2="34.15625" y2="0" style="visibility: inherit;" fill="rgb(0, 0, 0)" stroke="rgb(204, 204, 204)" stroke-width="1px"></line></g><g transform="translate(29.15625, 0)"><text x="0" y="177.828125" dx="0em" dy="0.3em" style="text-anchor: end; visibility: hidden; font-family: &quot;Helvetica Neue&quot;, sans-serif; font-size: 12px; font-weight: 200;" fill="rgb(50, 49, 63)" stroke="none" stroke-width="1px">300</text><text x="0" y="152.42410714285714" dx="0em" dy="0.3em" style="text-anchor: end; visibility: inherit; font-family: &quot;Helvetica Neue&quot;, sans-serif; font-size: 12px; font-weight: 200;" fill="rgb(50, 49, 63)" stroke="none" stroke-width="1px">350</text><text x="0" y="127.02008928571429" dx="0em" dy="0.3em" style="text-anchor: end; visibility: inherit; font-family: &quot;Helvetica Neue&quot;, sans-serif; font-size: 12px; font-weight: 200;" fill="rgb(50, 49, 63)" stroke="none" stroke-width="1px">400</text><text x="0" y="101.61607142857143" dx="0em" dy="0.3em" style="text-anchor: end; visibility: inherit; font-family: &quot;Helvetica Neue&quot;, sans-serif; font-size: 12px; font-weight: 200;" fill="rgb(50, 49, 63)" stroke="none" stroke-width="1px">450</text><text x="0" y="76.21205357142858" dx="0em" dy="0.3em" style="text-anchor: end; visibility: inherit; font-family: &quot;Helvetica Neue&quot;, sans-serif; font-size: 12px; font-weight: 200;" fill="rgb(50, 49, 63)" stroke="none" stroke-width="1px">500</text><text x="0" y="50.80803571428571" dx="0em" dy="0.3em" style="text-anchor: end; visibility: inherit; font-family: &quot;Helvetica Neue&quot;, sans-serif; font-size: 12px; font-weight: 200;" fill="rgb(50, 49, 63)" stroke="none" stroke-width="1px">550</text><text x="0" y="25.40401785714286" dx="0em" dy="0.3em" style="text-anchor: end; visibility: inherit; font-family: &quot;Helvetica Neue&quot;, sans-serif; font-size: 12px; font-weight: 200;" fill="rgb(50, 49, 63)" stroke="none" stroke-width="1px">600</text><text x="0" y="0" dx="0em" dy="0.3em" style="text-anchor: end; visibility: hidden; font-family: &quot;Helvetica Neue&quot;, sans-serif; font-size: 12px; font-weight: 200;" fill="rgb(50, 49, 63)" stroke="none" stroke-width="1px">650</text></g><line x1="39.15625" y1="0" x2="39.15625" y2="177.828125" fill="rgb(0, 0, 0)" stroke="rgb(204, 204, 204)" stroke-width="1px"></line></g></g><g transform="translate(39, 0)" clip-path="url(#clip_0)"><clipPath id="clip_0"><rect width="290" height="177"></rect></clipPath><g><g><g><line x1="0" y1="0" x2="0" y2="177.828125" fill="rgb(0, 0, 0)" stroke="rgb(60, 60, 60)" stroke-width="1px" opacity="0.25"></line><line x1="36.35546875" y1="0" x2="36.35546875" y2="177.828125" fill="rgb(0, 0, 0)" stroke="rgb(60, 60, 60)" stroke-width="1px" opacity="0.25"></line><line x1="72.7109375" y1="0" x2="72.7109375" y2="177.828125" fill="rgb(0, 0, 0)" stroke="rgb(60, 60, 60)" stroke-width="1px" opacity="0.25"></line><line x1="109.06640625" y1="0" x2="109.06640625" y2="177.828125" fill="rgb(0, 0, 0)" stroke="rgb(60, 60, 60)" stroke-width="1px" opacity="0.25"></line><line x1="145.421875" y1="0" x2="145.421875" y2="177.828125" fill="rgb(0, 0, 0)" stroke="rgb(60, 60, 60)" stroke-width="1px" opacity="0.25"></line><line x1="181.77734375" y1="0" x2="181.77734375" y2="177.828125" fill="rgb(0, 0, 0)" stroke="rgb(60, 60, 60)" stroke-width="1px" opacity="0.25"></line><line x1="218.1328125" y1="0" x2="218.1328125" y2="177.828125" fill="rgb(0, 0, 0)" stroke="rgb(60, 60, 60)" stroke-width="1px" opacity="0.25"></line><line x1="254.48828125" y1="0" x2="254.48828125" y2="177.828125" fill="rgb(0, 0, 0)" stroke="rgb(60, 60, 60)" stroke-width="1px" opacity="0.25"></line><line x1="290.84375" y1="0" x2="290.84375" y2="177.828125" fill="rgb(0, 0, 0)" stroke="rgb(60, 60, 60)" stroke-width="1px" opacity="0.25"></line></g><g><line x1="0" y1="177.828125" x2="290.84375" y2="177.828125" fill="rgb(0, 0, 0)" stroke="rgb(60, 60, 60)" stroke-width="1px" opacity="0.25"></line><line x1="0" y1="152.42410714285714" x2="290.84375" y2="152.42410714285714" fill="rgb(0, 0, 0)" stroke="rgb(60, 60, 60)" stroke-width="1px" opacity="0.25"></line><line x1="0" y1="127.02008928571429" x2="290.84375" y2="127.02008928571429" fill="rgb(0, 0, 0)" stroke="rgb(60, 60, 60)" stroke-width="1px" opacity="0.25"></line><line x1="0" y1="101.61607142857143" x2="290.84375" y2="101.61607142857143" fill="rgb(0, 0, 0)" stroke="rgb(60, 60, 60)" stroke-width="1px" opacity="0.25"></line><line x1="0" y1="76.21205357142858" x2="290.84375" y2="76.21205357142858" fill="rgb(0, 0, 0)" stroke="rgb(60, 60, 60)" stroke-width="1px" opacity="0.25"></line><line x1="0" y1="50.80803571428571" x2="290.84375" y2="50.80803571428571" fill="rgb(0, 0, 0)" stroke="rgb(60, 60, 60)" stroke-width="1px" opacity="0.25"></line><line x1="0" y1="25.40401785714286" x2="290.84375" y2="25.40401785714286" fill="rgb(0, 0, 0)" stroke="rgb(60, 60, 60)" stroke-width="1px" opacity="0.25"></line><line x1="0" y1="0" x2="290.84375" y2="0" fill="rgb(0, 0, 0)" stroke="rgb(60, 60, 60)" stroke-width="1px" opacity="0.25"></line></g></g></g><g><g><line x1="0" y1="330.2522321428571" x2="290.84375" y2="330.2522321428571" fill="rgb(0, 0, 0)" stroke="rgb(153, 153, 153)" stroke-width="1.5px"></line></g></g><g><g><line x1="36.35546875" y1="0" x2="36.35546875" y2="177.828125" fill="rgb(0, 0, 0)" stroke="rgb(153, 153, 153)" stroke-width="1.5px"></line></g></g><g><g><g><g><g><path stroke="rgb(255, 112, 67)" stroke-width="2px" d="M47.116687500000005,-4.410724502530627L47.3348203125,6.105447942586039L47.552953125,2.4073204148788534L47.6256640625,13.137844311148768L47.9165078125,7.5312553935876565L48.352773437500005,19.717475989653764L48.643617187500006,23.53613108046804L48.934460937500006,19.835461529496712L49.51614843750001,10.864686311539032L49.661570312500004,16.700352649088956L50.025124999999996,20.670610394343385L51.624765624999995,50.36669243776383L51.6974765625,39.19740835894777L52.2791640625,31.207923670463828L52.351875,34.25420054802515L52.4245859375,55.13640656259001L52.497296874999996,59.112899442493344L53.078984375,63.29093202978258L53.151695312499996,50.121525088313064L53.22440625,38.9759565416328L53.5879609375,51.85418091579564L54.1696484375,59.66795188160509L54.242359375,65.62975211215254L54.96946875,72.17768204677606L55.0421796875,66.41859671040893L55.114890625,57.09118292204951L55.405734375,59.11906589118655L55.623867187500004,68.31285574870125L55.696578125,46.897174251571414L55.842,57.43274679315657L56.0601328125,44.895018243217436L56.205554687500005,53.19867489616941L56.569109375000004,61.210484081988724L56.7872421875,44.35751848525629L57.005375,55.37474330649013L57.150796875000005,61.73929308603202L57.3689296875,68.58065452375581L57.441640625000005,82.78190630765471L57.5870625,80.59526078898739L57.6597734375,81.57166939104728L57.6597734375,82.33866082902969L57.87790625,85.11143379883556L58.2414609375,75.85798139702945L58.895859375,75.47147834965304L58.968570312500006,82.50137332592779L59.404835937499996,84.75490865840283L59.62296875,81.81326707211255L59.6956796875,85.64549554011637L59.768390624999995,84.13155681449166L59.84110156249999,78.92012136199295L59.9138125,55.992887285579556L60.350078124999996,54.07529052477267L60.4955,72.55519109517192L60.640921875,73.11014558721352L60.713632812499995,81.50882572840058L60.8590546875,74.02350568898476L61.004476562499995,64.31909413168746L61.004476562499995,58.46418359845826L61.1498984375,66.37392814962325L61.36803125,66.17859417266321L62.3132734375,65.86838279143971L62.4586953125,81.69556946106638L62.6041171875,52.42877380118641L62.6041171875,35.07465749534637L62.8949609375,49.84664315781313L63.1858046875,51.27512173060798L63.3312265625,60.55725044685562L63.4766484375,72.29081012877882L63.69478125,71.08065622257455L63.840203125,79.23187883769685L64.131046875,92.5185162655L64.27646875,95.01554213834142L64.3491796875,96.47751228109968L64.3491796875,97.51026916751844L64.421890625,84.41668436798629L64.4946015625,97.56444644777454L64.712734375,91.84855128988141L64.85815625000001,64.89683493325674L64.9308671875,69.44642234547392L65.149,72.98597127707019L65.149,75.15175123199269L65.2217109375,85.36947457440506L65.3671328125,78.88034639952411L65.5125546875,73.86208427622044L65.6579765625,73.43055273335226L65.7306875,83.69611650634438L65.7306875,89.91849345116988L66.60321875,91.65284793063934L66.74864062500001,86.67605134653583L67.91201562500001,77.73895816998207L68.1301484375,76.33294389460397L68.202859375,75.79218645046217L68.42099218749999,85.26866533522133L68.7118359375,86.75119866162562L68.92996875,90.15801122186028L69.075390625,94.57330581540901L69.2935234375,92.91005130584347L69.36623437499999,95.76375332803994L69.58436718749999,89.09295255398777L69.657078125,89.1019314864637L70.1660546875,81.05923791823669L70.238765625,83.15967744463272L70.6023203125,92.22931983347883L70.67503125,93.27482709742705L71.0385859375,98.77593817761954L71.1840078125,97.42764474926668L71.3294296875,106.95512692676948L71.6202734375,100.26671523229462L71.692984375,108.1787644740456L71.9111171875,110.19917412675787L71.9111171875,111.54440027650898L72.12925,109.58644258911009L72.565515625,118.35604471780756L72.78364843749999,94.08258377692127L72.856359375,86.24401626902576L73.2199140625,96.50871097209136L73.292625,92.1783415467863L73.58346875,103.37325495531964L74.019734375,96.59228420771502L74.310578125,100.64611548813872L74.74684375,105.30721368342539L74.9649765625,112.58497761376356L75.1103984375,102.68967397616045L75.183109375,109.47780221022893L75.32853125,107.21157041544923L75.47395312500001,98.3307907491126L75.5466640625,94.36068124202649L75.6920859375,101.48861210345737L75.764796875,100.4327286345589L76.05564062500001,101.85076526192083L76.2737734375,93.57984543775727L76.4191953125,89.46829092855664L76.49190625,94.28971264601424L76.8554609375,95.50738281243589L77.0008828125,104.37410539895707L77.509859375,102.30826807946214L78.3096796875,94.5709872775348L78.382390625,77.92690114228643L78.52781250000001,73.3345733875726L78.52781250000001,70.23362999380366L78.6005234375,71.679710710581L79.25492187500001,74.44629086901044L79.69118750000001,83.10059273800259L79.69118750000001,88.12975953749846L79.9093203125,86.83723478678652L79.98203125,87.33766402270666L80.2001640625,98.84038639383986L81.14540625000001,90.93709035408695L81.2181171875,103.36519594894597L81.58167187500001,106.49845796297893L81.9452265625,104.47766420192065L82.0906484375,110.01618784991825L82.163359375,113.71291352106458L82.89046875,111.58930551838301L83.1086015625,115.58795053449695L83.3994453125,122.75313224391594L83.617578125,124.14080189491614L83.98113281250001,107.76848297454384L84.199265625,109.39257870030595L84.2719765625,110.19050426069784L84.56282031250001,107.47127456090043L84.7082421875,108.54738577906431L84.780953125,90.17813273958562L84.926375,110.05022965039983L84.926375,122.27496824220523L85.5807734375,108.58750905473737L86.1624609375,96.9805084862351L86.6714375,98.43778347984616L86.81685937499999,85.95096234385426L86.81685937499999,78.98591620265567L86.8895703125,76.86186641067594L86.96228124999999,92.63514507735822L87.7621015625,103.52735642780182L87.9075234375,107.8941067146959L88.0529453125,110.94205581261356L88.19836718750001,113.8547010898892L88.271078125,113.07996574594401L88.4165,106.08614930077687L88.561921875,103.6746033268912L88.70734374999999,98.13491232463467L89.579875,82.55133950206317L89.6525859375,90.21200154124733L90.016140625,104.1014936428183L90.306984375,112.20763811978608L90.3796953125,111.90328175329344L90.45240625,103.21822969607135L90.5251171875,72.26525010728948L90.888671875,86.24626138759409L91.179515625,103.84131275710828L91.68849218749999,113.3699150062983L91.761203125,114.10329926274241L91.83391406249999,122.51549019193152L92.7064453125,112.97233952858491L92.77915625,122.93770964279271L92.85186718749999,112.96363644557466L93.36084375,113.56288315802038L93.36084375,113.80921088617575L93.7243984375,108.72490863630664L93.94253125,101.06330577857703L94.087953125,75.4921394163301L94.378796875,95.96537108156947L94.669640625,106.02794083273163L94.669640625,112.2030526346226L94.8877734375,105.3048386657563L95.1786171875,104.70581380202336L95.4694609375,102.75346897012656L95.54217187500001,108.94455082635083L95.68759375,108.3649595885447L95.833015625,93.41151333988391L95.9784375,105.53236564498697L96.12385937500001,103.1801220291605L96.26928125,111.60914870054596L96.414703125,107.85339861091335L96.70554687500001,115.95467213163592L96.996390625,121.9925242169829L97.1418125,101.26917463303398L97.21452343749999,99.22875734874651L97.5053671875,118.91221834564493L97.79621093749999,120.05613026657275L97.9416328125,124.96939340205705L98.01434375000001,122.31735929911649L98.01434375000001,120.87858155095338L98.0870546875,120.38006971020897L98.2324765625,107.69920803902475L98.45060937500001,107.7438126717512L98.8141640625,101.32183126117098L99.17771875000001,95.41058825429607L99.32314062500001,111.16078651254031L99.3958515625,115.1899324215928L99.4685625,115.70040683356655L99.6866953125,124.15851581830137L99.75940625000001,116.23476052519973L99.8321171875,115.20464581576506L99.8321171875,114.5527256401374L100.05024999999999,119.83183591018368L100.5592265625,124.30924636019276L100.8500703125,116.40641604121333L101.068203125,116.09809109506492L101.35904687499999,115.56740053476808L101.35904687499999,115.02605601844911L101.7226015625,122.95274224165854L101.94073437499999,129.50522613973826L102.377,103.07725916450353L102.74055468750001,78.2571525655269L102.8859765625,100.30581771140909L103.24953124999999,116.10750232107239L103.394953125,118.75470824024299L103.540375,112.76963262836298L103.685796875,108.9769862845635L104.1947734375,115.04955816478106L104.267484375,113.37156116066151L104.4856171875,123.82252700336014L104.558328125,113.88930008960678L104.558328125,107.71736195444244L105.79441406250001,113.74667926416586L106.012546875,114.19650770454794L106.30339062499999,109.79450913126496L106.52152343750001,93.05683383242285L106.6669453125,84.4735765998295L106.73965625,83.0887135416194L106.8123671875,95.37797858546008L107.0305,99.40049584900382L107.10321093750001,108.41248277017498L107.175921875,121.52500007840835L107.32134375,113.55006627454921L107.8303203125,121.01773173773455L107.90303125,123.96597752835848L108.339296875,117.23042144852494L108.41200781250001,116.00990752075683L108.41200781250001,115.16058934942482L108.920984375,123.0588910667123L109.06640625,93.08591140808507L109.211828125,107.55466484651642L109.35725,108.33219108821643L109.502671875,114.760395964292L109.64809375,116.26220641903802L109.9389375,120.67823874661673L110.01164843749999,101.70358105227389L110.1570703125,106.01494044644089L110.22978125,123.49637487697358L110.375203125,126.76338059460629L110.520625,118.76065664503284L111.24773437500001,113.24030440484894L111.684,109.96497106127049L111.684,108.09506093069888L111.82942187500001,120.27013351167511L111.82942187500001,127.62204052679613L111.9021328125,122.62668969606516L111.97484375,126.13004237446282L112.120265625,128.22570297703714L112.2656875,126.88548269331372L112.4838203125,123.31675952020662L112.55653125,120.27362096088584L113.0655078125,107.8877912168862L113.2109296875,118.33927063816046L113.50177343749999,107.18566276447501L113.50177343749999,100.55687783969782L114.156171875,118.17396479062812L114.30159375000001,130.15039385196826L114.30159375000001,137.381849516137L114.447015625,121.23945296704133L114.5197265625,82.44453339608697L114.737859375,89.0872629192091L115.028703125,106.42300972034522L115.174125,115.71469419672653L115.2468359375,106.9337802718724L115.319546875,106.08864450480695L115.46496875000001,111.95376646711411L115.8285234375,113.09989598430724L115.901234375,119.66256913388007L115.97394531249999,119.33165920188566L116.04665625000001,120.82246802588341L116.19207812500001,109.19471379053617L116.2647890625,105.91998980658748L116.5556328125,113.33497499684137L116.7010546875,114.27982420643522L117.21003125000001,116.21974771196713L117.35545312500001,100.09939354851032L117.4281640625,106.16229698508067L117.646296875,116.18272410779645L117.646296875,122.24470924255348L117.7190078125,125.89941520290688L117.8644296875,125.60890920344406L117.93714062500001,120.12078715174871L118.0098515625,113.61511194166657L118.0098515625,110.06668082880958L118.3006953125,114.4590245713301L118.37340624999999,124.38380859503192L118.5915390625,126.83855609970715L119.2459375,122.98484692864929L119.6094921875,118.98365117629359L119.827625,117.97076464768811L120.0457578125,124.36695022407254L120.1911796875,121.84654943851196L120.26389062499999,119.86527116189085L120.6274453125,128.91533434325265L120.70015624999999,122.3379982346268L120.7728671875,127.30876656217066L121.2091328125,116.52360815158812L121.5726875,110.31153361250611L121.9362421875,105.4811801947079L122.5179296875,118.38947085736866L123.17232812499999,101.3309632467123L123.2450390625,110.76663130038337L123.31774999999999,112.9821346449456L123.60859375,121.83286797677799L123.6813046875,126.54709502748699L123.8267265625,125.37681805055854L124.19028125,127.1798812416031L124.48112499999999,125.72316561204907L124.48112499999999,125.0164765189367L124.917390625,117.33048019378478L125.208234375,94.19808193951305L125.4263671875,94.49486022033535L125.4263671875,94.7966167220624L125.499078125,105.598609202113L125.5717890625,117.1109476241251L125.789921875,114.2172870808794L126.662453125,119.85705058616975L126.7351640625,124.9234411044615L127.09871875,129.05848256712204L127.17142968750001,128.2954466155557L127.31685156249999,95.12279476921661L127.31685156249999,75.21802525238168L127.825828125,100.48901064812436L128.0439609375,110.96072766049849L128.26209375,88.26506722461242L128.3348046875,97.2254732271581L128.407515625,108.00768066481051L128.48022656249998,106.71796312649514L128.91649218749998,109.80256008229618L129.0619140625,125.77517361989513L129.134625,119.955831718084L129.280046875,117.35387577852673L129.570890625,122.7986726209159L129.64360156249998,98.24449190262764L130.00715625,105.35967451060387L130.07986718749999,111.0099538860934L130.5161328125,118.13472921173503L130.5161328125,122.14654870268711L130.58884375,120.03956473982254L130.734265625,111.66669010350655L130.87968750000002,114.59055896981008L131.0978203125,120.59025387924407L131.6795078125,123.43367487622197L131.897640625,114.50789171292975L131.97035156249999,122.6142192697884L132.2611953125,115.30976414505525L132.479328125,122.06011039492675L132.69746093749998,122.25215115647684L132.8428828125,126.05037520032968L133.5699921875,118.32320906086727L133.7154140625,117.01769490891505L133.788125,115.37682095263398L133.93354687500002,120.75049554039578L134.1516796875,122.44959092023267L134.5879453125,109.82918068434176L134.8787890625,116.29147599984717L135.38776562500001,110.12011282289586L135.82403125000002,119.99096680371414L135.969453125,101.14509516663138L136.1875859375,115.99910857986342L136.4784296875,124.58345995774994L136.4784296875,129.5302432349562L136.551140625,107.8988696157479L136.551140625,94.59752729661811L136.9146953125,105.8526988055134L137.714515625,120.49992659967941L137.7872265625,122.78344542252387L137.7872265625,124.4178800641397L138.0780703125,125.30289124867144L138.441625,129.55467485900076L138.5143359375,137.17546534957842L138.9506015625,126.23859447540255L139.0233125,129.23886430340997L139.0960234375,131.5579231118355L139.16873437499999,132.2102044329844L139.2414453125,134.36888906952834L139.31415625,140.03833556977312L139.96855468750002,130.10239172054344L140.2593984375,94.02719042303823L140.69566406250001,89.01922047984483L140.768375,71.39653496909413L141.05921874999999,90.62829925228692L141.05921874999999,102.46399438618486L141.2773515625,110.43917075258669L141.4227734375,111.14205681425778L141.64090625,107.67702953849277L141.7136171875,105.05643498863346L141.78632812499998,117.58155916234335L142.368015625,126.9718917777056L142.4407265625,121.41150325139421L142.5134375,128.36849316297292L142.5134375,132.66810704378423L142.94970312499998,120.96906832946792L143.6041015625,124.6158780017701L144.18578906250002,120.2106226246225L144.47663281250001,133.65257901747458L144.47663281250001,141.87373699603427L144.6220546875,137.99513874085085L145.2037421875,135.92633666465912L145.3491640625,120.29668114482644L145.4945859375,123.44329811615177L145.56729687499998,111.12773058249012L145.64000781250002,114.32222116112214L145.71271875,112.52499198753196L145.7854296875,115.03564183820139L145.9308515625,121.22560603983227L146.0035625,118.79764226301157L146.36711718749999,123.85072420079837L146.5125390625,130.60267422842577L146.80338281250002,135.80093240483586L146.87609375,131.6237491859435L146.9488046875,130.46369094506392L147.2396484375,135.55579028986898L147.748625,135.52243982529728L147.82133593749998,119.97240019845336L147.894046875,128.10925125885996L147.96675781250002,103.65383949956123L148.5484453125,114.80576128466282L148.98471093749998,113.04051469861054L149.8572421875,113.0245006237797L150.36621875,127.9326636093055L150.4389296875,128.5450993628533L150.6570625,129.8199047584416L150.6570625,131.08130754012356L150.7297734375,128.63193391633837L150.8751953125,130.66021228091176L151.0206171875,112.92959630219748L151.1660390625,112.33404402530218L151.23875,113.10682552679278L151.8204375,116.37587078735427L152.256703125,120.3726770335916L152.4748359375,122.77421538044202L152.547546875,126.34964028445677L152.7656796875,136.47437414248893L152.91110156250002,134.8526839544439L153.7836328125,127.41803137573555L153.85634375,133.13435235336055L154.1471875,130.64100218851434L154.2198984375,101.79370912735247L154.29260937499998,114.07697649275582L154.36532031250002,111.9354456274912L154.36532031250002,110.53109845407042L155.0924296875,124.92944956054913L155.3105625,126.5496079469531L155.60140625,122.03739975068967L155.6741171875,124.79910836085081L155.74682812499998,131.87120212337868L156.037671875,117.85001150327963L156.4739375,126.6055321083974L156.5466484375,128.36177302109834L156.76478125,127.06971452916815L157.05562500000002,117.76535333319738L157.27375781249998,120.80854807638242L157.34646875,131.85269361393946L157.491890625,130.75282428080789L157.7100234375,130.15047106319213L157.92815625,110.45549756013904L158.364421875,111.93183563455928L158.50984375000002,121.54390620883444L159.0188203125,127.58318117723549L159.09153125,129.31600747375813L159.1642421875,115.8235196606465L159.23695312499999,115.07470023850914L159.4550859375,115.13277569479789L160.03677343750002,116.29989218537239L160.25490625,112.33652770973069L160.9093046875,118.63128938824599L161.05472656249998,127.23725420196963L161.1274375,124.89626541856424L161.3455703125,134.79641667988L161.563703125,124.17056971977664L161.70912500000003,117.48043253446781L161.7818359375,132.48542543603367L161.99996875000002,125.1987273456656L162.0726796875,127.85003872324756L162.29081250000002,111.86702559906084L162.5089453125,111.62624361653403L162.727078125,127.70949014542353L162.8725,120.9020442219674L163.0906328125,115.89906264724642L163.45418750000002,124.56379600858361L163.5268984375,130.63929791895808L163.890453125,125.79441007963064L164.03587499999998,128.4338517493339L164.1085859375,127.48474981553485L164.2540078125,132.30303056646235L164.83569531249998,146.10435485415965L164.90840624999998,137.20504973129982L165.1265390625,116.84934769025523L165.2719609375,129.5639539042009L165.344671875,127.45335305214144L165.8536484375,120.36924917411935L166.2899140625,123.3717703928819L166.508046875,123.93493648804846L166.9443125,123.86771152443829L166.9443125,124.23243294330155L167.16244531249998,137.26876501042673L167.23515625,132.35842526384187L167.7441328125,143.36005677682667L167.8895546875,132.07391537887503L167.96226562500001,132.0092633835576L168.0349765625,118.23563735894402L168.1076875,127.47801175213226L168.253109375,120.28102663615309L168.834796875,130.54706142171173L169.2710625,138.42982640468023L169.2710625,143.38931857066547L169.4891953125,137.88466770119356L169.7800390625,135.10292003599932L170.6525703125,120.060584904617L170.870703125,130.43246011395638L170.9434140625,132.95467383535905L171.6705234375,142.09643913550497L171.8159453125,141.9645434434612L171.9613671875,137.35702200429606L171.9613671875,134.6806851471141L172.034078125,128.27110481821404L172.25221093750002,120.51538305018659L172.324921875,121.50745957297954L172.3976328125,123.74169258698404L172.7611875,131.72561254468312L172.9793203125,134.78320707083367L173.197453125,129.2855539411173L173.488296875,125.71499146097949L173.63371874999999,130.45280750737732L173.779140625,118.41121112774357L174.21540625,122.58086082320028L174.28811718749998,133.2991758360048L174.4335390625,121.49190345518127L174.8698046875,121.32726329601351L175.0152265625,128.16904170323767L175.1606484375,118.5452589975983L175.23335937500002,130.3617832236148L175.5969140625,116.91389518888167L175.669625,134.17265806397336L175.74233593749997,114.06312731399174L176.25131249999998,108.65687739765495L176.833,124.58204667218321L176.978421875,126.67888583804417L177.269265625,135.76557607778204L178.141796875,138.12722494092844L178.21450781250002,132.22435910178152L178.21450781250002,128.6733983906256L178.5053515625,125.31228383821272L178.86890625,128.3689264776146L179.15975,128.90324474045931L179.37788281250002,128.54783825619313L179.5233046875,132.07768040885503L179.9595703125,123.06835298430053L180.17770312500002,126.97120793795409L180.39583593749998,131.48441244533296L181.050234375,141.83895692906592L181.19565625,135.0287629007039L181.55921093749998,122.51194234561206L181.77734375,127.40105743726575L181.92276562499998,118.6234479203934L182.0681875,129.64222213031397L182.1408984375,127.70375080170871L182.504453125,131.77725104778025L182.5771640625,126.82700818329461L182.94071875,131.61043416674295L183.01342968749998,120.26499428976223L183.08614062499998,139.24787564740905L183.3042734375,132.80725246080698L183.4496953125,135.5657109659251L183.4496953125,137.32589395244935L183.52240625,132.36434638646682L183.7405390625,133.5103175252438L184.54035937499998,117.79012359009747L185.122046875,127.05074376803294L185.34017968749998,136.1162132994376L185.34017968749998,141.4695517869702L185.412890625,132.83518874866093L185.70373437499998,134.41714404742743L187.81235156250003,138.00626356479592L188.32132812499998,132.78693854190576L188.3940390625,109.06277594862976L188.75759375,122.34158639459116L188.8303046875,135.08175795367626L188.903015625,137.06100679094354L188.97572656250003,146.32561968103758L189.0484375,140.6609903198225L189.1211484375,140.08902370282752L189.193859375,142.89050886106594L189.9936796875,129.67335757363244L190.2118125,127.80106916301494L190.2845234375,135.84666110862264L190.42994531250002,138.41718932046447L190.5753671875,127.84996416709906L191.01163281249998,128.8845097317309L191.30247656249998,123.50909498066628L191.4478984375,130.5442597690961L191.4478984375,134.57937468622572L191.81145312499999,138.4215118961514L192.0295859375,130.31733044701699L192.6112734375,133.78826975759878L192.82940625,134.35628623734124L192.974828125,136.51739075823465L193.26567187499998,127.35405455468968L193.3383828125,127.10077930242004L193.7019375,126.08306184425632L193.847359375,127.98865716346907L194.0654921875,135.19576611248226L194.2109140625,123.52791694179007L194.42904687499998,122.45959139846374L194.79260156249998,121.95503102969978L195.010734375,110.45900916500005L195.15615625,120.41049304902708L195.5197109375,133.322007903696L196.02868750000002,140.59808658905428L196.31953125,141.04969161734687L196.39224218750002,138.00869263633655L196.464953125,133.46278086707588L196.5376640625,133.9812669192716L196.6830859375,144.84138316792038L196.6830859375,151.4943964508708L197.41019531249998,138.9705661629332L197.41019531249998,131.53697040236722L197.48290625,117.72723506244347L197.7010390625,118.99274017687038L197.8464609375,121.52451928050839L198.791703125,134.07468609048698L199.00983593750001,140.19437941748447L199.1552578125,124.26210834049314L199.3006796875,127.15827486855805L199.5915234375,140.8989576786596L199.664234375,133.79733728365275L200.245921875,137.8561250754878L200.3186328125,135.64916080775257L200.97303125,140.4007971917874L201.0457421875,140.29804096548048L201.118453125,133.9057630395021L201.409296875,125.97451938528573L201.4820078125,128.02881323181842L201.7728515625,138.4385475755613L201.84556249999997,148.6639747154897L201.84556249999997,154.61897783270305L202.35453906249998,150.6896448063985L202.42725,146.9818425288281L202.7908046875,142.75028096448838L202.863515625,143.2460821981432L203.29978125,121.50233372135175L203.3724921875,134.1686471897725L203.445203125,132.3542805723169L203.51791406249998,139.70049537368104L203.95417968750002,131.95736963424716L204.608578125,120.9644156890217L205.11755468750002,126.96594750693632L205.33568749999998,129.48184958304535L205.62653125,121.75835139618516L205.917375,118.62804505772542L206.062796875,123.73117810340443L206.28092968750002,127.50661561012444L206.353640625,126.73707792036981L206.353640625,126.42290452156132L206.7171953125,125.2758081502537L207.517015625,127.87936773316977L207.66243749999998,136.34017664565226L207.8805703125,135.0934245669289L208.09870312500001,130.62628340564544L208.4622578125,135.76678314087786L208.60767968750002,147.47786818077392L208.82581249999998,140.95855853642018L208.971234375,142.1766368809725L209.0439453125,133.57524722334057L209.3347890625,130.8286324158176L209.4075,119.54149472931495L209.48021093749998,124.72502763865357L209.552921875,136.81269533445646L209.6256328125,123.54807832672893L209.69834375,129.7288706324466L209.69834375,133.55137259505284L209.98918749999999,136.26902039595558L210.0618984375,135.4823138216536L210.134609375,143.72252833706827L210.134609375,148.33283237416302L210.2073203125,147.18556802016607L210.28003124999998,137.94724407355682L210.35274218749998,138.8111975881073L210.42545312500002,116.83436150155995L210.64358593749998,122.0851761922306L210.86171875,138.90656184087024L210.93442968749997,147.103029192949L211.007140625,151.2476500020583L211.73425,143.47929308263843L211.80696093749998,142.51209507238752L212.02509375,134.06104589775904L212.3159375,109.40674060464754L212.75220312500002,116.00572354456868L213.40660156250001,123.95420154028928L213.4793125,122.66784746498428L214.061,124.28133957051713L214.20642187500002,130.85723532843963L214.2791328125,131.50717826643896L214.2791328125,131.58846908667698L215.0062421875,133.20150714224843L215.8787734375,132.44604321444365L215.951484375,134.79938164798733L216.4604609375,135.40584290066636L216.75130468749998,127.850612491978L217.0421484375,131.41916038110338L217.0421484375,133.40715796201687L217.18757031250001,125.16600454032832L217.26028125,124.18912113283608L217.26028125,123.49440379716816L217.7692578125,130.52333225458437L218.0601015625,139.04499577456463L218.859921875,135.65842724597135L219.07805468749999,138.0964644798634L219.2234765625,131.12258520036926L219.44160937499998,141.58382277898272L219.9505859375,135.23553751809766L220.02329687499997,136.3457542354069L220.02329687499997,137.4328739933577L220.314140625,130.14152157782524L220.9685390625,133.35394629477867L221.5502265625,135.70358166585297L221.768359375,122.80161621218878L221.9864921875,121.03803459297055L221.9864921875,119.90948498503909L222.204625,123.74017290554373L222.7136015625,128.94784807686594L222.7863125,128.4028626470839L223.00444531250002,140.3520715174975L223.07715625,135.4702123460541L223.9496875,124.44437243108737L224.095109375,136.97910062005988L224.6040859375,141.19936268799313L224.7495078125,136.03077816413952L225.40390625,126.28537279698662L225.69475,140.64354017218L225.84017187499998,133.57053544974352L226.4945703125,135.2375020728726L226.6399921875,134.90039246708605L226.6399921875,134.91882410874808L226.712703125,139.00829473009784L226.78541406250002,128.56022164135112L226.858125,110.6418121676807L227.00354687499998,124.76572830271851L227.00354687499998,132.90343753421723L227.43981250000002,132.67354789443607L227.65794531249998,141.14476658892167L227.8033671875,125.12806549087654L228.60318750000002,120.25788505345447L229.11216406249997,134.20882030579793L229.4030078125,128.8979409632116L229.6938515625,128.66352645035477L230.05740625,122.62639184394158L230.1301171875,125.6342558353209L230.63909375,136.30152186318332L230.78451562499998,132.0280013246099L231.14807031249998,134.9813489384253L231.22078125000002,141.89219462186605L231.2934921875,137.05660170157768L231.94789062499999,123.81640608821607L232.09331250000002,123.06527263961527L232.238734375,123.70788325692592L232.529578125,138.64871142889572L232.74771093750002,142.39935617884447L232.820421875,142.69897370737206L232.8931328125,147.5163543613382L233.1839765625,141.62496234149074L233.402109375,144.40952542321372L233.54753125000002,142.96469864473636L234.0565078125,138.9311632218542L234.12921875,138.71969680287222L234.2019296875,139.2455811290779L234.3473515625,137.57550491109805L234.71090625000002,138.00737209840094L234.92903906249998,148.14526898178403L235.36530468750001,151.09373058931368L235.728859375,151.52943773473532L235.9469921875,155.89723296315043L235.9469921875,158.64829795845404L236.09241406249998,145.15533893971474L236.310546875,143.57303338527836L236.52867968750002,156.0230910632279L236.74681249999998,151.53158556172562L236.8195234375,144.7265031978447L236.892234375,123.985035762265L237.3285,125.31799585583573L237.473921875,131.6898790172333L237.764765625,127.5620474970099L237.91018749999998,124.88649516189354L238.055609375,137.79297327991023L238.2737421875,147.3728028152754L238.4191640625,148.81679102874307L238.71000781249998,143.17130805328537L238.85542968750002,141.4051803812004L238.928140625,140.3010095337827L239.0008515625,139.4147829696331L239.07356249999998,141.7635252590312L239.36440624999997,139.89186281373958L239.4371171875,130.1273996521371L239.4371171875,124.09865872547763L239.65525,129.1729002262185L240.091515625,128.60336386162223L240.30964843750002,132.8826676231344L240.6004921875,136.77210230139355L240.67320312500001,138.17143359806897L241.03675781249999,134.25664190420707L241.10946875,144.21577165571657L241.6184453125,138.23522931433973L242.0547109375,129.7490080262259L242.127421875,133.6247695138731L242.27284375,140.8191520340336L242.34555468750003,143.42717528065313L242.709109375,148.21820026203724L242.7818203125,149.59200591270678L243.0726640625,139.36363127218985L243.581640625,137.91316401460435L244.01790624999998,133.290761080206L244.30875,134.74448338860648L244.3814609375,136.5175732652806L244.5268828125,140.866112121269L245.035859375,132.0509692169491L245.472125,128.90916800717667L245.6902578125,140.72569717620195L245.9811015625,140.38333929898113L246.34465624999999,146.961678046203L246.4173671875,133.3958485057962L246.63549999999998,135.29449787082916L246.78092187500002,144.0079921675397L246.99905468749998,140.27303522645332L247.071765625,139.97246658591905L247.4353203125,126.32398934660581L247.50803125,126.20966559206383L248.08971875,119.3893891978984L248.235140625,127.57268543349906L248.45327343749997,130.92064479074344L248.816828125,136.99233286160256L248.8895390625,130.77621755317804L249.32580468749998,134.6932693818737L249.4712265625,139.93983140952844L249.5439375,135.78630905428292L249.76207031250001,120.62667688426913L250.12562499999999,128.77159851272L250.41646875,128.29541351872996L250.48917968749998,136.38664019781197L250.56189062500002,144.5384158236171L250.7073125,135.57647055228009L250.78002343749998,147.43044060032383L251.0708671875,138.23380909187938L251.43442187500003,134.3296799618546L251.5071328125,138.81304996842832L251.7979765625,136.89693776096857L251.8706875,144.3380149253451L252.016109375,143.2043934382175L252.016109375,142.57195851602063L252.74321875,145.9824160616954L252.88864062500002,135.33019828116485L252.9613515625,138.92203881972955L253.0340625,143.28409858774924L253.10677343749998,140.11210237818318L253.470328125,139.21721344128804L254.1247265625,132.40158031217447L254.48828125,134.64242768712157L254.8518359375,136.78673472604686L254.9972578125,132.15927475613418L255.1426796875,132.93252650180412L255.215390625,137.32030052708956L255.3608125,141.3649408459081L255.5789453125,147.84635141757465L255.5789453125,151.32493155519566L255.65165625,147.34847052979708L255.72436718749998,129.58955345805856L255.86978906250002,126.72988753464783L256.37876562499997,134.18136598701884L256.5241875,136.80208885752242L256.669609375,135.98473387263635L257.251296875,130.04512183843082L257.3240078125,128.53999798295L257.4694296875,135.5507962129965L257.6148515625,136.15691304797087L257.90569531250003,138.01222570528228L258.1965390625,130.33922036972L258.26925,142.8332204983954L258.63280468749997,143.2476737977119L258.8509375,148.48669715233666L258.9236484375,150.48534881257683L259.14178125,141.16729502232218L259.2144921875,148.68194032265407L259.28720312499996,145.04183678357572L259.578046875,136.31895660483954L259.72346875,135.47991271368846L259.7961796875,135.20854612805616L259.868890625,138.75124578040598L259.9416015625,139.08363093142196L260.15973437499997,133.7364581690783L260.450578125,128.85535327429332L260.741421875,131.5910606676879L260.88684375,125.8187851727162L261.032265625,136.7304099041145L261.1776875,141.02678474883902L261.75937500000003,144.56192434422007L262.1229296875,149.63772609831847L262.1229296875,152.62297184281152L262.195640625,142.04555049961652L262.4137734375,139.95379311900558L262.486484375,153.3907393549413L262.63190625,139.471801548734L262.92275,145.01687078356255L263.068171875,143.73370329866796L263.21359375000003,150.58240326069927L263.359015625,152.8073409944619L263.5771484375,141.86372808191535L264.0134140625,138.64069435233176L264.3042578125,146.97768876389102L264.7405234375,140.57214172796523L264.95865625,141.49232114288878L265.685765625,139.79756869586507L265.8311875,140.40610300689545L265.976609375,136.09852787829064L265.976609375,133.5403977698908L266.267453125,123.34273721125959L266.849140625,127.3516423807065L267.28540625,137.55364974214896L267.6489609375,146.40006149162554L267.9398046875,137.14552666831688L268.1579375,139.31255093511575L268.9577578125,139.55546590140585" style="fill: none;" fill="none"></path></g></g></g></g><g opacity="0.20000000298023224"><g><g><g><path stroke="rgb(255, 112, 67)" stroke-width="2px" d="M45.5897578125,-59.520571877615794L45.807890625,8.69706179210118L46.0260234375,2.6925716045924446L46.1714453125,-11.51113356998988L46.24415625,-34.816715049743635L46.971265625,33.655361938476545L47.116687500000005,-10.900097476414288L47.3348203125,21.87970655168806L47.552953125,-3.1398708643232283L47.6256640625,29.233630134037583L47.9165078125,-0.8786279760088291L48.352773437500005,37.996806874956405L48.643617187500006,29.26411371503559L48.934460937500006,14.284457204001285L49.51614843750001,-2.591476513998856L49.661570312500004,25.453852154868002L50.025124999999996,26.62599701200213L51.624765624999995,94.91081550189426L51.6974765625,22.44348224094935L52.2791640625,19.22369663783482L52.351875,38.823615864345015L52.4245859375,86.45971558434623L52.497296874999996,65.07763876233783L53.078984375,69.55798091070993L53.151695312499996,30.367414676121314L53.22440625,22.257603721618665L53.5879609375,71.17151747703552L54.1696484375,71.38860833031791L54.242359375,74.57245245797294L54.96946875,81.99957694871085L55.0421796875,57.779968705858494L55.114890625,43.10006223951066L55.405734375,62.16089034489222L55.623867187500004,82.10354053497315L55.696578125,14.773652005876812L55.842,73.23610560553414L56.0601328125,26.088425418308816L56.205554687500005,65.65415987559729L56.569109375000004,73.22819786071777L56.7872421875,19.078070090157638L57.005375,71.90058053834099L57.150796875000005,71.28611775534493L57.3689296875,78.84269668034145L57.441640625000005,104.08378398350307L57.5870625,77.31529251098634L57.6597734375,83.03628229413714L57.6597734375,83.48914798600333L57.87790625,89.2705932535444L58.2414609375,61.97780279432024L58.895859375,74.89172377858843L58.968570312500006,93.04621579033989L59.404835937499996,88.1352116571154L59.62296875,77.4008046926771L59.6956796875,91.39383824212211L59.768390624999995,81.8606487260546L59.84110156249999,71.10296818324497L59.9138125,21.60203617095948L60.350078124999996,51.198895383562345L60.4955,100.27504195077078L60.640921875,73.94257732527596L60.713632812499995,94.10684594018119L60.8590546875,62.79552562986102L61.004476562499995,49.76247679574149L61.004476562499995,49.6818177986145L61.1498984375,78.23854497637068L61.36803125,65.88559320722308L62.3132734375,65.4030657196045L62.4586953125,105.43634946550641L62.6041171875,8.528580311366483L62.6041171875,9.043483036586224L62.8949609375,72.00462165151323L63.1858046875,53.41783958980015L63.3312265625,74.48044352122716L63.4766484375,89.89114965166364L63.69478125,69.26542536326818L63.840203125,91.45871276038034L64.131046875,112.44847240720476L64.27646875,98.7610809476035L64.3491796875,98.67046749523708L64.3491796875,99.0594044971466L64.421890625,64.77630716868809L64.4946015625,117.28608956745693L64.712734375,83.27470855304173L64.85815625000001,24.46926039831979L64.9308671875,76.27080346379962L65.149,78.29529467446464L65.149,78.4004211643764L65.2217109375,100.69605958802359L65.3671328125,69.14665413720266L65.5125546875,66.334691091265L65.6579765625,72.78325541904994L65.7306875,99.09446216583252L65.7306875,99.2520588684082L66.60321875,94.25437964984349L66.74864062500001,79.21085647038052L67.91201562500001,64.33331840515137L68.1301484375,74.22392248153687L68.202859375,74.98105028424945L68.42099218749999,99.48338366236005L68.7118359375,88.97499865123204L68.92996875,95.26823006221227L69.075390625,101.19624770573208L69.2935234375,90.41516954149519L69.36623437499999,100.04430636133466L69.58436718749999,79.08675139290946L69.657078125,89.11539988517761L70.1660546875,68.99519756589618L70.238765625,86.31033673422677L70.6023203125,105.83378341674805L70.67503125,94.84308799334934L71.0385859375,107.02760479790824L71.1840078125,95.40520460673741L71.3294296875,121.24635019302369L71.6202734375,90.23409769058227L71.692984375,120.0468383366721L71.9111171875,113.22978860582624L71.9111171875,113.56223950113569L72.12925,106.64950605801174L72.565515625,131.5104479108538L72.78364843749999,57.672392365591875L72.856359375,74.48616500718254L73.2199140625,111.90575302668981L73.292625,85.68278740882874L73.58346875,120.1656250681196L74.019734375,86.42082808630806L74.310578125,106.72686240877424L74.74684375,112.29886097635541L74.9649765625,123.50162350927081L75.1103984375,87.84671851975577L75.183109375,119.65999456133162L75.32853125,103.81222272327967L75.47395312500001,85.00962124960762L75.5466640625,88.40551698139735L75.6920859375,112.18050839560372L75.764796875,98.8489034312112L76.05564062500001,103.9778202029637L76.2737734375,81.17346570151193L76.4191953125,83.3009591647557L76.49190625,101.52184522220067L76.8554609375,97.3338880620684L77.0008828125,117.67418927873884L77.509859375,99.20951210021973L78.3096796875,82.96506607464381L78.382390625,52.96077193941389L78.52781250000001,66.44608175550188L78.52781250000001,65.5822149031503L78.6005234375,73.848831785747L79.25492187500001,78.59616110665458L79.69118750000001,96.08204554149083L79.69118750000001,95.67350973674229L79.9093203125,84.89844766071863L79.98203125,88.08830787658691L80.2001640625,116.09446995053973L81.14540625000001,79.08214629445756L81.2181171875,122.00735434123447L81.58167187500001,111.19835098402841L81.9452265625,101.44647356033325L82.0906484375,118.32397332191468L82.163359375,119.25800202778407L82.89046875,108.4038935143607L83.1086015625,121.58591805866786L83.3994453125,133.50090480804442L83.617578125,126.22230637141637L83.98113281250001,83.21000459398542L84.199265625,111.82872228894915L84.2719765625,111.38739260128565L84.56282031250001,103.39243001120431L84.7082421875,110.16155260631017L84.780953125,62.6242531803676L84.926375,139.85837501662118L84.926375,140.61207612991333L85.5807734375,88.05632027353559L86.1624609375,79.57000763348172L86.6714375,100.6236959702628L86.81685937499999,67.22073063986642L86.81685937499999,68.5383469908578L86.8895703125,73.67579172270638L86.96228124999999,116.29506307738168L87.7621015625,119.86567345346722L87.9075234375,114.44423214503698L88.0529453125,115.51397945949009L88.19836718750001,118.22366900580269L88.271078125,111.91786273002624L88.4165,95.59542463302613L88.561921875,100.0572843660627L88.70734374999999,89.82537582124984L89.579875,59.17598026820592L89.6525859375,101.70299460002354L90.016140625,124.93573179517475L90.306984375,124.36685483523777L90.3796953125,111.44674720355442L90.45240625,90.1906516102382L90.5251171875,25.835780724116717L90.888671875,107.21777830805097L91.179515625,130.23388981137958L91.68849218749999,127.66281838008337L91.761203125,115.20337564740862L91.83391406249999,135.13377658571517L92.7064453125,98.65761353356498L92.77915625,137.88576481410433L92.85186718749999,98.00252664974758L93.36084375,114.46175322668893L93.36084375,114.17870247840881L93.7243984375,101.09845526150295L93.94253125,89.5709014919826L94.087953125,37.13538987295968L94.378796875,126.67521857942853L94.669640625,121.12179545947484L94.669640625,121.46572033745902L94.8877734375,94.95751771245683L95.1786171875,103.80727650642395L95.4694609375,99.82495172228131L95.54217187500001,118.23117361068725L95.68759375,107.49557273183551L95.833015625,70.98134396689278L95.9784375,123.71364410264152L96.12385937500001,99.65175660542079L96.26928125,124.25268870762416L96.414703125,102.21977347646441L96.70554687500001,128.10658241271972L96.996390625,131.0493023450034L97.1418125,70.1841502571106L97.21452343749999,96.16813142231533L97.5053671875,148.43740984099253L97.79621093749999,121.77199814796447L97.9416328125,132.33928810528346L98.01434375000001,118.33930814470563L98.01434375000001,118.72041492870875L98.0870546875,119.63230194909232L98.2324765625,88.67791553224836L98.45060937500001,107.81071962084089L98.8141640625,91.68885914530073L99.17771875000001,86.54372374398368L99.32314062500001,134.7860838999067L99.3958515625,121.2336512851715L99.4685625,116.4661184515272L99.6866953125,136.8456792954036L99.75940625000001,104.34912758554731L99.8321171875,113.65947375161306L99.8321171875,113.5748453766959L100.05024999999999,127.75050131525312L100.5592265625,131.0253620352064L100.8500703125,104.55217056274414L101.068203125,115.63560367584228L101.35904687499999,114.77136469432287L101.35904687499999,114.2140392439706L101.7226015625,134.8427715764727L101.94073437499999,139.3339519868578L102.377,63.43530870165144L102.74055468750001,41.02699266706193L102.8859765625,133.37881543023246L103.24953124999999,139.81002923556736L103.394953125,122.72551711899894L103.540375,103.79201921054295L103.685796875,103.28801676886422L104.1947734375,124.15841598510741L104.267484375,110.85456565448216L104.4856171875,139.4989757674081L104.558328125,98.9894597189767L104.558328125,98.45945475169592L105.79441406250001,122.79065522875104L106.012546875,114.87125036512103L106.30339062499999,103.1915112713405L106.52152343750001,67.95032088415962L106.6669453125,71.5986907509395L106.73965625,81.01141895430429L106.8123671875,113.81187615122114L107.0305,105.43427174431937L107.10321093750001,121.93046315193178L107.175921875,141.1937760407584L107.32134375,101.58766556876046L107.8303203125,132.21922993251258L107.90303125,128.38834621429444L108.339296875,107.12708732877458L108.41200781250001,114.17913662910462L108.41200781250001,113.88661209242684L108.920984375,134.90634364264352L109.06640625,48.1264419201442L109.211828125,129.25779500416348L109.35725,109.49848045076642L109.502671875,124.40270327840533L109.64809375,118.51492210115705L109.9389375,127.3022872379848L110.01164843749999,73.24159451075963L110.1570703125,112.48197953769139L110.22978125,149.71852652277266L110.375203125,131.6638891710554L110.520625,106.7565707206726L111.24773437500001,104.9597760445731L111.684,105.0519710459028L111.684,105.29019573484148L111.82942187500001,138.53274238313946L111.82942187500001,138.6499010494777L111.9021328125,115.13366344996861L111.97484375,131.38507139205933L112.120265625,131.36919388089862L112.2656875,124.87515226772854L112.4838203125,117.96367476054601L112.55653125,115.70891312190464L113.0655078125,89.30904660088675L113.2109296875,134.01648977007184L113.50177343749999,90.4552509539468L113.50177343749999,90.61370045253209L114.156171875,144.5995952170236L114.30159375000001,148.11503744397845L114.30159375000001,148.22903301239015L114.447015625,97.02585814339774L114.5197265625,24.25215403965541L114.737859375,99.0513572038923L115.028703125,132.4266299220494L115.174125,129.65222091129849L115.2468359375,93.76240938459124L115.319546875,104.82094085420881L115.46496875000001,120.75144941057476L115.8285234375,114.81909026009696L115.901234375,129.50657885823932L115.97394531249999,118.83529430389405L116.04665625000001,123.05868126188005L116.19207812500001,91.75308243751526L116.2647890625,101.0079038306645L116.5556328125,124.4574527822222L116.7010546875,115.69709802082606L117.21003125000001,119.12963297026498L117.35545312500001,75.91886230332511L117.4281640625,115.25665213993616L117.646296875,131.2133647918701L117.646296875,131.33768694468907L117.7190078125,131.38147414343698L117.8644296875,125.1731502042498L117.93714062500001,111.88860407420567L118.0098515625,103.85659912654332L118.0098515625,104.7440341595241L118.3006953125,121.0475401851109L118.37340624999999,139.2709846305847L118.5915390625,130.52067735671997L119.2459375,117.20428317206246L119.6094921875,112.98185754776001L119.827625,116.45143485477992L120.0457578125,133.9612285886492L120.1911796875,118.06594826017107L120.26389062499999,116.89335374695915L120.6274453125,142.4904291152954L120.70015624999999,112.47199407168797L120.7728671875,134.7649190534864L121.2091328125,100.34587053571428L121.5726875,100.99342180388314L121.9362421875,98.23565006801061L122.5179296875,137.75190685135976L123.17232812499999,75.74320183072771L123.2450390625,124.9201333808899L123.31774999999999,116.30538966178895L123.60859375,135.10896797452654L123.6813046875,133.6184356035505L123.8267265625,123.62140258516584L124.19028125,129.8844760281699L124.48112499999999,123.53809216771808L124.48112499999999,123.95644287926811L124.917390625,105.80148570605687L125.208234375,59.499484558105465L125.4263671875,94.94002764156886L125.4263671875,95.24925147465297L125.499078125,121.8015979221889L125.5717890625,134.3794552571433L125.789921875,109.87679626601083L126.662453125,128.3166958441053L126.7351640625,132.52302688189917L127.09871875,135.26104476111277L127.17142968750001,127.15089268820626L127.31685156249999,45.36381699970789L127.31685156249999,45.36087097712925L127.825828125,138.39548874173846L128.0439609375,126.6683031790597L128.26209375,54.22157657078334L128.3348046875,110.66608223097666L128.407515625,124.18099182128907L128.48022656249998,104.78338681902204L128.91649218749998,114.42945551599774L129.0619140625,149.7340939262935L129.134625,111.22681886536735L129.280046875,113.45094186919076L129.570890625,130.9658678844997L129.64360156249998,61.41322082519531L130.00715625,116.03244842256818L130.07986718749999,119.48537294932774L130.5161328125,128.8218922001975L130.5161328125,128.16427793911527L130.58884375,116.87908879552569L130.734265625,99.10737814903258L130.87968750000002,118.97636226926531L131.0978203125,129.58979624339514L131.6795078125,127.69880637168885L131.897640625,101.11921696799142L131.97035156249999,134.7737106050764L132.2611953125,104.3530814579555L132.479328125,132.18562976973396L132.69746093749998,122.54021229880198L132.8428828125,131.74771126610892L133.5699921875,106.73245985167367L133.7154140625,115.05942368098668L133.788125,112.91551001821246L133.93354687500002,128.81100742203847L134.1516796875,124.99823398998805L134.5879453125,90.89856533050538L134.8787890625,125.9849189731053L135.38776562500001,100.86306805746895L135.82403125000002,134.79724777494158L135.969453125,72.87628771100727L136.1875859375,138.28012869971138L136.4784296875,137.45998702457973L136.4784296875,136.95041815076556L136.551140625,75.45180918693542L136.551140625,74.6455138179234L136.9146953125,122.73545606885638L137.714515625,142.47076829092845L137.7872265625,126.2087236567906L137.7872265625,126.86953202656338L138.0780703125,126.63040802546911L138.441625,135.93235027449472L138.5143359375,148.60665108544487L138.9506015625,109.83328816413879L139.0233125,133.73926904542105L139.0960234375,135.0365113244738L139.16873437499999,133.18862641470773L139.2414453125,137.60691602434432L139.31415625,148.5425053201403L139.96855468750002,115.19847594669886L140.2593984375,39.91438847678049L140.69566406250001,81.50726556505477L140.768375,44.96250670296806L141.05921874999999,119.47594567707607L141.05921874999999,120.21753708703177L141.2773515625,122.40193530218941L141.4227734375,112.19638590676445L141.64090625,102.47948862484523L141.7136171875,101.12554316384453L141.78632812499998,136.36924542290825L142.368015625,141.05739070074898L142.4407265625,113.07092046192713L142.5134375,138.803978030341L142.5134375,139.11752786500114L142.94970312499998,103.42051025799343L143.6041015625,130.08609251022338L144.18578906250002,113.6027395589011L144.47663281250001,153.81551360675266L144.47663281250001,154.20547396387371L144.6220546875,132.17724135807583L145.2037421875,132.82313355037144L145.3491640625,96.85219786507743L145.4945859375,128.16322357313973L145.56729687499998,92.65437928199768L145.64000781250002,119.11395702907018L145.71271875,109.82914822714669L145.7854296875,118.8016166142055L145.9308515625,130.51055234227863L146.0035625,115.1556965977805L146.36711718749999,131.43034710747855L146.5125390625,140.73059926986696L146.80338281250002,143.59831966945103L146.87609375,125.35797435760497L146.9488046875,128.7236035837446L147.2396484375,143.1939393070766L147.748625,135.47241412843977L147.82133593749998,96.64734075818743L147.894046875,140.31452784946987L147.96675781250002,66.97072186061314L148.5484453125,131.53364396231515L148.98471093749998,110.39264481953212L149.8572421875,113.00047951153346L150.36621875,150.29490808759417L150.4389296875,129.46375299317498L150.6570625,131.73211285182407L150.6570625,132.97341171264648L150.7297734375,124.95787348066058L150.8751953125,133.7026298277719L151.0206171875,86.33367233412605L151.1660390625,111.4407156099592L151.23875,114.26599777902875L151.8204375,121.2794386781965L152.256703125,126.36788640294756L152.4748359375,126.37652290071759L152.547546875,131.71277764047895L152.7656796875,151.6614749295371L152.91110156250002,132.42014867237634L153.7836328125,116.26605250767298L153.85634375,141.70883381979806L154.1471875,126.90097694124495L154.2198984375,58.522769535609655L154.29260937499998,132.50187754086085L154.36532031250002,108.72314932959421L154.36532031250002,108.42457769393921L155.0924296875,146.52697622026716L155.3105625,128.97984552655902L155.60140625,115.26908745629447L155.6741171875,128.94167127609253L155.74682812499998,142.4793427671705L156.037671875,96.81822557313102L156.4739375,139.73881301607406L156.5466484375,130.9961343901498L156.76478125,125.13162679127285L157.05562500000002,103.80881153924125L157.27375781249998,125.37334019115993L157.34646875,148.418911920275L157.491890625,129.1030202811105L157.7100234375,129.24694123676846L157.92815625,80.91303730555943L158.364421875,114.14634274618966L158.50984375000002,135.9620120702471L159.0188203125,136.64209362983703L159.09153125,131.91524691854204L159.1642421875,95.58478794097901L159.23695312499999,113.95147110530309L159.4550859375,115.21988887923104L160.03677343750002,118.05056692123412L160.25490625,106.39148099626813L160.9093046875,128.07343190601893L161.05472656249998,140.14620142255512L161.1274375,121.38478224345616L161.3455703125,149.64664357185364L161.563703125,108.23179927962167L161.70912500000003,107.44522675650461L161.7818359375,154.9929147883824L161.99996875000002,114.26868021011353L162.0726796875,131.82700578962056L162.29081250000002,87.89250591278075L162.5089453125,111.2650706427438L162.727078125,151.83435993875776L162.8725,110.69087533678328L163.0906328125,108.39459028516497L163.45418750000002,137.5608960505894L163.5268984375,139.75255078451974L163.890453125,118.52707832063948L164.03587499999998,132.3930142538888L164.1085859375,126.06109691483634L164.2540078125,139.53045169285366L164.83569531249998,166.80634128570557L164.90840624999998,123.85609204701015L165.1265390625,86.31579462868827L165.2719609375,148.63586322511946L165.344671875,124.28745177405222L165.8536484375,109.74309335708618L166.2899140625,127.87555222102574L166.508046875,124.77968563079833L166.9443125,123.76687407902308L166.9443125,124.77951507159642L167.16244531249998,156.8232631111145L167.23515625,124.9929156439645L167.7441328125,159.86250404630388L167.8895546875,115.14470328194754L167.96226562500001,131.91228539058142L168.0349765625,97.57519832202367L168.1076875,141.3415733419146L168.253109375,109.48554896218437L168.834796875,145.9461136000497L169.2710625,150.25397387913296L169.2710625,150.8285568196433L169.4891953125,129.62769139698574L169.7800390625,130.930298538208L170.6525703125,97.4970822075435L170.870703125,145.99027292796544L170.9434140625,136.73799441746303L171.6705234375,155.8090870857239L171.8159453125,141.7666999053955L171.9613671875,130.44573984554836L171.9613671875,130.66617986134122L172.034078125,118.65673432486398L172.25221093750002,108.8818003981454L172.324921875,122.995574357169L172.3976328125,127.09304210799081L172.7611875,143.7014924812317L172.9793203125,139.36959886005945L173.197453125,121.03907424654278L173.488296875,120.35914774077278L173.63371874999999,137.55953157697405L173.779140625,100.34881655829292L174.21540625,128.83533536638532L174.28811718749998,149.37664835521153L174.4335390625,103.78099488394601L174.8698046875,121.08030305726187L175.0152265625,138.43170931407383L175.1606484375,104.10958493913922L175.23335937500002,148.0865695626395L175.5969140625,96.74206313678197L175.669625,160.0608023766109L175.74233593749997,83.89883118901933L176.25131249999998,100.54750252314977L176.833,148.46980058397565L176.978421875,129.8241445868356L177.269265625,149.39561143738882L178.141796875,141.669698235648L178.21450781250002,123.37006034306117L178.21450781250002,123.34695732389179L178.5053515625,120.27061200959342L178.86890625,132.95389043671744L179.15975,129.70472213472638L179.37788281250002,128.01472852979387L179.5233046875,137.3724436378479L179.9595703125,109.55436184746878L180.17770312500002,132.82549036843437L180.39583593749998,138.25421920640127L181.050234375,157.37077365466527L181.19565625,124.81347185816082L181.55921093749998,103.73671151297432L181.77734375,134.73473007474627L181.92276562499998,105.45703364508492L182.0681875,146.17038344519477L182.1408984375,124.79604380880085L182.504453125,137.88750141688757L182.5771640625,119.40164388656615L182.94071875,138.78557314191545L183.01342968749998,103.24683447429112L183.08614062499998,167.7221976838793L183.3042734375,123.14631768090385L183.4496953125,139.7033987236023L183.4496953125,139.96616843223572L183.52240625,124.92202503749303L183.7405390625,135.22927423340934L184.54035937499998,94.20983268737793L185.122046875,140.94167403493609L185.34017968749998,149.71441759654454L185.34017968749998,149.49955951826914L185.412890625,119.88364419119699L185.70373437499998,136.79007699557712L187.81235156250003,143.38994284084865L188.32132812499998,124.95795100757054L188.3940390625,73.47653205871582L188.75759375,142.25980206353324L188.8303046875,154.1920152923039L188.903015625,140.02988004684448L188.97572656250003,160.22253901617867L189.0484375,132.1640462779999L189.1211484375,139.23107377733504L189.193859375,147.09273659842356L189.9936796875,109.84763064248222L190.2118125,124.99263654708864L190.2845234375,147.91504902703423L190.42994531250002,142.27298163822718L190.5753671875,111.99912643705095L191.01163281249998,130.43632807867868L191.30247656249998,115.4459728540693L191.4478984375,141.0970069517408L191.4478984375,140.63204706192016L191.81145312499999,144.18471771103995L192.0295859375,118.16105827331543L192.6112734375,138.9946787234715L192.82940625,135.20831095695496L192.974828125,139.75904753957477L193.26567187499998,113.60905024937222L193.3383828125,126.72086642401558L193.7019375,124.55648565701075L193.847359375,130.8470501422882L194.0654921875,146.00642953600203L194.2109140625,106.02614318575178L194.42904687499998,120.8571030834743L194.79260156249998,121.19819047655378L195.010734375,93.21497636795044L195.15615625,135.33771887506757L195.5197109375,152.68928018569946L196.02868750000002,151.51220461709158L196.31953125,141.72709915978567L196.39224218750002,133.44719416482107L196.464953125,126.6439132131849L196.5376640625,134.75899599756514L196.6830859375,161.13155754089357L196.6830859375,161.47391637529645L197.41019531249998,120.18482073102679L197.41019531249998,120.3865767615182L197.48290625,97.0126320525578L197.7010390625,120.89099784851075L197.8464609375,125.32218793596542L198.791703125,152.8999363054548L199.00983593750001,149.3739194079808L199.1552578125,100.3637017250061L199.3006796875,131.50252466065544L199.5915234375,161.5099818938119L199.664234375,123.1449066911425L200.245921875,143.94430676324026L200.3186328125,132.33871440614973L200.97303125,147.5282517678397L201.0457421875,140.14390662602017L201.118453125,124.31734615053449L201.409296875,114.07765390396119L201.4820078125,131.11025400161742L201.7728515625,154.0531490911756L201.84556249999997,164.00211542538233L201.84556249999997,163.55148250852312L202.35453906249998,144.79564526694162L202.42725,141.42013911247253L202.7908046875,136.40293861797878L202.863515625,143.9897840486254L203.29978125,88.88671100616455L203.3724921875,153.16811739240373L203.445203125,129.6327306461334L203.51791406249998,150.71981757572718L203.95417968750002,120.34268102509634L204.608578125,104.47498477118356L205.11755468750002,135.96824523380826L205.33568749999998,133.25570269720896L205.62653125,110.17310411589486L205.917375,113.93258555003575L206.062796875,131.38587767192297L206.28092968750002,133.16977187020439L206.353640625,125.58277138573783L206.353640625,125.95164442334857L206.7171953125,123.55516359329224L207.517015625,131.78470710754394L207.66243749999998,149.03139001437597L207.8805703125,133.22329644884383L208.09870312500001,123.92557166372026L208.4622578125,143.47753274372644L208.60767968750002,165.04449574061803L208.82581249999998,131.17959406988962L208.971234375,144.003754397801L209.0439453125,120.67316273689269L209.3347890625,126.70871020453316L209.4075,102.61078819956099L209.48021093749998,132.50032700266155L209.552921875,154.94419687816074L209.6256328125,103.65115281513759L209.69834375,139.00005909102305L209.69834375,139.28512553896223L209.98918749999999,140.34549209730966L210.0618984375,134.30225396020072L210.134609375,156.08285011019026L210.134609375,155.2482884298052L210.2073203125,145.46467148917063L210.28003124999998,124.08975815364293L210.35274218749998,140.10712785993303L210.42545312500002,83.86910737173898L210.64358593749998,129.9613982282366L210.86171875,164.13864031382968L210.93442968749997,159.39773022106715L211.007140625,157.4645812157222L211.73425,131.82675770350863L211.80696093749998,141.0612980570112L212.02509375,121.3844721358163L212.3159375,72.4252826649802L212.75220312500002,125.90419795445032L213.40660156250001,135.87691853387014L213.4793125,120.7383163520268L214.061,126.70157772881645L214.20642187500002,140.72107896532333L214.2791328125,132.48209267343793L214.2791328125,131.71040531703403L215.0062421875,135.62106422560555L215.8787734375,131.31284732273647L215.951484375,138.32938929830277L216.4604609375,136.31553477968487L216.75130468749998,116.5177668789455L217.0421484375,136.77198221479142L217.0421484375,136.3891543333871L217.18757031250001,112.8042744077955L217.26028125,122.72379602159772L217.26028125,122.4523277936663L217.7692578125,141.0667249407087L218.0601015625,151.8274910545349L218.859921875,130.5785744530814L219.07805468749999,141.75352033070155L219.2234765625,120.66176628112794L219.44160937499998,157.27567914690292L219.9505859375,125.71310962677L220.02329687499997,138.01107931137085L220.02329687499997,139.0635536302839L220.314140625,119.20449295452663L220.9685390625,138.17258337020874L221.5502265625,139.22803472246443L221.768359375,103.4486680316925L221.9864921875,118.39266216414316L221.9864921875,118.21666057314191L222.204625,129.48620478630065L222.7136015625,136.75936083384923L222.7863125,127.58538450241088L223.00444531250002,158.27588482311793L223.07715625,128.14742358888898L223.9496875,107.90561255863734L224.095109375,155.78119290351867L224.6040859375,147.52975578989302L224.7495078125,128.2779013783591L225.40390625,111.66726474625725L225.69475,162.1807912349701L225.84017187499998,122.96102836608887L226.4945703125,137.73795200756618L226.6399921875,134.3947280584063L226.6399921875,134.9464715712411L226.712703125,145.14250066212247L226.78541406250002,112.88811200823103L226.858125,83.76419795717513L227.00354687499998,145.9516025052752L227.00354687499998,145.11000138146537L227.43981250000002,132.32871343476432L227.65794531249998,153.8515946306501L227.8033671875,101.10301384380885L228.60318750000002,112.95261439732143L229.11216406249997,155.1352231843131L229.4030078125,120.9316219493321L229.6938515625,128.3119046810695L230.05740625,113.57068993432182L230.1301171875,130.1460518223899L230.63909375,152.30242090497697L230.78451562499998,125.61772051674978L231.14807031249998,139.4113703591483L231.22078125000002,152.25846314702716L231.2934921875,129.8032123211452L231.94789062499999,103.95611266817366L232.09331250000002,121.93857246671405L232.238734375,124.67179918289185L232.529578125,161.0599536868504L232.74771093750002,148.0253233037676L232.820421875,143.1484000001635L232.8931328125,154.74242534228733L233.1839765625,132.78787431171963L233.402109375,148.58637004579816L233.54753125000002,140.79745847702026L234.0565078125,132.88086008753095L234.12921875,138.40249717439923L234.2019296875,140.0344076183864L234.3473515625,135.07039058412823L234.71090625000002,138.6551728793553L234.92903906249998,163.3521143068586L235.36530468750001,155.51642300060817L235.728859375,152.1829984528678L235.9469921875,162.44892580577306L235.9469921875,162.77489545140946L236.09241406249998,124.91590041160583L236.310546875,141.19957505362373L236.52867968750002,174.69817758015225L236.74681249999998,144.79432730947224L236.8195234375,134.51887965202332L236.892234375,92.87283460889545L237.3285,127.31743599619185L237.473921875,141.24770375932965L237.764765625,121.37030021667479L237.91018749999998,120.87316665921892L238.055609375,157.15269045693535L238.2737421875,161.7425471183232L238.4191640625,150.98277334894453L238.71000781249998,134.7030835900988L238.85542968750002,138.75598887307302L238.928140625,138.64475326265608L239.0008515625,138.08544312340874L239.07356249999998,145.2866386931283L239.36440624999997,137.0843691458021L239.4371171875,115.48070490973336L239.4371171875,115.05554733548846L239.65525,136.7842624773298L240.091515625,127.74905931472779L240.30964843750002,139.30162326540267L240.6004921875,142.60625431878225L240.67320312500001,140.2704305430821L241.03675781249999,128.38445436341422L241.10946875,159.1544662829808L241.6184453125,129.2644158022744L242.0547109375,117.01967609405517L242.127421875,139.4384117453439L242.27284375,151.6107258142744L242.34555468750003,147.33921015058246L242.709109375,155.4047377341134L242.7818203125,151.6527143887111L243.0726640625,124.02106931141444L243.581640625,135.73746312822612L244.01790624999998,126.35715667860848L244.30875,136.9250668512072L244.3814609375,139.17720808029173L244.5268828125,147.38892040525164L245.035859375,118.82825486046927L245.472125,124.19646619251796L245.6902578125,158.45049092973983L245.9811015625,139.86980248314995L246.34465624999999,156.82918616703577L246.4173671875,113.04710419518608L246.63549999999998,138.14247191837856L246.78092187500002,157.07823361260552L246.99905468749998,134.6705998148237L247.071765625,139.5216136251177L247.4353203125,105.85127348763602L247.50803125,126.03817996025086L248.08971875,109.15897460665022L248.235140625,139.84762978690011L248.45327343749997,135.94258382661002L248.816828125,146.09986496789116L248.8895390625,121.45204459054129L249.32580468749998,140.56884712491717L249.4712265625,147.80967445101058L249.5439375,129.55602552141463L249.76207031250001,97.88722862924848L250.12562499999999,140.98898095539639L250.41646875,127.58113602774483L250.48917968749998,148.52348021643502L250.56189062500002,156.76607926232475L250.7073125,122.13355264527456L250.78002343749998,165.21139567238944L251.0708671875,124.43886182921273L251.43442187500003,128.47348626681736L251.5071328125,145.5381049782889L251.7979765625,134.02276944977896L251.8706875,155.49963067190987L252.016109375,141.50396120752606L252.016109375,141.6233061327253L252.74321875,151.0981023802076L252.88864062500002,119.351871610369L252.9613515625,144.30979962757655L253.0340625,149.8271882397788L253.10677343749998,135.35410806383405L253.470328125,137.87488003594535L254.1247265625,122.17813061850411L254.48828125,138.00369874954225L254.8518359375,140.00319528443472L254.9972578125,125.21808480126518L255.1426796875,134.09240412030903L255.215390625,143.9019615650177L255.3608125,147.4319013241359L255.5789453125,157.56846727507454L255.5789453125,156.5428017616272L255.65165625,141.38377899169922L255.72436718749998,102.95117785045079L255.86978906250002,122.44038864953177L256.37876562499997,145.35858366557528L256.5241875,140.73317316327777L256.669609375,134.75870139530727L257.251296875,121.13570378712245L257.3240078125,126.28231219972884L257.4694296875,146.06699355806623L257.6148515625,137.06608830043248L257.90569531250003,140.7951946912493L258.1965390625,118.82971236637661L258.26925,161.57422069140844L258.63280468749997,143.86935374668667L258.8509375,156.34523218427387L258.9236484375,153.4833263029371L259.14178125,127.19021433694022L259.2144921875,159.95390827315194L259.28720312499996,139.58168147495815L259.578046875,123.23463633673532L259.72346875,134.22134687696183L259.7961796875,134.80149624960762L259.868890625,144.06529525893075L259.9416015625,139.5822086579459L260.15973437499997,125.71569902556283L260.450578125,121.53369593211583L260.741421875,135.6946217577798L260.88684375,117.1603719302586L261.032265625,153.097847001212L261.1776875,147.4713470159258L261.75937500000003,149.8646337372916L262.1229296875,157.25142872946603L262.1229296875,157.10084045955114L262.195640625,126.17941848482404L262.4137734375,136.81615704808917L262.486484375,173.54615870884487L262.63190625,118.59339483942304L262.92275,153.3344746358054L263.068171875,141.80895207132613L263.21359375000003,160.85545320374626L263.359015625,156.14474759510585L263.5771484375,125.44830871309553L264.0134140625,133.80614375795636L264.3042578125,159.48318038122994L264.7405234375,130.96382117407663L264.95865625,142.87259026527406L265.685765625,137.2554400253296L265.8311875,141.318904473441L265.976609375,129.6371651853834L265.976609375,129.70320260729108L266.267453125,108.04624637331281L266.849140625,133.3650001348768L267.28540625,152.85666078431265L267.6489609375,159.66967911584038L267.9398046875,123.26372443335397L268.1579375,142.56308733531407L268.9577578125,139.91983835084096" style="fill: none;" fill="none"></path></g></g></g></g></g></g><g transform="translate(39, 177)" clip-path="url(#clip_1)"><clipPath id="clip_1"><rect width="290" height="22"></rect></clipPath><g><g><line x1="0" y1="0" x2="0" y2="5" style="visibility: inherit;" fill="rgb(0, 0, 0)" stroke="rgb(204, 204, 204)" stroke-width="1px"></line><line x1="36.35546875" y1="0" x2="36.35546875" y2="5" style="visibility: inherit;" fill="rgb(0, 0, 0)" stroke="rgb(204, 204, 204)" stroke-width="1px"></line><line x1="72.7109375" y1="0" x2="72.7109375" y2="5" style="visibility: inherit;" fill="rgb(0, 0, 0)" stroke="rgb(204, 204, 204)" stroke-width="1px"></line><line x1="109.06640625" y1="0" x2="109.06640625" y2="5" style="visibility: inherit;" fill="rgb(0, 0, 0)" stroke="rgb(204, 204, 204)" stroke-width="1px"></line><line x1="145.421875" y1="0" x2="145.421875" y2="5" style="visibility: inherit;" fill="rgb(0, 0, 0)" stroke="rgb(204, 204, 204)" stroke-width="1px"></line><line x1="181.77734375" y1="0" x2="181.77734375" y2="5" style="visibility: inherit;" fill="rgb(0, 0, 0)" stroke="rgb(204, 204, 204)" stroke-width="1px"></line><line x1="218.1328125" y1="0" x2="218.1328125" y2="5" style="visibility: inherit;" fill="rgb(0, 0, 0)" stroke="rgb(204, 204, 204)" stroke-width="1px"></line><line x1="254.48828125" y1="0" x2="254.48828125" y2="5" style="visibility: inherit;" fill="rgb(0, 0, 0)" stroke="rgb(204, 204, 204)" stroke-width="1px"></line><line x1="290.84375" y1="0" x2="290.84375" y2="5" style="visibility: inherit;" fill="rgb(0, 0, 0)" stroke="rgb(204, 204, 204)" stroke-width="1px"></line></g><g transform="translate(0, 8)"><text x="0" y="0" dx="0em" dy="0.95em" style="text-anchor: middle; visibility: hidden; font-family: &quot;Helvetica Neue&quot;, sans-serif; font-size: 12px; font-weight: 200;" fill="rgb(50, 49, 63)" stroke="none" stroke-width="1px">-500</text><text x="36.35546875" y="0" dx="0em" dy="0.95em" style="text-anchor: middle; visibility: inherit; font-family: &quot;Helvetica Neue&quot;, sans-serif; font-size: 12px; font-weight: 200;" fill="rgb(50, 49, 63)" stroke="none" stroke-width="1px">0</text><text x="72.7109375" y="0" dx="0em" dy="0.95em" style="text-anchor: middle; visibility: inherit; font-family: &quot;Helvetica Neue&quot;, sans-serif; font-size: 12px; font-weight: 200;" fill="rgb(50, 49, 63)" stroke="none" stroke-width="1px">500</text><text x="109.06640625" y="0" dx="0em" dy="0.95em" style="text-anchor: middle; visibility: inherit; font-family: &quot;Helvetica Neue&quot;, sans-serif; font-size: 12px; font-weight: 200;" fill="rgb(50, 49, 63)" stroke="none" stroke-width="1px">1k</text><text x="145.421875" y="0" dx="0em" dy="0.95em" style="text-anchor: middle; visibility: inherit; font-family: &quot;Helvetica Neue&quot;, sans-serif; font-size: 12px; font-weight: 200;" fill="rgb(50, 49, 63)" stroke="none" stroke-width="1px">1.5k</text><text x="181.77734375" y="0" dx="0em" dy="0.95em" style="text-anchor: middle; visibility: inherit; font-family: &quot;Helvetica Neue&quot;, sans-serif; font-size: 12px; font-weight: 200;" fill="rgb(50, 49, 63)" stroke="none" stroke-width="1px">2k</text><text x="218.1328125" y="0" dx="0em" dy="0.95em" style="text-anchor: middle; visibility: inherit; font-family: &quot;Helvetica Neue&quot;, sans-serif; font-size: 12px; font-weight: 200;" fill="rgb(50, 49, 63)" stroke="none" stroke-width="1px">2.5k</text><text x="254.48828125" y="0" dx="0em" dy="0.95em" style="text-anchor: middle; visibility: inherit; font-family: &quot;Helvetica Neue&quot;, sans-serif; font-size: 12px; font-weight: 200;" fill="rgb(50, 49, 63)" stroke="none" stroke-width="1px">3k</text><text x="290.84375" y="0" dx="0em" dy="0.95em" style="text-anchor: middle; visibility: hidden; font-family: &quot;Helvetica Neue&quot;, sans-serif; font-size: 12px; font-weight: 200;" fill="rgb(50, 49, 63)" stroke="none" stroke-width="1px">3.5k</text></g><line x1="0" y1="0" x2="290.84375" y2="0" fill="rgb(0, 0, 0)" stroke="rgb(204, 204, 204)" stroke-width="1px"></line></g></g></g></g></svg>