<svg viewBox="0 0 330 200" xmlns="http://www.w3.org/2000/svg"><g><g><g><g><g><line x1="48.875" y1="177.828125" x2="43.875" y2="177.828125" style="visibility: inherit;" fill="rgb(0, 0, 0)" stroke="rgb(204, 204, 204)" stroke-width="1px"></line><line x1="48.875" y1="155.599609375" x2="43.875" y2="155.599609375" style="visibility: inherit;" fill="rgb(0, 0, 0)" stroke="rgb(204, 204, 204)" stroke-width="1px"></line><line x1="48.875" y1="133.37109375" x2="43.875" y2="133.37109375" style="visibility: inherit;" fill="rgb(0, 0, 0)" stroke="rgb(204, 204, 204)" stroke-width="1px"></line><line x1="48.875" y1="111.142578125" x2="43.875" y2="111.142578125" style="visibility: inherit;" fill="rgb(0, 0, 0)" stroke="rgb(204, 204, 204)" stroke-width="1px"></line><line x1="48.875" y1="88.9140625" x2="43.875" y2="88.9140625" style="visibility: inherit;" fill="rgb(0, 0, 0)" stroke="rgb(204, 204, 204)" stroke-width="1px"></line><line x1="48.875" y1="66.685546875" x2="43.875" y2="66.685546875" style="visibility: inherit;" fill="rgb(0, 0, 0)" stroke="rgb(204, 204, 204)" stroke-width="1px"></line><line x1="48.875" y1="44.45703125" x2="43.875" y2="44.45703125" style="visibility: inherit;" fill="rgb(0, 0, 0)" stroke="rgb(204, 204, 204)" stroke-width="1px"></line><line x1="48.875" y1="22.228515625" x2="43.875" y2="22.228515625" style="visibility: inherit;" fill="rgb(0, 0, 0)" stroke="rgb(204, 204, 204)" stroke-width="1px"></line><line x1="48.875" y1="0" x2="43.875" y2="0" style="visibility: inherit;" fill="rgb(0, 0, 0)" stroke="rgb(204, 204, 204)" stroke-width="1px"></line></g><g transform="translate(38.875, 0)"><text x="0" y="177.828125" dx="0em" dy="0.3em" style="text-anchor: end; visibility: hidden; font-family: &quot;Helvetica Neue&quot;, sans-serif; font-size: 12px; font-weight: 200;" fill="rgb(50, 49, 63)" stroke="none" stroke-width="1px">51</text><text x="0" y="155.599609375" dx="0em" dy="0.3em" style="text-anchor: end; visibility: inherit; font-family: &quot;Helvetica Neue&quot;, sans-serif; font-size: 12px; font-weight: 200;" fill="rgb(50, 49, 63)" stroke="none" stroke-width="1px">51.5</text><text x="0" y="133.37109375" dx="0em" dy="0.3em" style="text-anchor: end; visibility: hidden; font-family: &quot;Helvetica Neue&quot;, sans-serif; font-size: 12px; font-weight: 200;" fill="rgb(50, 49, 63)" stroke="none" stroke-width="1px">52</text><text x="0" y="111.142578125" dx="0em" dy="0.3em" style="text-anchor: end; visibility: inherit; font-family: &quot;Helvetica Neue&quot;, sans-serif; font-size: 12px; font-weight: 200;" fill="rgb(50, 49, 63)" stroke="none" stroke-width="1px">52.5</text><text x="0" y="88.9140625" dx="0em" dy="0.3em" style="text-anchor: end; visibility: hidden; font-family: &quot;Helvetica Neue&quot;, sans-serif; font-size: 12px; font-weight: 200;" fill="rgb(50, 49, 63)" stroke="none" stroke-width="1px">53</text><text x="0" y="66.685546875" dx="0em" dy="0.3em" style="text-anchor: end; visibility: inherit; font-family: &quot;Helvetica Neue&quot;, sans-serif; font-size: 12px; font-weight: 200;" fill="rgb(50, 49, 63)" stroke="none" stroke-width="1px">53.5</text><text x="0" y="44.45703125" dx="0em" dy="0.3em" style="text-anchor: end; visibility: hidden; font-family: &quot;Helvetica Neue&quot;, sans-serif; font-size: 12px; font-weight: 200;" fill="rgb(50, 49, 63)" stroke="none" stroke-width="1px">54</text><text x="0" y="22.228515625" dx="0em" dy="0.3em" style="text-anchor: end; visibility: inherit; font-family: &quot;Helvetica Neue&quot;, sans-serif; font-size: 12px; font-weight: 200;" fill="rgb(50, 49, 63)" stroke="none" stroke-width="1px">54.5</text><text x="0" y="0" dx="0em" dy="0.3em" style="text-anchor: end; visibility: hidden; font-family: &quot;Helvetica Neue&quot;, sans-serif; font-size: 12px; font-weight: 200;" fill="rgb(50, 49, 63)" stroke="none" stroke-width="1px">55</text></g><line x1="48.875" y1="0" x2="48.875" y2="177.828125" fill="rgb(0, 0, 0)" stroke="rgb(204, 204, 204)" stroke-width="1px"></line></g></g><g transform="translate(48, 0)" clip-path="url(#clip_0)"><clipPath id="clip_0"><rect width="281" height="177"></rect></clipPath><g><g><g><line x1="0" y1="0" x2="0" y2="177.828125" fill="rgb(0, 0, 0)" stroke="rgb(60, 60, 60)" stroke-width="1px" opacity="0.25"></line><line x1="35.140625" y1="0" x2="35.140625" y2="177.828125" fill="rgb(0, 0, 0)" stroke="rgb(60, 60, 60)" stroke-width="1px" opacity="0.25"></line><line x1="70.28125" y1="0" x2="70.28125" y2="177.828125" fill="rgb(0, 0, 0)" stroke="rgb(60, 60, 60)" stroke-width="1px" opacity="0.25"></line><line x1="105.421875" y1="0" x2="105.421875" y2="177.828125" fill="rgb(0, 0, 0)" stroke="rgb(60, 60, 60)" stroke-width="1px" opacity="0.25"></line><line x1="140.5625" y1="0" x2="140.5625" y2="177.828125" fill="rgb(0, 0, 0)" stroke="rgb(60, 60, 60)" stroke-width="1px" opacity="0.25"></line><line x1="175.703125" y1="0" x2="175.703125" y2="177.828125" fill="rgb(0, 0, 0)" stroke="rgb(60, 60, 60)" stroke-width="1px" opacity="0.25"></line><line x1="210.84375" y1="0" x2="210.84375" y2="177.828125" fill="rgb(0, 0, 0)" stroke="rgb(60, 60, 60)" stroke-width="1px" opacity="0.25"></line><line x1="245.984375" y1="0" x2="245.984375" y2="177.828125" fill="rgb(0, 0, 0)" stroke="rgb(60, 60, 60)" stroke-width="1px" opacity="0.25"></line><line x1="281.125" y1="0" x2="281.125" y2="177.828125" fill="rgb(0, 0, 0)" stroke="rgb(60, 60, 60)" stroke-width="1px" opacity="0.25"></line></g><g><line x1="0" y1="177.828125" x2="281.125" y2="177.828125" fill="rgb(0, 0, 0)" stroke="rgb(60, 60, 60)" stroke-width="1px" opacity="0.25"></line><line x1="0" y1="155.599609375" x2="281.125" y2="155.599609375" fill="rgb(0, 0, 0)" stroke="rgb(60, 60, 60)" stroke-width="1px" opacity="0.25"></line><line x1="0" y1="133.37109375" x2="281.125" y2="133.37109375" fill="rgb(0, 0, 0)" stroke="rgb(60, 60, 60)" stroke-width="1px" opacity="0.25"></line><line x1="0" y1="111.142578125" x2="281.125" y2="111.142578125" fill="rgb(0, 0, 0)" stroke="rgb(60, 60, 60)" stroke-width="1px" opacity="0.25"></line><line x1="0" y1="88.9140625" x2="281.125" y2="88.9140625" fill="rgb(0, 0, 0)" stroke="rgb(60, 60, 60)" stroke-width="1px" opacity="0.25"></line><line x1="0" y1="66.685546875" x2="281.125" y2="66.685546875" fill="rgb(0, 0, 0)" stroke="rgb(60, 60, 60)" stroke-width="1px" opacity="0.25"></line><line x1="0" y1="44.45703125" x2="281.125" y2="44.45703125" fill="rgb(0, 0, 0)" stroke="rgb(60, 60, 60)" stroke-width="1px" opacity="0.25"></line><line x1="0" y1="22.228515625" x2="281.125" y2="22.228515625" fill="rgb(0, 0, 0)" stroke="rgb(60, 60, 60)" stroke-width="1px" opacity="0.25"></line><line x1="0" y1="0" x2="281.125" y2="0" fill="rgb(0, 0, 0)" stroke="rgb(60, 60, 60)" stroke-width="1px" opacity="0.25"></line></g></g></g><g><g><line x1="0" y1="2445.13671875" x2="281.125" y2="2445.13671875" fill="rgb(0, 0, 0)" stroke="rgb(153, 153, 153)" stroke-width="1.5px"></line></g></g><g><g><line x1="35.140625" y1="0" x2="35.140625" y2="177.828125" fill="rgb(0, 0, 0)" stroke="rgb(153, 153, 153)" stroke-width="1.5px"></line></g></g><g><g><g><g><g><path stroke="rgb(255, 112, 67)" stroke-width="2px" d="M41.395656249999995,231.90810672000214L41.536218749999996,171.66000493087446L41.6065,215.9125334630986L45.4016875,184.05556387934024L45.54225,155.30172725510687L45.753093750000005,136.92049786520934L45.9639375,151.34866119211128L46.03421875,125.3416787104943L46.315343750000004,107.33283706735037L46.73703125,158.7985804362507L47.018156250000004,130.10000130534164L47.29928125,159.01377460661075L47.861531250000006,138.73494397455676L48.00209375,146.37488922418487L48.3535,101.82805721028758L49.8996875,96.14242819578217L49.96996875,103.65726707959749L50.53221875,124.9904595768571L50.6025,126.11741958595367L50.67278125,112.78328129370887L50.7430625,101.37268027495078L51.3053125,88.07171986597353L51.37559375,97.61997796355593L51.445875,91.92344322954811L51.79728125,118.48505249116296L52.359531249999996,146.09829750355402L52.4298125,136.6806973021998L53.132625,113.75066814433137L53.20290625,95.729222980801L53.2731875,132.98755600313203L53.5543125,133.12360507404713L53.765156250000004,101.94217858407417L53.8354375,98.81519467051928L53.976,91.57744673738542L54.18684375,76.58982993274726L54.32740625,70.05075396960854L54.6788125,90.17844290653402L54.88965625,99.50925662588763L55.100500000000004,98.38621021790325L55.241062500000005,129.6257824807344L55.45190625,122.73801495486386L55.5221875,130.8269678703181L55.66275,111.3701392442723L55.73303125,90.00484883372425L55.73303125,77.18567458739535L55.943875000000006,61.810923772756325L56.29528125,109.57486436826221L56.9278125,99.54178655184639L56.99809375,99.42204781792977L57.41978125,111.4573107625389L57.630624999999995,95.19105155857454L57.700906249999996,80.08493372554797L57.771187499999996,68.27492069456123L57.84146875,68.65128497632244L57.91175,68.80845346660566L58.333437499999995,94.96834830409969L58.474,107.55400248746088L58.6145625,120.24207608926321L58.68484375,130.86059978621023L58.82540625,122.38498125682338L58.965968749999995,149.5625693929794L58.965968749999995,165.86912227467315L59.106531249999996,151.04498554942367L59.317375,139.10480071113923L60.23103125,99.72826840881372L60.37159375,80.66724008562491L60.51215625,99.79252565051523L60.51215625,111.26769698944943L60.79328125,90.4117913799721L61.07440625,105.88048140747799L61.21496875,114.39514810170814L61.35553125,114.0922596950893L61.566375,134.67690413591663L61.7069375,139.53601352809315L61.9880625,140.67892327569976L62.128625,132.2265431741658L62.19890625,125.56334228871961L62.19890625,121.56542175745165L62.2691875,110.76327570518993L62.33946875,114.54449649000856L62.550312500000004,122.54754561987335L62.690875,103.1686737347056L62.76115625,104.06334204723879L62.972,107.24357808381572L62.972,109.15171970576193L63.04228125,119.57230213075977L63.18284375,80.10037515634377L63.323406250000005,61.86689558073354L63.46396875,72.5636574652461L63.53425,68.21152120987581L63.53425,65.60023945665364L64.37762500000001,115.48453369197867L64.5181875,119.4556120661356L65.64268750000001,100.27182327672607L65.85353125,93.4943352756785L65.9238125,98.70387910711084L66.13465624999999,113.35684906785066L66.41578125,104.13476897087321L66.62662499999999,99.89746073965195L66.76718749999999,88.61419773747912L66.97803125,86.23316429048997L67.0483125,97.16413617128241L67.25915625,82.9921592473635L67.3294375,109.40269368884869L67.82140625,121.0146883487578L67.8916875,124.65032124280177L68.24309375,114.66503474568856L68.313375,110.86076130542476L68.66478125,109.60944081588578L68.80534374999999,103.8793470576048L68.94590625,106.64849253980167L69.22703125,93.75704499773894L69.2973125,94.43839121873786L69.50815625,101.00766165265804L69.50815625,104.9492239130099L69.719,99.73680707052729L70.1406875,88.46448640367629L70.35153125,105.61954121197036L70.4218125,91.60624037626249L70.77321875,85.98082665468962L70.8435,85.66172797599852L71.124625,79.56514094543124L71.5463125,86.48662715120103L71.8274375,81.15278348304608L72.249125,110.44404401169884L72.45996874999999,99.99484776727365L72.60053124999999,112.99694022698412L72.6708125,111.39422028758042L72.811375,97.63531820474805L72.9519375,90.95228083430952L73.02221875,73.48636461197869L73.16278125,78.13560990631316L73.2330625,82.22896589124038L73.5141875,88.99718126823822L73.72503125,112.20856552225548L73.86559375,112.26014334501153L73.93587500000001,105.76376999939265L74.28728124999999,119.43670301154133L74.42784375,109.35037236520574L74.9198125,111.54201031392179L75.69290625,107.06379473605968L75.7631875,99.23923459290998L75.90375,125.61897023105325L75.90375,141.4468116139393L75.97403125,123.50532814115385L76.60656250000001,134.52808721810632L77.02825,123.42439194887922L77.02825,116.76217478734294L77.23909375,106.09506875408906L77.309375,106.4041971214606L77.52021875,86.67538523364023L78.433875,116.46969018988582L78.50415625,89.81380823023774L78.8555625,108.19694167237084L79.20696875,99.63299031174529L79.34753125,147.48515401551919L79.4178125,124.47784358423814L80.12062499999999,118.34076212144997L80.33146875,97.7392536121435L80.61259375,110.3892952393191L80.8234375,100.46351039354174L81.17484375000001,133.13571577634917L81.38568749999999,122.36131131271407L81.45596875,98.85930644643226L81.73709375,89.35250326497506L81.87765625,100.21310197414846L81.9479375,80.79987872899711L82.0885,96.62140550173015L82.0885,106.11432156536985L82.72103125000001,110.45999821170574L83.28328125,151.46437009659047L83.77525,134.0313018112577L83.9158125,107.10846645529239L83.9158125,90.95476524171346L83.98609375000001,103.34141382060714L84.056375,99.9415466158524L84.82946875,79.43848608547036L84.97003125,89.44616163142696L85.11059375,86.39051678996191L85.25115625000001,75.55515087974618L85.3214375,70.15667410095065L85.462,70.6094291770429L85.6025625,77.37740118884865L85.74312499999999,103.11152981867684L86.5865,117.55468144506372L86.65678125000001,119.31547344023076L87.0081875,109.62793996509384L87.2893125,107.26393312559397L87.35959375,96.60775191990047L87.429875,77.6507396007033L87.50015625,66.73720679905723L87.8515625,76.79426585571011L88.1326875,87.71310363373793L88.62465624999999,100.33010204530726L88.6949375,105.04840587316112L88.76521874999999,115.00542915307376L89.60859375,111.6749118414097L89.678875,113.301827600394L89.74915625,100.74339695024145L90.241125,77.75291296987326L90.241125,63.95862258165222L90.59253125,74.64012034946201L90.803375,58.52405986317109L90.9439375,37.02578435616533L91.2250625,67.0078832762053L91.50618750000001,79.58504718879536L91.50618750000001,87.1313455363494L91.71703124999999,120.94550592663192L91.99815625,98.77230037428315L92.27928125,90.61184173928108L92.3495625,97.63191778127204L92.490125,84.06698480644143L92.63068750000001,79.91142549156139L92.77125000000001,84.89619996570939L92.91181250000001,99.02859255327792L93.052375,129.69733449610465L93.1929375,121.96623524899724L93.4740625,135.86201159283775L93.7551875,115.62829145267753L93.89575,94.06719277784336L93.96603125,104.68049537828622L94.24715625,105.37629809791481L94.52828124999999,121.81495794543387L94.66884375,118.12437614732244L94.739125,109.87763882239621L94.739125,104.92959642744042L94.80940625,92.39263234338746L94.94996875,110.72711261392578L95.1608125,107.9024075405654L95.51221875,101.86607753854149L95.86362500000001,99.0200525618859L96.0041875,85.3592513798039L96.07446875,74.79332541217576L96.14475,86.94268773669113L96.35559375,90.90596460505776L96.425875,96.33207562687667L96.49615625,89.69127712918933L96.49615625,85.70679803057692L96.707,92.85351948955162L97.19896875,88.67812373053154L97.48009375,122.5499660599892L97.69093749999999,114.76303495339542L97.97206249999999,125.45506239755159L97.97206249999999,131.87027886404505L98.32346875,127.20381418999386L98.5343125,117.1145452030679L98.95599999999999,123.8825392346491L99.30740625,134.18031741505322L99.44796875,98.62699488595426L99.799375,108.01896424171532L99.9399375,86.99702178881887L100.0805,73.8161364462752L100.2210625,73.1038565317856L100.71303125,74.2795900273364L100.7833125,111.52627314138665L100.99415625,109.99585906868126L101.0644375,96.27857676866593L101.0644375,88.04820738865699L102.25921875,73.00953765889254L102.4700625,79.96043582069996L102.7511875,67.06702079956611L102.96203125000001,100.32381966462647L103.10259375000001,73.51959770173399L103.172875,68.00578485280589L103.24315625000001,64.94319930285415L103.454,72.55154606467599L103.52428125,86.4190468118556L103.5945625,63.69336316740345L103.735125,77.45767824504262L104.22709375000001,112.2986360350459L104.297375,103.07430563325961L104.71906249999999,108.70728433701575L104.78934375,103.33812100632908L104.78934375,100.11662300791669L105.2813125,105.89132361630422L105.421875,112.39913334262272L105.5624375,111.94657425768322L105.703,98.27355302385787L105.8435625,109.34589550502467L105.984125,85.28100824718098L106.26525,74.34736790874268L106.33553124999999,65.33687788020794L106.47609374999999,77.06149195892374L106.546375,96.06009686149837L106.6869375,101.422733558164L106.8275,115.80863871750007L107.53031250000001,108.31392556176658L107.952,98.79974018183967L107.952,93.0912289538837L108.0925625,113.85455688946597L108.0925625,126.3125536508152L108.16284375,102.93755296866823L108.233125,88.90285200477068L108.3736875,89.16619855523356L108.51425,70.03624779200696L108.72509375,70.48921330700031L108.795375,91.08786035734236L109.28734374999999,100.35630264972347L109.42790624999999,84.35920820888671L109.70903125,142.48479694281085L109.70903125,177.3601501831655L110.34156250000001,135.59257709677465L110.48212500000001,121.0413291972605L110.48212500000001,112.31058045755212L110.6226875,81.24654140192506L110.69296874999999,75.34453915428045L110.9038125,104.37020254654236L111.1849375,114.48176132155976L111.3255,139.2170408339113L111.39578125,117.26712536637831L111.4660625,127.69007810845892L111.60662500000001,112.73117892083454L111.95803125,122.04348776422094L112.02831250000001,116.13903982449852L112.09859374999999,105.49325866108693L112.168875,109.79444442156283L112.3094375,133.46097330429154L112.37971875,118.00344607936142L112.66084375,105.08511652175683L112.80140625,90.70918267741249L113.29337500000001,99.72275812491432L113.43393750000001,78.47235477009184L113.50421874999999,109.13480807565882L113.7150625,89.0465167774156L113.7150625,76.99354199846942L113.78534375,93.88629024791925L113.92590625,90.64060072045444L113.9961875,96.23221383655626L114.06646875,89.0443069110189L114.06646875,84.73156275569649L114.34759375,100.61112663280518L114.417875,91.04640975076866L114.62871875,79.95796118068071L115.26124999999999,76.21410871677011L115.61265625,71.02717247088206L115.8235,96.3446906774012L116.03434375,95.74615833573156L116.17490625,96.16477920062901L116.2451875,99.90177479057026L116.59659375,78.52949825923736L116.66687499999999,59.24217116833411L116.73715625,60.45110356212044L117.15884375,59.75631537080015L117.51025,53.480443144084376L117.86165625000001,50.612187191391925L118.42390625,79.48725770982786L119.0564375,114.91258521719386L119.12671875000001,109.3726113012051L119.197,117.90494327370007L119.47812499999999,133.16840913667477L119.54840625,130.4018614338291L119.68896875,118.45330751815173L120.040375,80.05388404654714L120.3215,60.798124621672684L120.3215,49.24466896674841L120.7431875,84.05265750063538L121.0243125,99.34531831486855L121.23515625,76.66958467807677L121.23515625,63.064144496001774L121.3054375,66.02260016434077L121.37571875,81.49736660738431L121.5865625,105.20165996563209L122.4299375,85.6270288694604L122.50021875,99.9648029666369L122.851625,108.20250949628489L122.92190625,90.7409224293668L123.06246875,88.94725544941657L123.06246875,87.8710552614465L123.5544375,132.07859674462875L123.76528124999999,118.97343910556555L123.976125,94.3219406236502L124.04640624999999,74.92097166951228L124.1166875,72.59780691728443L124.18696874999999,87.40858278671176L124.60865625,91.96012144684369L124.74921875,89.76865762114265L124.8195,75.82955896043634L124.9600625,93.63188734760192L125.2411875,82.47984588808005L125.31146874999999,100.19942224422809L125.662875,134.5726988577825L125.73315625,116.88096651220192L126.15484375,101.11608582010197L126.15484375,91.65715740484201L126.225125,84.2677869758736L126.3656875,72.82120642433934L126.50625000000001,67.73327594620211L126.71709374999999,71.64171705020806L127.27934375,71.22293768151586L127.4901875,39.514806543731424L127.56046875,50.28541876968386L127.84159375,68.03305859027266L128.0524375,97.42657362614834L128.26328125,111.55623741862024L128.40384375,136.91110130498888L129.10665625,125.3898338219527L129.24721875,121.17328482514628L129.3175,133.65696484831565L129.4580625,110.42985792152639L129.66890625,100.06563645119998L130.09059375,85.36149254748543L130.37171874999999,73.45422983949977L130.8636875,90.54063657990474L131.28537500000002,84.72890487951862L131.4259375,79.42535221363774L131.63678125,93.80027475229305L131.91790625,69.61361107988002L131.91790625,55.10161287643231L131.98818749999998,36.30916112695758L131.98818749999998,25.033690077272723L132.33959375,35.93013260496147L133.1126875,74.99076943238084L133.18296875000001,64.52391667747227L133.18296875000001,58.243805024527006L133.46409375,64.2148913523571L133.8155,95.31055461055125L133.88578125,117.63096338919459L134.30746875,110.28695037610308L134.37775,115.90989849356994L134.44803125,130.97351402871732L134.5183125,96.16938235064103L134.58859375,91.00614331781705L134.658875,126.63037180077927L135.29140625,93.51777551872675L135.57253125,87.04051058473077L135.99421875000002,98.6240941285008L136.0645,86.40839044445221L136.34562499999998,89.84454876895836L136.34562499999998,91.90624376366205L136.55646875,72.61641235488462L136.69703125,79.22698323927983L136.907875,88.415073263661L136.97815625,89.22003783465362L137.0484375,88.91191260624497L137.61068749999998,96.30432383184765L137.68096875,74.3784116623709L137.75125,91.51165899741122L137.75125,101.79160739843503L138.1729375,91.0565974585084L138.80546875000002,103.45773169230647L139.36771875,115.8920271028952L139.64884375,94.19253368555768L139.64884375,81.1728376351551L139.78940625,92.06328227536422L140.35165625000002,115.46986614713991L140.49221875,79.97952850490776L140.63278125,70.48499914306383L140.7030625,84.15872885166408L140.77334375,71.52590403186548L140.843625,76.52762496010814L140.91390625,73.97179995498875L141.05446875,79.2679024131409L141.12475,93.11841254778581L141.47615625,89.98009694426005L141.61671875000002,110.74525698905448L141.89784375000002,112.61677426627426L141.96812500000001,80.72550900299055L142.03840624999998,88.39467111539048L142.31953124999998,75.84524865335949L142.8115,75.10971438519191L142.88178125,71.20359992761642L142.95206249999998,61.84988990890521L143.02234375,27.987478121921384L143.58459375,58.957134613278754L144.00628125,53.414327555229335L144.84965625,74.14255911310326L145.341625,77.6451515805712L145.41190625,71.7489728839393L145.62275,88.48583181567153L145.62275,98.52794717471075L145.69303125,114.29040246439135L145.83359375,114.3425435020456L145.97415625,74.58812268936214L146.11471875,73.76173773028604L146.185,89.40098169218392L146.74725,80.42239573461374L147.1689375,106.02546351470114L147.37978125,82.8903479535435L147.4500625,104.0740022515685L147.66090625,126.09035066696595L147.80146875000003,136.38103897531403L148.64484375,136.681393046138L148.715125,123.86645762262171L148.99625,93.648670566901L149.06653125,67.98507674504795L149.1368125,76.10282856207787L149.20709375,71.05747776020593L149.20709375,68.03026727908275L149.90990625,68.27961643381991L150.12075000000002,65.07995681669746L150.40187500000002,71.86454331699862L150.47215625,76.26870938434514L150.5424375,73.98007115301087L150.82356249999998,111.94636813745828L151.24525,107.00684545007897L151.31553125,95.73592961768856L151.526375,69.28118642533147L151.8075,54.10047168948837L152.01834374999999,66.4565889204655L152.088625,103.9999105313487L152.2291875,92.7449092018047L152.44003125,81.55041111394405L152.650875,77.22669662764473L153.0725625,102.60778205234304L153.21312500000002,96.97033683442172L153.70509374999997,68.70411555756996L153.77537500000003,48.84683391326581L153.84565625,72.04582700654224L153.91593749999998,70.52417851402959L154.12678125,68.24510711976636L154.68903125,84.08454875081019L154.899875,73.0499010320259L155.53240625,78.80471365664897L155.67296875,97.48109537967734L155.74325000000002,94.59439282780119L155.95409375,83.62052403190856L156.1649375,95.53468554198207L156.30550000000002,109.76587619769252L156.37578125000002,117.977281668113L156.58662500000003,96.25676927466795L156.65690625000002,87.9615886181572L156.86775,72.80154349028925L157.07859374999998,76.76232724559236L157.2894375,73.43812751872484L157.43,100.8652541405148L157.64084375,117.83640570439002L157.99225,112.55057869551864L158.06253125,143.40455789684233L158.4139375,109.95419483374921L158.5545,105.59921464318852L158.62478125,68.03804522153641L158.76534375,57.765151020270025L159.32759375,67.16876956604791L159.397875,47.14218782057091L159.60871874999998,18.515429643808204L159.74928125,39.40638610602542L159.8195625,39.41801883507432L160.31153125,76.92435780601902L160.73321875,100.1015017833545L160.9440625,72.2034176710983L161.36575,60.477718855365566L161.36575,53.44229956592599L161.57659375,46.299417317661465L161.646875,69.38648232266462L162.13884375,119.53867152598588L162.27940625000002,120.03840929429L162.34968750000002,113.71223046875151L162.41996875,150.06460876760553L162.49024999999997,144.2304048150638L162.6308125,112.58409634291273L163.1930625,71.55115646755178L163.61475,49.463305131408504L163.61475,36.21059432972248L163.82559375,35.07988229601858L164.10671875,63.42124079590593L164.95009375,92.98651037767834L165.16093750000002,103.4634841987807L165.23121875,79.37716417368158L165.93403125,72.56907001051839L166.07459375,86.75157889076189L166.21515625,100.9500185629615L166.21515625,109.46908236628134L166.2854375,81.47191724232059L166.49628125,41.34805800349267L166.5665625,27.66758146185157L166.63684375,39.65910636364492L166.98825,60.0717392383758L167.19909375,79.32949597947268L167.4099375,54.178743775561145L167.69106250000002,58.269748554154916L167.831625,54.861553290799264L167.97218750000002,79.7794294234007L168.39387499999998,95.2689089820319L168.46415624999997,122.8552649405918L168.60471875,103.64147285147438L169.02640624999998,117.56107630445908L169.16696875,115.67882109948606L169.30753124999998,92.2116684810437L169.3778125,103.53360195732829L169.72921875,124.73676632509634L169.7995,95.45309273401489L169.86978125,65.13975162505872L170.36175,101.50617368936406L170.924,89.95849333357738L171.06456250000002,52.510515762280846L171.34568750000003,87.48868495995507L172.1890625,87.34994929298577L172.25934375,65.73045911946758L172.25934375,52.75876501535686L172.54046875,91.31231313547684L172.891875,96.86798676014658L173.173,125.12469349599306L173.38384375,93.83908051429066L173.52440625,107.18211103783757L173.94609375000002,91.66937563602163L174.15693750000003,94.87212587466253L174.36778124999998,99.67077057403573L175.0003125,90.93751165772812L175.140875,100.57820707860802L175.49228125,63.61268718423388L175.703125,87.39874098528563L175.8436875,119.68009734051894L175.98425,109.15695738731281L176.05453125,104.98079073988478L176.4059375,82.83038229085851L176.47621875000002,79.61894562445788L176.827625,63.94375213743852L176.89790625,68.1770053014851L176.9681875,75.97045196328712L177.17903124999998,87.56491480609283L177.31959375,123.09121822917774L177.31959375,144.4070002830285L177.389875,124.48925199486376L177.60071875,87.19247838483807L178.37381249999999,90.32700851337049L178.9360625,90.2216906653399L179.14690625,84.9532366220089L179.14690625,81.7921641960103L179.2171875,76.81698529090623L179.4983125,85.17074090937453L181.53646875,99.94677208483033L182.0284375,50.39137726199509L182.09871875000002,63.02921319706337L182.450125,94.70171581925796L182.52040625,98.30433198345794L182.5906875,84.04238787611209L182.66096875000002,109.99124736976566L182.73125000000002,127.25361510748829L182.80153125,119.81282446763018L182.8718125,108.04322193849735L183.64490625,112.80589380138316L183.85575,85.65228738351595L183.92603125,90.97614749648542L184.06659375,54.56506633984047L184.20715625,90.53860731260185L184.62884375,104.47320014438739L184.90996875,84.57454436541623L185.05053125,89.36283802700648L185.05053125,92.23581422396082L185.4019375,110.71700276748882L185.61278125,87.86300046334618L186.17503125,80.60682694369534L186.385875,48.477518035495336L186.5264375,32.09429327459566L186.8075625,40.70192443616045L186.87784374999998,76.87605576090148L187.22925,103.70263089759415L187.3698125,92.69081705822519L187.58065625,66.13979549416274L187.72121875,77.39203598027463L187.9320625,91.65025281861458L188.28346875,110.04941427680883L188.4943125,76.92554214580674L188.63487500000002,97.66771236052399L188.98628125,105.16091527933071L189.47825,88.6720953130377L189.759375,116.79520901105693L189.82965625,124.34379162825269L189.8999375,107.93663441799369L189.97021875,112.70083264507232L190.11078125,100.59241335986475L190.11078125,93.32736178874002L190.81359375,100.50215460442891L190.81359375,104.80703029384225L190.88387500000002,74.43215183228247L191.09471875,106.03659952169659L191.23528125,85.39970481089361L192.1489375,81.57271095330493L192.35978125,49.739207722037776L192.50034374999998,25.754842619472583L192.64090625,55.09479858897551L192.92203125,75.67311145319006L192.9923125,87.7444134798853L193.5545625,97.93155044598635L193.62484375,68.55214891602525L194.257375,80.41704312425809L194.32765625000002,124.29484070218768L194.3979375,138.64472610877237L194.67906250000001,108.75749761537494L194.74934374999998,121.12521593973513L195.03046874999998,102.1123104763358L195.10074999999998,77.74462624027319L195.10074999999998,63.12401569863563L195.59271875,87.68831756699315L195.66299999999998,71.54447081081992L196.01440625,81.5204407536563L196.0846875,95.3193785228477L196.506375,91.11507710684229L196.57665625,88.94191973131208L196.6469375,76.21287489367323L196.71721875,81.29796278734695L197.13890625000002,46.07741063988013L197.7714375,95.49416040274991L198.26340625,82.22068067129524L198.47424999999998,96.36083282074945L198.755375,66.07580966378228L199.0365,35.90147873535719L199.1770625,50.88364037737243L199.38790625000001,63.1401926926672L199.4581875,94.77725787472102L199.4581875,113.75949698395355L199.80959375,92.17997929875143L200.58268750000002,67.43327382459712L200.72324999999998,63.11883179697067L200.93409375,78.06456347914128L201.1449375,109.19173236257798L201.49634375,125.40185423235278L201.63690625,107.1673336597693L201.84775,106.96906975939352L201.9883125,79.4877638163238L202.05859375,100.46720283878288L202.33971875,98.3314594367292L202.41,71.70700921649615L202.48028125,56.98561003824972L202.5505625,77.37972753656449L202.62084375,67.88682003863192L202.691125,57.62313185958568L202.691125,51.46491895215799L202.97225,29.491161537749434L203.04253125,31.801067061771676L203.11281250000002,58.41767806264747L203.11281250000002,74.38764466317276L203.18309375,83.3860311178673L203.253375,60.57517182638114L203.32365625,115.05492834335479L203.39393750000002,123.71952835372642L203.60478124999997,73.38946466238245L203.81562499999998,76.10988541597692L203.88590624999998,99.00460035893076L203.9561875,83.29902503664943L204.659,47.68031574353952L204.72928124999999,22.064724427851246L204.940125,56.00138930820923L205.22125,81.11089393105222L205.64293750000002,64.88979815605946L206.27546875000002,74.9730673322895L206.34575,93.72376826344815L206.908,57.04144207202725L207.0485625,53.941954765101144L207.11884375,74.63035361968284L207.11884375,87.04339293243186L207.82165625,72.44551903964093L208.66503125,115.98072086549377L208.73531250000002,137.1892233298814L209.22728125,107.81174705067835L209.50840624999998,111.74735559010257L209.78953124999998,86.87702533593036L209.78953124999998,71.95482718342714L209.93009375,40.07679132458088L210.000375,50.99095936916207L210.000375,57.53946019591079L210.49234375,87.36958418715702L210.77346875,69.83438170807783L211.5465625,67.43506652627727L211.75740625,60.09489460894085L211.89796875000002,83.57968245213394L212.1088125,124.98032982507452L212.60078124999998,90.46234623407784L212.67106249999998,95.94088277110727L212.67106249999998,99.22800469332518L212.95218749999998,105.51783868034842L213.58471875,55.233329512835255L214.14696875,60.33926745543522L214.3578125,59.102296234903775L214.56865625,95.56994859083768L214.56865625,117.45054000439796L214.7795,105.3989006925976L215.27146875000003,92.90119431313006L215.34175,66.97341613707626L215.55259375,107.05872345410384L215.622875,117.25493809248565L216.46625,152.01175670424425L216.6068125,107.39585510849524L217.09878125,85.84324528550832L217.23934375000002,75.0841287718756L217.87187500000002,62.81090386787314L218.15300000000002,78.59052497791795L218.29356249999998,56.347862986609755L218.92609375,60.719412999084966L219.06665625,42.68870903058723L219.06665625,31.870286649488463L219.1369375,70.21845275522666L219.20721875,91.51449225164305L219.2775,108.67785200963527L219.4180625,104.02900911265691L219.4180625,101.23970337446963L219.83975,100.99230496726301L220.05059375,105.17913196469453L220.19115625,87.53374702921573L220.96425000000002,97.89971402401353L221.45621874999998,82.25817862221369L221.73734374999998,128.70897135179527L222.01846874999998,161.3252567830165L222.369875,120.2262671221778L222.44015625,95.80986204323091L222.932125,99.50722740040366L223.0726875,99.57402290073732L223.42409375,84.23404045800996L223.49437500000002,91.063439696435L223.56465625,70.3414979931139L224.19718749999998,41.480681166435545L224.33775,45.968867078653204L224.4783125,46.728722652930884L224.7594375,79.64092798300901L224.97028125,74.18566761772828L225.0405625,72.56845712280868L225.11084375,87.88115618000394L225.39196875,72.17864487987724L225.6028125,106.74610063089106L225.74337500000001,65.73514986427536L226.23534375,40.16300112242621L226.30562500000002,61.28402881762452L226.37590625,27.78499028051567L226.51646875,21.536941599635554L226.86787500000003,66.3173414956264L227.07871874999998,88.59708343092986L227.50040625,89.78008229818569L227.8518125,87.62869286111992L228.06265625,66.37425348503584L228.06265625,53.62158985938552L228.20321875,73.81255065802303L228.4140625,54.55600838305679L228.62490625,71.01362158323627L228.83575,115.35948340574068L228.90603125,127.64789651917917L228.9763125,160.61846941165615L229.398,109.4964068856983L229.5385625,87.81694021386795L229.81968750000001,116.01253550388147L229.96024999999997,61.96009246789043L230.1008125,70.60057135392819L230.31165625,55.17870994192114L230.45221875,56.911708615909646L230.73334375,112.33851518791343L230.87390625,94.8216927979078L230.9441875,117.41430103383597L231.01446875,92.02213921905843L231.08474999999999,83.58869464851188L231.365875,71.68464920316192L231.43615625,47.778713866436874L231.43615625,33.435152664401755L231.647,14.992585733305646L232.0686875,57.746875759822814L232.27953125000002,41.948233733691524L232.56065625000002,46.45656990415927L232.63093750000002,41.45838154200965L232.98234374999998,72.12704095151594L233.05262499999998,60.08681085650082L233.54459375,21.292590921783045L233.96628125,48.335481325187374L234.0365625,107.64198911154163L234.177125,117.49228965022499L234.24740625,102.205062250962L234.5988125,102.53370677272692L234.66909375,117.331042205335L234.95021875,97.23890671434474L235.44218750000002,120.57694686235457L235.86387499999998,99.83238434065277L236.14499999999998,62.65113198321386L236.21528125,86.66198613978209L236.35584375,63.23586080513461L236.8478125,73.11396375919611L237.2695,63.60120574012542L237.48034375,58.65677428469155L237.76146875,46.884657431990206L238.112875,68.03019310793293L238.18315625,41.480874036318255L238.394,38.602937885860314L238.53456250000002,66.57778201624139L238.74540624999997,37.58075142576928L238.8156875,65.14338263675366L239.16709375,85.70268919947647L239.237375,83.85836872388668L239.799625,123.42694811183064L239.9401875,114.50266522859263L240.15103125,63.70404977616518L240.5024375,42.85230785618336L240.57271875,37.61430439955049L240.99440625,59.7378517723443L241.13496875,86.93478599407439L241.20525,104.88718471657135L241.41609375000002,90.14290919739544L241.76749999999998,94.70502028965079L242.048625,87.76025157632306L242.11890624999998,89.51568069137254L242.1891875,121.75832414673036L242.32975,92.26426336792846L242.40003124999998,98.22144218461345L242.68115625,94.59678474173928L243.0325625,77.0801900631548L243.10284375,110.13277840056199L243.38396875,102.75929559134339L243.45425,77.99965515054997L243.59481250000002,62.34347337673745L243.59481250000002,52.9497643124502L244.297625,98.15299236842638L244.43818750000003,95.88184171955965L244.50846875000002,83.98244961524708L244.57874999999999,94.74868144050038L244.64903124999998,100.37783598574867L245.0004375,89.47068544431252L245.63296875,49.48960092189165L245.984375,85.19219370199592L246.33578125,83.94151816674109L246.47634375,93.23498568480049L246.61690625,114.91846402612217L246.6871875,95.080302370351L246.82775,88.69837767050353L247.03859375000002,52.424123812709496L247.03859375000002,30.659571498033216L247.108875,33.70586367809568L247.17915625,89.01313572742818L247.31971875000002,81.10330402623606L247.81168749999998,106.87216151220173L247.95225,72.36558003105259L248.09281249999998,83.99513988421879L248.65506249999999,91.5782446725759L248.72534375,84.48730634233911L248.86590625,75.01933968413793L249.00646875,117.22836622207728L249.28759375,111.19358499413352L249.56871875000002,144.4584307167865L249.639,141.19163264596114L249.99040625,116.43687853672282L250.20125000000002,86.48670696889293L250.27153125,64.2326220373804L250.482375,64.95642201307409L250.55265624999998,65.75633828760952L250.62293749999998,70.60370837999459L250.90406249999998,95.02701085420296L251.044625,74.46601186163359L251.11490625,67.56355462054695L251.18518749999998,58.51387098777471L251.25546875,39.44046817629467L251.4663125,40.362055846506024L251.7474375,28.206128697665918L252.0285625,48.61118329231272L252.169125,27.715086422350254L252.3096875,13.217848433248008L252.45025,36.342751641983796L253.01250000000002,85.34197725052536L253.36390624999999,89.49564965483462L253.36390624999999,91.98785309742017L253.43418749999998,78.19727185219587L253.64503125,86.64681492358477L253.71531249999998,96.25070209568752L253.855875,97.29022102514513L254.137,101.53400298928968L254.2775625,104.45649088010627L254.418125,91.76680750599752L254.5586875,48.91142527431981L254.76953125,86.30742645365459L255.19121875,88.60694713653601L255.47234375,49.94073503769343L255.89403125,43.21777288053576L256.104875,33.22351354917399L256.8076875,49.597725764277584L256.94825000000003,68.54864340744192L257.0888125,93.16235044432744L257.0888125,107.93057466645888L257.3699375,104.44405990302486L257.9321875,117.13932374393882L258.353875,89.02933942244006L258.70528125,80.0330085513924L258.98640625,28.257401130076175L259.19725,29.64575089304185L259.97034375,46.42959298663453" style="fill: none;" fill="none"></path></g></g></g></g><g opacity="0.20000000298023224"><g><g><g><path stroke="rgb(255, 112, 67)" stroke-width="2px" d="M38.443843750000006,-17.547998026013374L38.72496875,177.25185778737068L38.865531250000004,121.30543538928032L39.56834375,252.15862469375134L39.990031249999994,106.17850585281849L40.41171875,492.2980587184429L40.55228125,217.33956930041313L40.692843749999994,149.0262964963913L40.97396875,334.15188416838646L41.395656249999995,216.49755437672138L41.536218749999996,81.2911563962698L41.6065,282.2898701131344L42.098468749999995,379.77739131450653L42.37959375,123.01795637607574L42.5904375,145.71335358917713L42.94184375,229.46746723353863L44.698875,222.63281598687172L45.4016875,112.46673774719238L45.54225,112.1709725856781L45.753093750000005,109.34865388274193L45.9639375,172.99090613424778L46.03421875,86.33120504021645L46.315343750000004,80.3195746243L46.73703125,235.9971954524517L47.018156250000004,87.05213262140751L47.29928125,202.3844345510006L47.861531250000006,108.31669802963734L48.00209375,157.83480709791183L48.3535,35.007809191942215L49.8996875,87.61398467421532L49.96996875,114.92952540516853L50.53221875,156.99024832248688L50.6025,127.8078595995903L50.67278125,92.78207385540009L50.7430625,84.25677874684334L51.3053125,68.12027925252914L51.37559375,111.9423651099205L51.445875,83.37864112854004L51.79728125,158.3274663835764L52.359531249999996,187.51816502213478L52.4298125,122.55429700016975L53.132625,79.35562440752983L53.20290625,68.6970552355051L53.2731875,188.87505553662777L53.5543125,133.32767868041992L53.765156250000004,55.17003884911537L53.8354375,94.12471880018711L53.976,80.72082483768463L54.18684375,54.108404725790024L54.32740625,60.242140024900436L54.6788125,120.36997631192207L54.88965625,113.50547720491886L55.100500000000004,96.70164060592651L55.241062500000005,176.48514087498188L55.45190625,112.40636366605759L55.5221875,142.96039724349976L55.66275,82.18489630520344L55.73303125,57.95691321790218L55.73303125,57.95691321790218L55.943875000000006,38.74879755079746L56.29528125,181.22077526152134L56.9278125,84.49216982722282L56.99809375,99.24243971705437L57.41978125,129.5102051794529L57.630624999999995,70.79166275262833L57.700906249999996,57.425756976008415L57.771187499999996,50.559901148080826L57.84146875,69.21583139896393L57.91175,69.04420620203018L58.333437499999995,134.20819056034088L58.474,126.43248376250267L58.6145625,139.27418649196625L58.68484375,146.7883853316307L58.82540625,109.67155346274376L58.965968749999995,190.32895159721375L58.965968749999995,190.32895159721375L59.106531249999996,128.80878046154976L59.317375,121.19452345371246L60.23103125,40.66346995532513L60.37159375,52.07569760084152L60.51215625,128.48045399785042L60.51215625,128.48045399785042L60.79328125,59.12793296575546L61.07440625,129.0835164487362L61.21496875,127.16714814305305L61.35553125,113.63792708516121L61.566375,165.5538707971573L61.7069375,146.8246776163578L61.9880625,142.39328789710999L62.128625,119.54797302186489L62.19890625,115.56854096055031L62.19890625,115.56854096055031L62.2691875,94.56005662679672L62.33946875,120.21632766723633L62.550312500000004,134.55211931467056L62.690875,74.10036590695381L62.76115625,105.4053445160389L62.972,112.01393213868141L62.972,112.01393213868141L63.04228125,135.2031757682562L63.18284375,20.892484694719315L63.323406250000005,34.51667621731758L63.46396875,88.60880029201508L63.53425,61.68331682682037L63.53425,61.68331682682037L64.37762500000001,190.31097504496574L64.5181875,125.41222962737083L65.64268750000001,71.49614009261131L65.85353125,83.32810327410698L65.9238125,106.51819485425949L66.13465624999999,135.33630400896072L66.41578125,90.30164882540703L66.62662499999999,93.54149839282036L66.76718749999999,71.68930323421955L66.97803125,82.66161412000656L67.0483125,113.5605939924717L67.25915625,61.73419386148453L67.3294375,149.01849535107613L67.82140625,138.43268033862114L67.8916875,130.10377058386803L68.24309375,99.68710500001907L68.313375,105.15435114502907L68.66478125,107.7324600815773L68.80534374999999,95.28420642018318L68.94590625,110.80221076309681L69.22703125,74.4198736846447L69.2973125,95.4604105502367L69.50815625,110.86156730353832L69.50815625,110.86156730353832L69.719,91.91818180680275L70.1406875,71.55600540339947L70.35153125,131.35212342441082L70.4218125,70.58628912270069L70.77321875,77.54270607233047L70.8435,85.18307995796204L71.124625,70.42026039958L71.5463125,96.86885645985603L71.8274375,73.15201798081398L72.249125,154.38093480467796L72.45996874999999,84.32105340063572L72.60053124999999,132.50007891654968L72.6708125,108.99014037847519L72.811375,76.99696508049965L72.9519375,80.92772477865219L73.02221875,47.28749027848244L73.16278125,85.10947784781456L73.2330625,88.36899986863136L73.5141875,99.14950433373451L73.72503125,147.0256419032812L73.86559375,112.33751007914543L73.93587500000001,96.01920998096466L74.28728124999999,139.94610252976418L74.42784375,94.22087639570236L74.9198125,114.8294672369957L75.69290625,100.34647136926651L75.7631875,87.50239437818527L75.90375,165.18857368826866L75.90375,165.18857368826866L75.97403125,96.59310293197632L76.60656250000001,151.0622258335352L77.02825,106.76884904503822L77.02825,106.76884904503822L77.23909375,90.09440970420837L77.309375,106.86788967251778L77.52021875,57.08216740190983L78.433875,161.16114762425423L78.50415625,49.82998529076576L78.8555625,135.77164183557034L79.20696875,86.78706327080727L79.34753125,219.26339957118034L79.4178125,89.9668779373169L80.12062499999999,109.13513992726803L80.33146875,66.83699084818363L80.61259375,129.36435768008232L80.8234375,85.57483312487602L81.17484375000001,182.1440238505602L81.38568749999999,106.19970461726189L81.45596875,63.60629914700985L81.73709375,75.09229849278927L81.87765625,116.50400003790855L81.9479375,51.68004386126995L82.0885,120.35369566082954L82.0885,120.35369566082954L82.72103125000001,116.97851318120956L83.28328125,212.97092792391777L83.77525,107.88169938325882L83.9158125,66.72421342134476L83.9158125,66.72421342134476L83.98609375000001,121.92138668894768L84.056375,94.84174580872059L84.82946875,48.68389528989792L84.97003125,104.45767495036125L85.11059375,81.80704952776432L85.25115625000001,59.30210201442242L85.3214375,62.05895893275738L85.462,71.28856179118156L85.6025625,87.52935920655727L85.74312499999999,141.71272276341915L86.5865,139.2194088846445L86.65678125000001,121.95666143298149L87.0081875,95.096639752388L87.2893125,103.71792286634445L87.35959375,80.62348011136055L87.429875,49.215221121907234L87.50015625,50.366907596588135L87.8515625,91.87985444068909L88.1326875,104.09136030077934L88.62465624999999,119.25559966266155L88.6949375,112.12586161494255L88.76521874999999,129.94096407294273L89.60859375,106.67913587391376L89.678875,115.74220123887062L89.74915625,81.90575097501278L90.241125,43.267186999320984L90.241125,43.267186999320984L90.59253125,90.66236700117588L90.803375,34.3499691337347L90.9439375,4.778371095657349L91.2250625,111.98103165626526L91.50618750000001,98.45079305768013L91.50618750000001,98.45079305768013L91.71703124999999,171.6667465120554L91.99815625,65.51249204576015L92.27928125,78.37115378677845L92.3495625,108.16203184425831L92.490125,63.719585344195366L92.63068750000001,73.67808651924133L92.77125000000001,92.37336167693138L92.91181250000001,120.22718143463135L93.052375,175.70044741034508L93.1929375,110.36958637833595L93.4740625,156.7056761085987L93.7551875,85.27771124243736L93.89575,61.72554476559162L93.96603125,120.60044927895069L94.24715625,106.42000217735767L94.52828124999999,146.47294771671295L94.66884375,112.58850345015526L94.739125,97.50753283500671L94.739125,97.50753283500671L94.80940625,73.58718621730804L94.94996875,138.22883301973343L95.1608125,103.66534993052483L95.51221875,92.8115825355053L95.86362500000001,94.75101509690285L96.0041875,64.86804960668087L96.07446875,58.944436460733414L96.14475,105.16673122346401L96.35559375,96.85087990760803L96.425875,104.47124215960503L96.49615625,79.730079382658L96.49615625,79.730079382658L96.707,103.5736016780138L97.19896875,82.41503009200096L97.48009375,173.35772955417633L97.69093749999999,103.08263829350471L97.97206249999999,141.49310356378555L97.97206249999999,141.49310356378555L98.32346875,120.20411717891693L98.5343125,101.98064172267914L98.95599999999999,134.03453028202057L99.30740625,149.6269846856594L99.44796875,45.29701109230518L99.799375,122.10691827535629L99.9399375,55.46410810947418L100.0805,54.04480843245983L100.2210625,72.03543666005135L100.71303125,76.04319027066231L100.7833125,167.39629781246185L100.99415625,107.70023795962334L101.0644375,75.70265331864357L101.0644375,75.70265331864357L102.25921875,50.45153306424618L102.4700625,90.38678306341171L102.7511875,47.72689826786518L102.96203125000001,150.20901796221733L103.10259375000001,33.31326475739479L103.172875,59.73506557941437L103.24315625000001,60.349320977926254L103.454,83.9640662074089L103.52428125,107.22029793262482L103.5945625,29.6048377007246L103.735125,98.1041508615017L104.22709375000001,164.5600727200508L104.297375,89.23781003057957L104.71906249999999,117.15675239264965L104.78934375,95.28437601029873L104.78934375,95.28437601029873L105.2813125,114.55337452888489L105.421875,122.1608479321003L105.5624375,111.26773563027382L105.703,77.76402117311954L105.8435625,125.95440922677517L105.984125,49.18367736041546L106.26525,57.9469074010849L106.33553124999999,51.821142837405205L106.47609374999999,94.6484130769968L106.546375,124.55800421535969L106.6869375,109.46668860316277L106.8275,137.38749645650387L107.53031250000001,97.07185582816601L107.952,84.52846211194992L107.952,84.52846211194992L108.0925625,144.99954879283905L108.0925625,144.99954879283905L108.16284375,67.87505194544792L108.233125,67.85080055892467L108.3736875,89.56121838092804L108.51425,41.341321647167206L108.72509375,71.16866157948971L108.795375,121.9858309328556L109.28734374999999,114.25896608829498L109.42790624999999,60.36356654763222L109.70903125,229.67318004369736L109.70903125,229.67318004369736L110.34156250000001,72.94121746718884L110.48212500000001,99.21445734798908L110.48212500000001,99.21445734798908L110.6226875,34.650482818484306L110.69296874999999,66.49153578281403L110.9038125,147.90869763493538L111.1849375,129.64909948408604L111.3255,176.31996010243893L111.39578125,84.34225216507912L111.4660625,143.32450722157955L111.60662500000001,90.29283013939857L111.95803125,136.0119510293007L112.02831250000001,107.28236791491508L112.09859374999999,89.52458691596985L112.168875,116.24622306227684L112.3094375,168.9607666283846L112.37971875,94.81715524196625L112.66084375,85.70762218534946L112.80140625,69.1452819108963L113.29337500000001,113.24312129616737L113.43393750000001,46.59674973785877L113.50421874999999,155.12848803400993L113.7150625,58.91407983005047L113.7150625,58.91407983005047L113.78534375,119.22541262209415L113.92590625,85.77206642925739L113.9961875,104.61963351070881L114.06646875,78.26244652271271L114.06646875,78.26244652271271L114.34759375,124.43047244846821L114.417875,76.69933442771435L114.62871875,63.32528832554817L115.26124999999999,70.59833002090454L115.61265625,63.24676810204983L115.8235,134.32096798717976L116.03434375,94.84835982322693L116.17490625,96.79271049797535L116.2451875,105.50726817548275L116.59659375,46.47108346223831L116.66687499999999,30.311180531978607L116.73715625,62.26450215280056L117.15884375,58.71413308382034L117.51025,44.06663480401039L117.86165625000001,46.30980326235294L118.42390625,122.79986348748207L119.0564375,168.05057647824287L119.12671875000001,101.06265042722225L119.197,130.70344123244286L119.47812499999999,156.06360793113708L119.54840625,126.25203987956047L119.68896875,100.5304766446352L120.040375,22.45474883913994L120.3215,31.91448548436165L120.3215,31.91448548436165L120.7431875,136.264640301466L121.0243125,122.28430953621864L121.23515625,42.65598422288895L121.23515625,42.65598422288895L121.3054375,70.46028366684914L121.37571875,104.70951627194881L121.5865625,140.75810000300407L122.4299375,56.265082225203514L122.50021875,121.47146411240101L122.851625,120.55906929075718L122.92190625,64.54854182898998L123.06246875,86.25675497949123L123.06246875,86.25675497949123L123.5544375,198.3899089694023L123.76528124999999,99.31570264697075L123.976125,57.34469290077686L124.04640624999999,45.819518238306046L124.1166875,69.11305978894234L124.18696874999999,109.62474659085274L124.60865625,98.78742943704128L124.74921875,86.48146188259125L124.8195,54.920910969376564L124.9600625,120.33537992835045L125.2411875,65.75178369879723L125.31146874999999,126.77878677845001L125.662875,186.13261377811432L125.73315625,90.34336799383163L126.15484375,77.4687647819519L126.15484375,77.4687647819519L126.225125,73.1837313324213L126.3656875,55.65133559703827L126.50625000000001,60.10138022899628L126.71709374999999,77.50437870621681L127.27934375,70.59476862847805L127.4901875,-8.047390162944794L127.56046875,66.44133710861206L127.84159375,94.6545183211565L128.0524375,141.51684617996216L128.26328125,132.75073310732841L128.40384375,174.94339713454247L129.10665625,108.10793259739876L129.24721875,114.84846132993698L129.3175,152.38248488307L129.4580625,75.5891975313425L129.66890625,84.51930424571037L130.09059375,63.305276691913605L130.37171874999999,55.59333577752113L130.8636875,116.1702466905117L131.28537500000002,76.01130732893944L131.4259375,71.47002321481705L131.63678125,115.36265856027603L131.91790625,33.33361557126045L131.91790625,33.33361557126045L131.98818749999998,8.120483502745628L131.98818749999998,8.120483502745628L132.33959375,52.27479639649391L133.1126875,133.5817246735096L133.18296875000001,48.823637545108795L133.18296875000001,48.823637545108795L133.46409375,73.1715208441019L133.8155,141.9540494978428L133.88578125,151.11157655715942L134.30746875,99.2709308564663L134.37775,124.34432066977024L134.44803125,153.56893733143806L134.5183125,43.96318483352661L134.58859375,83.26128476858139L134.658875,180.06671452522278L135.29140625,43.84888109564781L135.57253125,77.3246131837368L135.99421875000002,115.9994694441557L136.0645,68.08483491837978L136.34562499999998,94.99878625571728L136.34562499999998,94.99878625571728L136.55646875,43.68166524171829L136.69703125,89.14283956587315L136.907875,102.19720830023289L136.97815625,90.42748469114304L137.0484375,88.44972476363182L137.61068749999998,107.39294067025185L137.68096875,41.48954340815544L137.75125,117.21152999997139L137.75125,117.21152999997139L138.1729375,74.95408254861832L138.80546875000002,122.05943304300308L139.36771875,134.54347021877766L139.64884375,61.64329355955124L139.64884375,61.64329355955124L139.78940625,108.39894923567772L140.35165625000002,150.57974195480347L140.49221875,26.74402204155922L140.63278125,56.24320510029793L140.7030625,104.66932341456413L140.77334375,52.57666680216789L140.843625,84.0302063524723L140.91390625,70.1380624473095L141.05446875,87.2120561003685L141.12475,113.894177749753L141.47615625,85.27262353897095L141.61671875000002,141.8929970562458L141.89784375000002,115.42405018210411L141.96812500000001,32.88861110806465L142.03840624999998,99.89841428399086L142.31953124999998,57.02111496031284L142.8115,74.00641298294067L142.88178125,65.3444282412529L142.95206249999998,47.819324880838394L143.02234375,-22.806139558553696L143.58459375,105.41161935031414L144.00628125,45.10011696815491L144.84965625,105.23490644991398L145.341625,82.89904028177261L145.41190625,62.904704838991165L145.62275,113.59112021327019L145.62275,113.59112021327019L145.69303125,137.93408539891243L145.83359375,114.42075505852699L145.97415625,14.956491470336914L146.11471875,72.52216029167175L146.185,112.85984763503075L146.74725,66.95451679825783L147.1689375,144.43006518483162L147.37978125,48.18767461180687L147.4500625,135.8494836986065L147.66090625,159.11487329006195L147.80146875000003,151.8170714378357L148.64484375,137.13192415237427L148.715125,104.6440544873476L148.99625,48.321989983320236L149.06653125,29.489686012268066L149.1368125,88.27945628762245L149.20709375,63.48945155739784L149.20709375,63.48945155739784L149.90990625,68.65364016592503L150.12075000000002,60.2804673910141L150.40187500000002,82.04142306745052L150.47215625,82.87495848536491L150.5424375,70.54711380600929L150.82356249999998,168.89581361413002L151.24525,99.59756141901016L151.31553125,78.82955586910248L151.526375,29.599071636795998L151.8075,31.329399585723877L152.01834374999999,84.99076476693153L152.088625,160.3148929476738L152.2291875,75.86240720748901L152.44003125,64.75866398215294L152.650875,70.74112489819527L153.0725625,140.67941018939018L153.21312500000002,88.51416900753975L153.70509374999997,26.304783642292023L153.77537500000003,19.06091144680977L153.84565625,106.84431664645672L153.91593749999998,68.24170577526093L154.12678125,64.82650002837181L154.68903125,107.84371119737625L154.899875,56.49792945384979L155.53240625,87.43693259358406L155.67296875,125.49566796422005L155.74325000000002,90.26433899998665L155.95409375,67.15972083806992L156.1649375,113.40592780709267L156.30550000000002,131.1126621812582L156.37578125000002,130.29438987374306L156.58662500000003,63.67600068449974L156.65690625000002,75.51881763339043L156.86775,50.06147579848766L157.07859374999998,82.70350287854671L157.2894375,68.45182792842388L157.43,142.00594407320023L157.64084375,143.29313305020332L157.99225,104.62183818221092L158.06253125,189.68552669882774L158.4139375,59.77865023910999L158.5545,99.06674435734749L158.62478125,11.696291089057922L158.76534375,42.35580971837044L159.32759375,81.27419738471508L159.397875,17.102315202355385L159.60871874999998,-24.424707621335983L159.74928125,70.74282079935074L159.8195625,39.435467928647995L160.31153125,133.1838662624359L160.73321875,134.86721774935722L160.9440625,30.356291502714157L161.36575,42.88917063176632L161.36575,42.88917063176632L161.57659375,35.585093945264816L161.646875,104.01707983016968L162.13884375,194.7669553309679L162.27940625000002,120.78801594674587L162.34968750000002,104.22296223044395L162.41996875,204.59317621588707L162.49024999999997,135.47909888625145L162.6308125,65.11463363468647L163.1930625,10.001746654510498L163.61475,16.33152812719345L163.61475,16.33152812719345L163.82559375,33.38381424546242L164.10671875,105.93327854573727L164.95009375,137.3344147503376L165.16093750000002,119.17894493043423L165.23121875,43.24768413603306L165.93403125,62.35692876577377L166.07459375,108.02534221112728L166.21515625,122.24767807126045L166.21515625,122.24767807126045L166.2854375,39.47616955637932L166.49628125,-18.83773085474968L166.5665625,7.146866649389267L166.63684375,57.6463937163353L166.98825,90.69068855047226L167.19909375,108.21613109111786L167.4099375,16.452615469694138L167.69106250000002,64.4062557220459L167.831625,49.749260395765305L167.97218750000002,117.15624362230301L168.39387499999998,118.50312831997871L168.46415624999997,164.23479887843132L168.60471875,74.82078471779823L169.02640624999998,138.4404814839363L169.16696875,112.85543829202652L169.30753124999998,57.01093955338001L169.3778125,120.51650217175484L169.72921875,156.54151287674904L169.7995,51.527582347393036L169.86978125,19.669739961624146L170.36175,156.05580678582191L170.924,72.6369727998972L171.06456250000002,-3.66145059466362L171.34568750000003,139.9559387564659L172.1890625,87.14184579253197L172.25934375,33.30122385919094L172.25934375,33.30122385919094L172.54046875,149.14263531565666L172.891875,105.20149719715118L173.173,167.50975359976292L173.38384375,46.9106610417366L173.52440625,127.19665682315826L173.94609375000002,68.40027253329754L174.15693750000003,99.67625123262405L174.36778124999998,106.86873762309551L175.0003125,77.83762328326702L175.140875,115.03925020992756L175.49228125,8.164407342672348L175.703125,123.0778216868639L175.8436875,168.10213187336922L175.98425,93.37224745750427L176.05453125,98.71654076874256L176.4059375,49.60476961731911L176.47621875000002,74.80179062485695L176.827625,40.43096190690994L176.89790625,74.52688504755497L176.9681875,87.66062195599079L177.17903124999998,104.95660907030106L177.31959375,176.38067336380482L177.31959375,176.38067336380482L177.389875,94.61262956261635L177.60071875,31.24731796979904L178.37381249999999,95.02880370616913L178.9360625,90.06371389329433L179.14690625,77.05055555701256L179.14690625,77.05055555701256L179.2171875,69.35421693325043L179.4983125,97.70137433707714L181.53646875,122.11081884801388L182.0284375,-23.941714972257614L182.09871875000002,81.9859670996666L182.450125,142.21046975255013L182.52040625,103.70825622975826L182.5906875,62.64947171509266L182.66096875000002,148.9145366102457L182.73125000000002,153.14716671407223L182.80153125,108.65163850784302L182.8718125,90.38881814479828L183.64490625,119.94990159571171L183.85575,44.92187775671482L183.92603125,98.96193766593933L184.06659375,-0.05155539512634277L184.20715625,144.49891877174377L184.62884375,125.375089392066L184.90996875,54.726560696959496L185.05053125,96.54527851939201L185.05053125,96.54527851939201L185.4019375,138.43878558278084L185.61278125,53.58199700713158L186.17503125,69.7225666642189L186.385875,0.28355467319488525L186.5264375,7.519456133246422L186.8075625,53.613371178507805L186.87784374999998,131.13725274801254L187.22925,143.94249360263348L187.3698125,76.17309629917145L187.58065625,26.31326314806938L187.72121875,94.27039670944214L187.9320625,113.03757807612419L188.28346875,137.64815646409988L188.4943125,27.239733949303627L188.63487500000002,128.78096768260002L188.98628125,116.40071965754032L189.47825,63.93886536359787L189.759375,158.9798795580864L189.82965625,135.66666555404663L189.8999375,83.32589860260487L189.97021875,119.84712998569012L190.11078125,82.42978443205357L190.11078125,82.42978443205357L190.81359375,111.26434382796288L190.81359375,111.26434382796288L190.88387500000002,28.869834139943123L191.09471875,153.4432710558176L191.23528125,54.44436274468899L192.1489375,75.83222016692162L192.35978125,1.988952875137329L192.50034374999998,-10.22170503437519L192.64090625,99.10473254323006L192.92203125,106.54058074951172L192.9923125,105.85136651992798L193.5545625,113.21225589513779L193.62484375,24.483046621084213L194.257375,98.21438443660736L194.32765625000002,190.11153706908226L194.3979375,160.16955421864986L194.67906250000001,63.92665487527847L194.74934374999998,139.67679342627525L195.03046874999998,73.59295228123665L195.10074999999998,41.19309988617897L195.10074999999998,41.19309988617897L195.59271875,124.53477036952972L195.66299999999998,47.3287006765604L196.01440625,96.48439566791058L196.0846875,116.01778517663479L196.506375,84.80862498283386L196.57665625,85.68218366801739L196.6469375,57.11930763721466L196.71721875,88.92559462785721L197.13890625000002,-6.753417581319809L197.7714375,169.6192850470543L198.26340625,62.310461074113846L198.47424999999998,117.57106104493141L198.755375,20.648274928331375L199.0365,-9.360017657279968L199.1770625,73.35688284039497L199.38790625000001,81.52502116560936L199.4581875,142.23285564780235L199.4581875,142.23285564780235L199.80959375,59.81070277094841L200.58268750000002,30.313215613365173L200.72324999999998,56.64716875553131L200.93409375,100.48316100239754L201.1449375,155.8824856877327L201.49634375,149.71703703701496L201.63690625,79.81555280089378L201.84775,106.67167390882969L201.9883125,38.26580490171909L202.05859375,131.93636137247086L202.33971875,95.12784433364868L202.41,31.770333886146545L202.48028125,34.9035112708807L202.5505625,107.97090378403664L202.62084375,53.64745879173279L202.691125,42.22759959101677L202.691125,42.22759959101677L202.97225,-3.469474583864212L203.04253125,35.26592534780502L203.11281250000002,98.34259456396103L203.11281250000002,98.34259456396103L203.18309375,96.88361079990864L203.253375,26.358882889151573L203.32365625,196.77456311881542L203.39393750000002,136.71642836928368L203.60478124999997,-2.105630874633789L203.81562499999998,80.1905165463686L203.88590624999998,133.3466727733612L203.9561875,59.740662053227425L204.659,-5.7477481961250305L204.72928124999999,-16.358662545681L204.940125,106.90638662874699L205.22125,118.77515086531639L205.64293750000002,40.55815449357033L206.27546875000002,90.09797109663486L206.34575,121.84981966018677L206.908,2.017952784895897L207.0485625,49.292723804712296L207.11884375,105.66295190155506L207.11884375,105.66295190155506L207.82165625,50.54870820045471L208.66503125,181.2835236042738L208.73531250000002,169.00197702646255L209.22728125,63.745532631874084L209.50840624999998,117.65076839923859L209.78953124999998,49.57152995467186L209.78953124999998,49.57152995467186L209.93009375,-7.74026246368885L210.000375,67.36221143603325L210.000375,67.36221143603325L210.49234375,132.1147701740265L210.77346875,43.53157798945904L211.5465625,63.83609375357628L211.75740625,49.084636732935905L211.89796875000002,118.80686421692371L212.1088125,187.08130088448524L212.60078124999998,38.68537084758282L212.67106249999998,104.15868757665157L212.67106249999998,104.15868757665157L212.95218749999998,114.95258966088295L213.58471875,-20.193434238433838L214.14696875,67.99817436933517L214.3578125,57.24683940410614L214.56865625,150.2714271247387L214.56865625,150.2714271247387L214.7795,87.32144172489643L215.27146875000003,74.15463474392891L215.34175,28.081748872995377L215.55259375,167.18668442964554L215.622875,132.54926005005836L216.46625,204.14698462188244L216.6068125,40.47200271487236L217.09878125,53.51433055102825L217.23934375000002,58.9454540014267L217.87187500000002,44.40106651186943L218.15300000000002,102.25995664298534L218.29356249999998,22.98386999964714L218.92609375,67.27673801779747L219.06665625,15.642653077840805L219.06665625,15.642653077840805L219.1369375,127.74070191383362L219.20721875,123.45855149626732L219.2775,134.4228916466236L219.4180625,97.05574476718903L219.4180625,97.05574476718903L219.83975,100.62120735645294L220.05059375,111.45937246084213L220.19115625,61.06566962599754L220.96425000000002,113.44866451621056L221.45621874999998,58.795875519514084L221.73734374999998,198.385160446167L222.01846874999998,210.24968492984772L222.369875,58.57778263092041L222.44015625,59.18525442481041L222.932125,105.05327543616295L223.0726875,99.67421615123749L223.42409375,61.22406679391861L223.49437500000002,101.30753855407238L223.56465625,39.258585438132286L224.19718749999998,-1.8105440735816956L224.33775,52.70114594697952L224.4783125,47.868506014347076L224.7594375,129.00923597812653L224.97028125,66.00277706980705L225.0405625,70.14264138042927L225.11084375,110.85020476579666L225.39196875,48.6248779296875L225.6028125,158.59728425741196L225.74337500000001,4.218723714351654L226.23534375,1.8047780096530914L226.30562500000002,92.96557036042213L226.37590625,-22.46356752514839L226.51646875,12.164868578314781L226.86787500000003,133.487941339612L227.07871874999998,122.01669633388519L227.50040625,91.5545805990696L227.8518125,84.40160870552063L228.06265625,34.49259442090988L228.06265625,34.49259442090988L228.20321875,104.09899185597897L228.4140625,25.671194970607758L228.62490625,95.70004138350487L228.83575,181.87827613949776L228.90603125,146.08051618933678L228.9763125,210.07432875037193L229.398,32.8133130967617L229.5385625,55.2977402061224L229.81968750000001,158.3059284389019L229.96024999999997,-19.11857208609581L230.1008125,83.56128968298435L230.31165625,32.04591782391071L230.45221875,59.51120662689209L230.73334375,195.47872504591942L230.87390625,68.54645921289921L230.9441875,151.30321338772774L231.01446875,53.933896496891975L231.08474999999999,70.93852779269218L231.365875,53.82858103513718L231.43615625,11.919810861349106L231.43615625,11.919810861349106L231.647,-12.671264663338661L232.0686875,121.8783107995987L232.27953125000002,18.250270694494247L232.56065625000002,53.21907415986061L232.63093750000002,33.96109899878502L232.98234374999998,118.13003006577492L233.05262499999998,42.026465713977814L233.54459375,-36.898738980293274L233.96628125,88.89981693029404L234.0365625,196.60175079107285L234.177125,132.26774045825005L234.24740625,79.27422115206718L234.5988125,103.02667355537415L234.66909375,139.5270453542471L234.95021875,67.1007034778595L235.44218750000002,155.58400708436966L235.86387499999998,68.71554055809975L236.14499999999998,6.879253447055817L236.21528125,122.67826737463474L236.35584375,28.09667280316353L236.8478125,87.93111819028854L237.2695,49.33206871151924L237.48034375,51.240127101540565L237.76146875,29.226482152938843L238.112875,99.74849662184715L238.18315625,1.6568954288959503L238.394,34.286033660173416L238.53456250000002,108.54004821181297L238.74540624999997,-5.914794459939003L238.8156875,106.4873294532299L239.16709375,116.54164904356003L239.237375,81.09188801050186L239.799625,182.77981719374657L239.9401875,101.11624090373516L240.15103125,-12.49387340247631L240.5024375,11.574694976210594L240.57271875,29.757299214601517L240.99440625,92.92317283153534L241.13496875,127.7301873266697L241.20525,131.8157828003168L241.41609375000002,68.02649591863155L241.76749999999998,101.54818692803383L242.048625,77.34309850633144L242.11890624999998,92.14882436394691L242.1891875,170.12228932976723L242.32975,48.023172199726105L242.40003124999998,107.15721040964127L242.68115625,89.15979857742786L243.0325625,50.805298045277596L243.10284375,159.71166090667248L243.38396875,91.69907137751579L243.45425,40.860194489359856L243.59481250000002,38.85920071601868L243.59481250000002,38.85920071601868L244.297625,165.95783445239067L244.43818750000003,92.47511574625969L244.50846875000002,66.13336145877838L244.57874999999999,110.89802917838097L244.64903124999998,108.82156780362129L245.0004375,73.10995963215828L245.63296875,-10.482025861740112L245.984375,138.74608287215233L246.33578125,82.06550486385822L246.47634375,107.17518696188927L246.61690625,147.443681538105L246.6871875,65.32305988669395L246.82775,79.12549062073231L247.03859375000002,-1.9872569739818573L247.03859375000002,-1.9872569739818573L247.108875,38.275301948189735L247.17915625,171.9740438014269L247.31971875000002,69.23855647444725L247.81168749999998,145.52544774115086L247.95225,20.605707809329033L248.09281249999998,101.43947966396809L248.65506249999999,102.95290185511112L248.72534375,73.85089884698391L248.86590625,60.81738969683647L249.00646875,180.54190602898598L249.28759375,102.14141315221786L249.56871875000002,194.355699300766L249.639,136.29143553972244L249.99040625,79.30474737286568L250.20125000000002,41.561449617147446L250.27153125,30.851494640111923L250.482375,66.042121976614L250.55265624999998,66.9562126994133L250.62293749999998,77.87476351857185L250.90406249999998,131.66196456551552L251.044625,43.62451337277889L251.11490625,57.209868758916855L251.18518749999998,44.93934553861618L251.25546875,10.83036395907402L251.4663125,41.74443735182285L251.7474375,9.972237974405289L252.0285625,79.21876518428326L252.169125,-3.6290588825941086L252.3096875,-8.528008550405502L252.45025,71.03010645508766L253.01250000000002,158.8408156633377L253.36390624999999,95.72615826129913L253.36390624999999,95.72615826129913L253.43418749999998,57.51139998435974L253.64503125,99.32112953066826L253.71531249999998,110.65653285384178L253.855875,98.84949941933155L254.137,107.89967593550682L254.2775625,108.84022271633148L254.418125,72.73228244483471L254.5586875,-15.371648073196411L254.76953125,142.40142822265625L255.19121875,92.05622816085815L255.47234375,-8.058583110570908L255.89403125,33.13332964479923L256.104875,18.2321245521307L256.8076875,74.15904408693314L256.94825000000003,96.97501987218857L257.0888125,130.08291099965572L257.0888125,130.08291099965572L257.3699375,99.21428775787354L257.9321875,136.18221950531006L258.353875,46.86436294019222L258.70528125,66.5385122448206L258.98640625,-49.40601000189781L259.19725,31.728275537490845L259.97034375,71.6053561270237" style="fill: none;" fill="none"></path></g></g></g></g></g></g><g transform="translate(48, 177)" clip-path="url(#clip_1)"><clipPath id="clip_1"><rect width="281" height="22"></rect></clipPath><g><g><line x1="0" y1="0" x2="0" y2="5" style="visibility: inherit;" fill="rgb(0, 0, 0)" stroke="rgb(204, 204, 204)" stroke-width="1px"></line><line x1="35.140625" y1="0" x2="35.140625" y2="5" style="visibility: inherit;" fill="rgb(0, 0, 0)" stroke="rgb(204, 204, 204)" stroke-width="1px"></line><line x1="70.28125" y1="0" x2="70.28125" y2="5" style="visibility: inherit;" fill="rgb(0, 0, 0)" stroke="rgb(204, 204, 204)" stroke-width="1px"></line><line x1="105.421875" y1="0" x2="105.421875" y2="5" style="visibility: inherit;" fill="rgb(0, 0, 0)" stroke="rgb(204, 204, 204)" stroke-width="1px"></line><line x1="140.5625" y1="0" x2="140.5625" y2="5" style="visibility: inherit;" fill="rgb(0, 0, 0)" stroke="rgb(204, 204, 204)" stroke-width="1px"></line><line x1="175.703125" y1="0" x2="175.703125" y2="5" style="visibility: inherit;" fill="rgb(0, 0, 0)" stroke="rgb(204, 204, 204)" stroke-width="1px"></line><line x1="210.84375" y1="0" x2="210.84375" y2="5" style="visibility: inherit;" fill="rgb(0, 0, 0)" stroke="rgb(204, 204, 204)" stroke-width="1px"></line><line x1="245.984375" y1="0" x2="245.984375" y2="5" style="visibility: inherit;" fill="rgb(0, 0, 0)" stroke="rgb(204, 204, 204)" stroke-width="1px"></line><line x1="281.125" y1="0" x2="281.125" y2="5" style="visibility: inherit;" fill="rgb(0, 0, 0)" stroke="rgb(204, 204, 204)" stroke-width="1px"></line></g><g transform="translate(0, 8)"><text x="0" y="0" dx="0em" dy="0.95em" style="text-anchor: middle; visibility: hidden; font-family: &quot;Helvetica Neue&quot;, sans-serif; font-size: 12px; font-weight: 200;" fill="rgb(50, 49, 63)" stroke="none" stroke-width="1px">-500</text><text x="35.140625" y="0" dx="0em" dy="0.95em" style="text-anchor: middle; visibility: inherit; font-family: &quot;Helvetica Neue&quot;, sans-serif; font-size: 12px; font-weight: 200;" fill="rgb(50, 49, 63)" stroke="none" stroke-width="1px">0</text><text x="70.28125" y="0" dx="0em" dy="0.95em" style="text-anchor: middle; visibility: inherit; font-family: &quot;Helvetica Neue&quot;, sans-serif; font-size: 12px; font-weight: 200;" fill="rgb(50, 49, 63)" stroke="none" stroke-width="1px">500</text><text x="105.421875" y="0" dx="0em" dy="0.95em" style="text-anchor: middle; visibility: inherit; font-family: &quot;Helvetica Neue&quot;, sans-serif; font-size: 12px; font-weight: 200;" fill="rgb(50, 49, 63)" stroke="none" stroke-width="1px">1k</text><text x="140.5625" y="0" dx="0em" dy="0.95em" style="text-anchor: middle; visibility: inherit; font-family: &quot;Helvetica Neue&quot;, sans-serif; font-size: 12px; font-weight: 200;" fill="rgb(50, 49, 63)" stroke="none" stroke-width="1px">1.5k</text><text x="175.703125" y="0" dx="0em" dy="0.95em" style="text-anchor: middle; visibility: inherit; font-family: &quot;Helvetica Neue&quot;, sans-serif; font-size: 12px; font-weight: 200;" fill="rgb(50, 49, 63)" stroke="none" stroke-width="1px">2k</text><text x="210.84375" y="0" dx="0em" dy="0.95em" style="text-anchor: middle; visibility: inherit; font-family: &quot;Helvetica Neue&quot;, sans-serif; font-size: 12px; font-weight: 200;" fill="rgb(50, 49, 63)" stroke="none" stroke-width="1px">2.5k</text><text x="245.984375" y="0" dx="0em" dy="0.95em" style="text-anchor: middle; visibility: inherit; font-family: &quot;Helvetica Neue&quot;, sans-serif; font-size: 12px; font-weight: 200;" fill="rgb(50, 49, 63)" stroke="none" stroke-width="1px">3k</text><text x="281.125" y="0" dx="0em" dy="0.95em" style="text-anchor: middle; visibility: hidden; font-family: &quot;Helvetica Neue&quot;, sans-serif; font-size: 12px; font-weight: 200;" fill="rgb(50, 49, 63)" stroke="none" stroke-width="1px">3.5k</text></g><line x1="0" y1="0" x2="281.125" y2="0" fill="rgb(0, 0, 0)" stroke="rgb(204, 204, 204)" stroke-width="1px"></line></g></g></g></g></svg>