<svg viewBox="0 0 330 200" xmlns="http://www.w3.org/2000/svg"><g><g><g><g><g><line x1="39.15625" y1="177.828125" x2="34.15625" y2="177.828125" style="visibility: inherit;" fill="rgb(0, 0, 0)" stroke="rgb(204, 204, 204)" stroke-width="1px"></line><line x1="39.15625" y1="163.00911458333331" x2="34.15625" y2="163.00911458333331" style="visibility: inherit;" fill="rgb(0, 0, 0)" stroke="rgb(204, 204, 204)" stroke-width="1px"></line><line x1="39.15625" y1="148.19010416666663" x2="34.15625" y2="148.19010416666663" style="visibility: inherit;" fill="rgb(0, 0, 0)" stroke="rgb(204, 204, 204)" stroke-width="1px"></line><line x1="39.15625" y1="133.37109374999997" x2="34.15625" y2="133.37109374999997" style="visibility: inherit;" fill="rgb(0, 0, 0)" stroke="rgb(204, 204, 204)" stroke-width="1px"></line><line x1="39.15625" y1="118.55208333333336" x2="34.15625" y2="118.55208333333336" style="visibility: inherit;" fill="rgb(0, 0, 0)" stroke="rgb(204, 204, 204)" stroke-width="1px"></line><line x1="39.15625" y1="103.73307291666667" x2="34.15625" y2="103.73307291666667" style="visibility: inherit;" fill="rgb(0, 0, 0)" stroke="rgb(204, 204, 204)" stroke-width="1px"></line><line x1="39.15625" y1="88.9140625" x2="34.15625" y2="88.9140625" style="visibility: inherit;" fill="rgb(0, 0, 0)" stroke="rgb(204, 204, 204)" stroke-width="1px"></line><line x1="39.15625" y1="74.09505208333333" x2="34.15625" y2="74.09505208333333" style="visibility: inherit;" fill="rgb(0, 0, 0)" stroke="rgb(204, 204, 204)" stroke-width="1px"></line><line x1="39.15625" y1="59.27604166666666" x2="34.15625" y2="59.27604166666666" style="visibility: inherit;" fill="rgb(0, 0, 0)" stroke="rgb(204, 204, 204)" stroke-width="1px"></line><line x1="39.15625" y1="44.45703125000003" x2="34.15625" y2="44.45703125000003" style="visibility: inherit;" fill="rgb(0, 0, 0)" stroke="rgb(204, 204, 204)" stroke-width="1px"></line><line x1="39.15625" y1="29.638020833333343" x2="34.15625" y2="29.638020833333343" style="visibility: inherit;" fill="rgb(0, 0, 0)" stroke="rgb(204, 204, 204)" stroke-width="1px"></line><line x1="39.15625" y1="14.819010416666686" x2="34.15625" y2="14.819010416666686" style="visibility: inherit;" fill="rgb(0, 0, 0)" stroke="rgb(204, 204, 204)" stroke-width="1px"></line><line x1="39.15625" y1="0" x2="34.15625" y2="0" style="visibility: inherit;" fill="rgb(0, 0, 0)" stroke="rgb(204, 204, 204)" stroke-width="1px"></line></g><g transform="translate(29.15625, 0)"><text x="0" y="177.828125" dx="0em" dy="0.3em" style="text-anchor: end; visibility: hidden; font-family: &quot;Helvetica Neue&quot;, sans-serif; font-size: 12px; font-weight: 200;" fill="rgb(50, 49, 63)" stroke="none" stroke-width="1px">3.8</text><text x="0" y="163.00911458333331" dx="0em" dy="0.3em" style="text-anchor: end; visibility: inherit; font-family: &quot;Helvetica Neue&quot;, sans-serif; font-size: 12px; font-weight: 200;" fill="rgb(50, 49, 63)" stroke="none" stroke-width="1px">4</text><text x="0" y="148.19010416666663" dx="0em" dy="0.3em" style="text-anchor: end; visibility: hidden; font-family: &quot;Helvetica Neue&quot;, sans-serif; font-size: 12px; font-weight: 200;" fill="rgb(50, 49, 63)" stroke="none" stroke-width="1px">4.2</text><text x="0" y="133.37109374999997" dx="0em" dy="0.3em" style="text-anchor: end; visibility: inherit; font-family: &quot;Helvetica Neue&quot;, sans-serif; font-size: 12px; font-weight: 200;" fill="rgb(50, 49, 63)" stroke="none" stroke-width="1px">4.4</text><text x="0" y="118.55208333333336" dx="0em" dy="0.3em" style="text-anchor: end; visibility: hidden; font-family: &quot;Helvetica Neue&quot;, sans-serif; font-size: 12px; font-weight: 200;" fill="rgb(50, 49, 63)" stroke="none" stroke-width="1px">4.6</text><text x="0" y="103.73307291666667" dx="0em" dy="0.3em" style="text-anchor: end; visibility: inherit; font-family: &quot;Helvetica Neue&quot;, sans-serif; font-size: 12px; font-weight: 200;" fill="rgb(50, 49, 63)" stroke="none" stroke-width="1px">4.8</text><text x="0" y="88.9140625" dx="0em" dy="0.3em" style="text-anchor: end; visibility: hidden; font-family: &quot;Helvetica Neue&quot;, sans-serif; font-size: 12px; font-weight: 200;" fill="rgb(50, 49, 63)" stroke="none" stroke-width="1px">5</text><text x="0" y="74.09505208333333" dx="0em" dy="0.3em" style="text-anchor: end; visibility: inherit; font-family: &quot;Helvetica Neue&quot;, sans-serif; font-size: 12px; font-weight: 200;" fill="rgb(50, 49, 63)" stroke="none" stroke-width="1px">5.2</text><text x="0" y="59.27604166666666" dx="0em" dy="0.3em" style="text-anchor: end; visibility: hidden; font-family: &quot;Helvetica Neue&quot;, sans-serif; font-size: 12px; font-weight: 200;" fill="rgb(50, 49, 63)" stroke="none" stroke-width="1px">5.4</text><text x="0" y="44.45703125000003" dx="0em" dy="0.3em" style="text-anchor: end; visibility: inherit; font-family: &quot;Helvetica Neue&quot;, sans-serif; font-size: 12px; font-weight: 200;" fill="rgb(50, 49, 63)" stroke="none" stroke-width="1px">5.6</text><text x="0" y="29.638020833333343" dx="0em" dy="0.3em" style="text-anchor: end; visibility: hidden; font-family: &quot;Helvetica Neue&quot;, sans-serif; font-size: 12px; font-weight: 200;" fill="rgb(50, 49, 63)" stroke="none" stroke-width="1px">5.8</text><text x="0" y="14.819010416666686" dx="0em" dy="0.3em" style="text-anchor: end; visibility: inherit; font-family: &quot;Helvetica Neue&quot;, sans-serif; font-size: 12px; font-weight: 200;" fill="rgb(50, 49, 63)" stroke="none" stroke-width="1px">6</text><text x="0" y="0" dx="0em" dy="0.3em" style="text-anchor: end; visibility: hidden; font-family: &quot;Helvetica Neue&quot;, sans-serif; font-size: 12px; font-weight: 200;" fill="rgb(50, 49, 63)" stroke="none" stroke-width="1px">6.2</text></g><line x1="39.15625" y1="0" x2="39.15625" y2="177.828125" fill="rgb(0, 0, 0)" stroke="rgb(204, 204, 204)" stroke-width="1px"></line></g></g><g transform="translate(39, 0)" clip-path="url(#clip_0)"><clipPath id="clip_0"><rect width="290" height="177"></rect></clipPath><g><g><g><line x1="0" y1="0" x2="0" y2="177.828125" fill="rgb(0, 0, 0)" stroke="rgb(60, 60, 60)" stroke-width="1px" opacity="0.25"></line><line x1="36.35546875" y1="0" x2="36.35546875" y2="177.828125" fill="rgb(0, 0, 0)" stroke="rgb(60, 60, 60)" stroke-width="1px" opacity="0.25"></line><line x1="72.7109375" y1="0" x2="72.7109375" y2="177.828125" fill="rgb(0, 0, 0)" stroke="rgb(60, 60, 60)" stroke-width="1px" opacity="0.25"></line><line x1="109.06640625" y1="0" x2="109.06640625" y2="177.828125" fill="rgb(0, 0, 0)" stroke="rgb(60, 60, 60)" stroke-width="1px" opacity="0.25"></line><line x1="145.421875" y1="0" x2="145.421875" y2="177.828125" fill="rgb(0, 0, 0)" stroke="rgb(60, 60, 60)" stroke-width="1px" opacity="0.25"></line><line x1="181.77734375" y1="0" x2="181.77734375" y2="177.828125" fill="rgb(0, 0, 0)" stroke="rgb(60, 60, 60)" stroke-width="1px" opacity="0.25"></line><line x1="218.1328125" y1="0" x2="218.1328125" y2="177.828125" fill="rgb(0, 0, 0)" stroke="rgb(60, 60, 60)" stroke-width="1px" opacity="0.25"></line><line x1="254.48828125" y1="0" x2="254.48828125" y2="177.828125" fill="rgb(0, 0, 0)" stroke="rgb(60, 60, 60)" stroke-width="1px" opacity="0.25"></line><line x1="290.84375" y1="0" x2="290.84375" y2="177.828125" fill="rgb(0, 0, 0)" stroke="rgb(60, 60, 60)" stroke-width="1px" opacity="0.25"></line></g><g><line x1="0" y1="177.828125" x2="290.84375" y2="177.828125" fill="rgb(0, 0, 0)" stroke="rgb(60, 60, 60)" stroke-width="1px" opacity="0.25"></line><line x1="0" y1="163.00911458333331" x2="290.84375" y2="163.00911458333331" fill="rgb(0, 0, 0)" stroke="rgb(60, 60, 60)" stroke-width="1px" opacity="0.25"></line><line x1="0" y1="148.19010416666663" x2="290.84375" y2="148.19010416666663" fill="rgb(0, 0, 0)" stroke="rgb(60, 60, 60)" stroke-width="1px" opacity="0.25"></line><line x1="0" y1="133.37109374999997" x2="290.84375" y2="133.37109374999997" fill="rgb(0, 0, 0)" stroke="rgb(60, 60, 60)" stroke-width="1px" opacity="0.25"></line><line x1="0" y1="118.55208333333336" x2="290.84375" y2="118.55208333333336" fill="rgb(0, 0, 0)" stroke="rgb(60, 60, 60)" stroke-width="1px" opacity="0.25"></line><line x1="0" y1="103.73307291666667" x2="290.84375" y2="103.73307291666667" fill="rgb(0, 0, 0)" stroke="rgb(60, 60, 60)" stroke-width="1px" opacity="0.25"></line><line x1="0" y1="88.9140625" x2="290.84375" y2="88.9140625" fill="rgb(0, 0, 0)" stroke="rgb(60, 60, 60)" stroke-width="1px" opacity="0.25"></line><line x1="0" y1="74.09505208333333" x2="290.84375" y2="74.09505208333333" fill="rgb(0, 0, 0)" stroke="rgb(60, 60, 60)" stroke-width="1px" opacity="0.25"></line><line x1="0" y1="59.27604166666666" x2="290.84375" y2="59.27604166666666" fill="rgb(0, 0, 0)" stroke="rgb(60, 60, 60)" stroke-width="1px" opacity="0.25"></line><line x1="0" y1="44.45703125000003" x2="290.84375" y2="44.45703125000003" fill="rgb(0, 0, 0)" stroke="rgb(60, 60, 60)" stroke-width="1px" opacity="0.25"></line><line x1="0" y1="29.638020833333343" x2="290.84375" y2="29.638020833333343" fill="rgb(0, 0, 0)" stroke="rgb(60, 60, 60)" stroke-width="1px" opacity="0.25"></line><line x1="0" y1="14.819010416666686" x2="290.84375" y2="14.819010416666686" fill="rgb(0, 0, 0)" stroke="rgb(60, 60, 60)" stroke-width="1px" opacity="0.25"></line><line x1="0" y1="0" x2="290.84375" y2="0" fill="rgb(0, 0, 0)" stroke="rgb(60, 60, 60)" stroke-width="1px" opacity="0.25"></line></g></g></g><g><g><line x1="0" y1="459.38932291666663" x2="290.84375" y2="459.38932291666663" fill="rgb(0, 0, 0)" stroke="rgb(153, 153, 153)" stroke-width="1.5px"></line></g></g><g><g><line x1="36.35546875" y1="0" x2="36.35546875" y2="177.828125" fill="rgb(0, 0, 0)" stroke="rgb(153, 153, 153)" stroke-width="1.5px"></line></g></g><g><g><g><g><g><path stroke="rgb(255, 112, 67)" stroke-width="2px" d="M37.8823984375,-60.22880543568627L37.955109375,52.23506055540109L38.245953125,-42.8806471134331L38.9003515625,-25.43147877238863L39.0457734375,4.369355924216961L39.7728828125,-15.89071035443203L40.0637265625,35.0283343990443L40.209148437500005,130.63996569180242L40.936257812499996,144.25783273545426L41.37252343749999,72.2797018949785L41.8087890625,-53.330244035653664L41.954210937499994,63.499413994527515L42.0996328125,110.84062383966867L42.3904765625,178.24085013833187L42.826742187499995,228.1142581911568L42.9721640625,65.96364418531412L43.044875,64.69890923809625L43.117585937499996,56.6008391230956L43.2630078125,100.85482620497669L43.5538515625,143.4706279356165L43.8446953125,143.0821424899521L44.062828124999996,128.61230018804932L44.4263828125,121.98482020649328L44.644515625,149.08279538390076L44.8626484375,130.66379373938062L45.371625,124.8430215888296L45.5897578125,120.26171950162025L45.807890625,125.96600273813894L46.0260234375,78.32339027779835L46.1714453125,109.91908188318233L46.24415625,90.56798275784732L46.971265625,33.213201827857034L47.116687500000005,108.6540059530151L47.3348203125,131.9200145003033L47.552953125,117.717103392331L47.6256640625,96.97538549653967L47.9165078125,124.58687585327948L48.352773437500005,109.36740989757568L48.643617187500006,77.49496775401597L48.934460937500006,79.03957704788391L49.51614843750001,105.05868413438318L49.661570312500004,100.59494672161478L50.025124999999996,84.65680645186963L51.624765624999995,118.59901595725202L51.6974765625,117.51506435093549L52.2791640625,103.7788374212747L52.351875,73.4961099087231L52.4245859375,97.6436731033865L52.497296874999996,137.27066690781947L53.078984375,176.57935335574575L53.151695312499996,108.10389945556939L53.22440625,36.13481142583976L53.5879609375,19.555970758228142L54.1696484375,82.53989214054968L54.242359375,143.85211134614192L54.96946875,141.96684781061592L55.0421796875,65.50159808926834L55.114890625,95.62456945414206L55.405734375,42.453389274089346L55.623867187500004,55.7784146961623L55.696578125,32.44325307565251L55.842,77.30350753997162L56.0601328125,83.6033812920316L56.205554687500005,91.95850768049945L56.569109375000004,89.36704967236743L56.7872421875,126.72397678434584L57.005375,103.85193332909388L57.150796875000005,148.31061709339224L57.3689296875,154.02018572115787L57.441640625000005,117.76513273452062L57.5870625,86.33192541212443L57.6597734375,92.84460432585438L57.6597734375,123.17017551974766L57.87790625,110.52170461495507L58.2414609375,123.71412416868282L58.895859375,120.82613437268853L58.968570312500006,105.33743398275207L59.404835937499996,41.97652478324116L59.62296875,30.501114996860906L59.6956796875,32.25244361440764L59.768390624999995,58.361480547917424L59.84110156249999,52.58658541004809L59.9138125,44.468081424202296L60.350078124999996,66.59111822966682L60.4955,111.98467930090298L60.640921875,91.214765279334L60.713632812499995,105.43753889754888L60.8590546875,43.95739364582579L61.004476562499995,93.75677797024416L61.004476562499995,118.92992954572017L61.1498984375,72.95438580062971L61.36803125,141.58471848463708L62.3132734375,186.32084099041833L62.4586953125,114.81187853194719L62.6041171875,123.16077480054366L62.6041171875,158.2065571064937L62.8949609375,118.4419905155016L63.1858046875,145.6310200738875L63.3312265625,80.48851048288553L63.4766484375,139.66249306937243L63.69478125,38.49545922889416L63.840203125,97.72502995911702L64.131046875,126.33637289807274L64.27646875,110.55957795841535L64.3491796875,92.41790664616046L64.3491796875,104.22020314389161L64.421890625,93.9002643339556L64.4946015625,85.95828651315303L64.712734375,71.60846005534925L64.85815625000001,78.25118825776855L64.9308671875,25.18546664830137L65.149,76.77897191315544L65.149,113.86724872886427L65.2217109375,133.74648316974015L65.3671328125,61.76599302753553L65.5125546875,98.33779577532259L65.6579765625,107.4993509205312L65.7306875,127.4377726946054L65.7306875,148.59248989537525L66.60321875,189.80938130894404L66.74864062500001,87.88460082553284L67.91201562500001,120.47102221693078L68.1301484375,83.95800809047908L68.202859375,81.50515369489172L68.42099218749999,68.6418044785522L68.7118359375,83.84835080548304L68.92996875,91.36994879242292L69.075390625,115.9516648230742L69.2935234375,101.59339174222687L69.36623437499999,79.44985693126964L69.58436718749999,45.77640377415253L69.657078125,51.96021467879234L70.1660546875,98.75571096066027L70.238765625,120.52327422200673L70.6023203125,107.92983060493485L70.67503125,109.91139947298817L71.0385859375,92.10763283847956L71.1840078125,102.99548312418176L71.3294296875,96.62540985952326L71.6202734375,74.53012987808691L71.692984375,59.82603315588621L71.9111171875,37.60081176083361L71.9111171875,43.6588032744591L72.12925,75.85809945204446L72.565515625,41.876761635473855L72.78364843749999,40.65288566321024L72.856359375,60.478987328330035L73.2199140625,85.23969796277244L73.292625,83.98738109803497L73.58346875,78.9023275640287L74.019734375,129.88278398575952L74.310578125,99.01105586287919L74.74684375,95.48600350775844L74.9649765625,103.2111417666089L75.1103984375,88.72707320292857L75.183109375,94.02623375628431L75.32853125,102.26025042210443L75.47395312500001,86.95212352811944L75.5466640625,140.81173688345936L75.6920859375,83.86767641608189L75.764796875,48.28914803855184L76.05564062500001,71.59584332610706L76.2737734375,84.29627531159247L76.4191953125,80.42483975572384L76.49190625,49.5508182418823L76.8554609375,92.91379559943948L77.0008828125,49.883828552026785L77.509859375,69.73088409913139L78.3096796875,73.29307907097073L78.382390625,47.516357672845544L78.52781250000001,89.15338008511178L78.52781250000001,63.74353006874385L78.6005234375,44.59184663779459L79.25492187500001,60.00031622670245L79.69118750000001,122.5288103899935L79.69118750000001,136.21561968787984L79.9093203125,160.70564998354695L79.98203125,128.90347829535312L80.2001640625,113.7641420607251L81.14540625000001,115.57912190300121L81.2181171875,125.25905042414996L81.58167187500001,53.68621762732745L81.9452265625,102.60149867320106L82.0906484375,113.03413357228466L82.163359375,93.52784585912283L82.89046875,85.02958080024074L83.1086015625,72.77055535152884L83.3994453125,102.24566143861612L83.617578125,168.89495284176587L83.98113281250001,156.71654479493728L84.199265625,66.74814023200689L84.2719765625,101.16098471233657L84.56282031250001,72.31990728973993L84.7082421875,131.21152738488996L84.780953125,83.24330471609407L84.926375,81.1840920561813L84.926375,123.91451926564754L85.5807734375,130.81552688003924L86.1624609375,116.53723164928759L86.6714375,39.85161462942446L86.81685937499999,-14.603689833116363L86.81685937499999,29.583318141669935L86.8895703125,130.74520535026244L86.96228124999999,204.29189808023526L87.7621015625,93.55999989719724L87.9075234375,142.17285165473245L88.0529453125,60.19426066796636L88.19836718750001,82.9771798789242L88.271078125,159.0319979979439L88.4165,125.394116049638L88.561921875,73.7319848377291L88.70734374999999,140.4225415034364L89.579875,172.7697770415209L89.6525859375,194.53236834839754L90.3796953125,219.7469038419557L90.45240625,127.79546709945598L90.5251171875,66.43602148497577L90.888671875,67.32027919995473L91.179515625,59.03634517584857L91.68849218749999,88.64208818169207L91.761203125,116.03233102674348L91.83391406249999,89.21630527604655L92.7064453125,73.0138982662799L92.77915625,81.16077954968266L92.85186718749999,58.089123004826575L93.36084375,138.43657818038423L93.36084375,170.13380003357423L93.7243984375,196.8869828579892L93.94253125,89.4493625952643L94.087953125,113.69837647217564L94.378796875,132.13419668125937L94.669640625,114.08284616369701L94.669640625,123.31485743760284L94.8877734375,106.51918730947898L95.1786171875,96.05610904483113L95.4694609375,77.27320986844967L95.54217187500001,85.47847847406788L95.68759375,117.71713797086312L95.833015625,127.41233786295156L95.9784375,147.86501410737813L96.12385937500001,149.74194703431039L96.26928125,178.1304244901604L96.414703125,109.67805182968776L96.70554687500001,68.47239765694857L96.996390625,46.01352783369694L97.1418125,65.91657916900122L97.21452343749999,91.52976167741375L97.5053671875,70.6009064498124L97.79621093749999,21.85826341902677L97.9416328125,74.36459620825725L98.01434375000001,97.07393299484622L98.01434375000001,132.9303118933401L98.0870546875,136.35649132624235L98.2324765625,86.84939842459542L98.45060937500001,92.73676584832059L98.8141640625,105.19963219715466L99.17771875000001,89.69065550488219L99.32314062500001,97.95147018793418L99.3958515625,124.04678746782652L99.4685625,122.80306502812846L99.6866953125,66.73303101043147L99.75940625000001,97.07454882634818L99.8321171875,120.10754878043018L99.8321171875,128.98998692389654L100.05024999999999,99.03248115533394L100.5592265625,73.0390080081153L100.8500703125,109.91219798128174L101.068203125,97.00662350346867L101.35904687499999,119.52207013556496L101.35904687499999,100.52089883191861L101.7226015625,136.93304824115918L101.94073437499999,159.98171426523976L102.377,143.5509212975855L102.74055468750001,104.16267970741721L102.8859765625,132.4479255343433L103.24953124999999,144.20532171070312L103.394953125,84.9948808231338L103.540375,88.86031583691943L103.685796875,90.83952039849942L104.1947734375,118.71025298807335L104.267484375,62.285592674354575L104.4856171875,77.7684051414171L104.558328125,76.49200659264162L104.558328125,44.80964914646171L105.79441406250001,83.01868187101536L106.012546875,88.15627479133117L106.30339062499999,109.87124429838127L106.52152343750001,69.26623549255486L106.6669453125,107.37386914730715L106.73965625,79.37499601775797L106.8123671875,59.5057518683934L107.0305,39.67196440541133L107.10321093750001,90.0552305708928L107.175921875,124.55638799278557L107.32134375,113.17505605990857L107.8303203125,130.58869754483408L107.90303125,113.0569017646319L108.339296875,129.00176826224364L108.41200781250001,131.78668051251154L108.41200781250001,116.39447384449869L108.920984375,95.92251863031406L109.06640625,116.93746020887583L109.211828125,83.61340873287695L109.35725,127.68072538209904L109.502671875,109.56286708766987L109.64809375,115.12727153378592L109.9389375,143.3020898406378L110.01164843749999,116.33615194164744L110.1570703125,94.09225865793054L110.22978125,104.21739253456485L110.375203125,93.7074640406475L110.520625,106.86607113112841L111.24773437500001,104.61861587492523L111.684,100.80476881396514L111.684,112.41352259590272L111.82942187500001,95.15829614037699L111.82942187500001,91.64020722399812L111.9021328125,98.90748940879497L111.97484375,114.40950533583401L112.120265625,91.71833101462107L112.2656875,126.2776066318698L112.4838203125,57.917549151016146L112.55653125,52.412921702563494L113.0655078125,46.497044203102405L113.2109296875,72.10142941942001L113.50177343749999,73.41050925157579L113.50177343749999,83.43815207537281L114.156171875,67.13075704210762L114.30159375000001,139.86335150239626L114.30159375000001,190.1526496692514L114.447015625,80.5242988365799L114.5197265625,18.019713339085L114.737859375,122.82725677490214L115.028703125,71.05820174798359L115.174125,142.01659990371257L115.2468359375,160.96264799796137L115.319546875,111.42498294778225L115.46496875000001,99.68995952318643L115.8285234375,90.51003253361905L115.901234375,119.61279734252187L115.97394531249999,133.99863563345843L116.04665625000001,154.26961700836998L116.19207812500001,60.096800858598044L116.2647890625,85.09167627631886L116.5556328125,21.262720110352404L116.7010546875,104.65928448975217L117.21003125000001,169.51065119275526L117.35545312500001,76.01179796210376L117.4281640625,19.95469982997446L117.646296875,132.09426754857623L117.646296875,206.63054360362207L117.7190078125,199.81023400063202L117.8644296875,128.9393893241478L117.93714062500001,51.360895600990034L118.0098515625,62.429101562247L118.0098515625,120.83784601757645L118.3006953125,76.35721393974454L118.37340624999999,79.95734667957922L118.5915390625,132.79218944356998L119.2459375,121.37388254471318L119.6094921875,126.59006894464905L119.827625,118.45725881359348L120.0457578125,110.2236879473509L120.1911796875,127.6527501859614L120.26389062499999,141.15098069841756L120.6274453125,126.25677807992753L120.70015624999999,117.4778905212346L120.7728671875,109.38442350548289L121.2091328125,103.63410874926117L121.5726875,112.94317356381656L121.9362421875,90.40621848186161L122.5179296875,83.49110674429126L123.17232812499999,61.89179624483893L123.2450390625,36.41137171431927L123.31774999999999,30.497337825464484L123.60859375,37.53929730521671L123.6813046875,65.89974681720359L123.8267265625,60.887744428328034L124.19028125,49.83045352271881L124.48112499999999,59.705860450496374L124.48112499999999,90.03541901710435L124.917390625,84.37435461880452L125.208234375,66.58644009958715L125.4263671875,46.45090212075519L125.4263671875,52.40811676868964L125.499078125,93.59330756543575L125.5717890625,89.64072468898792L125.789921875,76.36913773157457L126.662453125,41.55245284331792L126.7351640625,28.521982755320977L127.09871875,45.839810593559946L127.17142968750001,73.8180056869296L127.31685156249999,69.89035221195073L127.31685156249999,67.36185227983701L127.825828125,62.89878829088917L128.0439609375,96.09660824075611L128.26209375,93.4325814968463L128.3348046875,128.88170562467673L128.407515625,115.5380212408207L128.48022656249998,40.27947943683873L128.91649218749998,102.17322494527541L129.0619140625,90.63746240103742L129.134625,69.12195574610132L129.280046875,110.78299168866093L129.570890625,133.68966239899623L129.64360156249998,154.9776761939241L130.00715625,107.42513222928527L130.07986718749999,85.98211936763336L130.5161328125,108.03621663269246L130.5161328125,82.90801268537946L130.58884375,74.68233312996293L130.734265625,98.03852790518833L130.87968750000002,94.89420508250139L131.0978203125,98.93826252463191L131.6795078125,111.24517257929483L131.897640625,100.89987329495332L131.97035156249999,113.84184856128124L132.2611953125,88.44149608683448L132.479328125,91.89140139384186L132.69746093749998,142.37941442807886L132.8428828125,86.71359962600691L133.5699921875,15.654533976087322L133.7154140625,59.75515362969202L133.788125,87.17468471786079L133.93354687500002,132.34373359929933L134.1516796875,57.179878329047085L134.5879453125,23.44423010114349L134.8787890625,69.73657662096733L135.38776562500001,55.591555038629664L135.82403125000002,111.16554060103815L135.969453125,119.31532759009195L136.1875859375,108.83999613471862L136.4784296875,136.2337265730284L136.4784296875,122.94375714259638L136.551140625,127.60830925537522L136.551140625,83.37328532243798L136.9146953125,52.24457568693177L137.714515625,39.99810815960973L137.7872265625,27.022238333687028L137.7872265625,57.78312231853495L138.0780703125,43.87401512019764L138.441625,19.287428338098096L138.5143359375,66.52405530364368L138.9506015625,86.96249613553911L139.0233125,99.02692821184175L139.0960234375,48.0750638555549L139.16873437499999,46.670095711115806L139.2414453125,68.30092841908164L139.31415625,131.30842026896673L139.96855468750002,111.81479616360303L140.2593984375,126.71331964520475L140.69566406250001,97.11599127305266L140.768375,65.85889941266802L141.05921874999999,55.954662078738L141.05921874999999,93.27190124265535L141.2773515625,58.17361222965826L141.4227734375,72.35145119982947L141.64090625,-1.215603667549317L141.7136171875,3.3556736257362445L141.78632812499998,76.14986309873689L142.368015625,99.33092374707837L142.4407265625,73.87570163372506L142.5134375,39.03438461828239L142.5134375,36.41957745556837L142.94970312499998,63.4320121138084L143.6041015625,126.0911524352702L144.18578906250002,67.27900875254106L144.47663281250001,126.87534297765467L144.47663281250001,185.38094407152835L144.6220546875,183.81811619350336L145.2037421875,169.4496596033813L145.3491640625,157.7407877529924L145.4945859375,163.9065583415239L145.56729687499998,148.03559694443592L145.64000781250002,93.27576126458916L145.71271875,72.81613414766L145.7854296875,111.2319810815798L145.9308515625,66.05800733783727L146.0035625,41.966250169191085L146.36711718749999,86.80097433402935L146.5125390625,112.73457987392825L146.80338281250002,132.44768007989654L146.87609375,92.58725708909392L146.9488046875,58.87915267311077L147.2396484375,48.48411469839533L147.748625,71.73047482653969L147.82133593749998,63.84787394216367L147.894046875,83.16181071814324L147.96675781250002,87.78678850685412L148.5484453125,141.80488424115293L148.98471093749998,115.42597140637781L149.8572421875,44.345429169740754L150.36621875,92.42401400040977L150.4389296875,117.46074352014895L150.6570625,38.25192728449204L150.6570625,63.135087662295305L150.7297734375,128.41938421454375L150.8751953125,171.96097071775108L151.0206171875,96.99118432934068L151.1660390625,152.2807119744121L151.23875,175.8514024011055L151.8204375,108.1023253843243L152.256703125,114.27857556810312L152.4748359375,138.22976755223863L152.547546875,146.3386645088426L152.7656796875,128.242023940573L152.91110156250002,106.60253172632453L153.7836328125,63.84323558320436L153.85634375,97.54058041638038L154.1471875,86.27900584046584L154.2198984375,70.42305675797388L154.29260937499998,44.660351712422L154.36532031250002,94.73913293714314L154.36532031250002,107.36900216744337L155.0924296875,106.25783281046749L155.3105625,89.3051521476225L155.60140625,86.51582974470352L155.6741171875,123.9944180760882L155.74682812499998,127.52532499442108L156.037671875,122.32908001662057L156.4739375,116.06306212492241L156.5466484375,127.51386166074349L156.76478125,112.85524365877195L157.05562500000002,111.74999532197963L157.27375781249998,89.69443822957108L157.34646875,68.90498811090214L157.491890625,74.34575790788271L157.7100234375,44.036379816137924L157.92815625,35.07562142878962L158.364421875,71.28940393564217L158.50984375000002,82.86198135785524L159.0188203125,98.46332933002074L159.09153125,109.1018017788332L159.1642421875,89.76561147975531L159.23695312499999,99.1709966481185L159.4550859375,92.47880804461973L160.03677343750002,93.92790039309502L160.25490625,109.05604047707894L160.9093046875,100.2998031196923L161.05472656249998,130.57436316058124L161.1274375,120.72413348637075L161.3455703125,94.97046824931337L161.563703125,59.64516233189447L161.70912500000003,113.66548449317736L161.7818359375,158.73387719802136L161.99996875000002,139.25959460355085L162.0726796875,109.34140244871723L162.29081250000002,80.22213009645752L162.5089453125,61.7601604103061L162.727078125,90.50995944151356L162.8725,70.36451175660333L163.0906328125,39.425478708846015L163.45418750000002,89.04171587192673L163.5268984375,124.66151866935883L163.890453125,138.58315111422453L164.03587499999998,78.33329678733492L164.1085859375,50.42166216170395L164.2540078125,48.01404855869575L164.83569531249998,113.2450921176217L164.90840624999998,121.89227756068162L165.1265390625,123.95777057134141L165.2719609375,121.93604631089984L165.344671875,97.67103719108593L165.8536484375,69.59008890376465L166.2899140625,85.22379312258546L166.508046875,69.7289897457257L166.9443125,60.75961449775072L166.9443125,114.44908136099362L167.16244531249998,74.4001871241318L167.23515625,37.37275750099735L167.7441328125,67.46758626347255L167.8895546875,60.36805108107407L167.96226562500001,60.28519319246574L168.0349765625,62.79730674475651L168.1076875,81.36062024196121L168.253109375,82.97413066845216L168.834796875,84.02741355988036L169.2710625,54.917954888449L169.2710625,70.96978747214231L169.4891953125,63.72472023908509L169.7800390625,66.18343016372646L170.6525703125,75.44910312389246L170.870703125,93.19984566884189L170.9434140625,68.04966234619584L171.6705234375,106.66529361405073L171.8159453125,151.3358301266914L171.9613671875,93.73965248087357L171.9613671875,72.04120119980558L172.034078125,44.302612882285786L172.25221093750002,75.23367052560816L172.324921875,28.19449510521156L172.3976328125,62.76399133585768L172.7611875,14.389929975963923L172.9793203125,27.42539639178753L173.197453125,77.34667340285881L173.488296875,122.88653779199107L173.63371874999999,102.21229876778752L173.779140625,129.734660105495L174.21540625,102.3377829918792L174.28811718749998,105.49873413718919L174.4335390625,139.20359863138503L174.8698046875,98.23731543523851L175.0152265625,112.41199607219961L175.1606484375,108.23438924094042L175.23335937500002,104.6448933268488L175.5969140625,93.1817301080565L175.669625,87.44506059433664L175.74233593749997,104.96007261978968L176.25131249999998,138.19922182308568L176.833,106.62162288584473L176.978421875,62.27230144078435L177.269265625,79.41047156300085L178.141796875,102.57583452356417L178.21450781250002,92.49881160662112L178.21450781250002,85.1043564378552L178.5053515625,91.1804050092498L178.86890625,108.76783969608542L179.15975,59.39226964229903L179.37788281250002,49.605211881486014L179.5233046875,77.83544371760135L179.9595703125,102.05865128032111L180.17770312500002,75.42697779551195L180.39583593749998,70.61919966344067L181.050234375,68.09995708567318L181.19565625,103.21736091048966L181.55921093749998,76.07160918914148L181.77734375,111.90787802489318L181.92276562499998,130.75388638189463L182.0681875,89.76105862713474L182.1408984375,53.18469652646753L182.504453125,71.98359701924905L182.5771640625,65.81477133692334L182.94071875,116.11202865597225L183.01342968749998,79.55390260769899L183.08614062499998,66.57471353553123L183.3042734375,70.6083377713505L183.4496953125,68.49630126990142L183.4496953125,82.55673293975353L183.52240625,91.47468439985725L183.7405390625,103.02427078187112L184.54035937499998,81.40044577161262L185.122046875,115.22589280537142L185.34017968749998,90.16528096446218L185.34017968749998,62.594324697199426L185.412890625,63.808839442815156L185.70373437499998,60.870232704024986L187.81235156250003,102.16447268713999L188.32132812499998,86.52722576929818L188.3940390625,53.182896627527654L188.75759375,78.49110306439331L188.8303046875,107.66434255970036L188.903015625,96.83463953226315L188.97572656250003,48.459110798177136L189.0484375,93.35165223533136L189.1211484375,130.3839790118985L189.193859375,175.1790840668928L189.9936796875,129.79861805101942L190.2118125,154.11119828168478L190.2845234375,136.95065003783859L190.42994531250002,115.3063680998068L190.5753671875,101.68671903565017L191.01163281249998,64.40050411306513L191.30247656249998,83.87712885463846L191.4478984375,114.12999913980335L191.4478984375,105.15938611908621L191.81145312499999,60.32606114745457L192.0295859375,127.7304515595753L192.6112734375,81.18969371227534L192.82940625,103.21552021662266L192.974828125,66.93854342342343L193.26567187499998,61.46283053422523L193.3383828125,84.2836812127504L193.7019375,104.1823136332953L193.847359375,107.55849244137548L194.0654921875,124.18907435699268L194.2109140625,129.01759352761886L194.42904687499998,97.6013108311795L194.79260156249998,58.068712298941776L195.010734375,38.03520847352675L195.15615625,80.48258970871962L195.5197109375,105.48436298188804L196.02868750000002,132.24846587782446L196.31953125,128.2163356495222L196.39224218750002,123.10721695486629L196.464953125,75.01227718555288L196.5376640625,37.37554824702951L196.6830859375,75.94179916120375L196.6830859375,119.05255237909243L197.41019531249998,150.2129929530397L197.41019531249998,180.67798456456907L197.48290625,158.8833581305443L197.7010390625,132.29191769715538L197.8464609375,149.71785745803354L198.791703125,134.25811550513205L199.00983593750001,146.26365342807952L199.1552578125,148.92670960841883L199.3006796875,99.42533146859192L199.5915234375,93.47671673533902L199.664234375,95.21933643447905L200.245921875,122.15911422651537L200.3186328125,105.90844482917505L200.97303125,101.97683551280053L201.0457421875,106.75367081732561L201.118453125,124.8534585142394L201.409296875,137.1847091073847L201.4820078125,120.1901260133121L201.7728515625,125.55447052164077L201.84556249999997,143.21126597258862L201.84556249999997,127.51871280948372L202.35453906249998,64.90811788561972L202.42725,67.89501144403037L202.7908046875,119.32700821780455L202.863515625,92.21079360906258L203.29978125,69.2309916695295L203.3724921875,108.36720385844042L203.445203125,148.66001068196414L203.51791406249998,117.50768273433079L203.95417968750002,121.62957657417671L204.608578125,142.77396983565995L205.11755468750002,126.28126262547838L205.33568749999998,95.2227280329005L205.62653125,122.26040180069222L205.917375,121.57542270918896L206.062796875,89.32160159374398L206.28092968750002,81.57232544998405L206.353640625,51.44445941704561L206.353640625,54.884570502388726L206.7171953125,74.34150262141121L207.517015625,63.254675702535465L207.66243749999998,94.28626638131342L207.8805703125,50.150433611732765L208.09870312500001,101.36804450637817L208.4622578125,113.56737192473841L208.60767968750002,85.97660283770384L208.82581249999998,117.35154438382122L208.971234375,99.65095338046L209.0439453125,86.80128017953696L209.3347890625,99.38954759870963L209.4075,83.6720024902721L209.48021093749998,73.7818438145479L209.552921875,101.32887931588053L209.6256328125,78.69201586225287L209.69834375,73.10820574707982L209.69834375,86.3867958077621L209.98918749999999,82.77121346998206L210.0618984375,99.00195349638452L210.134609375,130.31061377245558L210.134609375,100.41291099012918L210.2073203125,75.65854737194991L210.28003124999998,24.557116073564373L210.35274218749998,68.24839386052626L210.42545312500002,89.92501383571866L210.64358593749998,45.106465953135796L210.86171875,89.5553554823265L210.93442968749997,63.38901589370363L211.007140625,104.68518536621288L211.73425,46.955091164513135L211.80696093749998,12.59229353353598L212.02509375,71.17965747238328L212.3159375,33.127668641683215L212.75220312500002,-11.182310645921973L213.40660156250001,70.68886282435422L213.4793125,57.49180664107024L214.061,69.71265353750081L214.20642187500002,125.65240223302973L214.2791328125,159.30318051707468L214.2791328125,134.47814185449514L215.0062421875,102.16097062917964L215.8787734375,53.92502861053201L215.951484375,82.29720610403287L216.4604609375,86.98766501236915L216.75130468749998,93.52564465695L217.0421484375,95.32146147952501L217.0421484375,74.06633588214332L217.18757031250001,71.72761992935112L217.26028125,89.51137792288526L217.26028125,84.34592955963375L217.7692578125,81.66639607766207L218.0601015625,64.36369022748237L218.859921875,90.51357243495997L219.07805468749999,43.55784582195372L219.2234765625,62.98689963975163L219.44160937499998,39.222369543812334L219.9505859375,-26.492915000258904L220.02329687499997,-33.7193818409676L220.02329687499997,23.339709287468565L220.314140625,39.625689604978106L220.9685390625,50.20284497684263L221.5502265625,49.120285585945965L221.768359375,82.1273357652184L221.9864921875,53.54662969157434L221.9864921875,26.131884680114155L222.204625,53.14854618018194L222.7136015625,94.7805253760337L222.7863125,126.91326421998852L223.00444531250002,127.20205092978229L223.07715625,126.75007246465532L223.9496875,64.55537242510547L224.095109375,64.65249202019152L224.6040859375,81.25436434392836L224.7495078125,83.0631919562501L225.40390625,59.27363220560649L225.69475,66.86715676908554L225.84017187499998,55.91648837690471L226.4945703125,38.82361423729813L226.6399921875,13.064215775384184L226.6399921875,29.79358668191452L226.712703125,78.99903568712799L226.78541406250002,140.6865826823091L226.858125,166.46508711406742L227.00354687499998,149.5374462802956L227.00354687499998,90.28809885405995L227.43981250000002,89.28117043335335L227.65794531249998,96.67742708186765L227.8033671875,80.47761858494358L228.60318750000002,109.2084764095124L229.11216406249997,158.45089297703763L229.4030078125,133.5512594148727L229.6938515625,68.30032443147176L230.05740625,82.01860574766756L230.1301171875,86.005157920528L230.63909375,87.75061170377843L230.78451562499998,92.02398260927306L231.14807031249998,125.65938750999828L231.22078125000002,144.17820214401777L231.2934921875,104.51749613809245L231.94789062499999,109.06919094901872L232.09331250000002,111.04662002463095L232.238734375,99.12945693958176L232.529578125,101.30867879005295L232.74771093750002,83.83414900101434L232.820421875,93.56844520845338L232.8931328125,113.06273726812991L233.1839765625,99.37948748434778L233.402109375,73.73712938432016L233.54753125000002,81.1090121295797L234.0565078125,91.8803661744841L234.12921875,107.89652899043055L234.2019296875,90.55858343970553L234.3473515625,101.06722423438296L234.71090625000002,103.36513560590586L234.92903906249998,99.72716655827033L235.36530468750001,106.85751112002018L235.728859375,119.37696365459493L235.9469921875,104.70214963397619L235.9469921875,114.91160604918741L236.09241406249998,122.71357926293061L236.310546875,125.18692600690628L236.52867968750002,91.32288469203301L236.74681249999998,67.96440162431985L236.8195234375,104.82231868260176L236.892234375,127.14049226116978L237.3285,174.94322353669114L237.473921875,92.50370906160143L237.764765625,127.57489278037863L237.91018749999998,64.08878758695435L238.055609375,78.08254523836598L238.2737421875,167.58232596139425L238.4191640625,82.3327941732823L238.71000781249998,99.76616577827252L238.85542968750002,31.36952671869591L238.928140625,57.70705341054391L239.0008515625,100.53498386643366L239.07356249999998,148.44032386013586L239.36440624999997,151.0981443597995L239.4371171875,173.76562391216294L239.4371171875,162.56456065298954L239.65525,128.4304860723327L240.091515625,132.00563605878614L240.30964843750002,119.68276717317418L240.6004921875,137.02927587311854L240.67320312500001,113.69946054149507L241.03675781249999,111.63458196786344L241.10946875,78.3946925129034L241.6184453125,90.94607633752851L242.0547109375,99.52556711178957L242.127421875,64.21149079844517L242.27284375,67.38675672021607L242.34555468750003,91.46657290408274L242.709109375,93.28152531717774L242.7818203125,98.42594759564336L243.0726640625,83.88353886147776L243.581640625,43.66443187583744L244.01790624999998,72.89729577828005L244.30875,105.56701041079695L244.3814609375,88.91045835381027L244.5268828125,113.77912477512325L245.035859375,126.24105596483251L245.472125,136.9628692993452L245.6902578125,133.96011872861362L245.9811015625,85.75437301957754L246.34465624999999,58.45068078774702L246.4173671875,78.96225805057185L246.63549999999998,68.53053345068157L246.78092187500002,111.24768254479082L246.99905468749998,49.003779559753156L247.071765625,57.5004301055303L247.4353203125,70.53660869403865L247.50803125,91.17610637031508L248.08971875,99.73324427142252L248.235140625,88.1578270597329L248.45327343749997,80.25300759393397L248.816828125,74.83465261673982L248.8895390625,107.60696856677168L249.32580468749998,128.56072692846044L249.4712265625,138.24456549500297L249.5439375,74.44239422071897L249.76207031250001,92.43384763408056L250.12562499999999,117.26635777389018L250.41646875,98.73121497517826L250.48917968749998,120.27493798153205L250.56189062500002,141.995507479707L250.7073125,94.2616191666323L250.78002343749998,58.51763674384344L251.0708671875,67.3535409724672L251.43442187500003,82.97180140625193L251.5071328125,96.27621667401442L251.7979765625,124.84702106704185L251.8706875,122.28140811010127L252.016109375,122.08231101910624L252.016109375,128.9247107303461L252.74321875,151.1120889293941L252.88864062500002,110.3032788042898L252.9613515625,115.7333216664995L253.0340625,117.86019544563523L253.10677343749998,89.4366528727819L253.470328125,109.16667992129186L254.1247265625,144.4101742435501L254.48828125,84.96846824610274L254.8518359375,65.41625805581036L254.9972578125,111.45661035583072L255.1426796875,78.71577127469973L255.215390625,49.58785922717095L255.3608125,59.84111683949456L255.5789453125,97.711199802466L255.5789453125,60.603015680993266L255.65165625,34.41175485296125L255.72436718749998,47.785391757496654L255.86978906250002,106.64370226513849L256.37876562499997,141.1166029834837L256.5241875,69.72958703373412L256.669609375,69.54558880647743L257.251296875,44.478393261258105L257.3240078125,42.64280043842845L257.4694296875,72.20702622067408L257.6148515625,92.39343955033902L257.90569531250003,79.95003793535957L258.1965390625,95.1395405023197L258.26925,102.95582112852131L258.63280468749997,134.873897319511L258.8509375,72.02371774542858L258.9236484375,99.34326485526682L259.14178125,78.23473213354028L259.2144921875,87.35449451574253L259.28720312499996,115.27156134020429L259.578046875,83.64212254725585L259.72346875,104.98286987171188L259.7961796875,92.9620105271078L259.868890625,93.25559583199248L259.9416015625,71.45894501914917L260.15973437499997,50.90345781928498L260.450578125,84.97636660989845L260.741421875,74.87016260210709L260.88684375,103.60457947651967L261.032265625,104.79629513651386L261.1776875,136.13981523693255L261.75937500000003,133.32698214375367L262.1229296875,116.26821364754471L262.1229296875,97.24855200972577L262.195640625,100.86686274002841L262.4137734375,105.11049477536986L262.486484375,112.97733775171345L262.63190625,118.71307634200284L262.92275,105.43371139125401L263.068171875,96.77638355338397L263.21359375000003,78.66406749676956L263.359015625,106.75188071672895L263.5771484375,89.90432751265037L264.0134140625,123.45975279735646L264.3042578125,77.05740702034309L264.7405234375,103.91135566983387L264.95865625,54.80986687473714L265.685765625,60.908671423140746L265.8311875,88.25348912239686L265.976609375,44.0292141244945L265.976609375,21.347326708205742L266.267453125,60.672682071895295L266.849140625,78.83336590489002L267.28540625,83.0402516993995L267.6489609375,67.83974291223979L267.9398046875,79.19979008886435L268.1579375,75.11470709256265L268.9577578125,56.358585225613524" style="fill: none;" fill="none"></path></g></g></g></g><g opacity="0.20000000298023224"><g><g><g><path stroke="rgb(255, 112, 67)" stroke-width="2px" d="M38.245953125,-178.89763093118864L38.391375000000004,41.03400315903127L38.9003515625,-50.04613495928544L39.0457734375,48.62012234019738L39.7728828125,-46.09705246239898L40.0637265625,111.12980233629544L40.209148437500005,273.7452240657682L40.936257812499996,164.65795448174077L41.37252343749999,-35.60288677488762L42.9721640625,-177.25338409841055L43.044875,62.8018484339118L43.117585937499996,44.45389383286238L43.2630078125,167.23528259713203L43.5538515625,207.39402763669688L43.8446953125,142.49941597816843L44.062828124999996,106.90757375955582L44.4263828125,112.04361040890217L44.644515625,189.72973318894702L44.8626484375,103.03530145250261L45.371625,116.11186529323459L45.5897578125,113.38976728233197L45.807890625,134.52242691194016L46.0260234375,6.859474999830155L46.1714453125,157.31261793337762L46.24415625,61.54133456883332L46.971265625,-52.8189686797559L47.116687500000005,221.8152114404365L47.3348203125,166.81902719164887L47.552953125,96.41273677783707L47.6256640625,65.86280869444212L47.9165078125,166.0041113551706L48.352773437500005,86.53821097500622L48.643617187500006,29.68630455248058L48.934460937500006,81.35649098828435L49.51614843750001,144.0873447600752L49.661570312500004,93.89934060287973L50.025124999999996,60.749596048146486L51.624765624999995,169.51233021418253L51.6974765625,115.88913694148262L52.2791640625,83.17449702695012L52.351875,28.072018640115857L52.4245859375,133.86501789527634L52.497296874999996,196.71115761436522L53.078984375,235.5423830275734L53.151695312499996,5.390718605369358L53.22440625,-71.81882061871389L53.5879609375,-5.312290243183554L54.1696484375,177.01577421401936L54.242359375,235.82044015452263L54.96946875,139.138952507327L55.0421796875,-49.19627649274963L55.114890625,140.8090265014519L55.405734375,-37.303380995988846L55.623867187500004,75.76595282927155L55.696578125,-2.559489355112106L55.842,144.5938892364502L56.0601328125,93.05319192012152L56.205554687500005,104.49119726320107L56.569109375000004,85.4798626601696L56.7872421875,182.75936745231348L57.005375,69.54386814621587L57.150796875000005,214.99864273983982L57.3689296875,162.58453866280615L57.441640625000005,63.38255325456461L57.5870625,39.182114428530156L57.6597734375,102.61362269644935L57.6597734375,168.65853231058765L57.87790625,91.54899825776616L58.2414609375,143.50275349927443L58.895859375,116.49414967869718L58.968570312500006,82.10438339784741L59.404835937499996,-53.064839016025246L59.62296875,13.288000317290454L59.6956796875,34.87943654072782L59.768390624999995,97.52503594818214L59.84110156249999,43.92424270324409L59.9138125,32.29032544543347L60.350078124999996,99.77567343786359L60.4955,180.07502090775716L60.640921875,60.05989424698055L60.713632812499995,126.7716993248711L60.8590546875,-48.262824231758685L61.004476562499995,168.45585445687175L61.004476562499995,156.6896569089343L61.1498984375,3.9910701829940365L61.36803125,244.53021751064807L62.3132734375,253.42502474909026L62.4586953125,7.548434844240575L62.6041171875,135.68411920343834L62.6041171875,210.77523056541878L62.8949609375,58.79514062901339L63.1858046875,186.4145644114663L63.840203125,186.56938605445126L64.131046875,169.25338730650643L64.27646875,86.89438554892938L64.3491796875,65.20539967777829L64.3491796875,121.9236478904883L64.421890625,78.42035611905158L64.4946015625,74.04531978194912L64.712734375,50.08372036864361L64.85815625000001,88.21528056139748L64.9308671875,-54.41311576589939L65.149,154.16922981043655L65.149,169.4996639524276L65.2217109375,163.565334831054L65.3671328125,-46.20474218577144L65.5125546875,153.19549989700317L65.6579765625,121.2416836383442L65.7306875,157.34540535571674L65.7306875,180.32456569653004L66.74864062500001,-65.00256989958385L67.91201562500001,169.35065430402756L68.1301484375,29.18848690080148L68.202859375,77.82587210151057L68.42099218749999,49.34678065404296L68.7118359375,106.65817029587924L68.92996875,102.65234577283263L69.075390625,152.82423886905113L69.2935234375,80.05598212095599L69.36623437499999,46.234554714833706L69.58436718749999,-4.733775961523236L69.657078125,61.2359310357521L70.1660546875,168.9489553834622L70.238765625,153.17461911402643L70.6023203125,89.03966517932713L70.67503125,112.88375277506807L71.0385859375,65.40198288671672L71.1840078125,119.32725855273505L71.3294296875,87.0702999625355L71.6202734375,41.387209905932366L71.692984375,37.769888072585076L71.9111171875,4.262979668254673L71.9111171875,52.74579054489732L72.12925,124.15704371842244L72.565515625,-9.095245089381933L72.78364843749999,38.81707170481485L72.856359375,90.21813982600966L73.2199140625,122.3807639144361L73.292625,82.10890580092867L73.58346875,71.27474726301928L74.019734375,206.35346861835566L74.310578125,52.70346367855868L74.74684375,90.1984249750773L74.9649765625,114.7988491548846L75.1103984375,67.00097035740812L75.183109375,101.97497458631793L75.32853125,114.61127542083462L75.47395312500001,63.989933187142015L75.5466640625,221.6011569164693L75.764796875,-5.078644527743251L76.05564062500001,106.55588625743985L76.2737734375,103.34692328982055L76.4191953125,74.61768642192085L76.49190625,3.2397859711200283L76.8554609375,157.95826163577536L77.0008828125,-14.661122019092232L77.509859375,99.50146741978824L78.3096796875,78.6363715287298L78.382390625,8.851275575657695L78.52781250000001,151.60891370351115L78.52781250000001,25.628755044192076L78.6005234375,15.864321491370617L79.25492187500001,83.11302061006427L79.69118750000001,216.32155163493005L79.69118750000001,156.7458336347093L79.9093203125,197.4406954270477L79.98203125,81.20022076306243L80.2001640625,91.05513770878315L81.14540625000001,118.30159166641533L81.2181171875,139.77894320587316L81.58167187500001,-53.67303156790632L81.9452265625,175.97442024201155L82.0906484375,128.68308592091003L82.163359375,64.26841428938012L82.89046875,72.28218321191768L83.1086015625,54.382017178460956L83.3994453125,146.458320569247L83.617578125,268.8688899464905L83.98113281250001,138.4489327246944L84.199265625,-68.20446661238867L84.2719765625,152.78025143283108L84.56282031250001,29.058291155844927L84.7082421875,219.5489575276151L84.780953125,11.29097071290019L84.926375,78.09527306631207L84.926375,188.01016007984677L85.5807734375,141.16703830162683L86.1624609375,95.11978880316019L86.6714375,-75.17681090037027L86.81685937499999,-96.28664652692771L86.81685937499999,95.86383010384938L86.8895703125,282.48803616315126L88.0529453125,-62.773625812182814L88.19836718750001,117.15155869536102L88.271078125,273.11422517647344L88.4165,74.93729312717915L88.561921875,-3.7612119801342487L90.5251171875,-25.60314693674445L90.888671875,68.64666577242315L91.179515625,46.61044413968921L91.68849218749999,133.05070269045729L91.761203125,157.11769529432058L91.83391406249999,48.99226665000123L92.7064453125,48.71028775162995L92.77915625,93.38110147478679L92.85186718749999,23.481638187542558L93.36084375,258.9577609437207L93.94253125,-71.70706779882309L94.087953125,150.0718972875426L94.378796875,159.787926994885L94.669640625,87.0058203873535L94.669640625,137.16287434846163L94.8877734375,81.32568211729328L95.1786171875,80.36149164785941L95.4694609375,49.098861103877425L95.54217187500001,97.78638138249516L95.68759375,166.075127216056L95.833015625,141.9551377010842L95.9784375,178.54402847401798L96.12385937500001,152.55734642470875L96.26928125,220.71314067393538L96.414703125,6.999492838978796L96.70554687500001,6.663916397839813L96.996390625,12.325223098819464L97.1418125,95.77115617195764L97.21452343749999,129.94953544003266L97.5053671875,39.20762360841036L97.79621093749999,-51.25570112715164L97.9416328125,153.124095392103L98.01434375000001,131.13793817472953L98.01434375000001,186.71488024108112L98.0870546875,141.49576047559577L98.2324765625,12.588759072124986L98.45060937500001,101.56781698390841L98.8141640625,123.89393172040582L99.17771875000001,66.4271904664735L99.32314062500001,110.34269221251209L99.3958515625,163.18976338766515L99.4685625,120.93748136858144L99.6866953125,-17.372020016113908L99.75940625000001,142.58682555022338L99.8321171875,154.65704871155322L99.8321171875,142.31364413909614L100.05024999999999,54.096222502489894L100.5592265625,34.048798287287354L100.8500703125,165.22198294103146L101.068203125,77.64826178674896L101.35904687499999,153.29524008370936L101.35904687499999,72.01914187644918L101.7226015625,191.55127235502005L101.94073437499999,194.5547133013606L102.377,118.90473184610406L102.74055468750001,45.080317322164774L102.8859765625,174.87579427473247L103.24953124999999,161.84141597524285L103.394953125,-3.8207805082201958L103.540375,94.6584683575978L103.685796875,93.8083272408694L104.1947734375,160.5163518724342L104.267484375,-22.35139779622355L104.4856171875,100.99262384201089L104.558328125,74.5774087694784L104.558328125,-2.713887022808194L105.79441406250001,140.33223095784584L106.012546875,95.862664171805L106.30339062499999,142.44369855895638L106.52152343750001,8.358722283815354L106.6669453125,164.53531962943572L106.73965625,37.376686323434114L106.8123671875,29.701885644346476L107.0305,9.921283210938185L107.10321093750001,165.63012981911498L107.175921875,176.3081241256247L107.32134375,96.10305816059312L107.8303203125,156.70915977222222L107.90303125,86.75920809432864L108.339296875,152.91906800866127L108.41200781250001,135.9640488879134L108.41200781250001,93.30616384247938L108.920984375,65.21458580903709L109.06640625,148.4598725767185L109.211828125,33.62733151887855L109.35725,193.78170035593212L109.502671875,82.38607964602609L109.64809375,123.4738782029599L109.9389375,185.5643173009157L110.01164843749999,75.88724509316187L110.1570703125,60.72641873235504L110.22978125,119.40509334951639L110.375203125,77.94257129977147L110.520625,126.60398176684976L111.24773437500001,101.24743299062052L111.684,95.08399822252491L111.684,129.8266532688091L111.82942187500001,69.2754564570884L111.82942187500001,86.36307384942968L111.9021328125,109.80841268599033L111.97484375,137.6625292263925L112.120265625,57.68156953280172L112.2656875,178.11652005774278L112.4838203125,-44.6225370702644L112.55653125,44.155980529884516L113.0655078125,37.62322795391083L113.2109296875,110.50800724389651L113.50177343749999,75.37412899980943L113.50177343749999,98.47961631106833L114.156171875,42.66966449220976L114.30159375000001,248.9622431928292L115.2468359375,189.3817201393346L115.319546875,37.11848537251353L115.46496875000001,82.0874243862927L115.8285234375,76.74014204926789L115.901234375,163.26694455587614L115.97394531249999,155.57739306986332L116.04665625000001,184.67608907073736L116.19207812500001,-81.16242336605984L116.2647890625,122.58398940290013L116.5556328125,-74.48071413859722L117.7190078125,189.57976959614703L117.8644296875,22.63312230942151L117.93714062500001,-65.00684498374659L118.0098515625,79.03141050413251L118.0098515625,208.4509627005706L118.3006953125,9.636265822996705L118.37340624999999,85.3575457893312L118.5915390625,212.0444535895561L119.2459375,104.24642219642797L119.6094921875,134.41434854455292L119.827625,106.25804361701012L120.0457578125,97.87333164798716L120.1911796875,153.79634354387719L120.26389062499999,161.39832646710175L120.6274453125,103.91547415219247L120.70015624999999,104.30955918319523L120.7728671875,97.24422298185527L121.2091328125,95.00863661492863L121.5726875,126.90677078564961L121.9362421875,56.60078585892916L122.5179296875,73.11843913793564L123.17232812499999,29.492830495660513L123.2450390625,-1.8092650814602678L123.31774999999999,21.626286992182344L123.60859375,48.10223652484518L123.6813046875,108.44042108518381L123.8267265625,53.36974084501466L124.19028125,33.24451716430485L124.48112499999999,74.51897084216277L124.48112499999999,135.52975686701635L124.917390625,75.88275802135468L125.208234375,39.90456832076114L125.4263671875,16.247595152507245L125.4263671875,61.34393874059121L125.499078125,155.37109376055497L125.5717890625,83.71185037431617L125.789921875,56.46175729545455L126.662453125,-10.672574489066989L126.7351640625,8.976277623325615L127.09871875,71.81655235091846L127.17142968750001,115.78529832698405L127.31685156249999,63.99887199948232L127.31685156249999,63.56910238166651L127.825828125,56.20419230746727L128.0439609375,145.89333816555637L128.26209375,89.4365413809816L128.3348046875,182.05539181642234L128.407515625,95.52249466503659L128.48022656249998,-72.60833326913414L128.91649218749998,195.0138432079305L129.0619140625,73.33381858468056L129.134625,36.848695763697236L129.280046875,173.27454560250044L129.570890625,168.0496684644992L129.64360156249998,186.90969688631594L130.00715625,36.096316282326995L130.07986718749999,53.8176000751555L130.5161328125,141.11736253028113L130.5161328125,45.21570676440996L130.58884375,62.343813796838134L130.734265625,133.07282006802657L130.87968750000002,90.17772084847093L131.0978203125,105.00434868782759L131.6795078125,129.70553766128916L131.897640625,85.3819243684411L131.97035156249999,133.25481146077314L132.2611953125,50.34096737516424L132.479328125,97.06625935435295L132.69746093749998,218.11143397943425L132.8428828125,3.214877422899036L133.5699921875,-90.93406449879205L133.7154140625,125.90608311009903L133.788125,128.30398135011393L133.93354687500002,200.09730692145723L134.5879453125,-27.159242240712047L134.8787890625,139.17509640070298L135.38776562500001,34.374022665123164L135.82403125000002,194.5265189446509L135.969453125,131.54000807367265L136.1875859375,93.1269989516586L136.4784296875,177.324322230493L136.4784296875,103.00880299694836L136.551140625,134.6051374245435L136.551140625,17.020749423032015L136.9146953125,5.551511233672528L137.714515625,21.628406868626683L137.7872265625,7.558433594803034L137.7872265625,103.92444829580684L138.0780703125,23.010354322691768L138.441625,-17.59245183505118L138.5143359375,137.37899575196207L138.9506015625,117.62015738338232L139.0233125,117.12357632629573L139.0960234375,-28.352732678875327L139.16873437499999,44.56264349445701L139.2414453125,100.74717748103042L139.31415625,225.8196580437943L139.96855468750002,82.57436000555754L140.2593984375,149.06110486760736L140.69566406250001,52.71999871482453L140.768375,18.973261622091144L141.05921874999999,41.09830607784292L141.05921874999999,149.24775998853147L141.2773515625,5.526178710162668L141.4227734375,93.61820965508619L141.64090625,-111.56618596861756L141.7136171875,10.212589565664558L141.78632812499998,185.34114730823782L142.368015625,134.10251471959054L142.4407265625,35.69286846369505L142.5134375,-13.227590904881538L142.5134375,32.49736671149731L142.94970312499998,103.95066410116851L143.6041015625,220.07986291746298L144.6220546875,181.47387437646586L145.2037421875,147.89697471819818L145.3491640625,140.17747997740904L145.4945859375,173.15521422432113L145.56729687499998,124.22915484880407L145.64000781250002,11.136007744818954L145.71271875,42.1266934722662L145.7854296875,168.8557514824594L145.9308515625,-1.7029532777766292L146.0035625,5.8286144162217965L146.36711718749999,154.05306058128673L146.5125390625,151.63498818377653L146.80338281250002,162.01733038884896L146.87609375,32.796622602889954L146.9488046875,8.316996049135952L147.2396484375,32.891557736322284L147.748625,106.60001501875618L147.82133593749998,52.02397261559963L147.894046875,112.13271588211258L147.96675781250002,94.72425518992046L148.5484453125,222.83202784260112L148.98471093749998,75.85760215421517L149.8572421875,-62.27538418521482L150.36621875,164.54189124641317L150.4389296875,155.01583779975772L150.6570625,-80.56129706899321L150.6570625,100.45982822900017L150.7297734375,226.34582904291648L151.23875,211.2074380411456L151.8204375,6.478709859152644L152.256703125,123.5429508437713L152.4748359375,174.15655552844206L152.547546875,158.5020099437485L152.7656796875,101.0970630881687L152.91110156250002,74.14329340495169L153.7836328125,-0.29570863147574755L153.85634375,148.08659766614437L154.1471875,69.38664397659402L154.2198984375,46.63913313423595L154.29260937499998,6.016294144094019L154.36532031250002,169.85730477422476L154.36532031250002,126.3138060128937L155.0924296875,104.59107877500355L155.3105625,63.87613115335505L155.60140625,82.33184614032507L155.6741171875,180.2123005731652L155.74682812499998,132.82168537192047L156.037671875,114.53471254991987L156.4739375,106.66403528737524L156.5466484375,144.69006096447507L156.76478125,90.86731665581465L157.05562500000002,110.09212281679113L157.27375781249998,56.61110259095828L157.34646875,37.72081293289861L157.491890625,82.50691260335346L157.7100234375,-1.4276873214791124L157.92815625,21.634483847767143L158.364421875,125.61007769592106L158.50984375000002,100.22084749117494L159.0188203125,121.86535128826895L159.09153125,125.05951045205195L159.1642421875,60.76132603113851L159.23695312499999,113.27907440066338L159.4550859375,82.44052513937156L160.03677343750002,96.10153891580799L160.25490625,131.74825060305494L160.9093046875,87.16544708361228L161.05472656249998,175.98620322191465L161.1274375,105.94878897505501L161.3455703125,56.33997039372723L161.563703125,6.6572034557660515L161.70912500000003,194.69596773510176L161.7818359375,226.3364662552873L161.99996875000002,110.04817071184516L162.0726796875,64.46411421646675L162.29081250000002,36.54322156806788L162.5089453125,34.06720588107905L162.727078125,133.63465798832476L162.8725,40.14634022923809L163.0906328125,-6.98307086278993L163.45418750000002,163.4660716165478L163.5268984375,178.091222865507L163.890453125,159.46559978152314L164.03587499999998,-12.041484702999384L164.1085859375,8.55421022325757L164.2540078125,44.402628154183446L164.83569531249998,211.09165745601055L164.90840624999998,134.8630557252715L165.1265390625,127.05601008733113L165.2719609375,118.90345992023745L165.344671875,61.273523511365056L165.8536484375,27.4686664727827L166.2899140625,108.6743494508167L166.508046875,46.486784680436074L166.9443125,47.30555162578821L166.9443125,194.98328165585795L167.16244531249998,14.32684576883915L167.23515625,-18.1683869337042L167.7441328125,112.60982940718532L167.8895546875,49.71874830747646L167.96226562500001,60.16090635955334L168.0349765625,66.5654770731926L168.1076875,109.20559048776825L168.253109375,85.39439630818863L168.834796875,85.60733789702256L169.2710625,11.253766881302028L169.2710625,95.04753634768227L169.4891953125,52.85711938949923L169.7800390625,69.87149505068858L170.6525703125,89.34761256414154L170.870703125,119.82595948626597L170.9434140625,30.324387362226844L171.6705234375,164.58874051583308L171.8159453125,218.3416348956525L171.9613671875,7.345386012146889L171.9613671875,39.493524278203665L172.034078125,2.6947304060061867L172.25221093750002,121.63025699059168L172.324921875,-42.36426802538335L172.3976328125,114.61823568182686L172.7611875,-58.17116206387678L172.9793203125,46.978596015522896L173.197453125,152.22858891946572L173.488296875,191.19633437568942L173.63371874999999,71.20094023148219L173.779140625,171.01820211205631L174.21540625,61.24246732145548L174.28811718749998,110.24016085515419L174.4335390625,189.76089537267882L174.8698046875,36.78789064101875L175.0152265625,133.67401702764133L175.1606484375,101.9679789940516L175.23335937500002,99.26064945571125L175.5969140625,75.98698527986805L175.669625,78.84005632375677L175.74233593749997,131.2325906579693L176.25131249999998,188.0579456280296L176.833,59.255224479983255L176.978421875,-4.251680726806313L177.269265625,105.11772674632569L178.141796875,137.32387896440923L178.21450781250002,77.38327723120649L178.21450781250002,74.01267368470629L178.5053515625,100.29447786634167L178.86890625,135.14899172633886L179.15975,-14.67108543838063L179.37788281250002,34.92462524026632L179.5233046875,120.18079147177437L179.9595703125,138.39346262440085L180.17770312500002,35.47946756829819L180.39583593749998,63.407532465333745L181.050234375,64.32109321902196L181.19565625,155.89346664771438L181.55921093749998,35.35298160711926L181.77734375,165.66228127852082L181.92276562499998,159.02289891739684L182.0681875,28.27181699499488L182.1408984375,-1.679846624533326L182.504453125,100.1819477584213L182.5771640625,56.56153281343481L182.94071875,191.55791463454563L183.01342968749998,24.71671353528899L183.08614062499998,47.10592992727956L183.3042734375,76.65877412507932L183.4496953125,65.32824651772778L183.4496953125,103.64738044453163L183.52240625,104.85161159001291L183.7405390625,120.34865035489202L184.54035937499998,48.96470825622481L185.122046875,165.9640633560096L185.34017968749998,52.574363203098386L185.34017968749998,21.23789029630524L185.412890625,65.63061156123877L185.70373437499998,56.46232259583971L187.81235156250003,164.10583266181249L188.32132812499998,63.07135539253554L188.3940390625,3.1664029148717816L188.75759375,116.45341271969178L188.8303046875,151.424201802661L188.903015625,80.59008499110739L188.97572656250003,-24.104182302951813L189.0484375,160.69046439106265L189.1211484375,185.93246917674938L189.193859375,242.37174164938426L189.9936796875,61.72791902720928L190.2118125,190.5800686276828L190.2845234375,111.20982767206927L190.42994531250002,82.83994519275923L190.5753671875,81.25724543941517L191.01163281249998,8.471181729187578L191.30247656249998,113.09206596699853L191.4478984375,159.5093045675506L191.4478984375,91.7034665880104L191.81145312499999,-6.923926309992851L192.0295859375,228.8370371777564L192.6112734375,11.378556941325485L192.82940625,136.25425997314352L192.974828125,12.523078233624517L193.26567187499998,53.24926120042801L193.3383828125,118.51495723053813L193.7019375,134.03026226411262L193.847359375,112.62276065349579L194.0654921875,149.1349472304185L194.2109140625,136.26037228355804L194.42904687499998,50.47688678652048L194.79260156249998,-1.2301854994148016L195.010734375,7.9849527354041925L195.15615625,144.15366156150895L195.5197109375,142.98702289164066L196.02868750000002,172.39462022172907L196.31953125,122.16814030706882L196.39224218750002,115.4435389128824L196.464953125,2.8698675315827415L196.5376640625,-19.079545160755515L196.6830859375,133.79117553246516L196.6830859375,183.71868220592538L197.41019531249998,226.37547198186314L197.48290625,126.19141847950716L197.7010390625,92.40475704707205L197.8464609375,175.8567670993507L198.791703125,111.06850257577995L199.00983593750001,164.2719603125006L199.1552578125,152.92129387892783L199.3006796875,25.173264258851617L199.5915234375,84.55379463545978L199.664234375,97.83326598318914L200.245921875,162.56878091456988L200.3186328125,81.53244073316455L200.97303125,96.07942153823873L201.0457421875,113.91892377411325L201.118453125,152.0031400596102L201.409296875,155.68158499710262L201.4820078125,94.69825137220323L201.7728515625,133.60098728413382L201.84556249999997,169.69645914901048L201.84556249999997,103.97988306482632L202.35453906249998,-29.00777450017631L202.42725,72.37535178164642L202.7908046875,196.47500337846577L202.863515625,51.53647169594964L203.29978125,34.761288760229945L203.3724921875,167.07152214180678L203.445203125,209.0992209172497L203.51791406249998,70.7791908128808L203.95417968750002,127.81241733394563L204.608578125,174.49055972788483L205.11755468750002,101.54220181020597L205.33568749999998,48.63492614403367L205.62653125,162.81691245237985L205.917375,120.54795407193402L206.062796875,40.94086992057663L206.28092968750002,69.94841123434405L206.353640625,6.252660367637901L206.353640625,60.04473713040352L206.7171953125,103.526900799945L207.517015625,46.62443532422185L207.66243749999998,140.83365239948034L207.8805703125,-16.053315542638302L208.09870312500001,178.19446084834635L208.4622578125,131.86636305227876L208.60767968750002,44.59044920715195L208.82581249999998,164.41395670299727L208.971234375,73.10006687541802L209.0439453125,67.52677037815253L209.3347890625,118.27194872746864L209.4075,60.09568482761583L209.48021093749998,58.946605800961464L209.552921875,142.64943256787956L209.6256328125,44.73672068181139L209.69834375,64.73249057432017L209.69834375,106.30468089878559L209.98918749999999,77.34783996331196L210.0618984375,123.34806353598833L210.134609375,177.27360418656218L210.134609375,55.56635681663951L210.2073203125,38.52700194468102L210.28003124999998,-52.09503087401387L210.35274218749998,133.78531054096916L210.42545312500002,122.43994379850724L210.64358593749998,-22.121355870738626L210.86171875,156.22868977611262L210.93442968749997,24.139506510769337L211.007140625,166.62943957497674L211.73425,-39.6400501380364L211.80696093749998,-38.951902912929654L212.02509375,159.06070338065425L212.3159375,-23.95031460436681L213.40660156250001,193.49562302976847L213.4793125,37.69622236614427L214.061,88.04392388214667L214.20642187500002,209.56202527632314L214.2791328125,209.77934794314203L214.2791328125,97.24058386062583L215.0062421875,53.68521379120648L215.8787734375,-18.42888441743949L215.951484375,124.85547234428425L216.4604609375,94.02335337487361L216.75130468749998,103.33261412382126L217.0421484375,98.01518671338758L217.0421484375,42.18364748607081L217.18757031250001,68.21954600016277L217.26028125,116.18701491318643L217.26028125,76.5977570147564L217.7692578125,77.64709585470457L218.0601015625,38.40963145221275L218.859921875,129.73839574617642L219.07805468749999,-26.875744097555668L219.2234765625,92.13048036644855L219.44160937499998,3.575574399903445L219.9505859375,-125.06584181636566L220.02329687499997,-44.55908210203049L220.02329687499997,108.92834598012269L220.314140625,64.05466008124253L220.9685390625,66.06857803463936L221.5502265625,47.49644649960101L221.768359375,131.63791103412706L221.9864921875,10.67557058110836L221.9864921875,-14.990232837075979L222.204625,93.67353843028346L222.7136015625,157.2284941698114L222.7863125,175.1123724859208L223.00444531250002,127.63523099447289L223.07715625,126.07210476696491L223.9496875,-28.73667763421932L224.095109375,64.79817141282062L224.6040859375,106.15717282953361L224.7495078125,85.77643337473273L225.40390625,23.589292579640954L225.69475,78.25744361430407L225.84017187499998,39.490485788633436L226.4945703125,13.184303027888149L226.6399921875,-25.57488191748658L226.6399921875,54.887643041710064L226.712703125,152.80720919494826L226.78541406250002,233.21790317508078L226.858125,205.13284376170486L227.00354687499998,124.14598502963781L227.00354687499998,1.4140777147064796L227.43981250000002,87.7707778022935L227.65794531249998,107.77181205463906L227.8033671875,56.177905839557454L228.60318750000002,152.30476314636567L229.11216406249997,232.3145178283254L229.4030078125,96.20180907162526L229.6938515625,-29.576078043629707L230.05740625,102.59602772196133L230.1301171875,91.98498617981872L230.63909375,90.36879237865409L230.78451562499998,98.43403896751502L231.14807031249998,176.1124948610862L231.22078125000002,171.956424095047L231.2934921875,45.02643712920448L231.94789062499999,115.89673316540816L232.09331250000002,114.01276363804936L232.238734375,81.25371231200795L232.529578125,104.57751156575978L232.74771093750002,57.622354317456484L232.820421875,108.16988951961198L232.8931328125,142.30417535764474L233.1839765625,78.85461280867457L233.402109375,35.27359223427874L233.54753125000002,92.16683624746898L234.0565078125,108.03739724184075L234.12921875,131.92077321435013L234.2019296875,64.55166511361799L234.3473515625,116.83018542639911L234.71090625000002,106.81200266319016L234.92903906249998,94.27021298681697L235.36530468750001,117.55302796264489L235.728859375,138.15614245645702L235.9469921875,82.68992860304813L235.9469921875,130.22579067200422L236.09241406249998,134.4165390835454L236.310546875,128.89694612286985L236.52867968750002,40.526822719722986L236.74681249999998,32.9266770227502L236.8195234375,160.1091942700247L236.892234375,160.6177526290218L237.3285,246.6473204499731L237.91018749999998,-31.1403702031821L238.055609375,99.07318171548346L238.2737421875,301.83199704593665L238.4191640625,-45.54150350888568L238.71000781249998,125.91622318575779L238.85542968750002,-71.2254318706691L238.928140625,97.21334344831607L239.0008515625,164.77687955026823L239.07356249999998,220.2983338506892L239.36440624999997,155.08487510929504L239.4371171875,207.76684324070808L239.4371171875,145.76296576422948L239.65525,77.22937420134743L240.091515625,137.36836103846628L240.30964843750002,101.19846384475628L240.6004921875,163.04903892303506L240.67320312500001,78.70473754405975L241.03675781249999,108.53726410741606L241.10946875,28.53485833046338L241.6184453125,109.77315207446614L242.0547109375,112.39480327318111L242.127421875,11.240376328428596L242.27284375,72.14965560287237L242.34555468750003,127.58629717988272L242.709109375,96.00395393682024L242.7818203125,106.14258101334174L243.0726640625,62.06992576022944L243.581640625,-16.664228602622927L244.01790624999998,116.74659163194397L244.30875,154.57158235957223L244.3814609375,63.92563026833038L244.5268828125,151.08212440709272L245.035859375,144.93395274939635L245.472125,153.04558930111426L245.6902578125,129.4559928725163L245.9811015625,13.445754456023394L246.34465624999999,17.49514244000119L246.4173671875,109.72962394480903L246.63549999999998,52.8829465508461L246.78092187500002,175.3234061859548L246.99905468749998,-44.3620749178032L247.071765625,70.24540592419605L247.4353203125,90.09087657680115L247.50803125,122.1353528847297L248.08971875,112.56895112308362L248.235140625,70.79470124219854L248.45327343749997,68.39577839523554L248.816828125,66.70712015094857L248.8895390625,156.76544249181944L249.32580468749998,159.99136447099346L249.4712265625,152.77032334481675L249.5439375,-21.26086269070703L249.76207031250001,119.421027754123L250.12562499999999,154.51512298360467L250.41646875,70.92850077711046L250.48917968749998,152.59052249106267L250.56189062500002,174.57636172696948L250.7073125,22.660786697020143L250.78002343749998,4.901663109660177L251.0708671875,80.60739731540282L251.43442187500003,106.39919205692907L251.5071328125,116.23283957565823L251.7979765625,167.70322765658298L251.8706875,118.43298867469032L252.016109375,121.78366538261373L252.016109375,139.18831029720604L252.74321875,184.39315622796613L252.88864062500002,49.090063616633415L252.9613515625,123.87838595981398L253.0340625,121.05050611433883L253.10677343749998,46.801339013502L253.470328125,138.76172049405673L254.1247265625,197.27541572693735L254.48828125,-4.194090750068426L254.8518359375,36.08794277037185L254.9972578125,180.51713880586126L255.1426796875,29.604512653003155L255.215390625,5.895991155877738L255.3608125,75.22100325797994L255.5789453125,154.51632424692312L255.5789453125,4.940739498784154L255.65165625,-4.875136389086634L255.72436718749998,67.84584711429973L255.86978906250002,194.93116802660126L256.5241875,-37.35093689089018L256.669609375,69.26959146559238L257.251296875,6.87759994342926L257.3240078125,39.889411204184114L257.4694296875,116.5533648940424L257.6148515625,122.67305954483648L257.90569531250003,61.28493551289043L258.1965390625,117.92379435275991L258.26925,114.6802420678238L258.63280468749997,182.7510116059954L258.8509375,-22.25155161569515L258.9236484375,140.3225855200241L259.14178125,46.57193305095038L259.2144921875,101.03413808904588L259.28720312499996,157.1471615768969L259.578046875,36.19796435783309L259.72346875,136.99399085839588L259.7961796875,74.93072151020169L259.868890625,93.6959737893194L259.9416015625,38.76396879988414L260.15973437499997,20.07022701948884L260.450578125,136.0857297958185L260.741421875,59.71085659042001L260.88684375,146.70620478813845L261.032265625,106.58386862650514L261.1776875,183.1550953875606L261.75937500000003,129.10773250398535L262.1229296875,90.6800609032313L262.1229296875,68.71905955299735L262.195640625,106.29432883548239L262.4137734375,111.47594282838205L262.486484375,124.77760221622884L262.63190625,127.31668422743678L262.92275,85.51466396513085L263.068171875,83.79039179657896L263.21359375000003,51.49559341184795L263.359015625,148.88360054666796L263.5771484375,64.63299770653248L264.0134140625,173.79289072441557L264.3042578125,7.453888354823022L264.7405234375,144.19227864407003L264.95865625,-18.84236631790796L265.685765625,70.05687824574609L265.8311875,129.270715671281L265.976609375,-22.307198372359068L265.976609375,-12.67550441622734L266.267453125,119.66071511742969L266.849140625,106.07439165438214L267.28540625,89.35058039116362L267.6489609375,45.03897973150015L267.9398046875,96.23986085380116L268.1579375,68.98708259811004L268.9577578125,28.224402425189822" style="fill: none;" fill="none"></path></g></g></g></g></g></g><g transform="translate(39, 177)" clip-path="url(#clip_1)"><clipPath id="clip_1"><rect width="290" height="22"></rect></clipPath><g><g><line x1="0" y1="0" x2="0" y2="5" style="visibility: inherit;" fill="rgb(0, 0, 0)" stroke="rgb(204, 204, 204)" stroke-width="1px"></line><line x1="36.35546875" y1="0" x2="36.35546875" y2="5" style="visibility: inherit;" fill="rgb(0, 0, 0)" stroke="rgb(204, 204, 204)" stroke-width="1px"></line><line x1="72.7109375" y1="0" x2="72.7109375" y2="5" style="visibility: inherit;" fill="rgb(0, 0, 0)" stroke="rgb(204, 204, 204)" stroke-width="1px"></line><line x1="109.06640625" y1="0" x2="109.06640625" y2="5" style="visibility: inherit;" fill="rgb(0, 0, 0)" stroke="rgb(204, 204, 204)" stroke-width="1px"></line><line x1="145.421875" y1="0" x2="145.421875" y2="5" style="visibility: inherit;" fill="rgb(0, 0, 0)" stroke="rgb(204, 204, 204)" stroke-width="1px"></line><line x1="181.77734375" y1="0" x2="181.77734375" y2="5" style="visibility: inherit;" fill="rgb(0, 0, 0)" stroke="rgb(204, 204, 204)" stroke-width="1px"></line><line x1="218.1328125" y1="0" x2="218.1328125" y2="5" style="visibility: inherit;" fill="rgb(0, 0, 0)" stroke="rgb(204, 204, 204)" stroke-width="1px"></line><line x1="254.48828125" y1="0" x2="254.48828125" y2="5" style="visibility: inherit;" fill="rgb(0, 0, 0)" stroke="rgb(204, 204, 204)" stroke-width="1px"></line><line x1="290.84375" y1="0" x2="290.84375" y2="5" style="visibility: inherit;" fill="rgb(0, 0, 0)" stroke="rgb(204, 204, 204)" stroke-width="1px"></line></g><g transform="translate(0, 8)"><text x="0" y="0" dx="0em" dy="0.95em" style="text-anchor: middle; visibility: hidden; font-family: &quot;Helvetica Neue&quot;, sans-serif; font-size: 12px; font-weight: 200;" fill="rgb(50, 49, 63)" stroke="none" stroke-width="1px">-500</text><text x="36.35546875" y="0" dx="0em" dy="0.95em" style="text-anchor: middle; visibility: inherit; font-family: &quot;Helvetica Neue&quot;, sans-serif; font-size: 12px; font-weight: 200;" fill="rgb(50, 49, 63)" stroke="none" stroke-width="1px">0</text><text x="72.7109375" y="0" dx="0em" dy="0.95em" style="text-anchor: middle; visibility: inherit; font-family: &quot;Helvetica Neue&quot;, sans-serif; font-size: 12px; font-weight: 200;" fill="rgb(50, 49, 63)" stroke="none" stroke-width="1px">500</text><text x="109.06640625" y="0" dx="0em" dy="0.95em" style="text-anchor: middle; visibility: inherit; font-family: &quot;Helvetica Neue&quot;, sans-serif; font-size: 12px; font-weight: 200;" fill="rgb(50, 49, 63)" stroke="none" stroke-width="1px">1k</text><text x="145.421875" y="0" dx="0em" dy="0.95em" style="text-anchor: middle; visibility: inherit; font-family: &quot;Helvetica Neue&quot;, sans-serif; font-size: 12px; font-weight: 200;" fill="rgb(50, 49, 63)" stroke="none" stroke-width="1px">1.5k</text><text x="181.77734375" y="0" dx="0em" dy="0.95em" style="text-anchor: middle; visibility: inherit; font-family: &quot;Helvetica Neue&quot;, sans-serif; font-size: 12px; font-weight: 200;" fill="rgb(50, 49, 63)" stroke="none" stroke-width="1px">2k</text><text x="218.1328125" y="0" dx="0em" dy="0.95em" style="text-anchor: middle; visibility: inherit; font-family: &quot;Helvetica Neue&quot;, sans-serif; font-size: 12px; font-weight: 200;" fill="rgb(50, 49, 63)" stroke="none" stroke-width="1px">2.5k</text><text x="254.48828125" y="0" dx="0em" dy="0.95em" style="text-anchor: middle; visibility: inherit; font-family: &quot;Helvetica Neue&quot;, sans-serif; font-size: 12px; font-weight: 200;" fill="rgb(50, 49, 63)" stroke="none" stroke-width="1px">3k</text><text x="290.84375" y="0" dx="0em" dy="0.95em" style="text-anchor: middle; visibility: hidden; font-family: &quot;Helvetica Neue&quot;, sans-serif; font-size: 12px; font-weight: 200;" fill="rgb(50, 49, 63)" stroke="none" stroke-width="1px">3.5k</text></g><line x1="0" y1="0" x2="290.84375" y2="0" fill="rgb(0, 0, 0)" stroke="rgb(204, 204, 204)" stroke-width="1px"></line></g></g></g></g></svg>