<svg viewBox="0 0 330 200" xmlns="http://www.w3.org/2000/svg"><g><g><g><g><g><line x1="58.59375" y1="177.828125" x2="53.59375" y2="177.828125" style="visibility: inherit;" fill="rgb(0, 0, 0)" stroke="rgb(204, 204, 204)" stroke-width="1px"></line><line x1="58.59375" y1="165.12611607142856" x2="53.59375" y2="165.12611607142856" style="visibility: inherit;" fill="rgb(0, 0, 0)" stroke="rgb(204, 204, 204)" stroke-width="1px"></line><line x1="58.59375" y1="152.42410714285714" x2="53.59375" y2="152.42410714285714" style="visibility: inherit;" fill="rgb(0, 0, 0)" stroke="rgb(204, 204, 204)" stroke-width="1px"></line><line x1="58.59375" y1="139.72209821428572" x2="53.59375" y2="139.72209821428572" style="visibility: inherit;" fill="rgb(0, 0, 0)" stroke="rgb(204, 204, 204)" stroke-width="1px"></line><line x1="58.59375" y1="127.02008928571428" x2="53.59375" y2="127.02008928571428" style="visibility: inherit;" fill="rgb(0, 0, 0)" stroke="rgb(204, 204, 204)" stroke-width="1px"></line><line x1="58.59375" y1="114.31808035714285" x2="53.59375" y2="114.31808035714285" style="visibility: inherit;" fill="rgb(0, 0, 0)" stroke="rgb(204, 204, 204)" stroke-width="1px"></line><line x1="58.59375" y1="101.61607142857142" x2="53.59375" y2="101.61607142857142" style="visibility: inherit;" fill="rgb(0, 0, 0)" stroke="rgb(204, 204, 204)" stroke-width="1px"></line><line x1="58.59375" y1="88.91406249999999" x2="53.59375" y2="88.91406249999999" style="visibility: inherit;" fill="rgb(0, 0, 0)" stroke="rgb(204, 204, 204)" stroke-width="1px"></line><line x1="58.59375" y1="76.21205357142856" x2="53.59375" y2="76.21205357142856" style="visibility: inherit;" fill="rgb(0, 0, 0)" stroke="rgb(204, 204, 204)" stroke-width="1px"></line><line x1="58.59375" y1="63.51004464285711" x2="53.59375" y2="63.51004464285711" style="visibility: inherit;" fill="rgb(0, 0, 0)" stroke="rgb(204, 204, 204)" stroke-width="1px"></line><line x1="58.59375" y1="50.808035714285694" x2="53.59375" y2="50.808035714285694" style="visibility: inherit;" fill="rgb(0, 0, 0)" stroke="rgb(204, 204, 204)" stroke-width="1px"></line><line x1="58.59375" y1="38.10602678571428" x2="53.59375" y2="38.10602678571428" style="visibility: inherit;" fill="rgb(0, 0, 0)" stroke="rgb(204, 204, 204)" stroke-width="1px"></line><line x1="58.59375" y1="25.404017857142833" x2="53.59375" y2="25.404017857142833" style="visibility: inherit;" fill="rgb(0, 0, 0)" stroke="rgb(204, 204, 204)" stroke-width="1px"></line><line x1="58.59375" y1="12.702008928571416" x2="53.59375" y2="12.702008928571416" style="visibility: inherit;" fill="rgb(0, 0, 0)" stroke="rgb(204, 204, 204)" stroke-width="1px"></line><line x1="58.59375" y1="0" x2="53.59375" y2="0" style="visibility: inherit;" fill="rgb(0, 0, 0)" stroke="rgb(204, 204, 204)" stroke-width="1px"></line></g><g transform="translate(48.59375, 0)"><text x="0" y="177.828125" dx="0em" dy="0.3em" style="text-anchor: end; visibility: hidden; font-family: &quot;Helvetica Neue&quot;, sans-serif; font-size: 12px; font-weight: 200;" fill="rgb(50, 49, 63)" stroke="none" stroke-width="1px">-0.04</text><text x="0" y="165.12611607142856" dx="0em" dy="0.3em" style="text-anchor: end; visibility: inherit; font-family: &quot;Helvetica Neue&quot;, sans-serif; font-size: 12px; font-weight: 200;" fill="rgb(50, 49, 63)" stroke="none" stroke-width="1px">-0.02</text><text x="0" y="152.42410714285714" dx="0em" dy="0.3em" style="text-anchor: end; visibility: hidden; font-family: &quot;Helvetica Neue&quot;, sans-serif; font-size: 12px; font-weight: 200;" fill="rgb(50, 49, 63)" stroke="none" stroke-width="1px">0</text><text x="0" y="139.72209821428572" dx="0em" dy="0.3em" style="text-anchor: end; visibility: inherit; font-family: &quot;Helvetica Neue&quot;, sans-serif; font-size: 12px; font-weight: 200;" fill="rgb(50, 49, 63)" stroke="none" stroke-width="1px">0.02</text><text x="0" y="127.02008928571428" dx="0em" dy="0.3em" style="text-anchor: end; visibility: hidden; font-family: &quot;Helvetica Neue&quot;, sans-serif; font-size: 12px; font-weight: 200;" fill="rgb(50, 49, 63)" stroke="none" stroke-width="1px">0.04</text><text x="0" y="114.31808035714285" dx="0em" dy="0.3em" style="text-anchor: end; visibility: inherit; font-family: &quot;Helvetica Neue&quot;, sans-serif; font-size: 12px; font-weight: 200;" fill="rgb(50, 49, 63)" stroke="none" stroke-width="1px">0.06</text><text x="0" y="101.61607142857142" dx="0em" dy="0.3em" style="text-anchor: end; visibility: hidden; font-family: &quot;Helvetica Neue&quot;, sans-serif; font-size: 12px; font-weight: 200;" fill="rgb(50, 49, 63)" stroke="none" stroke-width="1px">0.08</text><text x="0" y="88.91406249999999" dx="0em" dy="0.3em" style="text-anchor: end; visibility: inherit; font-family: &quot;Helvetica Neue&quot;, sans-serif; font-size: 12px; font-weight: 200;" fill="rgb(50, 49, 63)" stroke="none" stroke-width="1px">0.1</text><text x="0" y="76.21205357142856" dx="0em" dy="0.3em" style="text-anchor: end; visibility: hidden; font-family: &quot;Helvetica Neue&quot;, sans-serif; font-size: 12px; font-weight: 200;" fill="rgb(50, 49, 63)" stroke="none" stroke-width="1px">0.12</text><text x="0" y="63.51004464285711" dx="0em" dy="0.3em" style="text-anchor: end; visibility: inherit; font-family: &quot;Helvetica Neue&quot;, sans-serif; font-size: 12px; font-weight: 200;" fill="rgb(50, 49, 63)" stroke="none" stroke-width="1px">0.14</text><text x="0" y="50.808035714285694" dx="0em" dy="0.3em" style="text-anchor: end; visibility: hidden; font-family: &quot;Helvetica Neue&quot;, sans-serif; font-size: 12px; font-weight: 200;" fill="rgb(50, 49, 63)" stroke="none" stroke-width="1px">0.16</text><text x="0" y="38.10602678571428" dx="0em" dy="0.3em" style="text-anchor: end; visibility: inherit; font-family: &quot;Helvetica Neue&quot;, sans-serif; font-size: 12px; font-weight: 200;" fill="rgb(50, 49, 63)" stroke="none" stroke-width="1px">0.18</text><text x="0" y="25.404017857142833" dx="0em" dy="0.3em" style="text-anchor: end; visibility: hidden; font-family: &quot;Helvetica Neue&quot;, sans-serif; font-size: 12px; font-weight: 200;" fill="rgb(50, 49, 63)" stroke="none" stroke-width="1px">0.2</text><text x="0" y="12.702008928571416" dx="0em" dy="0.3em" style="text-anchor: end; visibility: inherit; font-family: &quot;Helvetica Neue&quot;, sans-serif; font-size: 12px; font-weight: 200;" fill="rgb(50, 49, 63)" stroke="none" stroke-width="1px">0.22</text><text x="0" y="0" dx="0em" dy="0.3em" style="text-anchor: end; visibility: hidden; font-family: &quot;Helvetica Neue&quot;, sans-serif; font-size: 12px; font-weight: 200;" fill="rgb(50, 49, 63)" stroke="none" stroke-width="1px">0.24</text></g><line x1="58.59375" y1="0" x2="58.59375" y2="177.828125" fill="rgb(0, 0, 0)" stroke="rgb(204, 204, 204)" stroke-width="1px"></line></g></g><g transform="translate(58, 0)" clip-path="url(#clip_0)"><clipPath id="clip_0"><rect width="271" height="177"></rect></clipPath><g><g><g><line x1="0" y1="0" x2="0" y2="177.828125" fill="rgb(0, 0, 0)" stroke="rgb(60, 60, 60)" stroke-width="1px" opacity="0.25"></line><line x1="33.92578125" y1="0" x2="33.92578125" y2="177.828125" fill="rgb(0, 0, 0)" stroke="rgb(60, 60, 60)" stroke-width="1px" opacity="0.25"></line><line x1="67.8515625" y1="0" x2="67.8515625" y2="177.828125" fill="rgb(0, 0, 0)" stroke="rgb(60, 60, 60)" stroke-width="1px" opacity="0.25"></line><line x1="101.77734375" y1="0" x2="101.77734375" y2="177.828125" fill="rgb(0, 0, 0)" stroke="rgb(60, 60, 60)" stroke-width="1px" opacity="0.25"></line><line x1="135.703125" y1="0" x2="135.703125" y2="177.828125" fill="rgb(0, 0, 0)" stroke="rgb(60, 60, 60)" stroke-width="1px" opacity="0.25"></line><line x1="169.62890625" y1="0" x2="169.62890625" y2="177.828125" fill="rgb(0, 0, 0)" stroke="rgb(60, 60, 60)" stroke-width="1px" opacity="0.25"></line><line x1="203.5546875" y1="0" x2="203.5546875" y2="177.828125" fill="rgb(0, 0, 0)" stroke="rgb(60, 60, 60)" stroke-width="1px" opacity="0.25"></line><line x1="237.48046875" y1="0" x2="237.48046875" y2="177.828125" fill="rgb(0, 0, 0)" stroke="rgb(60, 60, 60)" stroke-width="1px" opacity="0.25"></line><line x1="271.40625" y1="0" x2="271.40625" y2="177.828125" fill="rgb(0, 0, 0)" stroke="rgb(60, 60, 60)" stroke-width="1px" opacity="0.25"></line></g><g><line x1="0" y1="177.828125" x2="271.40625" y2="177.828125" fill="rgb(0, 0, 0)" stroke="rgb(60, 60, 60)" stroke-width="1px" opacity="0.25"></line><line x1="0" y1="165.12611607142856" x2="271.40625" y2="165.12611607142856" fill="rgb(0, 0, 0)" stroke="rgb(60, 60, 60)" stroke-width="1px" opacity="0.25"></line><line x1="0" y1="152.42410714285714" x2="271.40625" y2="152.42410714285714" fill="rgb(0, 0, 0)" stroke="rgb(60, 60, 60)" stroke-width="1px" opacity="0.25"></line><line x1="0" y1="139.72209821428572" x2="271.40625" y2="139.72209821428572" fill="rgb(0, 0, 0)" stroke="rgb(60, 60, 60)" stroke-width="1px" opacity="0.25"></line><line x1="0" y1="127.02008928571428" x2="271.40625" y2="127.02008928571428" fill="rgb(0, 0, 0)" stroke="rgb(60, 60, 60)" stroke-width="1px" opacity="0.25"></line><line x1="0" y1="114.31808035714285" x2="271.40625" y2="114.31808035714285" fill="rgb(0, 0, 0)" stroke="rgb(60, 60, 60)" stroke-width="1px" opacity="0.25"></line><line x1="0" y1="101.61607142857142" x2="271.40625" y2="101.61607142857142" fill="rgb(0, 0, 0)" stroke="rgb(60, 60, 60)" stroke-width="1px" opacity="0.25"></line><line x1="0" y1="88.91406249999999" x2="271.40625" y2="88.91406249999999" fill="rgb(0, 0, 0)" stroke="rgb(60, 60, 60)" stroke-width="1px" opacity="0.25"></line><line x1="0" y1="76.21205357142856" x2="271.40625" y2="76.21205357142856" fill="rgb(0, 0, 0)" stroke="rgb(60, 60, 60)" stroke-width="1px" opacity="0.25"></line><line x1="0" y1="63.51004464285711" x2="271.40625" y2="63.51004464285711" fill="rgb(0, 0, 0)" stroke="rgb(60, 60, 60)" stroke-width="1px" opacity="0.25"></line><line x1="0" y1="50.808035714285694" x2="271.40625" y2="50.808035714285694" fill="rgb(0, 0, 0)" stroke="rgb(60, 60, 60)" stroke-width="1px" opacity="0.25"></line><line x1="0" y1="38.10602678571428" x2="271.40625" y2="38.10602678571428" fill="rgb(0, 0, 0)" stroke="rgb(60, 60, 60)" stroke-width="1px" opacity="0.25"></line><line x1="0" y1="25.404017857142833" x2="271.40625" y2="25.404017857142833" fill="rgb(0, 0, 0)" stroke="rgb(60, 60, 60)" stroke-width="1px" opacity="0.25"></line><line x1="0" y1="12.702008928571416" x2="271.40625" y2="12.702008928571416" fill="rgb(0, 0, 0)" stroke="rgb(60, 60, 60)" stroke-width="1px" opacity="0.25"></line><line x1="0" y1="0" x2="271.40625" y2="0" fill="rgb(0, 0, 0)" stroke="rgb(60, 60, 60)" stroke-width="1px" opacity="0.25"></line></g></g></g><g><g><line x1="0" y1="152.42410714285714" x2="271.40625" y2="152.42410714285714" fill="rgb(0, 0, 0)" stroke="rgb(153, 153, 153)" stroke-width="1.5px"></line></g></g><g><g><line x1="33.92578125" y1="0" x2="33.92578125" y2="177.828125" fill="rgb(0, 0, 0)" stroke="rgb(153, 153, 153)" stroke-width="1.5px"></line></g></g><g><g><g><g><g><path stroke="rgb(255, 112, 67)" stroke-width="2px" d="M40.168124999999996,-10.217350591403402L40.2359765625,6.8354010538940315L40.3716796875,4.580516447207941L40.6430859375,2.1485836999566175L40.914492187499995,3.7917177395986528L41.118046875,22.145742926672796L41.4573046875,15.254029551072108L41.660859375,21.120444920522004L41.864414062499996,23.539584526694625L42.339375,42.70821402280595L42.5429296875,56.64062169105074L42.746484375,55.277340765201686L42.950039062500004,57.39535199946822L43.0857421875,53.982802658554604L43.15359375,62.477583426964756L43.832109375,34.90267549072939L43.9678125,29.613960603472833L44.1713671875,42.921805774266346L44.374921875,45.873615761697636L44.4427734375,46.77219846137751L44.7141796875,54.1133880599632L45.121289062500004,62.37161889672757L45.3926953125,61.74780537176201L45.6641015625,54.03140090099096L46.206914062500005,60.74415776635237L46.342617187500004,60.56272906602152L46.681875,58.86467997083679L48.174609374999996,63.540614669522014L48.2424609375,68.20383078787009L48.785273437499995,71.57030375024219L48.853125,69.90884794934037L48.9209765625,73.29581081681893L48.988828125,63.24570353135775L49.531640625,42.66331197613857L49.5994921875,38.67515806817542L49.66734375,31.202420941800597L50.0066015625,31.387015366462748L50.5494140625,44.81532795877803L50.617265625,45.62608571323827L51.29578125,51.16874095416959L51.3636328125,46.596598127568996L51.431484375000004,48.23036517499571L51.702890625,47.013055487426925L51.906445312500004,44.226677221393544L51.974296875,38.839168685071286L52.11,54.93118467433632L52.3135546875,64.30449991221559L52.4492578125,62.28848841898552L52.788515625,70.85629300993445L52.992070312500005,64.17165763856244L53.195625,59.05684097803341L53.331328125,48.76153824004908L53.5348828125,59.04847353231128L53.602734375000004,66.53004642514757L53.7384375,59.95081997644675L53.8062890625,58.573074042927914L53.8062890625,63.55612958222494L54.00984375,59.65773859589413L54.3491015625,59.27231399631344L54.959765625,62.95484705248444L55.027617187500006,71.71171884933987L55.434726562499996,42.70408463806106L55.63828125,47.82777556521455L55.706132812499995,58.21025280688694L55.773984375,73.48238632119464L55.841835937499994,73.02632958675429L55.9096875,73.90009570631041L56.316796874999994,80.01467587117197L56.4525,78.08540567562252L56.588203125,80.81987992769588L56.656054687499996,83.94501363732927L56.791757812499995,59.38165920343958L56.9274609375,59.96950528510446L56.9274609375,63.883090533457704L57.0631640625,67.34892382478586L57.266718749999995,42.151216491533035L58.1487890625,24.549762516021417L58.2844921875,25.908175565544838L58.4201953125,51.55916584803238L58.4201953125,51.22905914579334L58.6916015625,62.20357679472353L58.9630078125,55.770648537515L59.0987109375,57.060185031300676L59.2344140625,45.7744219498978L59.43796875,19.984121602284233L59.573671875,35.94739865279527L59.845078125,53.4424617615371L59.98078125,60.03381466002189L60.0486328125,71.63364281415743L60.0486328125,83.5751376787745L60.116484375,89.21633744098585L60.1843359375,86.84581420330879L60.387890625000004,83.32667179445454L60.52359375,88.50246415047017L60.5914453125,60.95857854987972L60.795,61.8377122944087L60.795,58.63250652694536L60.862851562500005,55.554156398124434L60.998554687500004,46.612139420258416L61.1342578125,52.41374181148893L61.2699609375,72.96069285151141L61.3378125,77.5194178841848L61.3378125,76.7585659210115L62.15203125,51.8500162361635L62.287734375,24.66122961049109L63.37335937500001,36.64890627502018L63.5769140625,57.120609488511164L63.644765625,68.07137803043902L63.84832031249999,61.530804609681326L64.11972656249999,67.72792420553637L64.32328125,77.93525132398291L64.458984375,77.92049109048337L64.6625390625,81.10361430073952L64.730390625,79.17411185966375L64.9339453125,68.76274466765467L65.001796875,59.705486799884824L65.4767578125,65.05292209796983L65.544609375,75.33606964747779L65.8838671875,77.38284959710603L65.95171875,81.82890325861848L66.29097656249999,86.54548310533431L66.4266796875,88.88514901771181L66.5623828125,90.41232158870525L66.8337890625,81.13343520865243L66.901640625,77.28060645189164L67.1051953125,73.32040242286892L67.1051953125,80.56533924809129L67.30875,80.59708274587351L67.715859375,63.82869289679178L67.9194140625,72.01113017814174L67.987265625,75.37562091607644L68.32652343749999,75.11597625753629L68.394375,83.03118747795962L68.66578125,83.92098450595185L69.072890625,66.14440343630702L69.344296875,81.54824294051916L69.75140625,80.74321053140294L69.95496093749999,87.0587010890697L70.0906640625,84.7196483962216L70.158515625,84.94842321981943L70.29421875,88.28585927259391L70.429921875,87.04300773385933L70.4977734375,67.78514263698044L70.6334765625,64.29961212843554L70.701328125,60.1113006880868L70.972734375,73.11541949059851L71.17628906249999,80.4288844878138L71.3119921875,81.39721287557698L71.37984375,67.57415672509542L71.7191015625,69.25708240282808L71.85480468749999,59.58831984300295L72.32976562500001,76.0068803818963L73.07613281249999,86.90964009059859L73.143984375,82.90023173507755L73.27968750000001,83.32032145417139L73.27968750000001,78.36404138579526L73.34753906249999,79.72324401459525L73.95820312500001,87.16501481369403L74.3653125,75.1571761200843L74.3653125,80.56499957647813L74.5688671875,77.47641513859703L74.63671875,88.74861575876938L74.8402734375,89.7552545482817L75.72234375000001,92.05554213253467L75.7901953125,92.74250751480004L76.12945312500001,68.80034615009696L76.4687109375,71.85477817623384L76.6044140625,80.58302448697545L76.672265625,83.8055842878953L77.35078125,85.48284035555429L77.5543359375,89.02047031945008L77.8257421875,94.36836081248383L78.029296875,59.81996061619414L78.36855468750001,66.90795812851482L78.572109375,44.98406425646823L78.6399609375,58.7977550473767L78.9113671875,63.76811682944279L79.0470703125,53.01915978292563L79.114921875,62.84222212632281L79.250625,70.07529147607279L79.250625,72.5220493516845L79.8612890625,83.32174718812401L80.4041015625,91.73001938415042L80.8790625,62.441957816161036L81.014765625,27.51853028644331L81.014765625,52.72203129022684L81.0826171875,14.44037485390416L81.15046875,-16.367043864530928L81.8968359375,-6.823287487691999L82.0325390625,17.252215578289253L82.1682421875,16.106882322487678L82.3039453125,45.97404074180409L82.371796875,28.543268636596935L82.5075,49.732187182946205L82.643203125,47.03165927039319L82.77890624999999,30.281746484672055L83.593125,31.595033085732155L83.66097656250001,32.423638535213854L84.000234375,46.29833131832632L84.271640625,40.49222474293293L84.33949218750001,40.04325099412324L84.40734375,43.71724955011729L84.4751953125,40.69451412966549L84.814453125,63.60809973801611L85.085859375,71.81394959685655L85.5608203125,84.55098528431539L85.628671875,90.08779462368992L85.69652343749999,94.01855542963618L86.5107421875,92.38312115889083L86.57859375,94.5032928314238L86.64644531249999,87.20195113989794L87.12140625,44.01967153728995L87.12140625,37.483453338219164L87.4606640625,29.71701229099355L87.66421875,20.22142179560177L87.79992187500001,40.54732624915931L88.07132812500001,57.493746733665546L88.342734375,73.29130947167857L88.342734375,82.21841046890886L88.5462890625,90.59413222271695L88.81769531249999,91.61124989713309L89.08910156249999,92.51407480758263L89.156953125,95.50941128061925L89.29265625000001,91.89083421255552L89.428359375,89.381081242911L89.5640625,89.37821239642703L89.699765625,89.50915371352215L89.83546875,70.76160684324073L89.97117187500001,63.67204917524741L90.24257812500001,67.40679639940296L90.513984375,66.93019783285905L90.6496875,74.91289247395295L90.7175390625,77.14611239944345L90.9889453125,75.86153889381023L91.26035156249999,61.14244311844453L91.3960546875,69.11361089424929L91.46390625000001,76.2344179275357L91.46390625000001,61.15369456556492L91.5317578125,57.16055640365501L91.6674609375,54.54643601205795L91.87101562500001,66.01668403780658L92.21027343749999,73.86423215699539L92.54953125,82.87083891060989L92.68523437500001,88.44593188149473L92.7530859375,89.40240930937854L92.82093750000001,96.11931158145306L93.0244921875,90.08865940312637L93.09234375000001,86.9855684193192L93.1601953125,85.73268240711434L93.1601953125,88.96924848723573L93.36375,85.66074629685359L93.8387109375,88.6722694718061L94.1101171875,90.85340970808927L94.313671875,96.51490807740139L94.585078125,86.66449099615873L94.585078125,91.70637987318416L94.9243359375,81.18671218528976L95.12789062499999,73.5247130537357L95.535,87.78492748233863L95.8742578125,89.77863223337766L96.0099609375,80.96140860426463L96.34921874999999,89.36337530825554L96.484921875,80.16876355478648L96.62062499999999,87.11083970403736L96.756328125,92.25989733844406L97.2312890625,93.09956761660871L97.29914062499999,77.9807321247949L97.50269531250001,89.31525927459252L97.57054687499999,94.69405140470877L97.57054687499999,82.79273947864709L98.72402343750001,86.9845657373631L98.927578125,100.09499323608534L99.198984375,97.84532426421984L99.40253906250001,96.89892969021791L99.5382421875,90.40298906875158L99.60609375,93.42802128812833L99.67394531250001,89.79745279811696L99.8775,77.4047520416146L99.94535156250001,78.1730080013842L100.013203125,76.88169063582298L100.14890625,86.57578511556764L100.62386718750001,93.15417460892762L100.69171874999999,96.53434955823349L101.098828125,90.56965724010381L101.16667968750001,92.1584116606819L101.16667968750001,98.70206240877648L101.641640625,97.8824968181708L101.77734375,98.31156365234284L101.913046875,92.22369304956024L102.04875,86.19547689204687L102.184453125,88.26502490763264L102.32015625,94.2976347335086L102.5915625,85.90824820610185L102.65941406249999,97.46625798843881L102.7951171875,98.31949133631315L102.86296875000001,99.32262753740636L102.998671875,102.82642137194675L103.134375,101.65476617027315L103.81289062500001,106.53387145018776L104.22,105.74335146129474L104.22,107.47274188369771L104.355703125,106.95301269279895L104.355703125,108.08559463404073L104.4235546875,107.64620865807122L104.49140625,102.68409427773584L104.627109375,101.36732486838594L104.76281250000001,94.22262317038825L104.9663671875,80.27764128568407L105.03421875000001,90.25419665580803L105.5091796875,94.92268723562366L105.6448828125,100.53046581912284L105.9162890625,104.07573697854598L105.9162890625,109.85480893211711L106.526953125,106.85079739605479L106.66265625,56.25581896150166L106.66265625,17.19222678832361L106.798359375,19.719427324329672L106.8662109375,19.845892295632098L107.069765625,-6.5543650052693465L107.341171875,11.05000660682063L107.476875,7.74164960681361L107.5447265625,34.292477713255664L107.612578125,47.45176230976409L107.74828125,69.75121968908799L108.0875390625,84.94281118881108L108.15539062500001,76.77608473338968L108.22324218749999,77.29079626500277L108.29109375,67.88698149344553L108.42679687500001,47.25211253500558L108.4946484375,62.30706743435651L108.7660546875,43.635216132157495L108.9017578125,40.43677394663962L109.37671875000001,21.63901768488944L109.512421875,13.288219922458211L109.5802734375,15.7337896224995L109.78382812500001,4.029695559920839L109.78382812500001,-12.674796851986343L109.8516796875,22.362270171060715L109.9873828125,25.4921229099686L110.05523437500001,17.632821223502162L110.1230859375,41.05059936940194L110.1230859375,47.000368519795046L110.3944921875,49.37428657198208L110.46234374999999,67.03666194457092L110.6658984375,59.430316341985915L111.2765625,78.23034866236043L111.6158203125,89.33290789773837L111.819375,97.9304811696568L112.0229296875,104.6221585786643L112.1586328125,103.1895888718914L112.226484375,100.25617192233008L112.5657421875,105.37199872858746L112.63359374999999,110.63861520099566L112.7014453125,111.66918055258226L113.1085546875,112.7019215389598L113.4478125,111.64731610624915L113.7870703125,112.26656796299784L114.3298828125,104.5286803198511L114.940546875,104.45963605228403L115.0083984375,97.87110737117187L115.07625,98.88956604020032L115.34765625,100.44016669625513L115.41550781250001,104.4887025632848L115.5512109375,97.14650534864629L115.89046875,88.0890519166207L116.161875,93.25116081380266L116.161875,101.33000235765908L116.568984375,105.29827874973896L116.840390625,101.37990302384718L117.0439453125,95.0579553167241L117.0439453125,97.17530505876154L117.111796875,97.92256725245745L117.1796484375,106.8084728807841L117.383203125,109.03525373476079L118.197421875,92.40282363688739L118.26527343750001,89.84118044979223L118.60453125,94.0079946665741L118.6723828125,101.32535478215293L118.8080859375,102.45746397414526L118.8080859375,104.97422135657294L119.283046875,103.38823977224831L119.4866015625,102.9262287154865L119.69015625,104.31625190799153L119.7580078125,84.48938974389901L119.82585937500001,99.28670174291176L119.89371093749999,75.60072240015062L120.3008203125,69.8948778283453L120.4365234375,75.01124791536101L120.504375,71.9786876410718L120.640078125,78.45850561102492L120.911484375,84.34099381771654L120.9793359375,78.21883503215817L121.31859375,91.74768600173232L121.3864453125,100.48452858158828L121.79355468749999,94.7418186225388L121.79355468749999,99.40604875498003L121.86140625,103.89559334662633L121.99710937500001,101.85810035776998L122.1328125,104.49036139238804L122.3363671875,106.10604739572375L122.8791796875,109.7606146915493L123.082734375,113.25660494923385L123.1505859375,113.45649896009941L123.4219921875,102.66931522408754L123.625546875,111.3722862507921L123.8291015625,84.89387752816846L123.96480468749999,73.76603819299736L124.6433203125,62.25193175115105L124.7790234375,75.92706311276164L124.84687500000001,89.65094498406181L124.982578125,81.39763979248471L125.18613281249999,67.98080833159462L125.5932421875,59.46975746421347L125.8646484375,74.98696953899642L126.33960937500001,84.91108808085652L126.74671875000001,73.00962414216072L126.882421875,76.22514094870324L127.0859765625,88.24462757591617L127.3573828125,80.85879357411561L127.3573828125,89.53884254608617L127.42523437499999,93.33247711637725L127.42523437499999,83.1773598017682L127.7644921875,88.41480566387334L128.510859375,88.80708743826195L128.5787109375,79.92354488575896L128.5787109375,95.60275864175173L128.8501171875,92.83725508924977L129.18937499999998,77.77967515362614L129.2572265625,88.5677851982873L129.6643359375,95.29677015449674L129.73218749999998,97.08985550758722L129.8000390625,90.89946301358289L129.867890625,97.60144105760715L129.9357421875,110.4349798152242L130.00359375,81.20047401347442L130.6142578125,97.81502106520999L130.8856640625,100.31719430112405L131.29277343750002,105.72829993377782L131.360625,91.98864699295022L131.63203124999998,99.52139213153166L131.63203124999998,95.30915079014193L131.8355859375,94.21678063443088L131.9712890625,103.56758892346919L132.17484375,71.86736929561219L132.24269531250002,71.04585060993733L132.310546875,65.15206582789595L132.853359375,81.30730832267486L132.9212109375,82.83651625663187L132.9890625,72.65562663108197L132.9890625,79.0760585414682L133.396171875,86.36539450270477L134.0068359375,63.02717624537087L134.5496484375,53.23501265476732L134.8210546875,47.73722664020559L134.8210546875,20.462184621938377L134.9567578125,39.3100976899581L135.4995703125,65.68428123707507L135.63527343750002,81.67300986540226L135.77097656249998,86.36605043297865L135.838828125,96.42885410219517L135.9066796875,89.83026512224198L135.97453125,99.7074525418812L136.0423828125,91.78807780223026L136.17808593750001,91.01437650053451L136.2459375,83.93606928879765L136.5851953125,86.8812389858845L136.7208984375,88.61733950388495L136.9923046875,87.60102754801385L137.06015625,84.03025941768266L137.1280078125,84.82867284676726L137.3994140625,91.00748001878497L137.87437500000001,100.75907433677368L137.9422265625,104.73533428236303L138.01007812499998,107.45497646794065L138.07792968750002,113.09234970898066L138.6207421875,77.05470208473241L139.0278515625,88.530774089933L139.8420703125,65.71544925236776L140.31703125,74.15415874603345L140.3848828125,76.77664387782721L140.5884375,53.468755223841754L140.5884375,71.54815262241301L140.6562890625,46.16377517887054L140.7919921875,34.86161288754781L140.9276953125,40.90878567061273L141.0633984375,38.46092534297716L141.13125,39.293683292142475L141.67406250000002,54.89635047066959L142.081171875,71.74308497575034L142.2847265625,73.87073345377861L142.35257812499998,80.43321931258215L142.5561328125,90.3775567583557L142.6918359375,92.01530528033918L143.5060546875,88.74659896681064L143.57390625,90.70206079000249L143.8453125,95.99905971396552L143.9131640625,101.4480782865074L143.981015625,98.69294063848402L144.0488671875,88.37978043968337L144.0488671875,95.77150809060457L144.7273828125,102.5418024649888L144.9309375,105.62353244861853L145.20234375,112.95021382066713L145.2701953125,101.03546552036373L145.338046875,104.43988387822874L145.609453125,108.11779527925707L146.01656250000002,113.0712972591277L146.0844140625,110.62995325199998L146.28796875,114.26912793683634L146.55937500000002,109.57405955389136L146.7629296875,108.12942085594946L146.83078125,102.11409371681636L146.966484375,107.42741574713237L147.1700390625,92.7303937392862L147.37359375,91.50574073443045L147.780703125,96.19994493448382L147.91640625000002,105.46356061833235L148.39136718749998,108.46622654597722L148.45921875000002,108.5462138742174L148.5270703125,110.19249090186513L148.59492187499998,107.04637691619442L148.7984765625,105.79549858845658L149.3412890625,113.96493280464875L149.54484375,111.04521077013761L150.15550781250002,114.4108993493322L150.29121093749998,101.09314269982222L150.35906250000002,100.9700618678674L150.5626171875,102.11167670475272L150.766171875,88.71056821215495L150.90187500000002,78.0392802979294L150.9697265625,64.3840316839427L151.17328125,84.55712902820932L151.2411328125,92.57864294306931L151.44468750000001,95.41680499596934L151.6482421875,101.3831996253123L151.851796875,99.56747577262026L151.9875,104.8224285038401L152.19105468749999,99.40694472815787L152.5303125,92.03764430922503L152.59816406250002,85.39748465207964L152.937421875,89.21612029480232L153.07312499999998,80.6947658822588L153.14097656250001,76.4731417209458L153.2766796875,85.81279834249152L153.8194921875,71.02659291223307L153.88734374999999,83.97501530923533L154.0908984375,93.61719157365526L154.2266015625,95.25386506129149L154.294453125,96.72455745669828L154.7694140625,88.18590695910844L155.17652343749998,100.3699160285085L155.380078125,90.42518588911818L155.7871875,84.68083262381109L155.7871875,80.099199068644L155.9907421875,75.12261680564185L156.05859375,74.75981013105388L156.5335546875,88.21524401868537L156.6692578125,85.28797904565117L156.73710937500002,91.38233641635564L156.8049609375,101.75645600965886L156.87281249999998,95.83528968434578L157.008515625,95.94655405160556L157.551328125,96.74021451923187L157.9584375,96.11645612425724L157.9584375,92.75802641086665L158.1619921875,98.01302049530341L158.4333984375,101.96486399281252L159.2476171875,107.12147922181973L159.451171875,110.78794938422037L159.5190234375,99.52235832611981L160.19753906250003,98.22070509257881L160.3332421875,79.71752904305248L160.4689453125,75.46686723577291L160.4689453125,82.56841902223009L160.536796875,81.15788565182892L160.74035156250002,89.33864306350752L160.808203125,73.63035271589791L160.8760546875,87.06482008778258L161.21531249999998,79.53840106659268L161.4188671875,92.1905223508571L161.62242187500001,97.80979330829648L161.893828125,88.14125013137708L162.02953125,95.72079380563211L162.165234375,91.02984862317155L162.57234375,92.78487014239255L162.6401953125,98.81725894128797L162.7758984375,95.35086892764818L163.1830078125,102.78857794547761L163.31871093750001,105.60428270304867L163.45441406249998,106.53993238364201L163.52226562500002,112.82003527327353L163.8615234375,116.34194433604833L163.929375,118.20382100804031L163.99722656249997,116.11429224836964L164.4721875,98.48000295600995L165.015,106.08633204702531L165.150703125,98.36622910387135L165.42210937500002,99.62897779838706L166.236328125,99.27659535544811L166.3041796875,100.78755414422986L166.3041796875,104.61586048339112L166.5755859375,110.62008894461628L166.91484375,109.2372737858877L167.18625,95.49094660017572L167.3898046875,99.50345191909386L167.5255078125,105.69290553899448L167.9326171875,95.18899037403698L168.136171875,99.391798774304L168.3397265625,100.26919597217162L168.950390625,104.25591428922843L169.08609375,106.49349335302412L169.4253515625,110.44633266994444L169.62890625,107.64859546840393L169.764609375,104.23085193846708L169.9003125,96.82535249617897L169.9681640625,90.91857719998788L170.307421875,106.00460514334286L170.3752734375,112.31384753262935L170.71453125,96.74736456553079L170.7823828125,99.0215926494584L170.85023437499999,98.36993772656533L171.0537890625,108.09108853577135L171.1894921875,106.41054321121523L171.1894921875,110.48541663819955L171.25734375,107.82462774193199L171.46089843750002,108.96554139301325L172.207265625,111.37648005136921L172.750078125,99.1671370472544L172.9536328125,104.63296981100699L172.9536328125,100.09358154534785L173.021484375,105.315876730404L173.29289062499998,100.28173614790732L175.26058593750003,97.77184107474997L175.73554687499998,100.26039857140591L175.80339843750002,87.36657328283935L176.14265625000002,95.79109182973146L176.2105078125,93.98981969737991L176.27835937499998,102.96588844043502L176.34621093750002,88.35058817851696L176.4140625,74.51883266180343L176.4819140625,54.77631154135793L176.549765625,26.878178343086574L177.2961328125,48.701804261387565L177.4996875,63.95666766375513L177.5675390625,80.56210030435282L177.70324218750002,89.97337623930143L177.8389453125,100.71204905738497L178.2460546875,97.3844507332621L178.51746093749998,105.16369439087383L178.6531640625,102.85484645016875L178.6531640625,109.75730063871418L178.992421875,95.41039755656958L179.1959765625,74.7030325100113L179.7387890625,73.16929322568292L179.94234375000002,81.94355315278413L180.07804687499998,79.9639442949034L180.349453125,94.04558465536212L180.41730468749998,105.3099095848527L180.7565625,103.2086124893334L180.892265625,109.99233568476184L181.0958203125,103.69405138884288L181.2315234375,107.00553376300323L181.435078125,105.80402680688388L181.77433593749998,97.56186157659326L181.977890625,92.10909808708679L182.11359375,96.65618406853487L182.4528515625,101.1907880538661L182.92781250000002,99.4175959795066L183.19921875,100.30180933230264L183.2670703125,105.70075473420333L183.334921875,87.86130846925298L183.4027734375,73.89832310612313L183.5384765625,82.8505634611528L183.5384765625,75.17179686306909L184.21699218749998,69.03569715453564L184.21699218749998,53.91315501116152L184.28484375000002,68.6404421883799L184.4883984375,85.70708526286083L184.62410156250002,76.8447471173007L185.506171875,92.32349871065821L185.7097265625,95.38703469768485L185.8454296875,92.491983231333L185.9811328125,86.17438768398462L186.2525390625,96.77407405787761L186.320390625,104.80317217820118L186.863203125,103.9805625460846L186.9310546875,107.49334368798503L187.54171874999997,110.40986447969092L187.6095703125,109.95986192537308L187.677421875,108.90754648945435L187.948828125,106.49163388057696L188.0166796875,111.91571092252256L188.2880859375,108.45934472958366L188.35593749999998,98.489513335019L188.35593749999998,106.39342319054404L188.8308984375,81.35914324069907L188.89874999999998,94.57170868472076L189.2380078125,78.0405469753647L189.305859375,83.0574470093341L189.71296875,85.48497495117866L189.7808203125,83.20058171714868L189.848671875,80.48816241029859L189.9165234375,89.69433371674631L190.32363281250002,96.4924059033703L190.934296875,91.32986741487726L191.40925781250002,101.9885443360624L191.6128125,104.84514294856571L191.88421875,98.0241918536384L192.155625,102.54232082749009L192.291328125,103.32721853773909L192.4948828125,109.43648718024019L192.56273437500002,102.92500042141249L192.56273437500002,108.23674502798363L192.90199218749999,107.33533940622108L193.648359375,102.2001559542317L193.7840625,96.18180754240616L193.9876171875,87.4804508615805L194.191171875,77.4359204646352L194.5304296875,85.67703631333721L194.66613281250002,94.20370458373627L194.8696875,86.21641612007046L195.00539062500002,88.35682261204762L195.0732421875,96.78881479809444L195.3446484375,104.99116984121332L195.4125,109.1961753545871L195.48035156249998,111.4099880585905L195.54820312500001,106.62298103565172L195.6160546875,109.27920638657574L195.68390625,111.94449087469982L195.68390625,110.54315721793321L195.9553125,112.89171018800897L196.02316406249997,113.52442113396697L196.091015625,95.30389783524846L196.091015625,103.24886308785769L196.1588671875,106.4038739955461L196.22671875,86.04455264589939L196.29457031249999,91.19454476538546L196.362421875,95.32051419169183L196.5659765625,85.76546200965946L196.76953125,94.4945987821036L196.83738281249998,85.4332189599937L196.90523437500002,91.01842933275725L197.58374999999998,72.92899081333852L197.6516015625,53.22748203564328L197.85515625,52.15686012411905L198.1265625,57.8784204165045L198.533671875,44.06889105815395L199.14433593750002,49.60727385703552L199.2121875,72.55671208781823L199.755,94.43742451103212L199.89070312500002,81.17213439541193L199.9585546875,74.0645525486676L199.9585546875,87.48337677636994L200.6370703125,97.84976945038653L201.4512890625,79.65972748338612L201.519140625,84.80452157504277L201.9941015625,98.50845282884339L202.2655078125,109.17703543308231L202.5369140625,114.90228699705668L202.5369140625,109.4269688479353L202.6726171875,115.07728997921406L202.74046875,113.80825921787807L202.74046875,119.53085952270786L203.2154296875,122.45714936082322L203.48683593750002,114.99044337939594L204.233203125,106.64626547462007L204.4367578125,89.90326153608417L204.5724609375,95.56633794802333L204.77601562499999,87.69192629159909L205.2509765625,46.4478876645735L205.31882812499998,42.54406697614468L205.31882812499998,69.5691440830664L205.590234375,78.17851088944504L206.2008984375,87.36155046337068L206.7437109375,87.61686107084982L206.947265625,84.44477328255628L207.1508203125,88.54996212564535L207.1508203125,87.40291449030724L207.354375,93.00125142917327L207.82933593750002,91.88040198352999L207.8971875,90.43795886980031L208.1007421875,98.61458370330007L208.16859375,105.20966669051572L208.9828125,96.45514236891732L209.118515625,106.53934583765721L209.5934765625,114.84617733990241L209.72917968750002,118.90563061577893L210.33984375,105.03979057964045L210.61125,109.05964349132853L210.746953125,106.90553349103634L211.3576171875,88.09983316723861L211.4933203125,65.96426198372926L211.4933203125,75.07958236254058L211.56117187499999,85.25349019987675L211.62902343750002,68.51015485060049L211.696875,61.90554591880128L211.832578125,83.45329798103333L211.832578125,76.39572381718816L212.2396875,92.29409827726694L212.44324218749998,98.76575826844267L212.5789453125,108.66285130672729L213.3253125,100.37033491841514L213.80027343749998,77.43520535052592L214.0716796875,89.62053705398402L214.34308593749998,84.34843341448189L214.68234375,100.74074183955057L214.7501953125,111.08292689178819L215.22515625,119.20474913119918L215.360859375,122.37584478184968L215.70011718749998,101.88134413002824L215.76796875000002,92.07085754581892L215.8358203125,96.10152930560994L216.44648437499998,98.63373754984954L216.5821875,106.17667248551648L216.717890625,111.06234493398853L216.989296875,115.79000015610094L217.1928515625,118.2259404268818L217.260703125,119.0041037423658L217.3285546875,114.20841886869033L217.5999609375,119.49945403033321L217.803515625,117.30285522119453L217.93921875,120.46407751229805L218.4141796875,116.19459188828452L218.48203125,117.79150093604761L218.54988281250002,110.62545743149995L218.68558593749998,105.32128812793762L219.02484375,106.08139900312219L219.2283984375,112.17646179146713L219.6355078125,112.98502716445525L219.974765625,114.46753418586712L220.1783203125,118.12186264553564L220.1783203125,115.56243111889525L220.3140234375,103.87298233157198L220.517578125,111.77509211312672L220.7211328125,114.53310189631702L220.92468749999998,107.64744891648354L220.99253906250001,97.02358346688347L221.060390625,99.7254432691847L221.46749999999997,67.18214961589237L221.603203125,54.21475316123751L221.874609375,65.31535635460024L222.0103125,58.443946925653606L222.146015625,80.97055732513499L222.34957031250002,34.832669505618696L222.48527343749998,42.59103815169195L222.7566796875,65.05778551554913L222.89238281250002,62.179850884292705L222.960234375,85.35685346255659L223.02808593749998,81.73010583496016L223.0959375,68.92330465082095L223.36734374999997,79.28245008800666L223.4351953125,78.80758647176674L223.4351953125,91.10771796891954L223.63875,104.59326626378191L224.045859375,104.82098360205356L224.24941406250002,113.27423756157727L224.5208203125,95.87444347456159L224.58867187500002,102.56509929437918L224.92792968749998,110.94295939294472L224.99578125,101.38951164058426L225.4707421875,104.38443866316318L225.8778515625,106.59727678015349L225.945703125,93.71669327134937L226.08140625,94.5680093199273L226.14925781250003,99.39503584421725L226.48851562500002,104.59336565296485L226.5563671875,110.89491133113876L226.82777343749999,114.34118785010169L227.302734375,93.94533096812376L227.70984375,97.0548610961513L227.98125,97.60865010221117L228.04910156250003,103.88165200423705L228.1848046875,106.47007061616698L228.659765625,108.8087972050147L229.06687499999998,100.61690076170036L229.2704296875,104.58561428461351L229.5418359375,88.83371266923707L229.88109375,93.17509541861656L229.94894531249997,95.32910873664669L230.1525,101.33640585170016L230.288203125,95.52776803814632L230.4917578125,80.54297866875811L230.559609375,91.2881244599791L230.8988671875,95.2904909237324L230.96671874999998,100.2487089234772L231.50953124999998,104.95817184150029L231.645234375,109.39404717153623L231.84878906249997,116.13575818350351L232.188046875,109.2661854590725L232.2558984375,104.2709088805872L232.66300781249998,100.83515563913673L232.7987109375,103.2000624924526L232.8665625,91.30024687994432L233.07011718750002,97.03400564427105L233.40937499999998,98.67435330934485L233.68078125,107.35250015062742L233.74863281249998,96.8541189485321L233.81648437500002,87.99016275816746L233.9521875,94.3564817590105L234.0200390625,92.20553326746438L234.2914453125,106.7141203465505L234.63070312500003,113.17395246106861L234.6985546875,115.77890725240454L234.96996093750002,105.93074421805854L235.0378125,113.75117319230623L235.17351562500002,116.88731066717853L235.17351562500002,116.95244831398527L235.85203125,105.01077283584671L235.987734375,109.25661197510003L236.0555859375,109.6980257821878L236.1234375,113.10451392223052L236.1912890625,112.21536279258912L236.53054687500003,111.6691944965684L237.1412109375,87.63600546407588L237.48046875,89.26410183931799L237.8197265625,79.27059149401774L237.95542968750001,71.63252741588693L238.0911328125,72.01393613099661L238.158984375,60.88688715975816L238.2946875,69.06434811047995L238.4982421875,82.69953139803827L238.4982421875,78.08766589392968L238.56609375,65.82361368563194L238.6339453125,77.92957556935474L238.7696484375,73.8501727108732L239.24460937499998,69.61416537240274L239.3803125,64.74293032180061L239.516015625,81.6696978039384L240.058828125,90.75740681141274L240.1266796875,97.10764279208873L240.2623828125,104.47176575679062L240.3980859375,109.99705636477734L240.6694921875,111.35916963393089L240.9408984375,112.19592153124272L241.00875,112.12109372122654L241.3480078125,89.05181771091583L241.55156250000002,87.20501081921878L241.6194140625,88.32120704342402L241.82296875,95.34370236745883L241.89082031249998,106.32579280869544L241.958671875,99.7026483640407L242.23007812499998,95.46466673271328L242.36578125,104.99439050798968L242.4336328125,113.45856823997467L242.501484375,111.12468272719121L242.5693359375,110.93173083388851L242.772890625,108.3095256766886L243.044296875,111.7492636849814L243.315703125,110.78911788408102L243.45140625000002,104.6075527938359L243.58710937499998,110.21761140922146L243.7228125,102.78955749083507L244.265625,110.5708910960266L244.6048828125,117.74018584082202L244.6048828125,122.64381327613222L244.672734375,126.07031052684404L244.8762890625,125.35572815656231L244.944140625,121.92056806828381L245.07984375,121.88973352209226L245.35125,124.55566356616735L245.48695312499999,123.35800487662277L245.62265625,120.85988411356209L245.758359375,114.80337856235037L245.9619140625,107.8830307799634L246.36902343749998,93.62653324691438L246.6404296875,83.50135202259112L247.0475390625,92.70969503737493L247.25109375,85.61965114216743L247.92960937499998,101.70570301071143L248.0653125,97.90308780409114L248.201015625,84.34563845910762L248.201015625,77.16413280921488L248.47242187499998,95.7567429761625L249.015234375,108.28973002636346L249.42234375,116.71003535993201L249.7616015625,107.82254891777505L250.03300781250002,116.5239864330525L250.23656250000002,119.29630079715892L250.9829296875,117.04679970807197" style="fill: none;" fill="none"></path></g></g></g></g><g opacity="0.20000000298023224"><g><g><g><path stroke="rgb(255, 112, 67)" stroke-width="2px" d="M36.4362890625,-62.93679068317374L37.114804687500005,20.09259928696389L37.3862109375,-21.78521917653933L38.2004296875,-37.51273393684201L38.607539062499995,8.68870502716993L39.0146484375,-47.688670838783906L40.1002734375,-77.82475866164481L40.168124999999996,60.11005582334472L40.2359765625,32.414191845006144L40.3716796875,1.1982162484366938L40.6430859375,-1.4992981357832775L40.914492187499995,6.256411791845608L41.118046875,49.67673374436396L41.4573046875,4.916470068074489L41.660859375,29.920062570899177L41.864414062499996,27.168292598931885L42.339375,71.46115191044683L42.5429296875,77.53923042133515L42.746484375,53.23241953917643L42.950039062500004,60.572368699159185L43.0857421875,48.86397879384455L43.15359375,75.21975436053303L43.832109375,-6.459685986994657L43.9678125,21.680888321683057L44.1713671875,62.883573456334744L44.374921875,50.301330732979935L44.4427734375,48.12007250909559L44.7141796875,65.12517244900974L45.121289062500004,74.75896514591294L45.3926953125,60.812085084583856L45.6641015625,42.45679419683955L46.206914062500005,70.81329306334787L46.342617187500004,60.29058601554216L46.681875,56.31760632815504L48.174609374999996,70.5545167173924L48.2424609375,75.19865496529796L48.785273437499995,76.62001319375952L48.853125,67.41666424799976L48.9209765625,78.37625511802199L48.988828125,48.1705426031923L49.531640625,11.789724643342197L49.5994921875,32.69292720623446L49.66734375,19.99331525224258L50.0066015625,31.663907003455904L50.5494140625,64.95779684724816L50.617265625,46.84222234492853L51.29578125,59.482723815566175L51.3636328125,39.73838388766825L51.431484375000004,50.68101574613577L51.702890625,45.187090956073774L51.906445312500004,40.04710982234349L51.974296875,30.75790588058794L52.11,79.0692086582338L52.3135546875,78.36447276903448L52.4492578125,59.26447117914044L52.788515625,83.70799989635789L52.992070312500005,54.1447045815044L53.195625,51.38461598723991L53.331328125,33.31858413307259L53.5348828125,74.47887647070455L53.602734375000004,77.75240576440201L53.7384375,50.081980303395525L53.8062890625,56.506455142649685L53.8062890625,71.03071289117047L54.00984375,53.8101521163979L54.3491015625,58.694177096942425L54.959765625,68.47864663674095L55.027617187500006,84.84702654462306L55.434726562499996,-0.8073666788571359L55.63828125,55.51331195594476L55.706132812499995,73.7839686693956L55.773984375,96.39058659265615L55.841835937499994,72.34224448509379L55.9096875,75.21074488564459L56.316796874999994,89.1865461184643L56.4525,75.19150038229832L56.588203125,84.92159130580589L56.656054687499996,88.63271420177935L56.791757812499995,22.53662755260507L56.9274609375,60.85127440760178L56.9274609375,69.75346840598752L57.0631640625,72.54767376177809L57.266718749999995,4.35465549165383L58.1487890625,-1.8524184472459524L58.2844921875,27.94579513983001L58.4201953125,90.03565127176364L58.4201953125,50.73389909243477L58.6916015625,78.66535326811882L58.9630078125,46.12125615170223L59.0987109375,58.994489771979175L59.2344140625,28.845777327793485L59.43796875,-18.701328919136074L59.573671875,59.89231422856183L59.845078125,79.68505642464982L59.98078125,69.9208440077491L60.0486328125,89.03338504536076L60.0486328125,101.48737997570008L60.116484375,97.67813708430288L60.1843359375,83.2900293467932L60.387890625000004,78.04795818117313L60.52359375,96.26615268449363L60.5914453125,19.642750148994025L60.795,63.15641291120221L60.795,53.824697875750374L60.862851562500005,50.936631204893004L60.998554687500004,33.19911395345946L61.1342578125,61.11614539833472L61.2699609375,103.78111941154513L61.3378125,84.35750543319486L61.3378125,75.6172879762515L62.15203125,14.487191708891515L62.287734375,-16.121950328017476L63.37335937500001,54.630421271813745L63.5769140625,87.82816430874766L63.644765625,84.4975308433308L63.84832031249999,51.71994447854479L64.11972656249999,77.02360359931895L64.32328125,93.2462420016527L64.458984375,77.89835074023408L64.6625390625,85.87829911612371L64.730390625,76.27985819805012L64.9339453125,53.145693879641044L65.001796875,46.119599998230086L65.4767578125,73.07407504509733L65.544609375,90.76079097173974L65.8838671875,80.4530195215484L65.95171875,88.4979837508872L66.29097656249999,93.62035287540805L66.4266796875,92.3946478862781L66.5623828125,92.7030804451954L66.8337890625,67.21510563857319L66.901640625,71.5013633167504L67.1051953125,67.3800963793349L67.1051953125,91.4327444859248L67.30875,80.64469799254687L67.715859375,38.676108123169115L67.9194140625,84.28478610016671L67.987265625,80.42235702297849L68.32652343749999,74.72650926972604L68.394375,94.90400430859465L68.66578125,85.25568004794017L69.072890625,39.47953183183978L69.344296875,104.65400219683734L69.75140625,79.53566191772862L69.95496093749999,96.53193692556981L70.0906640625,81.21106935694945L70.158515625,85.29158545521618L70.29421875,93.2920133517556L70.429921875,85.17873042575748L70.4977734375,38.89834499166213L70.6334765625,59.071316365618245L70.701328125,53.828833527563646L70.972734375,92.62159769436609L71.17628906249999,91.39908198363678L71.3119921875,82.8497054572217L71.37984375,46.839572499373105L71.7191015625,71.78147091942704L71.85480468749999,45.0851760032653L72.32976562500001,100.63472119023622L73.07613281249999,103.26377965365202L73.143984375,76.88611920179599L73.27968750000001,83.95045603281218L73.27968750000001,70.92962128323101L73.34753906249999,81.76204795779526L73.95820312500001,98.32767101234224L74.3653125,57.14541807966971L74.3653125,88.67673476106884L74.5688671875,72.84353848177538L74.63671875,105.6569166890279L74.8402734375,91.26521273255014L75.72234375000001,95.50597350891412L75.7901953125,93.77295558819812L76.12945312500001,32.88710410304233L76.4687109375,76.43642621543923L76.6044140625,93.67539395308786L76.672265625,88.63942398927506L77.35078125,87.99872445704281L77.5543359375,94.32691526529378L77.8257421875,102.39019655203445L78.029296875,7.997360321759629L78.36855468750001,77.53995439699584L78.572109375,12.098223448398386L78.6399609375,79.5182912337394L78.9113671875,71.22365950254189L79.0470703125,36.89572421314992L79.114921875,77.57681564141862L79.250625,80.92489550069772L79.250625,76.19218616510207L79.8612890625,99.52129394278329L80.4041015625,104.34242767819003L80.8790625,18.509865464176983L81.014765625,-24.86661100813322L81.014765625,90.52728279590205L81.0826171875,-42.98210980057985L81.15046875,-62.5781719421835L81.8968359375,7.492347077566308L82.0325390625,53.365470177261145L82.1682421875,14.38888243878526L82.3039453125,90.77477837077872L82.371796875,2.397110478786203L82.5075,81.51556500247014L82.643203125,42.98086740156367L82.77890624999999,5.156877306090394L83.593125,33.56496298732233L83.66097656250001,33.666546709436375L84.000234375,67.11037049299503L84.271640625,31.78306487984287L84.33949218750001,39.369790370908675L84.40734375,49.22824738410833L84.4751953125,36.1604109989878L84.814453125,97.97847815054202L85.085859375,84.12272438511717L85.5608203125,103.65653881550365L85.628671875,98.3930086327517L85.69652343749999,99.91469663855553L86.5107421875,89.92996975277283L86.57859375,97.68355034022325L86.64644531249999,76.24993860260915L87.12140625,-20.753747866622064L87.12140625,27.67912603961301L87.4606640625,18.06735072015516L87.66421875,5.978036052514142L87.79992187500001,71.0361829294956L88.07132812500001,82.91337746042491L88.342734375,96.98765357869809L88.342734375,95.60906196475428L88.5462890625,103.1577148534291L88.81769531249999,93.1369264087573L89.08910156249999,93.86831217325691L89.156953125,100.0024159901742L89.29265625000001,86.46296861045992L89.428359375,85.6164517884442L89.5640625,89.3739091267011L89.699765625,89.70556568916486L89.83546875,42.64028653781858L89.97117187500001,53.03771267325749L90.24257812500001,73.00891723563628L90.513984375,66.21529998304321L90.6496875,86.88693443559376L90.7175390625,80.49594228767921L90.9889453125,73.93467863536038L91.26035156249999,39.06379945539601L91.3960546875,81.0703625579564L91.46390625000001,86.91562847746535L91.46390625000001,38.532609522608766L91.5317578125,51.170849160790155L91.6674609375,50.625255424662356L91.87101562500001,83.2220560764295L92.21027343749999,85.63555433577856L92.54953125,96.38074904103163L92.68523437500001,96.80857133782202L92.7530859375,90.83712545120422L92.82093750000001,106.19466498956483L93.0244921875,81.04268113563634L93.09234375000001,82.33093194360843L93.1601953125,83.85335338880705L93.1601953125,93.82409760741781L93.36375,80.69799301128035L93.8387109375,93.18955423423488L94.1101171875,94.12512006251406L94.313671875,105.0071556313695L94.585078125,71.88886537429475L94.585078125,99.26921318872232L94.9243359375,65.40721065344819L95.12789062499999,62.03171435640459L95.535,109.17524912524303L95.8742578125,92.76918935993619L96.0099609375,67.73557316059512L96.34921874999999,101.9663253642419L96.484921875,66.37684592458284L96.62062499999999,97.52395392791367L96.756328125,99.98348379005411L97.2312890625,94.35907303385568L97.29914062499999,55.3024788870742L97.50269531250001,106.31704999928893L97.57054687499999,102.76223959988315L97.57054687499999,64.94077158955456L98.72402343750001,93.27230512543713L98.927578125,119.76063448416866L99.198984375,94.4708208064216L99.40253906250001,95.47933782921504L99.5382421875,80.65907813655211L99.60609375,97.96556961719345L99.67394531250001,84.35160006309991L99.8775,58.815700906861025L99.94535156250001,79.3253919410386L100.013203125,74.94471458748114L100.14890625,101.11692683518463L100.62386718750001,103.02175884896755L100.69171874999999,101.6046119821923L101.098828125,81.6226187629093L101.16667968750001,94.54154329154905L101.16667968750001,108.51753853091836L101.641640625,96.65314843226223L101.77734375,98.95516390360092L101.913046875,83.09188714538632L102.04875,77.15315265577684L102.184453125,91.36934693101126L102.32015625,103.34654947232255L102.5915625,73.32416841499173L102.65941406249999,114.80327266194425L102.7951171875,99.59934135812466L102.86296875000001,100.82733183904615L102.998671875,108.08211212375731L103.134375,99.89728336776272L103.81289062500001,113.85252937005964L104.22,104.5575714779552L104.22,110.06682751730216L104.355703125,106.17341890645079L104.355703125,109.78446754590341L104.4235546875,106.98712969411694L104.49140625,95.24092270723277L104.627109375,99.39217075436109L104.76281250000001,83.50557062339169L104.9663671875,59.36016845862778L105.03421875000001,105.21902971099396L105.5091796875,101.9254231053471L105.6448828125,108.94213369437159L105.9162890625,109.39364371768065L105.9162890625,118.52341686247382L106.526953125,102.3447800919613L106.66265625,-19.636648690328002L106.66265625,-41.403161471443525L106.798359375,23.510228128338753L106.8662109375,20.035589752585736L107.069765625,-46.15475095662154L107.341171875,37.456564024955554L107.476875,2.779114106803064L107.5447265625,74.11871987291877L107.612578125,67.19068920452678L107.74828125,103.20040575807381L108.0875390625,107.73019843839573L108.15539062500001,64.52599505025758L108.22324218749999,78.0628635624224L108.29109375,53.781259336109656L108.42679687500001,16.299809097345644L108.4946484375,84.88949978338287L108.7660546875,15.627439178858992L108.9017578125,35.639110668362775L109.37671875000001,-6.557616707735804L109.512421875,0.7620232788113981L109.5802734375,19.402144172561464L109.78382812500001,-13.526445533947197L109.78382812500001,-37.731535469847074L109.8516796875,74.91787070563127L109.9873828125,30.186902018330443L110.05523437500001,5.843868693802506L110.1230859375,76.17726658825163L110.1230859375,55.92502224538474L110.3944921875,52.93516365026255L110.46234374999999,93.53022500345416L110.6658984375,48.020797938108416L111.2765625,106.43039714292222L111.6158203125,105.98674675080524L111.819375,110.82684107753447L112.0229296875,114.65967469217554L112.1586328125,101.04073431173205L112.226484375,95.8560464979881L112.5657421875,113.0457389379735L112.63359374999999,118.53853990960798L112.7014453125,113.21502857996217L113.1085546875,114.25103301852607L113.4478125,110.06540795718318L113.7870703125,113.19544574812087L114.3298828125,92.92184885513102L114.940546875,104.3560696509334L115.0083984375,87.98831434950364L115.07625,100.417254043743L115.34765625,102.76606768033733L115.41550781250001,110.56150636382932L115.5512109375,86.1332095266885L115.89046875,74.50287176858232L116.161875,100.99432415957561L116.161875,113.4482646734437L116.568984375,111.25069333785878L116.840390625,95.50233943500955L117.0439453125,85.57503375603949L117.0439453125,100.3513296718177L117.111796875,99.04346054300133L117.1796484375,120.13733132327407L117.383203125,112.37542501572585L118.197421875,67.45417849007727L118.26527343750001,85.99871566914952L118.60453125,100.2582159917469L118.6723828125,112.30139495552118L118.8080859375,104.15562776213378L118.8080859375,108.74935743021445L119.283046875,101.00926739576138L119.4866015625,102.2332121303438L119.69015625,106.40128669674907L119.7580078125,54.74909649776028L119.82585937500001,121.48266974143084L119.89371093749999,40.071753386008936L120.3008203125,61.336110970637336L120.4365234375,82.68580304588457L120.504375,67.429847229638L120.640078125,88.17823256595457L120.911484375,93.16472612775395L120.9793359375,69.03559685382059L121.31859375,112.04096245609355L121.3864453125,113.58979245137223L121.79355468749999,86.12775368396458L121.79355468749999,106.40239395364186L121.86140625,110.62991023409579L121.99710937500001,98.80186087448548L122.1328125,108.43875294431511L122.3363671875,108.5295764007273L122.8791796875,115.24246563528763L123.082734375,118.50059033576065L123.1505859375,113.75633997639773L123.4219921875,86.48853962006977L123.625546875,124.42674279084895L123.8291015625,45.17626444423303L123.96480468749999,57.074279190240674L124.6433203125,44.98077208838157L124.7790234375,96.43976015517754L124.84687500000001,110.23676779101203L124.982578125,69.01768200511908L125.18613281249999,47.855561140259454L125.5932421875,46.70318116314175L125.8646484375,98.26278765117084L126.33960937500001,99.79726589364664L126.74671875000001,55.15742823411709L126.882421875,81.04841615851701L127.0859765625,106.2738575167355L127.3573828125,69.78004257141477L127.3573828125,102.558916004042L127.42523437499999,99.02292897181385L127.42523437499999,67.94468382985463L127.7644921875,96.2709744570311L128.510859375,89.39551009984486L128.5787109375,66.59823105700445L128.5787109375,119.1215792757409L128.8501171875,88.68899976049681L129.18937499999998,55.193305250190704L129.2572265625,104.74995026527903L129.6643359375,105.3902475888109L129.73218749999998,99.7794835372229L129.8000390625,81.6138742725764L129.867890625,107.65440812364352L129.9357421875,129.68528795164974L130.00359375,37.34871531084977L130.6142578125,122.73684164281335L130.8856640625,104.07045415499513L131.29277343750002,113.84495838275843L131.360625,71.37916758170881L131.63203124999998,110.82050983940383L131.63203124999998,88.99078877805731L131.8355859375,92.57822540086427L131.9712890625,117.59380135702668L132.17484375,24.317039853826685L132.24269531250002,69.81357258142502L132.310546875,56.311388654833905L132.853359375,105.54017206484318L132.9212109375,85.1303281575674L132.9890625,57.384292192757115L132.9890625,88.70670640704752L133.396171875,97.29939844455969L134.0068359375,28.01984885937L134.5496484375,38.54676726886203L134.8210546875,39.490547618363024L134.8210546875,-20.45037840546243L134.9567578125,67.58196729198762L135.4995703125,105.24555655775059L135.63527343750002,105.656102807893L135.77097656249998,93.40561128434324L135.838828125,111.52305960601993L135.9066796875,79.93238165231222L135.97453125,114.52323367134002L136.0423828125,79.90901569275384L136.17808593750001,89.85382454799087L136.2459375,73.3186084711924L136.5851953125,91.29899353151474L136.7208984375,91.22149028088563L136.9923046875,86.07655961420718L137.06015625,78.67410722218585L137.1280078125,86.02629299039418L137.3994140625,100.2756907768115L137.87437500000001,115.3864658137567L137.9422265625,110.6997242007471L138.01007812499998,111.53443974630707L138.07792968750002,121.54840957054068L138.6207421875,22.99823064836005L139.0278515625,105.74488209773385L139.8420703125,31.492461996019927L140.31703125,86.81222298653196L140.3848828125,80.71037157551783L140.5884375,18.506922242863624L140.5884375,98.66724872026991L140.6562890625,8.087209013556787L140.7919921875,17.90836945056384L140.9276953125,49.9795448452101L141.0633984375,34.789134851523784L141.13125,40.54282021589043L141.67406250000002,78.30035123846027L142.081171875,97.01318673337144L142.2847265625,77.06220617082101L142.35257812499998,90.27694810078744L142.5561328125,105.29406292701604L142.6918359375,94.4719280633144L143.5060546875,83.84353949651786L143.57390625,93.63525352479023L143.8453125,103.94455809991007L143.9131640625,109.62160614532019L143.981015625,94.56023416644892L144.0488671875,72.91004014148241L144.0488671875,106.85909956698637L144.7273828125,112.69724402656512L144.9309375,110.24612742406315L145.20234375,123.94023587874003L145.2701953125,83.16334306990859L145.338046875,109.54651141502627L145.609453125,113.63466238079957L146.01656250000002,120.50155022893367L146.0844140625,106.96793724130838L146.28796875,119.7278899640909L146.55937500000002,102.53145697947392L146.7629296875,105.96246280903661L146.83078125,93.09110300811672L146.966484375,115.39739879260637L147.1700390625,70.68486072751692L147.37359375,89.66876122714685L147.780703125,103.24125123456386L147.91640625000002,119.35898414410516L148.39136718749998,112.9702254374445L148.45921875000002,108.66619486657768L148.5270703125,112.6619064433367L148.59492187499998,102.32720593768836L148.7984765625,103.91918109684983L149.3412890625,126.219084128937L149.54484375,106.66562771837093L150.15550781250002,119.45943221812402L150.29121093749998,81.1165077255573L150.35906250000002,100.78544061993514L150.5626171875,103.8240989600807L150.766171875,68.60890547325833L150.90187500000002,62.03234842659106L150.9697265625,43.901158762962666L151.17328125,114.81677504460924L151.2411328125,104.6109138153593L151.44468750000001,99.67404807531939L151.6482421875,110.33279156932673L151.851796875,96.84388999358218L151.9875,112.7048576006699L152.19105468749999,91.28371906463455L152.5303125,80.98369368082577L152.59816406250002,75.43724516636158L152.937421875,94.94407375888632L153.07312499999998,67.91273426344351L153.14097656250001,70.14070547897634L153.2766796875,99.82228327481009L153.8194921875,48.84728476684538L153.88734374999999,103.39764890473866L154.0908984375,108.08045597028517L154.2266015625,97.7088752927458L154.294453125,98.93059604980849L154.7694140625,75.37793121272364L155.17652343749998,118.64592963260864L155.380078125,75.50809068003268L155.7871875,76.06430272585047L155.7871875,73.22674873589338L155.9907421875,67.65774341113864L156.05859375,74.21560011917191L156.5335546875,108.39839485013258L156.6692578125,80.89708158609987L156.73710937500002,100.52387247241234L156.8049609375,117.31763539961372L156.87281249999998,86.95354019637617L157.008515625,96.11345060249523L157.551328125,97.93070522067136L157.9584375,95.18081853179525L157.9584375,87.72038184078076L158.1619921875,105.89551162195856L158.4333984375,107.8926292390762L159.2476171875,114.85640206533051L159.451171875,116.28765462782133L159.5190234375,82.62397173896896L160.19753906250003,96.26822524226735L160.3332421875,51.96276496876297L160.4689453125,69.09087452485358L160.4689453125,93.22074670191587L160.536796875,79.04208559622721L160.74035156250002,101.60977918102537L160.808203125,50.06791719448351L160.8760546875,107.21652114560959L161.21531249999998,68.24877253480786L161.4188671875,111.1687042772537L161.62242187500001,106.2386997444555L161.893828125,73.63843536599805L162.02953125,107.09010931701464L162.165234375,83.99343084948069L162.57234375,95.41740242122405L162.6401953125,107.8658421396311L162.7758984375,90.15128390718849L163.1830078125,113.94514147222174L163.31871093750001,109.82783983940524L163.45441406249998,107.94340690453203L163.52226562500002,122.24018960772082L163.8615234375,121.62480793021052L163.929375,120.99663601602825L163.99722656249997,112.97999910886365L164.4721875,72.02856901747039L165.015,117.49582568354836L165.150703125,86.7860746891404L165.42210937500002,101.52310084016061L166.236328125,98.74802169103972L166.3041796875,103.05399232740247L166.3041796875,110.358319992133L166.5755859375,119.62643163645407L166.91484375,107.16305104779478L167.18625,74.87145582160777L167.3898046875,105.52220989747104L167.5255078125,114.97708596884539L167.9326171875,79.43311762660076L168.136171875,105.69601137470453L168.3397265625,101.58529176897302L168.950390625,110.23599176481365L169.08609375,109.84986194871765L169.4253515625,116.37559164532493L169.62890625,103.45198966609313L169.764609375,99.1042366435618L169.9003125,85.71710333274676L169.9681640625,82.05841425570125L170.307421875,128.6336470583753L170.3752734375,121.77771111655912L170.71453125,73.39764011488295L170.7823828125,102.4329347753498L170.85023437499999,97.39245534222572L171.0537890625,122.6728147495804L171.1894921875,103.88972522438102L171.1894921875,116.59772677867605L171.25734375,103.83344439753064L171.46089843750002,110.67691186963513L172.207265625,114.99288803890313L172.750078125,80.85312254108221L172.9536328125,112.83171895663585L172.9536328125,93.28449914685915L173.021484375,113.14931950798822L173.29289062499998,92.7305252741623L175.26058593750003,94.00699846501395L175.73554687499998,103.9932348163898L175.80339843750002,68.0258353499895L176.14265625000002,108.42786965006961L176.2105078125,91.2879114988526L176.27835937499998,116.42999155501766L176.34621093750002,66.42763778563986L176.4140625,53.77119938673316L176.4819140625,25.162529860689688L176.549765625,-14.969021454320398L177.2961328125,81.43724313883908L177.4996875,86.83896276730643L177.5675390625,105.47024926524941L177.70324218750002,104.09029014172431L177.8389453125,116.82005828451031L178.2460546875,92.39305324707777L178.51746093749998,116.83255987729144L178.6531640625,99.39157453911112L178.6531640625,120.11098192153231L178.992421875,73.89004293335267L179.1959765625,43.64198494017387L179.7387890625,70.86868429919039L179.94234375000002,95.10494304343591L180.07804687499998,76.9945310080823L180.349453125,115.16804519605023L180.41730468749998,122.20639697908855L180.7565625,100.05666684605447L180.892265625,120.1679204779045L181.0958203125,94.24662494496441L181.2315234375,111.97275732424376L181.435078125,104.00176637270486L181.77433593749998,85.19861373115728L181.977890625,83.92995285282709L182.11359375,103.47681304070697L182.4528515625,107.99269403186292L182.92781250000002,96.75780786796739L183.19921875,101.62812936149669L183.2670703125,113.79917283705434L183.334921875,61.102139071827466L183.4027734375,52.9538450614283L183.5384765625,96.27892399369738L183.5384765625,63.65364696594352L184.21699218749998,59.83154759173547L184.21699218749998,31.229341796100385L184.28484375000002,90.73137295420746L184.4883984375,111.30704987458219L184.62410156250002,63.55123989896049L185.506171875,115.54162610069449L185.7097265625,99.9823386782248L185.8454296875,88.14940603180521L185.9811328125,76.69799436296202L186.2525390625,112.67360361871708L186.320390625,116.84681935868657L186.863203125,102.7466480979097L186.9310546875,112.7625154008357L187.54171874999997,114.78464566724972L187.6095703125,109.28485809389633L187.677421875,107.32907333557625L187.948828125,102.86776496726087L188.0166796875,120.05182648544098L188.2880859375,103.27479544017528L188.35593749999998,83.534766243172L188.35593749999998,118.2492879738316L188.8308984375,43.80772331593158L188.89874999999998,114.39055685075331L189.2380078125,53.24380441133064L189.305859375,90.5827970602882L189.71296875,89.12626686394546L189.7808203125,79.77399186610376L189.848671875,76.4195334500234L189.9165234375,103.50359067641796L190.32363281250002,106.68951418330626L190.934296875,83.58605968213772L191.40925781250002,117.9765597178401L191.6128125,109.13004086732064L191.88421875,87.79276521124743L192.155625,109.31951428826764L192.291328125,104.50456510311258L192.4948828125,118.60039014399183L192.56273437500002,93.15777028317096L192.56273437500002,116.20436193784033L192.90199218749999,105.98323097357725L193.648359375,94.49738077624765L193.7840625,87.15428492466785L193.9876171875,74.42841584034196L194.191171875,62.36912486921729L194.5304296875,98.03871008639024L194.66613281250002,106.99370698933488L194.8696875,74.23548342457173L195.00539062500002,91.56743235001339L195.0732421875,109.43680307716463L195.3446484375,117.29470240589163L195.4125,115.50368362464775L195.48035156249998,114.73070711459565L195.54820312500001,99.44247050124352L195.6160546875,113.26354441296175L195.68390625,115.94241760688601L195.68390625,108.44115673278324L195.9553125,116.4145396431226L196.02316406249997,114.47348755290398L196.091015625,67.97311288717067L196.091015625,115.16631096677156L196.1588671875,111.13639035707871L196.22671875,55.50557062142926L196.29457031249999,98.91953294461459L196.362421875,101.50946833115135L196.5659765625,71.43288373661092L196.76953125,107.5883039407698L196.83738281249998,71.84114922682886L196.90523437500002,99.39624489190255L197.58374999999998,45.79483303421043L197.6516015625,23.675218869100433L197.85515625,50.55092725683269L198.1265625,66.46076085508267L198.533671875,23.354597020628177L199.14433593750002,57.91484805535791L199.2121875,106.98086943399225L199.755,127.25849314585294L199.89070312500002,61.274199221981675L199.9585546875,63.403179778551134L199.9585546875,107.61161311792341L200.6370703125,113.3993584614114L201.4512890625,52.37466453288546L201.519140625,92.52171271252777L201.9941015625,119.06434970954433L202.2655078125,125.17990933944071L202.5369140625,123.49016434301821L202.5369140625,101.21399162425325L202.6726171875,123.55277167613218L202.74046875,111.9047130758741L202.74046875,128.1147599799525L203.2154296875,126.84658411799629L203.48683593750002,103.79038440725499L204.233203125,94.12999861745628L204.4367578125,64.78875562828033L204.5724609375,104.0609525659321L204.77601562499999,75.88030880696272L205.2509765625,-15.418170275964883L205.31882812499998,36.688335943501414L205.31882812499998,110.106759743449L205.590234375,91.09256109901303L206.2008984375,101.1361098242591L206.7437109375,87.99982698206854L206.947265625,79.68664160011602L207.1508203125,94.70774539027893L207.1508203125,85.68234303730006L207.354375,101.3987568374723L207.82933593750002,90.1991278150651L207.8971875,88.2742941992058L208.1007421875,110.87952095354973L208.16859375,115.1022911713392L208.9828125,83.32335588651975L209.118515625,121.66565104076705L209.5934765625,127.30642459327021L209.72917968750002,124.9948105295937L210.33984375,84.24103052543276L210.61125,115.08942285886067L210.746953125,103.67436849059803L211.3576171875,59.89128268154202L211.4933203125,32.76090520846523L211.4933203125,88.75256293075756L211.56117187499999,100.51435195588105L211.62902343750002,43.39515182668606L211.696875,51.99863252110245L211.832578125,115.77492607438137L211.832578125,65.8093625714204L212.2396875,116.1416599673851L212.44324218749998,108.47324825520626L212.5789453125,123.5084908641542L213.3253125,87.93156033594691L213.80027343749998,43.03251099869209L214.0716796875,107.89853460917115L214.34308593749998,76.44027795522871L214.68234375,125.32920447715358L214.7501953125,126.59620447014458L215.22515625,131.38748249031568L215.360859375,127.13248825782543L215.70011718749998,71.13959315229604L215.76796875000002,77.35512766950497L215.8358203125,102.14753694529644L216.44648437499998,102.43204991620898L216.5821875,117.49107488901686L216.717890625,118.39085360669662L216.989296875,122.8814829892695L217.1928515625,121.8798508330531L217.260703125,120.17134871559183L217.3285546875,107.0148915581771L217.5999609375,127.43600677279755L217.803515625,114.0079570074865L217.93921875,125.20591094895332L218.4141796875,109.79036345226423L218.48203125,120.18686450769226L218.54988281250002,99.87639217467844L218.68558593749998,97.36503417259414L219.02484375,107.22156531589903L219.2283984375,121.31905597398455L219.6355078125,114.19787522393744L219.974765625,116.69129471798493L220.1783203125,123.6033553350384L220.1783203125,111.72328382893464L220.3140234375,86.33880915058708L220.517578125,123.6282567854588L220.7211328125,118.67011657110248L220.92468749999998,97.3189694467333L220.99253906250001,81.08778529248332L221.060390625,103.77823297263653L221.46749999999997,18.367209135953857L221.603203125,34.76365847925521L221.874609375,81.96626114464429L222.0103125,48.136832782233654L222.146015625,114.76047292435706L222.34957031250002,-34.37416222365573L222.48527343749998,54.22859112080185L222.7566796875,98.75790656133488L222.89238281250002,57.86294893740808L222.960234375,120.1223573299524L223.02808593749998,76.2899843935655L223.0959375,49.71310287461216L223.36734374999997,94.82116824378524L223.4351953125,78.0952910474069L223.4351953125,109.55791521464873L223.63875,124.82158870607546L224.045859375,105.16255960946103L224.24941406250002,125.95411850086279L224.5208203125,69.77475234403805L224.58867187500002,112.60108302410558L224.92792968749998,123.50974954079302L224.99578125,87.05934001204358L225.4707421875,108.87682919703157L225.8778515625,109.91653395563895L225.945703125,74.39581800814317L226.08140625,95.8449833927942L226.14925781250003,106.63557563065217L226.48851562500002,112.3908603660862L226.5563671875,120.34722984839962L226.82777343749999,119.51060262854608L227.302734375,63.35154564515686L227.70984375,101.7191562881926L227.98125,98.43933361130101L228.04910156250003,113.29115485727587L228.1848046875,110.35269853406186L228.659765625,112.31688708828628L229.06687499999998,88.32905609672888L229.2704296875,110.53868456898323L229.5418359375,65.20586024617242L229.88109375,99.6871695426858L229.94894531249997,98.56012871369187L230.1525,110.34735152428037L230.288203125,86.81481131781557L230.4917578125,58.06579461467584L230.559609375,107.40584314681057L230.8988671875,101.2940406193624L230.96671874999998,107.68603592309435L231.50953124999998,112.02236621853496L231.645234375,116.04786016659011L231.84878906249997,126.24832470145441L232.188046875,98.96182637242599L232.2558984375,96.77799401285924L232.66300781249998,95.68152577696101L232.7987109375,106.74742277242642L232.8665625,73.45052346118192L233.07011718750002,105.63464379076113L233.40937499999998,101.13487480695558L233.68078125,120.36972041255129L233.74863281249998,81.10654714538914L233.81648437500002,74.6942284726205L233.9521875,103.90596026027508L234.0200390625,88.97911053014518L234.2914453125,128.47700096517966L234.63070312500003,122.86370063284576L234.6985546875,119.68633943940844L234.96996093750002,91.15849966653954L235.0378125,125.48181665367778L235.17351562500002,121.59151687948697L235.17351562500002,117.05015478419537L235.85203125,87.09825961863888L235.987734375,115.62537068398004L236.0555859375,110.36014649281942L236.1234375,118.21424613229465L236.1912890625,110.881636098127L236.53054687500003,110.8499420525373L237.1412109375,51.58622191533712L237.48046875,91.70624640218114L237.8197265625,64.28032597606735L237.95542968750001,60.17543129869071L238.0911328125,72.58604920366113L238.158984375,44.19631370290048L238.2946875,81.33053953656261L238.4982421875,103.15230632937578L238.4982421875,71.16986763776677L238.56609375,47.42753537318535L238.6339453125,96.08851839493893L238.7696484375,67.7310684231509L239.24460937499998,63.26015436469709L239.3803125,57.43607774589741L239.516015625,107.0598490271451L240.058828125,104.38897032262423L240.1266796875,106.6329967631027L240.2623828125,115.51795020384347L240.3980859375,118.28499227675741L240.6694921875,113.40233953766125L240.9408984375,113.45104937721042L241.00875,112.00885200620229L241.3480078125,54.44790369544974L241.55156250000002,84.4348004816732L241.6194140625,89.99550137973189L241.82296875,105.87744535351105L241.89082031249998,122.79892847055035L241.958671875,89.76793169705861L242.23007812499998,89.10769428572216L242.36578125,119.28897617090425L242.4336328125,126.15483483795208L242.501484375,107.62385445801605L242.5693359375,110.64230299393446L242.772890625,104.37621794088875L243.044296875,116.90887069742061L243.315703125,109.34889918273048L243.45140625000002,95.33520515846818L243.58710937499998,118.63269933229977L243.7228125,91.64747661325548L244.265625,122.24289150381392L244.6048828125,128.49412795801513L244.6048828125,129.99925442909753L244.672734375,131.21005640291176L244.8762890625,124.28385460113972L244.944140625,116.76782793586608L245.07984375,121.8434817028049L245.35125,128.55455863228L245.48695312499999,121.5615168423059L245.62265625,117.11270296897106L245.758359375,105.71862023553278L245.9619140625,97.50250910638299L246.36902343749998,72.24178694734083L246.6404296875,68.31358018610625L247.0475390625,106.52220955955063L247.25109375,74.98458529935616L247.92960937499998,125.83478081352742L248.0653125,92.19916499416077L248.201015625,64.0094644416323L248.201015625,66.39187433437576L248.47242187499998,123.64565822658395L249.015234375,127.08921060166486L249.42234375,129.34049336028482L249.7616015625,94.49131925453962L250.03300781250002,129.57614270596864L250.23656250000002,123.45477234331857L250.9829296875,113.67254807444155" style="fill: none;" fill="none"></path></g></g></g></g></g></g><g transform="translate(58, 177)" clip-path="url(#clip_1)"><clipPath id="clip_1"><rect width="271" height="22"></rect></clipPath><g><g><line x1="0" y1="0" x2="0" y2="5" style="visibility: inherit;" fill="rgb(0, 0, 0)" stroke="rgb(204, 204, 204)" stroke-width="1px"></line><line x1="33.92578125" y1="0" x2="33.92578125" y2="5" style="visibility: inherit;" fill="rgb(0, 0, 0)" stroke="rgb(204, 204, 204)" stroke-width="1px"></line><line x1="67.8515625" y1="0" x2="67.8515625" y2="5" style="visibility: inherit;" fill="rgb(0, 0, 0)" stroke="rgb(204, 204, 204)" stroke-width="1px"></line><line x1="101.77734375" y1="0" x2="101.77734375" y2="5" style="visibility: inherit;" fill="rgb(0, 0, 0)" stroke="rgb(204, 204, 204)" stroke-width="1px"></line><line x1="135.703125" y1="0" x2="135.703125" y2="5" style="visibility: inherit;" fill="rgb(0, 0, 0)" stroke="rgb(204, 204, 204)" stroke-width="1px"></line><line x1="169.62890625" y1="0" x2="169.62890625" y2="5" style="visibility: inherit;" fill="rgb(0, 0, 0)" stroke="rgb(204, 204, 204)" stroke-width="1px"></line><line x1="203.5546875" y1="0" x2="203.5546875" y2="5" style="visibility: inherit;" fill="rgb(0, 0, 0)" stroke="rgb(204, 204, 204)" stroke-width="1px"></line><line x1="237.48046875" y1="0" x2="237.48046875" y2="5" style="visibility: inherit;" fill="rgb(0, 0, 0)" stroke="rgb(204, 204, 204)" stroke-width="1px"></line><line x1="271.40625" y1="0" x2="271.40625" y2="5" style="visibility: inherit;" fill="rgb(0, 0, 0)" stroke="rgb(204, 204, 204)" stroke-width="1px"></line></g><g transform="translate(0, 8)"><text x="0" y="0" dx="0em" dy="0.95em" style="text-anchor: middle; visibility: hidden; font-family: &quot;Helvetica Neue&quot;, sans-serif; font-size: 12px; font-weight: 200;" fill="rgb(50, 49, 63)" stroke="none" stroke-width="1px">-500</text><text x="33.92578125" y="0" dx="0em" dy="0.95em" style="text-anchor: middle; visibility: inherit; font-family: &quot;Helvetica Neue&quot;, sans-serif; font-size: 12px; font-weight: 200;" fill="rgb(50, 49, 63)" stroke="none" stroke-width="1px">0</text><text x="67.8515625" y="0" dx="0em" dy="0.95em" style="text-anchor: middle; visibility: inherit; font-family: &quot;Helvetica Neue&quot;, sans-serif; font-size: 12px; font-weight: 200;" fill="rgb(50, 49, 63)" stroke="none" stroke-width="1px">500</text><text x="101.77734375" y="0" dx="0em" dy="0.95em" style="text-anchor: middle; visibility: inherit; font-family: &quot;Helvetica Neue&quot;, sans-serif; font-size: 12px; font-weight: 200;" fill="rgb(50, 49, 63)" stroke="none" stroke-width="1px">1k</text><text x="135.703125" y="0" dx="0em" dy="0.95em" style="text-anchor: middle; visibility: inherit; font-family: &quot;Helvetica Neue&quot;, sans-serif; font-size: 12px; font-weight: 200;" fill="rgb(50, 49, 63)" stroke="none" stroke-width="1px">1.5k</text><text x="169.62890625" y="0" dx="0em" dy="0.95em" style="text-anchor: middle; visibility: inherit; font-family: &quot;Helvetica Neue&quot;, sans-serif; font-size: 12px; font-weight: 200;" fill="rgb(50, 49, 63)" stroke="none" stroke-width="1px">2k</text><text x="203.5546875" y="0" dx="0em" dy="0.95em" style="text-anchor: middle; visibility: inherit; font-family: &quot;Helvetica Neue&quot;, sans-serif; font-size: 12px; font-weight: 200;" fill="rgb(50, 49, 63)" stroke="none" stroke-width="1px">2.5k</text><text x="237.48046875" y="0" dx="0em" dy="0.95em" style="text-anchor: middle; visibility: inherit; font-family: &quot;Helvetica Neue&quot;, sans-serif; font-size: 12px; font-weight: 200;" fill="rgb(50, 49, 63)" stroke="none" stroke-width="1px">3k</text><text x="271.40625" y="0" dx="0em" dy="0.95em" style="text-anchor: middle; visibility: hidden; font-family: &quot;Helvetica Neue&quot;, sans-serif; font-size: 12px; font-weight: 200;" fill="rgb(50, 49, 63)" stroke="none" stroke-width="1px">3.5k</text></g><line x1="0" y1="0" x2="271.40625" y2="0" fill="rgb(0, 0, 0)" stroke="rgb(204, 204, 204)" stroke-width="1px"></line></g></g></g></g></svg>