<svg viewBox="0 0 330 200" xmlns="http://www.w3.org/2000/svg"><g><g><g><g><g><line x1="39.15625" y1="177.828125" x2="34.15625" y2="177.828125" style="visibility: inherit;" fill="rgb(0, 0, 0)" stroke="rgb(204, 204, 204)" stroke-width="1px"></line><line x1="39.15625" y1="152.42410714285714" x2="34.15625" y2="152.42410714285714" style="visibility: inherit;" fill="rgb(0, 0, 0)" stroke="rgb(204, 204, 204)" stroke-width="1px"></line><line x1="39.15625" y1="127.02008928571429" x2="34.15625" y2="127.02008928571429" style="visibility: inherit;" fill="rgb(0, 0, 0)" stroke="rgb(204, 204, 204)" stroke-width="1px"></line><line x1="39.15625" y1="101.61607142857143" x2="34.15625" y2="101.61607142857143" style="visibility: inherit;" fill="rgb(0, 0, 0)" stroke="rgb(204, 204, 204)" stroke-width="1px"></line><line x1="39.15625" y1="76.21205357142858" x2="34.15625" y2="76.21205357142858" style="visibility: inherit;" fill="rgb(0, 0, 0)" stroke="rgb(204, 204, 204)" stroke-width="1px"></line><line x1="39.15625" y1="50.80803571428571" x2="34.15625" y2="50.80803571428571" style="visibility: inherit;" fill="rgb(0, 0, 0)" stroke="rgb(204, 204, 204)" stroke-width="1px"></line><line x1="39.15625" y1="25.40401785714286" x2="34.15625" y2="25.40401785714286" style="visibility: inherit;" fill="rgb(0, 0, 0)" stroke="rgb(204, 204, 204)" stroke-width="1px"></line><line x1="39.15625" y1="0" x2="34.15625" y2="0" style="visibility: inherit;" fill="rgb(0, 0, 0)" stroke="rgb(204, 204, 204)" stroke-width="1px"></line></g><g transform="translate(29.15625, 0)"><text x="0" y="177.828125" dx="0em" dy="0.3em" style="text-anchor: end; visibility: hidden; font-family: &quot;Helvetica Neue&quot;, sans-serif; font-size: 12px; font-weight: 200;" fill="rgb(50, 49, 63)" stroke="none" stroke-width="1px">250</text><text x="0" y="152.42410714285714" dx="0em" dy="0.3em" style="text-anchor: end; visibility: inherit; font-family: &quot;Helvetica Neue&quot;, sans-serif; font-size: 12px; font-weight: 200;" fill="rgb(50, 49, 63)" stroke="none" stroke-width="1px">300</text><text x="0" y="127.02008928571429" dx="0em" dy="0.3em" style="text-anchor: end; visibility: inherit; font-family: &quot;Helvetica Neue&quot;, sans-serif; font-size: 12px; font-weight: 200;" fill="rgb(50, 49, 63)" stroke="none" stroke-width="1px">350</text><text x="0" y="101.61607142857143" dx="0em" dy="0.3em" style="text-anchor: end; visibility: inherit; font-family: &quot;Helvetica Neue&quot;, sans-serif; font-size: 12px; font-weight: 200;" fill="rgb(50, 49, 63)" stroke="none" stroke-width="1px">400</text><text x="0" y="76.21205357142858" dx="0em" dy="0.3em" style="text-anchor: end; visibility: inherit; font-family: &quot;Helvetica Neue&quot;, sans-serif; font-size: 12px; font-weight: 200;" fill="rgb(50, 49, 63)" stroke="none" stroke-width="1px">450</text><text x="0" y="50.80803571428571" dx="0em" dy="0.3em" style="text-anchor: end; visibility: inherit; font-family: &quot;Helvetica Neue&quot;, sans-serif; font-size: 12px; font-weight: 200;" fill="rgb(50, 49, 63)" stroke="none" stroke-width="1px">500</text><text x="0" y="25.40401785714286" dx="0em" dy="0.3em" style="text-anchor: end; visibility: inherit; font-family: &quot;Helvetica Neue&quot;, sans-serif; font-size: 12px; font-weight: 200;" fill="rgb(50, 49, 63)" stroke="none" stroke-width="1px">550</text><text x="0" y="0" dx="0em" dy="0.3em" style="text-anchor: end; visibility: hidden; font-family: &quot;Helvetica Neue&quot;, sans-serif; font-size: 12px; font-weight: 200;" fill="rgb(50, 49, 63)" stroke="none" stroke-width="1px">600</text></g><line x1="39.15625" y1="0" x2="39.15625" y2="177.828125" fill="rgb(0, 0, 0)" stroke="rgb(204, 204, 204)" stroke-width="1px"></line></g></g><g transform="translate(39, 0)" clip-path="url(#clip_0)"><clipPath id="clip_0"><rect width="290" height="177"></rect></clipPath><g><g><g><line x1="0" y1="0" x2="0" y2="177.828125" fill="rgb(0, 0, 0)" stroke="rgb(60, 60, 60)" stroke-width="1px" opacity="0.25"></line><line x1="36.35546875" y1="0" x2="36.35546875" y2="177.828125" fill="rgb(0, 0, 0)" stroke="rgb(60, 60, 60)" stroke-width="1px" opacity="0.25"></line><line x1="72.7109375" y1="0" x2="72.7109375" y2="177.828125" fill="rgb(0, 0, 0)" stroke="rgb(60, 60, 60)" stroke-width="1px" opacity="0.25"></line><line x1="109.06640625" y1="0" x2="109.06640625" y2="177.828125" fill="rgb(0, 0, 0)" stroke="rgb(60, 60, 60)" stroke-width="1px" opacity="0.25"></line><line x1="145.421875" y1="0" x2="145.421875" y2="177.828125" fill="rgb(0, 0, 0)" stroke="rgb(60, 60, 60)" stroke-width="1px" opacity="0.25"></line><line x1="181.77734375" y1="0" x2="181.77734375" y2="177.828125" fill="rgb(0, 0, 0)" stroke="rgb(60, 60, 60)" stroke-width="1px" opacity="0.25"></line><line x1="218.1328125" y1="0" x2="218.1328125" y2="177.828125" fill="rgb(0, 0, 0)" stroke="rgb(60, 60, 60)" stroke-width="1px" opacity="0.25"></line><line x1="254.48828125" y1="0" x2="254.48828125" y2="177.828125" fill="rgb(0, 0, 0)" stroke="rgb(60, 60, 60)" stroke-width="1px" opacity="0.25"></line><line x1="290.84375" y1="0" x2="290.84375" y2="177.828125" fill="rgb(0, 0, 0)" stroke="rgb(60, 60, 60)" stroke-width="1px" opacity="0.25"></line></g><g><line x1="0" y1="177.828125" x2="290.84375" y2="177.828125" fill="rgb(0, 0, 0)" stroke="rgb(60, 60, 60)" stroke-width="1px" opacity="0.25"></line><line x1="0" y1="152.42410714285714" x2="290.84375" y2="152.42410714285714" fill="rgb(0, 0, 0)" stroke="rgb(60, 60, 60)" stroke-width="1px" opacity="0.25"></line><line x1="0" y1="127.02008928571429" x2="290.84375" y2="127.02008928571429" fill="rgb(0, 0, 0)" stroke="rgb(60, 60, 60)" stroke-width="1px" opacity="0.25"></line><line x1="0" y1="101.61607142857143" x2="290.84375" y2="101.61607142857143" fill="rgb(0, 0, 0)" stroke="rgb(60, 60, 60)" stroke-width="1px" opacity="0.25"></line><line x1="0" y1="76.21205357142858" x2="290.84375" y2="76.21205357142858" fill="rgb(0, 0, 0)" stroke="rgb(60, 60, 60)" stroke-width="1px" opacity="0.25"></line><line x1="0" y1="50.80803571428571" x2="290.84375" y2="50.80803571428571" fill="rgb(0, 0, 0)" stroke="rgb(60, 60, 60)" stroke-width="1px" opacity="0.25"></line><line x1="0" y1="25.40401785714286" x2="290.84375" y2="25.40401785714286" fill="rgb(0, 0, 0)" stroke="rgb(60, 60, 60)" stroke-width="1px" opacity="0.25"></line><line x1="0" y1="0" x2="290.84375" y2="0" fill="rgb(0, 0, 0)" stroke="rgb(60, 60, 60)" stroke-width="1px" opacity="0.25"></line></g></g></g><g><g><line x1="0" y1="304.8482142857143" x2="290.84375" y2="304.8482142857143" fill="rgb(0, 0, 0)" stroke="rgb(153, 153, 153)" stroke-width="1.5px"></line></g></g><g><g><line x1="36.35546875" y1="0" x2="36.35546875" y2="177.828125" fill="rgb(0, 0, 0)" stroke="rgb(153, 153, 153)" stroke-width="1.5px"></line></g></g><g><g><g><g><g><path stroke="rgb(255, 112, 67)" stroke-width="2px" d="M46.24415625,-20.15715803462396L46.971265625,3.2747888072526337L47.116687500000005,-1.2401636161762326L47.3348203125,9.326535819464453L47.552953125,5.560916536257849L47.6256640625,16.730892771725706L47.9165078125,11.14078225545552L48.352773437500005,22.843186125189476L48.643617187500006,27.20837044444204L48.934460937500006,23.166666634008067L49.51614843750001,14.249230799550844L49.661570312500004,20.028185173585115L50.025124999999996,24.616845002089946L51.624765624999995,54.14516247334454L51.6974765625,42.897435762549975L52.2791640625,34.75833910053072L52.351875,37.999391160000016L52.4245859375,58.8684031395528L52.497296874999996,62.703571291781884L53.078984375,66.76407408000331L53.151695312499996,53.95508723974517L53.22440625,43.36812958819459L53.5879609375,56.05647105223923L54.1696484375,63.12276856590137L54.242359375,68.77176922190367L54.96946875,75.59468760616224L55.0421796875,70.56589675842558L55.114890625,60.60611847323324L55.405734375,62.997048657770705L55.623867187500004,72.45582801439514L55.696578125,51.235887972054286L55.842,61.546565158568285L56.0601328125,49.13691408925544L56.205554687500005,57.45802541539754L56.569109375000004,65.25756328957402L56.7872421875,48.041801185675894L57.005375,59.22869115125103L57.150796875000005,64.93135653917852L57.3689296875,71.81228712253406L57.441640625000005,86.16970255818401L57.5870625,84.42096850865657L57.6597734375,85.59689304443346L57.6597734375,86.30244776589957L57.87790625,89.33766219548072L58.2414609375,79.44787973949042L58.895859375,79.19583345413304L58.968570312500006,86.33330122430043L59.404835937499996,88.88376869626764L59.62296875,86.20671959505377L59.6956796875,90.199582806401L59.768390624999995,88.64157717669076L59.84110156249999,83.46544401283646L59.9138125,60.59207665485064L60.350078124999996,58.22380107386917L60.4955,76.24860664616997L60.640921875,76.80097382068364L60.713632812499995,84.98077193518884L60.8590546875,78.01389741971055L61.004476562499995,67.65740846460011L61.004476562499995,61.44351509153384L61.1498984375,69.83793793577534L61.36803125,69.30845100805597L62.3132734375,69.14149597300639L62.4586953125,85.67687363186465L62.6041171875,56.13424853388999L62.6041171875,38.40867347510522L62.8949609375,53.69169082844519L63.1858046875,54.75693730721292L63.3312265625,64.38845008770562L63.4766484375,75.71971100459741L63.69478125,74.96801635669958L63.840203125,82.65756079603182L64.131046875,95.73494363551706L64.27646875,98.4367558176497L64.3491796875,100.09927970976706L64.3491796875,101.09679404503748L64.421890625,88.19742726854471L64.4946015625,101.35643861842487L64.712734375,95.64748528932361L64.85815625000001,68.87167784308008L64.9308671875,73.77492152202322L65.149,76.92434214475954L65.149,78.8139945184013L65.2217109375,88.77630856537601L65.3671328125,83.2318709121487L65.5125546875,78.17121044118396L65.6579765625,77.55460888102597L65.7306875,87.73319499649712L65.7306875,93.84034666577983L66.60321875,94.72196738907273L66.74864062500001,90.39870418865341L67.91201562500001,81.45740727641923L68.1301484375,80.37923463052616L68.202859375,79.79576045964677L68.42099218749999,89.1929792931264L68.7118359375,90.67663108391505L68.92996875,94.08029419665726L69.075390625,98.45598383055102L69.2935234375,96.91839481253437L69.36623437499999,99.79901390124482L69.58436718749999,93.52108212800013L69.657078125,93.18581915289872L70.1660546875,84.68953008775622L70.238765625,86.5991597520905L70.6023203125,95.86927394704462L70.67503125,96.9446741197919L71.0385859375,102.58216345723103L71.1840078125,101.2246927952336L71.3294296875,110.76422072496554L71.6202734375,104.37464930204476L71.692984375,112.37974316562538L71.9111171875,114.47747005087757L71.9111171875,115.73610618202888L72.12925,113.61691875333703L72.565515625,122.74836401292748L72.78364843749999,98.28724405472916L72.856359375,90.47286961638764L73.2199140625,100.6320747067135L73.292625,96.31394133052834L73.58346875,107.61339650717056L74.019734375,100.40374185000722L74.310578125,104.73023130461492L74.74684375,109.08074501445842L74.9649765625,116.42495800154265L75.1103984375,106.48037405368089L75.183109375,113.25048251010247L75.32853125,111.08502798186105L75.47395312500001,102.3855946334639L75.5466640625,98.24576663932692L75.6920859375,105.71103464594094L75.764796875,104.85234365580273L76.05564062500001,106.03320697854635L76.2737734375,97.40993486283058L76.4191953125,93.32433777055132L76.49190625,98.43171058720087L76.8554609375,99.19576820903177L77.0008828125,108.47283297120852L77.509859375,106.24584976354264L78.3096796875,98.5353166736817L78.382390625,82.15740578582961L78.52781250000001,76.97808119569295L78.52781250000001,73.87048644161096L78.6005234375,75.6529504877083L79.25492187500001,78.18789838688942L79.69118750000001,86.54033376142092L79.69118750000001,91.55179498613983L79.9093203125,90.21325120454838L79.98203125,90.9282134714473L80.2001640625,102.76022087832214L81.14540625000001,94.50397417128039L81.2181171875,107.17033137057481L81.58167187500001,110.58427555443544L81.9452265625,108.32594158824163L82.0906484375,113.24604372687949L82.163359375,117.33947478501685L82.89046875,115.34428557029864L83.1086015625,119.6624364163369L83.3994453125,126.48092514369515L83.617578125,127.52501234961866L83.98113281250001,110.86280869728606L84.199265625,113.22697863943574L84.2719765625,114.05752272170815L84.56282031250001,111.64470129760184L84.7082421875,112.1928550111094L84.780953125,94.37439700640842L84.926375,114.0797939655638L84.926375,125.90303214105705L85.5807734375,112.11859365945985L86.1624609375,100.14087903503135L86.6714375,102.32323468006072L86.81685937499999,90.51751374068851L86.81685937499999,83.43408117706517L86.8895703125,80.47479507257646L86.96228124999999,95.7826067346426L87.7621015625,107.66844291379319L87.9075234375,111.58747135631685L88.0529453125,115.23248383503905L88.19836718750001,118.11273074902151L88.271078125,116.87816632558565L88.4165,110.10984066699882L88.561921875,107.97520291987878L88.70734374999999,101.68409796456505L89.579875,85.71364577410907L89.6525859375,93.20495838317532L90.016140625,107.16367912547318L90.306984375,115.18508495592705L90.3796953125,114.98286150026783L90.45240625,107.1449887790844L90.5251171875,76.73749249579187L90.888671875,90.59748975090618L91.179515625,108.12455951129286L91.68849218749999,117.30596163821579L91.761203125,117.797596217723L91.83391406249999,126.27987141482483L92.7064453125,116.88588869318549L92.77915625,126.77679946107207L92.85186718749999,117.10445329408796L93.36084375,117.41549374834695L93.36084375,117.60211802090237L93.7243984375,112.2122992854418L93.94253125,105.47159921390423L94.087953125,79.97984949939443L94.378796875,99.98400499513403L94.669640625,110.02661800867709L94.669640625,116.05218581680295L94.8877734375,108.88268983284648L95.1786171875,108.60882532276433L95.4694609375,106.87854366342005L95.54217187500001,112.93312559587483L95.68759375,112.28749951066212L95.833015625,97.31505451160791L95.9784375,109.23869727082496L96.12385937500001,106.71206666833343L96.26928125,114.59592223453802L96.414703125,111.39792441921402L96.70554687500001,119.62294509865453L96.996390625,126.04604622909278L97.1418125,105.43263119793104L97.21452343749999,103.09528048300162L97.5053671875,122.91430491645326L97.79621093749999,124.20457206708562L97.9416328125,128.79996552593076L98.01434375000001,126.08646248129942L98.01434375000001,124.4583606545206L98.0870546875,124.07964137636367L98.2324765625,111.52871979721886L98.45060937500001,111.56523361510847L98.8141640625,105.12677488128432L99.17771875000001,99.35441031745553L99.32314062500001,115.20408604741127L99.3958515625,119.17504652558071L99.4685625,119.55520196254606L99.6866953125,128.3524996369131L99.75940625000001,120.15867357430574L99.8321171875,119.04651797209806L99.8321171875,118.37922461077346L100.05024999999999,123.78207892321979L100.5592265625,128.48544665824008L100.8500703125,119.94266732235843L101.068203125,119.81182284803106L101.35904687499999,119.00455080546345L101.35904687499999,118.52018757992289L101.7226015625,126.25051615382357L101.94073437499999,132.76025631977478L102.377,106.36760406510619L102.74055468750001,81.69990524519862L102.8859765625,103.9609384316084L103.24953124999999,119.57466439585293L103.394953125,122.8681331935464L103.540375,117.00719900628984L103.685796875,113.2091165763203L104.1947734375,119.07713593580421L104.267484375,117.36037836596512L104.4856171875,127.72266756152766L104.558328125,117.95495978003706L104.558328125,112.0943351111427L105.79441406250001,118.03351437823521L106.012546875,118.36867116236328L106.30339062499999,113.96513194241308L106.52152343750001,97.1258154962976L106.6669453125,88.58758077094927L106.73965625,87.45772235390955L106.8123671875,99.91823691598168L107.0305,103.98979944939369L107.10321093750001,112.49780978547223L107.175921875,125.6334735365142L107.32134375,117.57927126332694L107.8303203125,124.52933929303035L107.90303125,127.70322754149029L108.339296875,120.79396644955938L108.41200781250001,119.61571195929602L108.41200781250001,118.908759265138L108.920984375,126.8814404367509L109.06640625,96.68999312906368L109.211828125,111.39242698836526L109.35725,112.02404376974907L109.502671875,118.44994535767901L109.64809375,120.1886233370875L109.9389375,124.53641156088986L110.01164843749999,105.8496455455863L110.1570703125,110.17953582218125L110.22978125,127.37441025651847L110.375203125,130.6522015999909L110.520625,122.39483839316105L111.24773437500001,116.97555671261085L111.684,113.83510547379454L111.684,111.95083473050474L111.82942187500001,124.00692983697749L111.82942187500001,131.24058690086116L111.9021328125,126.46254355494104L111.97484375,130.01998804266745L112.120265625,132.2682394305199L112.2656875,130.90966526824496L112.4838203125,127.80451850004522L112.55653125,124.56372142968237L113.0655078125,112.11252345436266L113.2109296875,122.57124846560117L113.50177343749999,110.74437794419397L113.50177343749999,103.64825563134967L114.156171875,121.85450678021186L114.30159375000001,133.4984948674043L114.30159375000001,140.48488771971972L114.447015625,125.44924968222074L114.5197265625,87.15039370756071L114.737859375,92.74272347799798L115.028703125,110.31789009058734L115.174125,118.84031297716908L115.2468359375,110.18033588483833L115.319546875,109.5557641894854L115.46496875000001,115.672318332831L115.8285234375,116.77497510505398L115.901234375,123.20556361418858L115.97394531249999,122.89768259970907L116.04665625000001,124.20032946622365L116.19207812500001,112.94785570520328L116.2647890625,109.67839027412207L116.5556328125,117.6787018705541L116.7010546875,118.21598795495663L117.21003125000001,119.60820615449603L117.35545312500001,104.37184891373208L117.4281640625,110.46871158757553L117.646296875,119.94976996271203L117.646296875,125.63840498779393L117.7190078125,129.14680765473778L117.8644296875,129.3793697082209L117.93714062500001,124.35930501759437L118.0098515625,117.85987631336509L118.0098515625,113.96021909082756L118.3006953125,118.47609219254237L118.37340624999999,128.48550648075195L118.5915390625,130.7046787494872L119.2459375,126.97206233032412L119.6094921875,122.99438257249344L119.827625,121.74791646649587L120.0457578125,128.20740351465005L120.1911796875,125.56270428421377L120.26389062499999,123.4461526733943L120.6274453125,132.8425972573089L120.70015624999999,126.54588465759491L120.7728671875,131.55833571529843L121.2091328125,120.82054570364544L121.5726875,114.6163568760098L121.9362421875,109.97332006127482L122.5179296875,122.59902278703953L123.17232812499999,105.28377255022315L123.2450390625,114.95747031942311L123.31774999999999,117.11602635385916L123.60859375,125.74403345027673L123.6813046875,130.29540641790948L123.8267265625,129.2960570373912L124.19028125,131.61379123319432L124.48112499999999,130.30942270003447L124.48112499999999,129.52680158013857L124.917390625,121.48180784300676L125.208234375,98.2966067792773L125.4263671875,98.99060704895939L125.4263671875,99.40700721076864L125.499078125,109.89278725198521L125.5717890625,121.25537728762737L125.789921875,118.18181245394499L126.662453125,124.28402677126923L126.7351640625,129.27590940339005L127.09871875,133.19805615479473L127.17142968750001,132.4427259892592L127.31685156249999,99.31751727745008L127.31685156249999,79.4423920503646L127.825828125,104.23874409862697L128.0439609375,114.63259112197875L128.26209375,92.23692764049858L128.3348046875,101.17597272297539L128.407515625,112.07622903260639L128.48022656249998,111.13331180834035L128.91649218749998,113.74147595480751L129.0619140625,129.81823357899674L129.134625,124.30573054504208L129.280046875,121.214652846526L129.570890625,126.62982861783644L129.64360156249998,101.72716406545109L130.00715625,108.77558337535812L130.07986718749999,114.77508909447235L130.5161328125,121.92879973898846L130.5161328125,126.22102612569812L130.58884375,124.25489139138307L130.734265625,115.85267957545221L130.87968750000002,118.85625791137414L131.0978203125,124.7835497706064L131.6795078125,127.54737038665584L131.897640625,119.05489697651775L131.97035156249999,126.94938781337821L132.2611953125,119.61628363014815L132.479328125,126.00705059975462L132.69746093749998,125.6914084609837L132.8428828125,129.58157601018831L133.5699921875,122.47333925889271L133.7154140625,120.91360259795562L133.788125,118.9420382971854L133.93354687500002,124.27143457956859L134.1516796875,126.60439301463043L134.5879453125,114.38335982742018L134.8787890625,120.66429784672155L135.38776562500001,114.39465774965021L135.82403125000002,123.95085562718097L135.969453125,105.10970369754968L136.1875859375,119.87126526182988L136.4784296875,128.54420293336483L136.4784296875,133.7479655362858L136.551140625,112.299377639054L136.551140625,99.43022490071493L136.9146953125,110.77431841428847L137.714515625,125.05910708774022L137.7872265625,127.55123793101501L137.7872265625,129.04651643697989L138.0780703125,129.95866173956392L138.441625,134.0236549338402L138.5143359375,141.06544210145228L138.9506015625,130.07235410517066L139.0233125,132.92563614768576L139.0960234375,135.42192961592295L139.16873437499999,136.48160422973268L139.2414453125,138.5509745955527L139.31415625,143.38123684931162L139.96855468750002,133.95739117487716L140.2593984375,97.85404876328462L140.69566406250001,92.91664450607867L140.768375,75.64791937206064L141.05921874999999,94.90832730683015L141.05921874999999,106.46457206769183L141.2773515625,114.90087106730577L141.4227734375,115.4309917064584L141.64090625,112.36541760993461L141.7136171875,109.70426929993904L141.78632812499998,121.73375342435864L142.368015625,130.88064833517635L142.4407265625,125.74538444799214L142.5134375,132.74548436905164L142.5134375,136.94554432168732L142.94970312499998,125.18395747309575L143.6041015625,128.25937555851215L144.18578906250002,124.11530668799513L144.47663281250001,137.39659221973676L144.47663281250001,145.36536353878176L144.6220546875,141.3730175682851L145.2037421875,139.13524390147958L145.3491640625,123.99147487133556L145.4945859375,127.20431813181189L145.56729687499998,114.84130891192403L145.64000781250002,118.55567300976952L145.71271875,116.84157053102041L145.7854296875,119.1180191940264L145.9308515625,125.55721836913801L146.0035625,123.13615846637677L146.36711718749999,127.91766602600177L146.5125390625,134.25446708538868L146.80338281250002,139.29617200058797L146.87609375,135.75678681197735L146.9488046875,134.7402151644918L147.2396484375,140.04702050788785L147.748625,139.86267111472154L147.82133593749998,124.41132803624275L147.894046875,132.52264460769536L147.96675781250002,108.42252179541816L148.5484453125,118.85009332976205L148.98471093749998,117.32907462120929L149.8572421875,117.56358256667522L150.36621875,132.1020330609489L150.4389296875,132.61017211525152L150.6570625,134.23684594765692L150.6570625,135.2128502471002L150.7297734375,132.13566605580928L150.8751953125,133.86477878769088L151.0206171875,117.1025764755172L151.1660390625,116.13734439627046L151.23875,116.5697638656327L151.8204375,120.40598466106314L152.256703125,124.0678368424317L152.4748359375,126.56953587512108L152.547546875,129.84726119792418L152.7656796875,139.8444686419723L152.91110156250002,138.2535536467748L153.7836328125,131.1086731557337L153.85634375,136.74037646598487L154.1471875,134.66960400219313L154.2198984375,106.22434330178062L154.29260937499998,118.5914938714754L154.36532031250002,116.16422927947181L154.36532031250002,114.70787052426968L155.0924296875,129.11099337005584L155.3105625,130.88396424822108L155.60140625,126.31333904501767L155.6741171875,128.7677105389142L155.74682812499998,135.84174571247382L156.037671875,121.42229509670423L156.4739375,130.27723675672684L156.5466484375,132.0837774559526L156.76478125,131.1945737932127L157.05562500000002,122.07128084470551L157.27375781249998,125.12449610474113L157.34646875,135.88212941573076L157.491890625,134.87358451567556L157.7100234375,134.6070020860751L157.92815625,115.02288380561755L158.364421875,115.96082664698311L158.50984375000002,125.55797062808244L159.0188203125,131.81330994621155L159.09153125,133.70013070660548L159.1642421875,120.0750998941694L159.23695312499999,119.27917952726091L159.4550859375,119.40919019512503L160.03677343750002,120.38534274670498L160.25490625,116.4443558457333L160.9093046875,122.73338561906019L161.05472656249998,130.91830793753283L161.1274375,128.67786284370519L161.3455703125,138.88003201111985L161.563703125,128.36025051138557L161.70912500000003,121.13704968383678L161.7818359375,135.73915137195195L161.99996875000002,128.83422717636418L162.0726796875,131.78549349728578L162.29081250000002,116.17541471692789L162.5089453125,116.01596710386455L162.727078125,131.94006227329635L162.8725,124.95729762551343L163.0906328125,119.97251044394298L163.45418750000002,128.35742832665107L163.5268984375,133.8360690516329L163.890453125,129.27800776398757L164.03587499999998,132.38035810720584L164.1085859375,132.05192460782325L164.2540078125,137.00411503789167L164.83569531249998,150.25066608018653L164.90840624999998,141.5209458124883L165.1265390625,121.47825241311727L165.2719609375,133.9679663627917L165.344671875,132.02361289415205L165.8536484375,124.70342327652159L166.2899140625,127.33387067079929L166.508046875,128.32211590746704L166.9443125,128.45039776190487L166.9443125,128.52736687456758L167.16244531249998,141.91995474420816L167.23515625,136.99966302989193L167.7441328125,147.22176605676572L167.8895546875,135.97859282846514L167.96226562500001,135.9868084789743L168.0349765625,121.78049707904896L168.1076875,130.96225631954678L168.253109375,124.115879233579L168.834796875,134.8436396857075L169.2710625,143.17844621409523L169.2710625,148.17933013112784L169.4891953125,142.73728542281907L169.7800390625,139.61477633584911L170.6525703125,124.17101638286934L170.870703125,134.3014350904289L170.9434140625,137.27137820622616L171.6705234375,146.22615859422433L171.8159453125,145.62585751114014L171.9613671875,141.25101095138623L171.9613671875,138.6261030155339L172.034078125,132.72670101405402L172.25221093750002,125.21744013902847L172.324921875,126.68842069886507L172.3976328125,128.54856134789048L172.7611875,136.6309037590691L172.9793203125,139.3790198381005L173.197453125,133.82648304260465L173.488296875,129.8968935732304L173.63371874999999,134.81543112739334L173.779140625,122.3003382619201L174.21540625,126.48083344214176L174.28811718749998,136.86219913035723L174.4335390625,125.04339892745924L174.8698046875,125.00058636281011L175.0152265625,131.7666778832945L175.1606484375,122.43973644341665L175.23335937500002,134.15147283550624L175.5969140625,120.53987129808809L175.669625,138.17264418769685L175.74233593749997,118.2894483159454L176.25131249999998,112.23965541251472L176.833,128.51333148930394L176.978421875,131.3422526646831L177.269265625,139.9116712971436L178.141796875,142.11606353987412L178.21450781250002,136.52938282857968L178.21450781250002,133.17737440180306L178.5053515625,129.33398518577704L178.86890625,132.2065259642843L179.15975,132.7564790791112L179.37788281250002,132.82573105087337L179.5233046875,136.00950371416397L179.9595703125,127.01136515312868L180.17770312500002,131.06023997887058L180.39583593749998,135.5515698061744L181.050234375,146.0231974776857L181.19565625,138.86201554831362L181.55921093749998,126.95379499836946L181.77734375,131.325342494104L181.92276562499998,122.04958349971906L182.0681875,133.46971588254195L182.1408984375,131.82977669160837L182.504453125,136.0275133701809L182.5771640625,131.15627171305704L182.94071875,135.77395523789542L183.01342968749998,124.63081702363587L183.08614062499998,143.61362882284155L183.3042734375,137.01284292241064L183.4496953125,139.37977045289185L183.4496953125,140.79992697118055L183.52240625,136.00486152590028L183.7405390625,137.49788392821804L184.54035937499998,121.89014090554966L185.122046875,130.92001972017917L185.34017968749998,140.21754863739665L185.34017968749998,145.7960659877271L185.412890625,137.21023441620108L185.70373437499998,138.71687054408625L187.81235156250003,141.8539621440438L188.32132812499998,137.3082067106032L188.3940390625,113.66826022326131L188.75759375,126.41155891498008L188.8303046875,138.91051182058928L188.903015625,141.12701385439493L188.97572656250003,150.426780653466L189.0484375,144.25703438786817L189.1211484375,143.51616879970436L189.193859375,146.144996020227L189.9936796875,133.18459504767873L190.2118125,131.4559124006819L190.2845234375,139.55833782388433L190.42994531250002,142.69341144241235L190.5753671875,131.8084528723967L191.01163281249998,132.93942502925466L191.30247656249998,127.6578697305132L191.4478984375,134.43086344205025L191.4478984375,138.49465966897247L191.81145312499999,142.43300868710386L192.0295859375,134.12781291250124L192.6112734375,138.00081765047668L192.82940625,138.78499188074358L192.974828125,141.38209056999187L193.26567187499998,132.1579319542998L193.3383828125,131.3347471034227L193.7019375,129.8739949976537L193.847359375,131.88228284105173L194.0654921875,139.27879025865587L194.2109140625,127.44924179784141L194.42904687499998,126.43339337146432L194.79260156249998,125.98964305129483L195.010734375,115.00954603127738L195.15615625,124.43291586317733L195.5197109375,137.0873572416874L196.02868750000002,144.36835148643092L196.31953125,144.5261948605388L196.39224218750002,141.4339618831027L196.464953125,137.40535054360151L196.5376640625,138.12746539970826L196.6830859375,148.8615177649976L196.6830859375,155.3019491841712L197.41019531249998,142.48245422424782L197.41019531249998,134.7907572482938L197.48290625,121.4776042981863L197.7010390625,122.5642559459162L197.8464609375,125.21239120585973L198.791703125,137.91229885271855L199.00983593750001,144.3134832032763L199.1552578125,128.63706092263715L199.3006796875,131.53734547408834L199.5915234375,145.08364276844L199.664234375,137.8321103120737L200.245921875,141.58974275573874L200.3186328125,139.82997882397984L200.97303125,144.47297476474225L201.0457421875,143.83600266933993L201.118453125,137.15560767242215L201.409296875,129.48138359247133L201.4820078125,131.5108640430735L201.7728515625,142.1010967688268L201.84556249999997,152.48393778596213L201.84556249999997,158.71364239624336L202.35453906249998,154.9329054340621L202.42725,151.38912077922737L202.7908046875,146.69087304072195L202.863515625,147.2149095638959L203.29978125,125.67678415321092L203.3724921875,138.09957691042717L203.445203125,136.1543923750466L203.51791406249998,143.65611124638679L203.95417968750002,136.28723926849682L204.608578125,124.58453908068164L205.11755468750002,130.8508576756167L205.33568749999998,133.41812370135216L205.62653125,125.8553479746042L205.917375,123.07457876571081L206.062796875,128.22766043092219L206.28092968750002,131.916162731288L206.353640625,130.99164462864968L206.353640625,130.4369337670667L206.7171953125,129.40304070653778L207.517015625,132.36545285933005L207.66243749999998,140.66277683165202L207.8805703125,139.54786619948123L208.09870312500001,134.37377526277083L208.4622578125,139.24536362371822L208.60767968750002,151.3540398491228L208.82581249999998,144.62185502258055L208.971234375,146.27537613610693L209.0439453125,137.5223438173889L209.3347890625,134.71381290337453L209.4075,123.83874127792211L209.48021093749998,129.25833754455044L209.552921875,140.9240350235913L209.6256328125,127.92312329992137L209.69834375,134.25950906328762L209.69834375,138.06134052130736L209.98918749999999,141.0549054965395L210.0618984375,140.13050737012392L210.134609375,147.85184132436575L210.134609375,152.48464169691087L210.2073203125,151.4042880840732L210.28003124999998,142.77706836435993L210.35274218749998,142.71879643581303L210.42545312500002,120.49429818401504L210.64358593749998,126.62764828667332L210.86171875,143.11314399410745L210.93442968749997,151.22738199266897L211.007140625,155.26832192685924L211.73425,148.30290097831576L211.80696093749998,147.86407993101415L212.02509375,138.623437821323L212.3159375,113.943091571142L212.75220312500002,121.031298972357L213.40660156250001,128.30314609571192L213.4793125,126.89299904495243L214.061,128.841917174687L214.20642187500002,135.0696446394418L214.2791328125,135.25240415045585L214.2791328125,135.3620598570643L215.0062421875,137.36352656256273L215.8787734375,136.44128564034003L215.951484375,138.3576817459027L216.4604609375,139.26772557564394L216.75130468749998,131.62268031303773L217.0421484375,135.46315078055247L217.0421484375,137.76743306106133L217.18757031250001,129.90663641243373L217.26028125,128.68307443125278L217.26028125,127.9489372425442L217.7692578125,134.6553258426884L218.0601015625,143.4960361640734L218.859921875,139.9575755482365L219.07805468749999,142.80147463987677L219.2234765625,135.42597694537716L219.44160937499998,145.5770212476183L219.9505859375,140.07385196649264L220.02329687499997,141.17100092947706L220.02329687499997,141.8292903072677L220.314140625,134.35437705824458L220.9685390625,138.06896040569694L221.5502265625,140.36766449556748L221.768359375,127.25350402636359L221.9864921875,125.26912655086278L221.9864921875,124.07850006556231L222.204625,127.86166489246064L222.7136015625,132.92669419184585L222.7863125,132.4576935214203L223.00444531250002,143.94680071913183L223.07715625,138.95150719256134L223.9496875,127.95493084621134L224.095109375,140.99888663719545L224.6040859375,145.35161419253106L224.7495078125,140.29358794878542L225.40390625,130.8515824360629L225.69475,144.9773432675503L225.84017187499998,138.23362851868796L226.4945703125,139.9678432892349L226.6399921875,140.0134352041492L226.6399921875,140.0407903530978L226.712703125,143.35457797707386L226.78541406250002,132.24012673281675L226.858125,113.94879530467418L227.00354687499998,128.24191426395075L227.00354687499998,136.81778563951667L227.43981250000002,136.5976276111488L227.65794531249998,144.9702782322951L227.8033671875,129.26632357411654L228.60318750000002,124.08066616355647L229.11216406249997,137.87269957857038L229.4030078125,132.201703028523L229.6938515625,132.04196271001456L230.05740625,126.38046165256338L230.1301171875,129.64004011409662L230.63909375,140.25308077938237L230.78451562499998,135.94949348007623L231.14807031249998,138.84751989698825L231.22078125000002,145.55332361258345L231.2934921875,141.2265064127283L231.94789062499999,128.28493992813367L232.09331250000002,127.46894785068336L232.238734375,128.18458594652017L232.529578125,142.73432944931645L232.74771093750002,146.66715148079942L232.820421875,146.91850348428306L232.8931328125,151.4272077320711L233.1839765625,145.8091102161993L233.402109375,148.37444378758263L233.54753125000002,147.34776370100764L234.0565078125,143.53262321476262L234.12921875,142.96994536702024L234.2019296875,143.99756893638994L234.3473515625,142.32683874364378L234.71090625000002,142.23117397339834L234.92903906249998,152.13938802356535L235.36530468750001,155.0254395027204L235.728859375,155.39989050652898L235.9469921875,160.11122325088655L235.9469921875,162.9380228975011L236.09241406249998,149.16080442900443L236.310546875,147.78161050643658L236.52867968750002,160.27578497604213L236.74681249999998,155.43764664371506L236.8195234375,148.23938829881624L236.892234375,126.96807044495745L237.3285,128.5574954559524L237.473921875,135.7424471756972L237.764765625,131.05189273463063L237.91018749999998,129.42941536871416L238.055609375,142.14118376712696L238.2737421875,151.28355477757526L238.4191640625,153.29231101617722L238.71000781249998,146.8938308666251L238.85542968750002,145.79689439094676L238.928140625,144.25392098319213L239.0008515625,143.3642086592076L239.07356249999998,145.48084645406948L239.36440624999997,143.72700674765093L239.4371171875,134.08033017556113L239.4371171875,128.29232423230724L239.65525,133.81139558951602L240.091515625,132.72871858365522L240.30964843750002,137.27308043150416L240.6004921875,140.99204198775817L240.67320312500001,142.60846306736718L241.03675781249999,138.3573310861827L241.10946875,148.68199859241832L241.6184453125,143.05875819715544L242.0547109375,134.2046413656548L242.127421875,137.6447609328485L242.27284375,144.70479699648104L242.34555468750003,147.32242268161838L242.709109375,152.09724110090568L242.7818203125,153.26665584447287L243.0726640625,143.3676285447871L243.581640625,141.9262366509724L244.01790624999998,137.34045715694785L244.30875,138.9950856377705L244.3814609375,140.6079849736875L244.5268828125,145.0537182036034L245.035859375,136.04023443658815L245.472125,132.9336328341941L245.6902578125,144.82724999448794L245.9811015625,144.94998249257287L246.34465624999999,151.47388570907523L246.4173671875,138.07083088702785L246.63549999999998,140.07390542962534L246.78092187500002,148.17476443632046L246.99905468749998,145.19801628835305L247.071765625,144.5241870563806L247.4353203125,130.55135301272415L247.50803125,130.31658051872455L248.08971875,122.98541863506986L248.235140625,131.3500821289179L248.45327343749997,135.33279199400374L248.816828125,141.67993718708564L248.8895390625,135.29896176075516L249.32580468749998,138.81948721673578L249.4712265625,143.6888268667846L249.5439375,139.7676388907835L249.76207031250001,124.65314082795241L250.12562499999999,132.575642717989L250.41646875,132.30592106715116L250.48917968749998,140.22936331468557L250.56189062500002,147.86370842220452L250.7073125,139.56615301439973L250.78002343749998,151.5971416568149L251.0708671875,142.38134478619884L251.43442187500003,138.57031574579509L251.5071328125,142.58471963644624L251.7979765625,140.55695587287988L251.8706875,148.29858788050456L252.016109375,147.3452558842563L252.016109375,146.7732566865073L252.74321875,149.51497075624556L252.88864062500002,139.16853370257024L252.9613515625,142.85913987649732L253.0340625,147.08357168518882L253.10677343749998,144.0421480852056L253.470328125,143.13661422572665L254.1247265625,136.53624047757467L254.48828125,138.77665570055498L254.8518359375,141.06933804008395L254.9972578125,136.0199637009512L255.1426796875,136.769906203446L255.215390625,141.58414056371623L255.3608125,145.63140457835948L255.5789453125,152.26770038251374L255.5789453125,156.24947786500627L255.65165625,152.4177975032619L255.72436718749998,133.93509024621113L255.86978906250002,130.7622162342135L256.37876562499997,137.6828155923609L256.5241875,141.18741616696178L256.669609375,140.23841343003548L257.251296875,134.38402094206322L257.3240078125,132.97252596528853L257.4694296875,139.8888016138934L257.6148515625,139.87410669879608L257.90569531250003,141.88371215389068L258.1965390625,133.7263892545711L258.26925,146.20412626536296L258.63280468749997,146.68262111008275L258.8509375,152.6949004553563L258.9236484375,154.7605493245095L259.14178125,145.57896987747287L259.2144921875,153.0219406826308L259.28720312499996,149.1350110990752L259.578046875,140.3498916948237L259.72346875,139.599488598132L259.7961796875,139.4894348210409L259.868890625,143.13354896450215L259.9416015625,143.8333862337123L260.15973437499997,138.61662948367047L260.450578125,133.64080235690673L260.741421875,136.2126086473768L260.88684375,130.48211152664368L261.032265625,141.5512502555684L261.1776875,145.3684095564608L261.75937500000003,148.36284794836274L262.1229296875,153.5081525131321L262.1229296875,156.5953352519937L262.195640625,146.1506985659214L262.4137734375,143.9332773069287L262.486484375,157.20652206538585L262.63190625,143.23637879197025L262.92275,148.8240031817722L263.068171875,147.56680294055747L263.21359375000003,154.68472648958908L263.359015625,157.20683945722564L263.5771484375,145.95136934729157L264.0134140625,142.47196185898966L264.3042578125,151.5690440385898L264.7405234375,145.05618951846463L264.95865625,146.42727790371447L265.685765625,144.50358046336777L265.8311875,144.7080303995155L265.976609375,140.42240241972377L265.976609375,137.85102563184873L266.267453125,127.4235536556726L266.849140625,131.16283824918094L267.28540625,141.6572569143959L267.6489609375,150.71071541463746L267.9398046875,141.97000307189387L268.1579375,144.14916803096764L268.9577578125,144.32887994608302" style="fill: none;" fill="none"></path></g></g></g></g><g opacity="0.20000000298023224"><g><g><g><path stroke="rgb(255, 112, 67)" stroke-width="2px" d="M45.5897578125,-57.176995410919176L45.807890625,11.024233564649307L46.0260234375,4.379619186946314L46.1714453125,-9.090340300968705L46.24415625,-32.09257448741366L46.971265625,38.42270870753697L47.116687500000005,-8.012592209407245L47.3348203125,25.176584914071213L47.552953125,-0.08751237596783312L47.6256640625,33.48585710253036L47.9165078125,2.7556164877755407L48.352773437500005,40.39679192134312L48.643617187500006,33.756146921430314L48.934460937500006,17.104110919407447L49.51614843750001,0.8730770492553859L49.661570312500004,28.696616734095983L50.025124999999996,31.499834744589663L51.624765624999995,98.43763867923192L51.6974765625,26.02584569658552L52.2791640625,22.5496941076006L52.351875,42.860969249180386L52.4245859375,90.1719211087908L52.497296874999996,68.45632352011545L53.078984375,72.8548282623291L53.151695312499996,34.74160697937012L53.22440625,27.487693110874716L53.5879609375,75.08898324830193L54.1696484375,73.72221483639308L54.242359375,77.24527020590646L54.96946875,85.82906518254961L55.0421796875,63.022710486820756L55.114890625,45.66645104544503L55.405734375,66.58344393457686L55.623867187500004,86.64399704933167L55.696578125,19.40597790854318L55.842,77.01258093833923L56.0601328125,30.52243748528616L56.205554687500005,69.93969240461077L56.569109375000004,76.9568701008388L56.7872421875,22.218158029828743L57.005375,76.00902609961372L57.150796875000005,73.48535462106977L57.3689296875,82.13368299756732L57.441640625000005,107.70582571165903L57.5870625,81.79786743436541L57.6597734375,87.36077984809874L57.6597734375,87.36077984809874L57.87790625,93.89048383985246L58.2414609375,64.61320605550493L58.895859375,78.81776402609688L58.968570312500006,97.03950287955148L59.404835937499996,92.7094699042184L59.62296875,82.19114594323294L59.6956796875,96.1888776234218L59.768390624999995,86.30456873212542L59.84110156249999,75.70124426705497L59.9138125,26.282025617871966L60.350078124999996,54.67138770239694L60.4955,103.28581500462123L60.640921875,77.62952458245414L60.713632812499995,97.25046910694667L60.8590546875,67.56358564649308L61.004476562499995,52.12267503193448L61.004476562499995,52.12267503193448L61.1498984375,82.42957220213754L61.36803125,68.51422061647688L62.3132734375,68.89106342043195L62.4586953125,110.47994012015207L62.6041171875,11.820310886928013L62.6041171875,11.820310886928013L62.8949609375,76.61621685845512L63.1858046875,56.354807025364465L63.3312265625,78.83571925844466L63.4766484375,92.71660237993513L63.69478125,73.84047438485283L63.840203125,94.19187745503017L64.131046875,115.35101789474487L64.27646875,102.48947409084865L64.3491796875,102.59306554794311L64.3491796875,102.59306554794311L64.421890625,68.84837710380555L64.4946015625,121.09495564324516L64.712734375,87.08405529567175L64.85815625000001,28.707966673714765L64.9308671875,81.12978704043798L65.149,81.64847307886397L65.149,81.64847307886397L65.2217109375,103.71977963583811L65.3671328125,74.91521443230766L65.5125546875,70.58021973473684L65.6579765625,76.62970654078893L65.7306875,103.00107416970388L65.7306875,103.00107416970388L66.60321875,96.0443984740121L66.74864062500001,83.91380938802446L67.91201562500001,68.04546190806798L68.1301484375,78.76197566168649L68.202859375,78.92054920332771L68.42099218749999,103.28880754334585L68.7118359375,92.90210877009801L68.92996875,99.18578886577062L69.075390625,105.0195182813917L69.2935234375,94.61201128550938L69.36623437499999,104.11994253431048L69.58436718749999,84.10418446813311L69.657078125,92.68292469024658L70.1660546875,71.94509649004256L70.238765625,89.46360424859184L70.6023203125,109.7744452394758L70.67503125,98.55777437891278L71.0385859375,111.0383974633898L71.1840078125,99.18848680223738L71.3294296875,125.07351261956352L71.6202734375,94.79029216766357L71.692984375,124.38738396099635L71.9111171875,117.62406037875584L71.9111171875,117.62406037875584L72.12925,110.43813761029925L72.565515625,136.44553190231323L72.78364843749999,61.59556411743165L72.856359375,78.75130795887539L73.2199140625,115.87088234220232L73.292625,89.83674126625061L73.58346875,124.56257927213397L74.019734375,89.58925986426217L74.310578125,111.21996548652649L74.74684375,115.60651557922364L74.9649765625,127.44127748216901L75.1103984375,91.56349813188825L75.183109375,123.40564519473484L75.32853125,107.8368461894989L75.47395312500001,89.33644461086817L75.5466640625,92.03602464812143L75.6920859375,116.908936655862L75.764796875,103.56430717059544L76.05564062500001,107.80450196266175L76.2737734375,84.47502668925694L76.4191953125,87.19594213213239L76.49190625,106.0927698121752L76.8554609375,100.34185464177813L77.0008828125,122.38843011447362L77.509859375,102.90537495204381L78.3096796875,86.96951703889029L78.382390625,57.590539454051424L78.52781250000001,69.20909431048801L78.52781250000001,69.20909431048801L78.6005234375,78.32664655685426L79.25492187500001,81.9903202356611L79.69118750000001,99.06898682321821L79.69118750000001,99.06898682321821L79.9093203125,88.20543553216118L79.98203125,92.00065687179566L80.2001640625,120.50823198863438L81.14540625000001,82.11960411071777L81.2181171875,126.16986716951642L81.58167187500001,115.70519183022635L81.9452265625,104.9384406389509L82.0906484375,120.62619693483624L82.163359375,123.47962137222291L82.89046875,112.35150174822127L83.1086015625,126.13966268539428L83.3994453125,136.7086582347325L83.617578125,129.09114315850394L83.98113281250001,85.86950321878706L84.199265625,116.77323355266026L84.2719765625,115.30333884511676L84.56282031250001,108.02546916144235L84.7082421875,113.01508558137076L84.780953125,67.64670999935694L84.926375,143.63788940429689L84.926375,143.63788940429689L85.5807734375,91.44193593706403L86.1624609375,82.17430709838868L86.6714375,105.5967681476048L86.81685937499999,72.80893233163016L86.81685937499999,72.80893233163016L86.8895703125,76.03586591584343L86.96228124999999,118.74432422774179L87.7621015625,125.4971971825191L87.9075234375,117.46601402010236L88.0529453125,120.70000255312237L88.19836718750001,122.43310111999511L88.271078125,115.02631969043188L88.4165,99.95735217911857L88.561921875,104.77324629919869L88.70734374999999,92.2474405315944L89.579875,61.75796748842512L89.6525859375,104.44192729677472L90.016140625,128.10176023891995L90.306984375,127.21719370160784L90.3796953125,114.679526316779L90.45240625,95.38817969730923L90.5251171875,31.12624807085308L90.888671875,111.38748563357763L91.179515625,134.41516415187291L91.68849218749999,131.0780648286002L91.761203125,118.53504808698382L91.83391406249999,139.00328421047755L92.7064453125,102.7949146107265L92.77915625,141.61316561290195L92.85186718749999,102.5959340436118L93.36084375,117.88205442973546L93.36084375,117.88205442973546L93.7243984375,104.12757118225097L93.94253125,95.3605491065979L94.087953125,41.742224927629735L94.378796875,129.99023823874336L94.669640625,125.09053752899169L94.669640625,125.09053752899169L94.8877734375,98.1284458569118L95.1786171875,108.19802855764117L95.4694609375,104.2831211744036L95.54217187500001,122.01499849455698L95.68759375,111.31906038284302L95.833015625,74.85638701302665L95.9784375,127.12416140965053L96.12385937500001,102.92212076459612L96.26928125,126.42170558384487L96.414703125,106.60092769622803L96.70554687500001,131.9604761178153L96.996390625,135.68069792475018L97.1418125,74.51250865118844L97.21452343749999,99.58925441060747L97.5053671875,152.64284156663078L97.79621093749999,126.13997279303415L97.9416328125,135.69305571419852L98.01434375000001,122.0162079143524L98.01434375000001,122.0162079143524L98.0870546875,123.51156245912824L98.2324765625,92.70233742850166L98.45060937500001,111.62000434194293L98.8141640625,95.4690867805481L99.17771875000001,90.69586347171239L99.32314062500001,138.97859964234488L99.3958515625,125.13148724283491L99.4685625,120.12543511799403L99.6866953125,141.54844614846365L99.75940625000001,107.86793448039464L99.8321171875,117.37828456878663L99.8321171875,117.37828456878663L100.05024999999999,131.8863603918893L100.5592265625,135.54049826077053L100.8500703125,107.12849831853593L101.068203125,119.61555613654001L101.35904687499999,117.79364274161202L101.35904687499999,117.79364274161202L101.7226015625,137.8460090146746L101.94073437499999,142.5248665687016L102.377,66.77862568310329L102.74055468750001,44.69835701533725L102.8859765625,137.35248821122306L103.24953124999999,142.99525334221977L103.394953125,127.80833639008658L103.540375,108.21579772540501L103.685796875,107.51199293136597L104.1947734375,127.87916497503008L104.267484375,114.78524201120649L104.4856171875,143.26610135487147L104.558328125,103.30339810780117L104.558328125,103.30339810780117L105.79441406250001,126.94228327887399L106.012546875,118.87140633855547L106.30339062499999,107.35982311248779L106.52152343750001,71.86684082712445L106.6669453125,75.78022868292672L106.73965625,85.76293472834996L106.8123671875,118.60900875908987L107.0305,110.09714324951172L107.10321093750001,125.25982528959003L107.175921875,145.3369691630772L107.32134375,105.49796785354614L107.8303203125,134.95444133758545L107.90303125,132.4640599141802L108.339296875,110.43007481166295L108.41200781250001,117.84833022390092L108.41200781250001,117.84833022390092L108.920984375,138.84046219417027L109.06640625,51.40282216753279L109.211828125,133.44607777731758L109.35725,112.97146894182478L109.502671875,128.0887977395739L109.64809375,122.7966403062003L109.9389375,131.05809389659336L110.01164843749999,77.81949652263097L110.1570703125,116.67437123707361L110.22978125,153.16672190802439L110.375203125,135.5688886151995L110.520625,110.00879358291625L111.24773437500001,108.84663419178554L111.684,109.12442861557007L111.684,109.12442861557007L111.82942187500001,142.09107249668665L111.82942187500001,142.09107249668665L111.9021328125,119.29547853606087L111.97484375,135.3561547742571L112.120265625,135.64061651229858L112.2656875,128.87180402483258L112.4838203125,123.14679834774563L112.55653125,119.70252582413809L113.0655078125,93.43572649138315L113.2109296875,138.25933598245894L113.50177343749999,93.00407216208322L113.50177343749999,93.00407216208322L114.156171875,149.16388350350516L114.30159375000001,150.96447699819294L114.30159375000001,150.96447699819294L114.447015625,102.8957926259722L114.5197265625,29.702109745570596L114.737859375,101.13121813365392L115.028703125,136.68064000947135L115.174125,131.6239473070417L115.2468359375,97.19037024634224L115.319546875,108.61890664645604L115.46496875000001,124.84714954784938L115.8285234375,118.42896026338849L115.901234375,132.85144637789045L115.97394531249999,122.43586107798986L116.04665625000001,126.15429976599557L116.19207812500001,96.06914506367275L116.2647890625,104.77419212750026L116.5556328125,129.67916926520212L116.7010546875,119.02191708156042L117.21003125000001,121.6965334538051L117.35545312500001,81.51731305258613L117.4281640625,119.61400559834071L117.646296875,134.1713575254168L117.646296875,134.1713575254168L117.7190078125,134.40941165515355L117.8644296875,129.7282127884456L117.93714062500001,116.82920798165458L118.0098515625,108.11073325702122L118.0098515625,108.11073325702122L118.3006953125,125.24990184511456L118.37340624999999,143.49962791306632L118.5915390625,134.03343715259007L119.2459375,121.37313770157951L119.6094921875,117.02786293574742L119.827625,119.87821730749948L120.0457578125,137.89663408688136L120.1911796875,121.59565543855939L120.26389062499999,120.2713252571651L120.6274453125,146.9372641331809L120.70015624999999,117.10081575802394L120.7728671875,139.07701230185373L121.2091328125,104.71386068616594L121.5726875,105.31007363455636L121.9362421875,103.00876483917237L122.5179296875,141.53757687568665L123.17232812499999,79.3108971949986L123.2450390625,129.468016973223L123.31774999999999,120.35386040551322L123.60859375,138.68604409490314L123.6813046875,137.12246586935862L123.8267265625,127.79703296661376L124.19028125,135.09039252689905L124.48112499999999,128.3528699002947L124.48112499999999,128.3528699002947L124.917390625,109.41431723730905L125.208234375,63.51880518368313L125.4263671875,100.0316074534825L125.4263671875,100.0316074534825L125.499078125,125.62145731381008L125.5717890625,138.2992623410906L125.789921875,113.57146520342145L126.662453125,133.4373482472556L126.7351640625,136.7637333515712L127.09871875,139.08127628190178L127.17142968750001,131.3097307409559L127.31685156249999,49.62970420973642L127.31685156249999,49.62970420973642L127.825828125,141.43327217102052L128.0439609375,130.22336165700642L128.26209375,58.64343241827828L128.3348046875,114.58454034669059L128.407515625,128.42661349705287L128.48022656249998,109.71893597194128L128.91649218749998,117.65372217450823L129.0619140625,153.9333700152806L129.134625,116.0369759941101L129.280046875,116.57803629875184L129.570890625,134.75259227480205L129.64360156249998,64.37316723687309L130.00715625,119.34821234021868L130.07986718749999,123.77434767314367L130.5161328125,132.65936570576258L130.5161328125,132.65936570576258L130.58884375,121.30568928991045L130.734265625,103.24936185155596L130.87968750000002,123.36162541525704L131.0978203125,133.67448755945478L131.6795078125,131.69310131073L131.897640625,106.31618686131068L131.97035156249999,138.79112406866892L132.2611953125,108.61662735530308L132.479328125,135.59320105416435L132.69746093749998,125.21794525282723L132.8428828125,135.4168273339953L133.5699921875,111.8109841319493L133.7154140625,118.57399760654994L133.788125,115.9846918460301L133.93354687500002,132.2655290031433L134.1516796875,130.10383066722324L134.5879453125,96.0518100466047L134.8787890625,130.08570487567357L135.38776562500001,104.99019760404315L135.82403125000002,138.2851524434771L135.969453125,76.84797580310277L136.1875859375,142.0136076082502L136.4784296875,141.5536094406673L136.4784296875,141.5536094406673L136.551140625,80.12649579320636L136.551140625,80.12649579320636L136.9146953125,127.7904586846488L137.714515625,146.48629009791782L137.7872265625,131.2894341959272L137.7872265625,131.2894341959272L138.0780703125,131.32687969344002L138.441625,140.1211447252546L138.5143359375,151.6281228528704L138.9506015625,113.58272211074829L139.0233125,137.20555921145848L139.0960234375,139.16636981827872L139.16873437499999,138.0711161504473L139.2414453125,141.65503014428276L139.31415625,150.62663022994997L139.96855468750002,119.82162266322544L140.2593984375,43.699035145895834L140.69566406250001,85.51053812026977L140.768375,49.74483167103358L141.05921874999999,123.79893920898436L141.05921874999999,123.79893920898436L141.2773515625,127.5553195667267L141.4227734375,116.22617266518729L141.64090625,107.76705646514893L141.7136171875,105.71254683494568L141.78632812499998,139.77797961098807L142.368015625,144.60099070140294L142.4407265625,118.04248861721584L142.5134375,143.24563425064088L142.5134375,143.24563425064088L142.94970312499998,107.5415772002084L143.6041015625,132.87250268663678L144.18578906250002,117.89920338221958L144.47663281250001,157.31852051734924L144.47663281250001,157.31852051734924L144.6220546875,135.3844986125401L145.2037421875,135.77858340127128L145.3491640625,101.27582132611956L145.4945859375,132.02358302252634L145.56729687499998,96.29679508209229L145.64000781250002,124.12721915653773L145.71271875,114.27041681289674L145.7854296875,122.5326921885354L145.9308515625,135.21601713180542L146.0035625,119.50456861223495L146.36711718749999,135.08992736543928L146.5125390625,143.759668674469L146.80338281250002,146.85872937338692L146.87609375,130.44770902906146L146.9488046875,133.21535769326346L147.2396484375,148.0072285229819L147.748625,139.5861470249721L147.82133593749998,101.23431341852461L147.894046875,144.68961946487428L147.96675781250002,72.27233757700239L148.5484453125,134.4914506312779L148.98471093749998,115.04754655838013L149.8572421875,117.91534448487418L150.36621875,153.90970880235943L150.4389296875,133.37238069670542L150.6570625,136.67685669626508L150.6570625,136.67685669626508L150.7297734375,127.51988976887294L150.8751953125,136.4584478855133L151.0206171875,91.95927300725664L151.1660390625,114.68949627740042L151.23875,117.21839306967598L151.8204375,126.1603158542088L152.256703125,129.5606151144845L152.4748359375,130.3220844241551L152.547546875,134.76384918212892L152.7656796875,154.84027980804444L152.91110156250002,135.8671811539786L153.7836328125,120.39135241917201L153.85634375,145.18793143136162L154.1471875,131.56344530650549L154.2198984375,63.55645225116186L154.29260937499998,137.14221972601754L154.36532031250002,112.52333239146641L154.36532031250002,112.52333239146641L155.0924296875,150.7156776387351L155.3105625,133.54342056546892L155.60140625,119.45740124021256L155.6741171875,132.449267779759L155.74682812499998,146.45279847281319L156.037671875,99.79311917304993L156.4739375,143.55964924676078L156.5466484375,134.79358850479127L156.76478125,129.86076829910277L157.05562500000002,108.38634142194475L157.27375781249998,129.70431899479456L157.34646875,152.01857938221522L157.491890625,133.36076716559273L157.7100234375,134.20712844167437L157.92815625,85.64670638493129L158.364421875,117.36774090903145L158.50984375000002,139.95368659973144L159.0188203125,141.19631892340524L159.09153125,136.5303618471963L159.1642421875,99.6375536755153L159.23695312499999,118.0852989768982L159.4550859375,119.60420619692121L160.03677343750002,121.84957157407489L160.25490625,110.53287549427577L160.9093046875,132.16693027905055L161.05472656249998,143.19569141524178L161.1274375,125.31719520296369L161.3455703125,154.1832857622419L161.563703125,112.58057826178414L161.70912500000003,110.3022484425136L161.7818359375,157.64230390412467L161.99996875000002,118.47684088298253L162.0726796875,136.21239297866822L162.29081250000002,92.76029654639107L162.5089453125,115.7767956842695L162.727078125,155.82620502744402L162.8725,114.48315065383912L163.0906328125,112.49532967158726L163.45418750000002,140.93480515071323L163.5268984375,142.05403013910566L163.890453125,122.44091583251952L164.03587499999998,137.03388362203327L164.1085859375,131.55927435874938L164.2540078125,144.43240068299428L164.83569531249998,170.1204926436288L164.90840624999998,128.426365410941L165.1265390625,91.41421231406076L165.2719609375,152.7025372873034L165.344671875,129.10708269119263L165.8536484375,113.72313885007586L166.2899140625,131.27954176221576L166.508046875,129.8044837624686L166.9443125,128.64282054356167L166.9443125,128.64282054356167L167.16244531249998,162.008836548669L167.23515625,129.61922545841762L167.7441328125,162.5549205970764L167.8895546875,119.11383298601424L167.96226562500001,135.99913195473806L168.0349765625,100.47102997916085L168.1076875,144.7348951802935L168.253109375,113.84631360462734L168.834796875,150.93528036390032L169.2710625,155.6806560066768L169.2710625,155.6806560066768L169.4891953125,134.57421836035593L169.7800390625,134.9310127053942L170.6525703125,101.00537645339966L170.870703125,149.49706315176826L170.9434140625,141.72629287992206L171.6705234375,159.65832917622157L171.8159453125,144.72540588651384L171.9613671875,134.68874111175538L171.9613671875,134.68874111175538L172.034078125,123.87759801183427L172.25221093750002,113.95354882649013L172.324921875,128.89489153862L172.3976328125,131.33877232142856L172.7611875,148.75441737583705L172.9793203125,143.5011939566476L173.197453125,125.49767784936088L173.488296875,124.00250936916896L173.63371874999999,142.19323745863778L173.779140625,103.52769896371024L174.21540625,132.75157621247428L174.28811718749998,152.4342476626805L174.4335390625,107.31519862311227L174.8698046875,124.93636751583644L175.0152265625,141.91581516402107L175.1606484375,108.44932428359985L175.23335937500002,151.71907742364067L175.5969140625,100.1224689919608L175.669625,164.62180352210999L175.74233593749997,88.46465450831822L176.25131249999998,103.16496605736869L176.833,152.92384560448784L176.978421875,135.5856344277518L177.269265625,152.76579924583436L178.141796875,145.4226519039699L178.21450781250002,128.1493617616381L178.21450781250002,128.1493617616381L178.5053515625,123.56890136173793L178.86890625,136.5153371320452L179.15975,133.5814087513515L179.37788281250002,132.9296090085166L179.5233046875,140.7851627090999L179.9595703125,113.51415731157576L180.17770312500002,137.13355221748353L180.39583593749998,142.28856454713005L181.050234375,161.73063898495266L181.19565625,128.12024265425546L181.55921093749998,109.09146417345319L181.77734375,137.88266373770577L181.92276562499998,108.13594500814166L182.0681875,150.59991445677622L182.1408984375,129.36986790520803L182.504453125,142.32411838803972L182.5771640625,123.84940922737121L182.94071875,142.700480525153L183.01342968749998,107.91610970224653L183.08614062499998,172.08784652165005L183.3042734375,127.11166407176427L183.4496953125,142.9301617486136L183.4496953125,142.9301617486136L183.52240625,128.81226335797993L183.7405390625,139.7374175316947L184.54035937499998,98.47852637154716L185.122046875,144.4648379421234L185.34017968749998,154.16384201322282L185.34017968749998,154.16384201322282L185.412890625,124.331487058912L185.70373437499998,140.97682473591397L187.81235156250003,146.5595995439802L188.32132812499998,130.48957356044224L188.3940390625,78.20834049224852L188.75759375,145.52650695255824L188.8303046875,157.65894117900302L188.903015625,144.4517669051034L188.97572656250003,164.3764308520726L189.0484375,135.00241498947145L189.1211484375,142.40487041745865L189.193859375,150.088236851011L189.9936796875,113.74399358885628L190.2118125,128.86288843018667L190.2845234375,151.7119759586879L190.42994531250002,147.39602187020438L190.5753671875,115.48101501737322L191.01163281249998,134.63588326454163L191.30247656249998,119.73553678240094L191.4478984375,144.59035400935582L191.4478984375,144.59035400935582L191.81145312499999,148.34053221430096L192.0295859375,121.67001925059728L192.6112734375,143.81032475743976L192.82940625,139.96125322614398L192.974828125,145.2777386038644L193.26567187499998,118.3216940307617L193.3383828125,130.09996982710703L193.7019375,127.68286683900016L193.847359375,134.89471460614885L194.0654921875,150.3735513850621L194.2109140625,109.7049191066197L194.42904687499998,124.90962073189871L194.79260156249998,125.32401757104057L195.010734375,98.53940050125122L195.15615625,138.5679706110273L195.5197109375,156.0690193094526L196.02868750000002,155.28984285354613L196.31953125,144.7629599217006L196.39224218750002,136.7956124169486L196.464953125,131.36243353434972L196.5376640625,139.2106376838684L196.6830859375,164.9625963129316L196.6830859375,164.9625963129316L197.41019531249998,123.2532117843628L197.41019531249998,123.2532117843628L197.48290625,101.50787487302507L197.7010390625,124.19423341751099L197.8464609375,129.18459409577505L198.791703125,156.96216032300677L199.00983593750001,153.9152597291129L199.1552578125,105.12242750167847L199.3006796875,135.88777230126516L199.5915234375,165.40308870996748L199.664234375,126.95481162752424L200.245921875,147.2261914212363L200.3186328125,137.19033292634145L200.97303125,151.4374686758859L201.0457421875,142.8805445262364L201.118453125,127.13501517704555L201.409296875,117.97004747254508L201.4820078125,134.5550847189767L201.7728515625,157.98644585745674L201.84556249999997,168.05819931166513L201.84556249999997,168.05819931166513L202.35453906249998,149.26179999079022L202.42725,146.07344379697525L202.7908046875,139.64350143296377L202.863515625,148.0009643486568L203.29978125,93.36959603718348L203.3724921875,156.73376604625156L203.445203125,133.2366155719757L203.51791406249998,154.90868955339704L203.95417968750002,125.2339313016619L204.608578125,107.03048879895891L205.11755468750002,140.25033556801932L205.33568749999998,137.26902273995535L205.62653125,114.51118438448225L205.917375,118.90342495237078L206.062796875,135.9572829287393L206.28092968750002,137.4489161818368L206.353640625,129.6048674746922L206.353640625,129.6048674746922L206.7171953125,127.85220111574445L207.517015625,136.8090710885184L207.66243749999998,153.10876279013496L207.8805703125,137.87550025122505L208.09870312500001,126.61263885770526L208.4622578125,146.55274616513933L208.60767968750002,169.5170541872297L208.82581249999998,134.52357778276718L208.971234375,148.75565780639647L209.0439453125,124.39279533931187L209.3347890625,130.501016532353L209.4075,107.52613383974348L209.48021093749998,137.38773194449288L209.552921875,158.42258124215263L209.6256328125,108.4217557144165L209.69834375,143.76408770833697L209.69834375,143.76408770833697L209.98918749999999,145.54525295938765L210.0618984375,138.74391018050056L210.134609375,159.4338422557286L210.134609375,159.4338422557286L210.2073203125,149.78375766481673L210.28003124999998,129.83623878479003L210.35274218749998,142.63138854299274L210.42545312500002,87.15755080631801L210.64358593749998,135.82767344066076L210.86171875,167.84138755525862L210.93442968749997,163.39873899051122L211.007140625,161.32973182814462L211.73425,137.85476955550058L211.80696093749998,147.20584836006165L212.02509375,124.76247465678624L212.3159375,76.92257219587053L212.75220312500002,131.6636100741795L213.40660156250001,139.2109167807443L213.4793125,124.77777846881321L214.061,131.76529436928885L214.20642187500002,144.411235836574L214.2791328125,135.52654341697692L214.2791328125,135.52654341697692L215.0062421875,140.36572662081036L215.8787734375,135.05792425700596L215.951484375,141.23227590424673L216.4604609375,140.63279132025582L216.75130468749998,120.15511241912841L217.0421484375,141.2238564818246L217.0421484375,141.2238564818246L217.18757031250001,118.11544143949237L217.26028125,126.84773145948138L217.26028125,126.84773145948138L217.7692578125,144.71490874290467L218.0601015625,156.75710164615086L218.859921875,134.64988462448122L219.07805468749999,147.0673232773372L219.2234765625,124.36273040362767L219.44160937499998,160.80358770098005L219.9505859375,131.81909804480415L220.02329687499997,142.8167243739537L220.02329687499997,142.8167243739537L220.314140625,123.14200718470983L220.9685390625,143.64083542687553L221.5502265625,143.81572063037328L221.768359375,107.58226332255772L221.9864921875,122.2925603376116L221.9864921875,122.2925603376116L222.204625,133.53641213280815L222.7136015625,140.52423814092364L222.7863125,131.75419251578194L223.00444531250002,161.1804615156991L223.07715625,131.4585669027056L223.9496875,111.46006632668632L224.095109375,160.56482032367163L224.6040859375,151.8807055255345L224.7495078125,132.70654858316692L225.40390625,116.68857416697911L225.69475,166.1659845147814L225.84017187499998,128.11805639539446L226.4945703125,142.56916544505526L226.6399921875,140.08182307652066L226.6399921875,140.08182307652066L226.712703125,148.32525941303797L226.78541406250002,115.5684498664311L226.858125,86.51179816246032L227.00354687499998,149.6815927028656L227.00354687499998,149.6815927028656L227.43981250000002,136.26739056859697L227.65794531249998,157.52925416401453L227.8033671875,105.71039158684867L228.60318750000002,116.30218004771642L229.11216406249997,158.56074970109123L229.4030078125,123.69520820345197L229.6938515625,131.80235223225185L230.05740625,117.88821006638663L230.1301171875,134.52940780639648L230.63909375,156.17264177731104L230.78451562499998,129.49411253111703L231.14807031249998,143.19455952235631L231.22078125000002,155.6120291859763L231.2934921875,134.73628061294556L231.94789062499999,108.87259020124164L232.09331250000002,126.24495973450797L232.238734375,129.25804309027535L232.529578125,164.55894470351083L232.74771093750002,152.56638452802386L232.820421875,147.2955314895085L232.8931328125,158.19026410375324L233.1839765625,137.38196394239154L233.402109375,152.2224441446577L233.54753125000002,145.80774357114518L234.0565078125,137.80991248539516L234.12921875,142.12592859540666L234.2019296875,145.5390042904445L234.3473515625,139.82074345452446L234.71090625000002,142.08767681803022L234.92903906249998,167.00170909881592L235.36530468750001,159.354516721453L235.728859375,155.96156701224191L235.9469921875,167.17822236742293L235.9469921875,167.17822236742293L236.09241406249998,128.4949767262595L236.310546875,145.71281962258476L236.52867968750002,179.01704668045045L236.74681249999998,148.18043914522443L236.8195234375,137.44200078146798L236.892234375,95.06109366416932L237.3285,130.9416329724448L237.473921875,146.51987475531442L237.764765625,124.01606107303076L237.91018749999998,126.99569931983947L238.055609375,161.2088363647461L238.2737421875,164.99711129324777L238.4191640625,156.3054453740801L238.71000781249998,137.29611064229692L238.85542968750002,144.1514896774292L238.928140625,141.93946087156024L239.0008515625,142.02964017323086L239.07356249999998,148.6558031463623L239.36440624999997,141.09624718802314L239.4371171875,119.6103153174264L239.4371171875,119.6103153174264L239.65525,142.09000262532916L240.091515625,131.10470307486398L240.30964843750002,144.0896232032776L240.6004921875,146.57048432213918L240.67320312500001,145.03309468678066L241.03675781249999,131.98063311440603L241.10946875,164.16899985177176L241.6184453125,134.62389760426112L242.0547109375,120.92346611840384L242.127421875,142.8049402836391L242.27284375,155.29485109192984L242.34555468750003,151.24886120932442L242.709109375,159.2594687298366L242.7818203125,155.02077795982362L243.0726640625,128.51908759525844L243.581640625,139.76414881025042L244.01790624999998,130.461787915911L244.30875,141.47702835900444L244.3814609375,143.02733397756305L244.5268828125,151.72231804847718L245.035859375,122.52000878606523L245.472125,128.27373043060302L245.6902578125,162.66767573492868L245.9811015625,145.13408123970032L246.34465624999999,161.25974053382873L246.4173671875,117.96624865395682L246.63549999999998,143.07851724352156L246.78092187500002,160.32605294636318L246.99905468749998,140.73289406640188L247.071765625,143.51344320842196L247.4353203125,109.59210194723947L247.50803125,129.96442177772522L248.08971875,111.98867580958776L248.235140625,143.89707736968995L248.45327343749997,141.30685679163253L248.816828125,151.20065497670856L248.8895390625,125.72749862125941L249.32580468749998,144.1002754007067L249.4712265625,150.99283634185792L249.5439375,133.8858569267818L249.76207031250001,101.9813937337058L250.12562499999999,144.45939555304392L250.41646875,131.90133859089443L250.48917968749998,152.1145266859872L250.56189062500002,159.31522608348303L250.7073125,127.11981990269251L250.78002343749998,169.64362462043763L251.0708671875,128.55764948027473L251.43442187500003,132.85377218518937L251.5071328125,148.606325472423L251.7979765625,137.51531022753034L251.8706875,159.91103589194162L252.016109375,145.91525788988386L252.016109375,145.91525788988386L252.74321875,153.62754186085292L252.88864062500002,123.64887812205723L252.9613515625,148.39504913738796L253.0340625,153.42021939822607L253.10677343749998,139.4800126852308L253.470328125,141.77831343650817L254.1247265625,126.63567985534667L254.48828125,142.13727853502547L254.8518359375,144.50836154937744L254.9972578125,128.44590219225202L255.1426796875,137.8948199571882L255.215390625,148.8054921041216L255.3608125,151.70230060032435L255.5789453125,162.22214408874513L255.5789453125,162.22214408874513L255.65165625,146.6702769606454L255.72436718749998,106.21102936063494L255.86978906250002,126.00290521621704L256.37876562499997,148.063714629582L256.5241875,146.44431702886308L256.669609375,138.814909324646L257.251296875,125.60243221010481L257.3240078125,130.85528350012643L257.4694296875,150.2632150868007L257.6148515625,139.85206432615007L257.90569531250003,144.8981203365326L258.1965390625,121.49040490559169L258.26925,164.9207317815508L258.63280468749997,147.4003633771624L258.8509375,161.7133194732666L258.9236484375,157.85902262823922L259.14178125,131.8066007069179L259.2144921875,164.18639689036777L259.28720312499996,143.3046167237418L259.578046875,127.17221258844648L259.72346875,138.4738839530945L259.7961796875,139.32435415540422L259.868890625,148.59972017969403L259.9416015625,144.88314213752747L260.15973437499997,130.7914943586077L260.450578125,126.17706166676112L260.741421875,140.07031808308193L260.88684375,121.88636584554399L261.032265625,158.15495834895543L261.1776875,151.09414850779942L261.75937500000003,152.85450553621564L262.1229296875,161.22610936028616L262.1229296875,161.22610936028616L262.195640625,130.48374353681294L262.4137734375,140.6071454184396L262.486484375,177.1163892030716L262.63190625,122.28116388184684L262.92275,157.20543976647514L263.068171875,145.68100257873536L263.21359375000003,165.3616118131365L263.359015625,160.99000890868052L263.5771484375,129.0681641823905L264.0134140625,137.25285062653677L264.3042578125,165.21466730798994L264.7405234375,135.28690773827688L264.95865625,148.4839104815892L265.685765625,141.61803430284772L265.8311875,145.0147053037371L265.976609375,133.99396045003618L265.976609375,133.99396045003618L266.267453125,111.78234569140844L266.849140625,136.77176513944352L267.28540625,157.39888491221836L267.6489609375,164.29090316499983L267.9398046875,128.8589345577785L268.1579375,147.41791546957833L268.9577578125,144.5984478187561" style="fill: none;" fill="none"></path></g></g></g></g></g></g><g transform="translate(39, 177)" clip-path="url(#clip_1)"><clipPath id="clip_1"><rect width="290" height="22"></rect></clipPath><g><g><line x1="0" y1="0" x2="0" y2="5" style="visibility: inherit;" fill="rgb(0, 0, 0)" stroke="rgb(204, 204, 204)" stroke-width="1px"></line><line x1="36.35546875" y1="0" x2="36.35546875" y2="5" style="visibility: inherit;" fill="rgb(0, 0, 0)" stroke="rgb(204, 204, 204)" stroke-width="1px"></line><line x1="72.7109375" y1="0" x2="72.7109375" y2="5" style="visibility: inherit;" fill="rgb(0, 0, 0)" stroke="rgb(204, 204, 204)" stroke-width="1px"></line><line x1="109.06640625" y1="0" x2="109.06640625" y2="5" style="visibility: inherit;" fill="rgb(0, 0, 0)" stroke="rgb(204, 204, 204)" stroke-width="1px"></line><line x1="145.421875" y1="0" x2="145.421875" y2="5" style="visibility: inherit;" fill="rgb(0, 0, 0)" stroke="rgb(204, 204, 204)" stroke-width="1px"></line><line x1="181.77734375" y1="0" x2="181.77734375" y2="5" style="visibility: inherit;" fill="rgb(0, 0, 0)" stroke="rgb(204, 204, 204)" stroke-width="1px"></line><line x1="218.1328125" y1="0" x2="218.1328125" y2="5" style="visibility: inherit;" fill="rgb(0, 0, 0)" stroke="rgb(204, 204, 204)" stroke-width="1px"></line><line x1="254.48828125" y1="0" x2="254.48828125" y2="5" style="visibility: inherit;" fill="rgb(0, 0, 0)" stroke="rgb(204, 204, 204)" stroke-width="1px"></line><line x1="290.84375" y1="0" x2="290.84375" y2="5" style="visibility: inherit;" fill="rgb(0, 0, 0)" stroke="rgb(204, 204, 204)" stroke-width="1px"></line></g><g transform="translate(0, 8)"><text x="0" y="0" dx="0em" dy="0.95em" style="text-anchor: middle; visibility: hidden; font-family: &quot;Helvetica Neue&quot;, sans-serif; font-size: 12px; font-weight: 200;" fill="rgb(50, 49, 63)" stroke="none" stroke-width="1px">-500</text><text x="36.35546875" y="0" dx="0em" dy="0.95em" style="text-anchor: middle; visibility: inherit; font-family: &quot;Helvetica Neue&quot;, sans-serif; font-size: 12px; font-weight: 200;" fill="rgb(50, 49, 63)" stroke="none" stroke-width="1px">0</text><text x="72.7109375" y="0" dx="0em" dy="0.95em" style="text-anchor: middle; visibility: inherit; font-family: &quot;Helvetica Neue&quot;, sans-serif; font-size: 12px; font-weight: 200;" fill="rgb(50, 49, 63)" stroke="none" stroke-width="1px">500</text><text x="109.06640625" y="0" dx="0em" dy="0.95em" style="text-anchor: middle; visibility: inherit; font-family: &quot;Helvetica Neue&quot;, sans-serif; font-size: 12px; font-weight: 200;" fill="rgb(50, 49, 63)" stroke="none" stroke-width="1px">1k</text><text x="145.421875" y="0" dx="0em" dy="0.95em" style="text-anchor: middle; visibility: inherit; font-family: &quot;Helvetica Neue&quot;, sans-serif; font-size: 12px; font-weight: 200;" fill="rgb(50, 49, 63)" stroke="none" stroke-width="1px">1.5k</text><text x="181.77734375" y="0" dx="0em" dy="0.95em" style="text-anchor: middle; visibility: inherit; font-family: &quot;Helvetica Neue&quot;, sans-serif; font-size: 12px; font-weight: 200;" fill="rgb(50, 49, 63)" stroke="none" stroke-width="1px">2k</text><text x="218.1328125" y="0" dx="0em" dy="0.95em" style="text-anchor: middle; visibility: inherit; font-family: &quot;Helvetica Neue&quot;, sans-serif; font-size: 12px; font-weight: 200;" fill="rgb(50, 49, 63)" stroke="none" stroke-width="1px">2.5k</text><text x="254.48828125" y="0" dx="0em" dy="0.95em" style="text-anchor: middle; visibility: inherit; font-family: &quot;Helvetica Neue&quot;, sans-serif; font-size: 12px; font-weight: 200;" fill="rgb(50, 49, 63)" stroke="none" stroke-width="1px">3k</text><text x="290.84375" y="0" dx="0em" dy="0.95em" style="text-anchor: middle; visibility: hidden; font-family: &quot;Helvetica Neue&quot;, sans-serif; font-size: 12px; font-weight: 200;" fill="rgb(50, 49, 63)" stroke="none" stroke-width="1px">3.5k</text></g><line x1="0" y1="0" x2="290.84375" y2="0" fill="rgb(0, 0, 0)" stroke="rgb(204, 204, 204)" stroke-width="1px"></line></g></g></g></g></svg>